<?xml version="1.0" encoding="utf-8"?>
<!-- Generator: Adobe Illustrator 22.0.1, SVG Export Plug-In . SVG Version: 6.00 Build 0)  -->
<svg version="1.1" id="Layer_1" xmlns="http://www.w3.org/2000/svg" xmlns:xlink="http://www.w3.org/1999/xlink" x="0px" y="0px"
	 viewBox="0 0 365.5151 306.4609" style="enable-background:new 0 0 365.5151 306.4609;" xml:space="preserve">
<style type="text/css">
	.st0{fill:#B3B3B3;}
	.st1{fill:#E6E6E6;}
	.st2{fill:#FD6051;}
	.st3{fill:#FB374C;}
	.st4{fill:#FFFFFF;}
</style>
<g>
	<ellipse class="st0" cx="190.9638" cy="304.956" rx="144.7143" ry="1.5049"/>
	<g>
		<polygon class="st1" points="244.7593,298.8506 268.2534,281.9365 268.7534,262.208 265.435,252.8056 228.3159,248.5771 
			201.5346,267.3711 209.3999,292.2265 221.7378,296.9726 		"/>
		<polygon class="st0" points="264.4956,304.9599 276.7104,284.7549 268.7534,262.208 268.2534,281.9365 244.7593,298.8506 
			221.7378,296.9726 209.3999,292.2265 213.2807,304.4892 		"/>
	</g>
	<g>
		<polygon class="st1" points="64.9087,303.7344 68.2368,301.3388 68.3076,298.5429 67.8369,297.2119 62.5791,296.6133 
			58.7846,299.2763 59.8999,302.7959 61.6474,303.4687 		"/>
		<polygon class="st0" points="67.7041,304.5996 69.435,301.7383 68.3076,298.5429 68.2368,301.3388 64.9087,303.7344 
			61.6474,303.4687 59.8999,302.7959 60.4497,304.5342 		"/>
	</g>
	<g>
		<polygon class="st1" points="152.6694,298.8506 164.5722,294.7988 170.9936,287.5752 156.4282,265.9609 123.1123,265.1533 
			103.8051,283.3457 111.7197,293.5215 121.6592,298.3808 		"/>
		<polygon class="st0" points="155.9585,304.4892 164.5722,294.7988 152.6694,298.8506 121.6592,298.3808 111.7197,293.5215 
			120.25,304.4892 		"/>
	</g>
	<g>
		<polygon class="st1" points="308.2104,300.4375 316.5835,298.1533 318.5464,292.9209 311.9682,280.2344 293.1733,282.583 
			281.4272,293.8603 283.9233,297.0508 293.1733,299.497 		"/>
		<polygon class="st0" points="314.3178,304.1963 316.5835,298.1533 308.2104,300.4375 293.1733,299.497 283.9233,297.0508 
			289.8843,304.666 		"/>
	</g>
	<g>
		<polygon class="st1" points="84.9297,301.8056 79.6147,300.3564 78.3691,297.0342 83.0141,290.3935 94.4707,290.4736 
			101.9258,297.6308 100.3413,299.6562 94.4707,301.208 		"/>
		<polygon class="st0" points="81.0537,304.1924 79.6147,300.3564 84.9297,301.8056 94.4707,301.208 100.3413,299.6562 
			96.5586,304.4892 		"/>
	</g>
	<g>
		<g>
			<polygon class="st1" points="187.8686,175.957 187.1635,304.9599 194.9155,304.9599 194.4721,176.3701 			"/>
			<polygon class="st0" points="194.4721,176.3701 189.021,176.0283 193.1928,178.4033 192.0171,302.5117 188.9643,303.4199 
				187.1801,301.4951 187.1635,304.9599 194.9155,304.9599 			"/>
		</g>
		<g>
			<polygon class="st1" points="143.3921,113.3628 144.0957,150.4809 170.8779,176.7939 216.2182,176.3242 238.5346,148.6015 
				238.0678,113.1279 209.6401,85.1714 170.1728,85.1714 			"/>
			<polygon class="st2" points="149.3818,115.582 149.998,148.0259 173.4077,171.0254 213.0385,170.6152 232.5444,146.3833 
				232.1362,115.3764 207.2866,90.9414 172.7905,90.9414 			"/>
			<polygon class="st0" points="170.8779,176.7939 216.2182,176.3242 238.5346,148.6015 238.0678,113.1279 231.7827,106.9487 
				236.4585,114.0527 235.9526,148.3525 214.8081,173.0185 170.8779,174.6631 146.0078,150.6689 143.8598,138.0156 
				144.0957,150.4809 			"/>
			<polygon class="st3" points="228.1772,111.4834 232.1362,115.3764 232.5444,146.3833 213.0385,170.6152 173.4077,171.0254 
				149.998,148.0259 149.8476,140.1274 151.3794,147.4121 173.9316,168.5547 210.8159,166.207 229.6089,146.0024 230.7846,116.1665 
							"/>
		</g>
		<g>
			<path class="st4" d="M205.6644,116.2815c-3.9268-3.9268-9.1478-6.0894-14.7011-6.0894c-5.5533,0-10.7743,2.1626-14.7011,6.0894
				c-3.9268,3.9268-6.0894,9.1478-6.0894,14.7011c0,5.5533,2.1626,10.7743,6.0894,14.7011
				c3.9268,3.9267,9.1478,6.0894,14.7011,6.0894c5.5533,0,10.7743-2.1626,14.7011-6.0894
				c3.9268-3.9268,6.0894-9.1478,6.0894-14.7011C211.7539,125.4293,209.5912,120.2084,205.6644,116.2815z M190.9633,149.659
				c-10.2982,0-18.6764-8.3781-18.6764-18.6763c0-10.2982,8.3782-18.6764,18.6764-18.6764c10.2982,0,18.6764,8.3782,18.6764,18.6764
				C209.6397,141.2809,201.2615,149.659,190.9633,149.659z"/>
			<circle class="st4" cx="183.6478" cy="125.2219" r="2.1473"/>
			<circle class="st4" cx="198.2789" cy="125.2219" r="2.1473"/>
			<path class="st4" d="M190.9633,132.4496c-5.432,0-10.07,3.5886-11.0282,8.5329c-0.1262,0.6513,0.2994,1.2816,0.9508,1.4079
				c0.6512,0.1264,1.2816-0.2995,1.4078-0.9507c0.7397-3.8171,4.3858-6.5875,8.6696-6.5875c4.2838,0,7.9299,2.7704,8.6697,6.5875
				c0.1262,0.6512,0.7562,1.0771,1.4079,0.9507c0.6512-0.1262,1.077-0.7565,0.9507-1.4079
				C201.0334,136.0382,196.3953,132.4496,190.9633,132.4496z"/>
		</g>
	</g>
	<g>
		<g>
			<g>
				<polygon class="st4" points="78.7842,74.709 95.562,62.6289 95.9184,48.5395 93.5488,41.8247 67.0395,38.8047 47.9121,52.227 
					53.5293,69.978 62.3413,73.3677 				"/>
				<polygon class="st4" points="92.8769,79.0713 101.6015,64.6426 95.9184,48.5395 95.562,62.6289 78.7842,74.709 62.3413,73.3677 
					53.5293,69.978 56.3012,78.7358 				"/>
			</g>
			<g>
				<polygon class="st4" points="54.9609,74.9634 63.4619,72.0698 68.0478,66.9101 57.646,51.4746 33.8515,50.8974 20.063,63.8901 
					25.7153,71.1572 32.8139,74.6279 				"/>
				<polygon class="st4" points="57.3095,78.9902 63.4619,72.0698 54.9609,74.9634 32.8139,74.6279 25.7153,71.1572 
					31.8076,78.9902 				"/>
			</g>
			<g>
				<polygon class="st4" points="107.3183,76.3511 113.2988,74.7197 114.7007,70.9819 110.0029,61.9219 96.581,63.6001 
					88.1919,71.6528 89.9741,73.9316 96.581,75.6797 				"/>
				<polygon class="st4" points="111.6806,79.0346 113.2988,74.7197 107.3183,76.3511 96.581,75.6797 89.9741,73.9316 
					94.2319,79.3716 				"/>
			</g>
		</g>
		<path class="st4" d="M134.7646,78.3222c0,0.8521-30.1689,1.543-67.3823,1.543C30.1679,79.8652,0,79.1743,0,78.3222
			c0-0.8515,30.1679-1.5424,67.3823-1.5424C104.5957,76.7798,134.7646,77.4707,134.7646,78.3222z"/>
	</g>
	<g>
		<g>
			<g>
				<polygon class="st4" points="194.643,35.4214 187.7173,33.5337 186.0932,29.2055 192.1469,20.5508 207.0776,20.6567 
					216.7905,29.9829 214.726,32.6201 207.0776,34.6455 				"/>
				<polygon class="st4" points="189.5923,38.5307 187.7173,33.5337 194.643,35.4214 207.0776,34.6455 214.726,32.6201 
					209.7944,38.9179 				"/>
			</g>
			<g>
				<polygon class="st4" points="235.0522,35.9043 251.8296,23.8242 252.187,9.7344 249.8159,3.019 223.3061,0 204.1782,13.4223 
					209.7964,31.1738 218.6089,34.563 				"/>
				<polygon class="st4" points="249.144,40.2671 257.8706,25.8379 252.187,9.7344 251.8296,23.8242 235.0522,35.9043 
					218.6089,34.563 209.7964,31.1738 212.5678,39.9316 				"/>
			</g>
			<g>
				<polygon class="st4" points="263.5854,37.5464 269.5659,35.915 270.9682,32.1772 266.271,23.1177 252.8491,24.7954 
					244.4585,32.8486 246.2417,35.126 252.8491,36.8755 				"/>
				<polygon class="st4" points="267.9487,40.23 269.5659,35.915 263.5854,37.5464 252.8491,36.8755 246.2417,35.126 
					250.4995,40.5659 				"/>
			</g>
		</g>
		<path class="st4" d="M295.9135,39.518c0,0.8516-30.1699,1.5425-67.3828,1.5425s-67.3828-0.6909-67.3828-1.5425
			c0-0.852,30.1699-1.5429,67.3828-1.5429S295.9135,38.666,295.9135,39.518z"/>
	</g>
	<g>
		<g>
			<g>
				<polygon class="st4" points="345.3764,85.3501 349.5405,84.2158 350.5171,81.6142 346.8784,76.4106 337.9018,76.4746 
					332.062,82.081 333.3022,83.667 337.9018,84.8838 				"/>
				<polygon class="st4" points="348.4135,87.2197 349.5405,84.2158 345.3764,85.3501 337.9018,84.8838 333.3022,83.667 
					336.2671,87.4526 				"/>
			</g>
			<g>
				<polygon class="st4" points="321.0835,85.6416 310.9956,78.3789 310.7827,69.9077 312.2065,65.8711 328.144,64.0547 
					339.644,72.125 336.2671,82.7964 330.9682,84.8349 				"/>
				<polygon class="st4" points="312.6108,88.2632 307.3647,79.5888 310.7827,69.9077 310.9956,78.3789 321.0835,85.6416 
					330.9682,84.8349 336.2671,82.7964 334.5991,88.062 				"/>
			</g>
			<g>
				<polygon class="st4" points="303.9272,86.6274 300.3335,85.6479 299.4878,83.4004 302.3139,77.9531 310.3843,78.9624 
					315.4253,83.8042 314.355,85.1738 310.3843,86.2251 				"/>
				<polygon class="st4" points="301.3061,88.2417 300.3335,85.6479 303.9272,86.6274 310.3843,86.2251 314.355,85.1738 
					311.7944,88.4443 				"/>
			</g>
		</g>
		<path class="st4" d="M284.4917,87.8139c0,0.5122,18.1386,0.9268,40.5117,0.9268c22.373,0,40.5117-0.4146,40.5117-0.9268
			c0-0.5131-18.1387-0.9277-40.5117-0.9277C302.6303,86.8862,284.4917,87.3008,284.4917,87.8139z"/>
	</g>
</g>
</svg>
