<?xml version="1.0" encoding="utf-8"?>
<!-- Generator: Adobe Illustrator 19.0.0, SVG Export Plug-In . SVG Version: 6.00 Build 0)  -->
<svg version="1.1" id="Layer_40" xmlns="http://www.w3.org/2000/svg" xmlns:xlink="http://www.w3.org/1999/xlink" x="0px" y="0px"
	 viewBox="6 15.9 607.2 810" style="enable-background:new 6 15.9 607.2 810;" xml:space="preserve">
<style type="text/css">
	.st0{fill:#E2E3E3;}
	.st1{fill:#777882;}
	.st2{fill:#C3E1ED;}
</style>
<g id="Layer_8">
	<path id="XMLID_41_" d="M320.1,355c-0.1-0.4-0.7-0.3-0.7,0.1c0,1.3-0.1,2.5-0.1,3.8c0-0.2,0-0.5,0-0.7c-0.2-2.7-1.1-5.5-1.1-8.2
		c0-0.5-0.7-0.5-0.8,0c-0.3,2.5,0.3,5.2,0.3,7.7c0,2.7-0.3,5.3-0.5,8c-0.1,0.9,1.4,1.1,1.6,0.2c0.1-0.4,0.1-0.8,0.2-1.2
		c-0.1,1.7-0.2,3.5-0.4,5.3c-0.2,1.5,2.4,1.6,2.4,0C321.1,365,320.9,360,320.1,355z"/>
	<path id="XMLID_107_" d="M243,417.2c0.1-0.2,0.2-0.3,0.2-0.5c-0.1-1.6-0.4-3.3-1.1-4.9c0.7,0,1.4-0.9,1-1.6c0,0,0,0,0,0
		c-0.8-1.6-1.9-3.1-3.1-4.5c0-0.2-0.2-0.4-0.4-0.6c-0.2-0.2-0.4-0.3-0.5-0.5c0-0.1,0-0.1,0-0.2c0.3-0.7,0.1-1.8-0.8-1.9
		c-0.3,0-0.7-0.1-1-0.2c-0.1-0.1-0.2-0.2-0.3-0.2c0.4-0.4,0.6-1.2,0.1-1.8c-2.1-2.7-4.4-5.1-7-7.3c-0.7-0.6-1.7-0.2-2,0.4
		c-0.4-0.4-0.7-0.7-1.1-1.1c-0.2-0.2-0.5-0.2-0.7,0c-3.1-2.6-6.5-4.9-9.7-7c-7-4.7-14.9-7.8-23.2-9.1c-0.4-0.1-0.8,0.1-1.1,0.3
		c-5.4-0.8-11-0.5-15.8,2c-6,3.1-10.9,10.3-12,16.9c-0.6,3.8,0.6,8,1.9,11.6c1.3,3.8,3.2,7.5,5.5,10.9c4.8,6.9,11.3,12.9,17.6,18.4
		c6.9,6,14.4,11.1,23.4,13.5c0.7,0.2,1.4-0.3,1.7-1c2,1.9,4.6,3.2,7.3,3.7c1,0.2,2-0.8,1.6-1.8c0.9,0,1.7-1,0.9-1.9
		c-4.2-4.9-6.4-11-6.6-17.5c0-0.4-0.6-0.4-0.6,0c0,0.1,0,0.2,0,0.3c-0.2-2.7-0.2-5.5,0.1-8.2c0.5-4.8,1.9-9.6,4.7-13.6
		c2.3-3.4,6.4-6.6,10.7-7.4c0,0.2,0,0.4,0.3,0.4c0.1,0,0.2,0.1,0.2,0.1c0.1,0.3,0.3,0.5,0.6,0.7c0.1,0.1,0.3,0.1,0.4,0.2
		c0,0,0,0,0,0c0.5,0.7,1.1,1.2,1.8,1.7c2.8,3.3,4.3,6.8,5.1,11.3c0.1,0.6,0.5,0.8,1,0.8c0.1,0.3,0.2,0.7,0.3,1
		c0.2,0.6,1.1,0.4,1-0.3C243.1,418.1,243.1,417.6,243,417.2z M225.7,395c0.3,0.2,0.6,0.5,0.9,0.7c0,0,0.1,0.1,0.1,0.1
		c-1-0.1-2-0.1-3.1,0.1c-0.2-0.3-0.4-0.5-0.7-0.7C223.8,394.9,224.8,394.8,225.7,395z M178.4,422.2c-5.2-5.8-9.1-12.5-10.9-20.1
		c-1-4.2-0.5-7.6,1.4-11.5c1.5-2.9,3.4-5.7,5.9-7.8c5.1-4.3,11.4-4.5,17.6-4c0.1,0,0.1,0,0.2,0.1c3.8,0.9,7.6,1.4,11.2,2.6
		c4,1.4,7.6,3.4,11.1,5.7c2.9,1.9,5.8,4,8.5,6.1c-2.3,0.5-4.6,1.8-6.4,3.1c-0.1,0.1-0.2,0.3-0.2,0.4c-7.7,4.4-11.3,15.1-12.7,23.2
		c-0.9,5.6,0,11.5,1.2,17c0.6,3.1,1.6,6.2,3.3,8.8C196.8,441.3,186.8,431.4,178.4,422.2z M232.9,401.3c-4.4,0.2-8.2,1.6-11.4,5
		c-3.8,3.9-5.8,9.2-6.7,14.4c-1.7,9.7-0.1,19.7,4.4,28.3c-2.2-1.1-4-2.8-5.4-5.2c-0.9-1.4-2.9-0.2-2.2,1.3c-1.8-2.5-2.8-5.4-3.5-8.5
		c-1.1-5-2.1-10.6-1.3-15.7c0.3-1.8,0.7-3.6,1.2-5.4c0.3-0.1,0.5-0.4,0.6-0.8c1.1-4.9,3.3-9.5,7.3-12.7c1.9-1.6,4.3-2.7,6.7-3.4
		c2-0.6,4.3-0.4,6.3-1c1.4,1.2,2.7,2.3,4.1,3.5C233,401.2,233,401.3,232.9,401.3z"/>
	<path id="XMLID_92_" d="M245.1,431.8c-0.1-0.4-0.5-0.6-0.9-0.6c0-0.1,0-0.2-0.1-0.3c-0.1-0.5-0.9-0.4-0.9,0.1
		c0,0.3,0.1,0.6,0.1,0.9c-0.1,0.2-0.2,0.5-0.2,0.8c0,0.2,0.1,0.4,0.2,0.6c0,0,0,0.1,0,0.1c0,0.7,0.8,0.8,1.2,0.3
		c0.1-0.1,0.1-0.2,0.1-0.2c0.2-0.1,0.3-0.3,0.4-0.5c0-0.1,0.1-0.3,0.1-0.4C245.3,432.3,245.3,432,245.1,431.8z"/>
	<path id="XMLID_95_" d="M231.3,451.5c-0.2-0.4-0.7-0.7-1.2-0.3c-0.2,0.2-0.5,0.4-0.8,0.5c-0.2-0.3-0.4-0.5-0.8-0.5
		c-0.2,0-0.5,0-0.7,0c-0.1-0.1-0.2-0.2-0.3-0.2c-0.5-0.4-1.2-0.5-1.7,0.1c0,0-0.1,0.1-0.1,0.1c-0.7,0.2-1.3,0.5-2,0.9
		c-0.6,0.4-0.6,1.3,0,1.6c0.7,0.4,1.4,0.4,2.1,0.2c0.2,0,0.4,0.1,0.7,0.1c0.5,0.5,1.2,0.4,1.8,0.1c1-0.5,2.2-1,3-1.7
		C231.6,452.2,231.5,451.8,231.3,451.5z"/>
	<path id="XMLID_30_" d="M238.4,418.9c-0.6-1.8-1.3-3.5-1.9-5.3c-0.2-0.8-1.5-0.5-1.2,0.3c0.5,1.8,1.1,3.7,1.8,5.5
		C237.5,420.2,238.7,419.7,238.4,418.9z"/>
	<path id="XMLID_86_" d="M263,195.4c-2.5-1.8-6.5,1.4-8.7,2.5c-16.5,8.2-33,16.6-49.4,25c-8.2,4.2-16.3,8.5-24.4,12.8
		c0,0-0.1,0-0.1,0c-0.4,0.2-0.8,0.4-1.2,0.6c-0.8,0.4-1.5,0.8-2.3,1.2c-0.4,0.2-0.5,0.6-0.5,1c-0.2,0.4,0.2,1,0.6,0.7
		c0.3,0.1,0.6,0.1,0.9,0c17.7-9.4,35.8-18.4,53.7-27.5c8.8-4.5,17.7-8.9,26.5-13.3c0.6-0.3,1.2-0.6,1.8-0.9c1.3,0.1,1.5,0.5,0.4,1
		c-0.5,0.9-2.1,1.7-2.9,2.4c-1.7,1.4-3.4,2.7-5.1,4.1c-4.1,3.2-8.3,6.4-12.5,9.4c-0.6,0.4-0.6,1-0.4,1.5
		c-6.3,4.4-12.9,8.5-19.5,12.6c-0.7,0.4-0.5,1.2-0.1,1.6c-8.3,5.4-16.7,10.7-24.2,17.1c0,0,0,0-0.1,0.1c-2.6,1.6-5.1,3.3-7.5,5.2
		c0,0,0-0.1,0-0.1c-0.3-0.9-1.2-0.9-1.7-0.4c-2.9-4.6-6.3-8.9-9.9-12.9c-4.4-4.8-9.2-9.7-15.6-11.8c-6.7-2.2-14-3-20.8-1
		c-0.5,0.2-1,0.8-0.8,1.4c2.1,5.3,3.9,10.7,5.5,16.2c1.4,4.9,2.5,9.9,3.8,14.8c-0.7,0.2-1.3,0.6-1.6,1.4c-0.1,0.3-0.1,0.6,0.1,0.9
		c-0.2-0.1-0.5-0.1-0.8,0.1c-6.6,3.5-12.9,7.4-19.2,11.4c-5,3.2-10.3,6.3-15.1,9.8c-7.3,4.4-14.6,9.1-21.5,14.1
		c-3.3,1.9-6.6,3.9-9.8,6c-4.3,2.8-8.9,5.5-12.9,8.7c-3.2,1.7-6.3,3.5-9.2,5.5c-3.7,2.5-7.7,5.2-10.2,8.9c-0.4,0.5-0.1,1.3,0.4,1.6
		c1.9,1.1,3.8,0.6,5.7-0.2c3.1-1.3,6.2-2.8,9.3-4.1c6.2-2.8,12.5-5.6,18.7-8.4c12.6-5.6,25.3-11.1,37.9-16.9c0.5-0.2,0.7-0.6,0.6-1
		c8.4-4.1,16.8-8.3,25.1-12.7c6.7-3.6,13.6-7.1,19.9-11.3c0.9-0.6,2.6-1.5,3.8-2.6c0.3,0.2,0.7,0.4,1.1,0.6c0.8,0.3,1.4-0.4,1.5-1.2
		c0.2,0.3,0.4,0.6,0.6,0.9c-0.2,0.1-0.3,0.3-0.5,0.5c-0.3,0.6-0.3,1.3-0.2,1.9c0.1,0.5,0.3,1,0.6,1.4c-0.8,0.4-1.8,0.7-2.2,1
		c-0.8,0.4-1.7,0.9-2.5,1.3c-3.4,1.8-8,3.4-10.5,6.4c-0.1,0.1,0,0.3,0.1,0.3c0.1,0,0.2,0,0.3,0c0.4,6.2,2.3,12.5,4,18.4
		c1.8,6.3,3.9,12.6,6,18.8c4.3,12.5,8.7,24.9,13.3,37.2c0,0.1,0.1,0.1,0.1,0.2c-0.1,0.5-0.2,1-0.2,1.5c0,0,0,0,0,0c0,0,0,0,0,0.1
		c0,0,0,0.1,0,0.1h0c0,0.3,0.3,0.6,0.6,0.6c-0.2,2.3-0.1,4.6,0.3,6.8c-0.3-0.3-1-0.2-1,0.3c0.1,1.4,0.4,2.7,0.7,4
		c-0.3,0.3-0.5,0.7-0.2,1.2c0.5,0.7,0.9,1.3,1.4,2c0.9,1.2,2.6-0.1,1.6-1.3c-0.4-0.5-0.8-1-1.3-1.5c-0.5-1.1-0.8-2.4-1-3.6
		c0.8,2.8,2.3,5.3,5,7c0.1,0.1,0.2,0.1,0.3,0.2c0.5,0.6,1.1,1,1.9,1.1c0.2,0,0.4,0,0.6-0.1c0.2,0,0.4,0.1,0.6,0.1c1,0,1-1.5,0-1.5
		c-0.1,0-0.2,0-0.3,0c0-0.4-0.1-0.9-0.6-1.2c-2.8-2.1-4.8-4.3-5.8-7.8c-0.6-2.3-0.8-4.8-0.8-7.3c0.6-0.2,1.1-0.8,0.8-1.6
		c-0.2-0.4-0.3-0.9-0.5-1.3c0-0.1-0.1-0.2-0.1-0.3c-4.2-11.9-8.7-23.6-12.8-35.5c-2.1-6.1-4.1-12.2-6.1-18.3
		c-1.9-6.1-3.5-12.4-6-18.3c2.2-0.4,4.4-1.6,6.4-2.6c3-1.4,6-2.8,9-4.2c1.7-0.8,2.8-1.6,2.5-3.7c-0.1-0.4-0.2-0.8-0.3-1.2
		c0-0.1,0-0.3,0-0.4c0-0.5-0.3-0.8-0.6-1c-0.6-1.1-1.3-2.2-2.1-3.1c-3.1-3.8-7.8-6.2-12.5-7.2c-3-0.6-6-0.8-9-0.8
		c-0.6,0-1.4-0.1-2.1,0c-0.9-10.3-4.3-20.8-8-30.4c6.2-1.5,12.9-0.6,18.8,1.5c6.2,2.2,10.9,7.5,15.1,12.5c3.5,4.2,6.7,8.6,9.5,13.2
		c0,0.4,0.3,0.8,0.6,1c0,0,0,0.1,0.1,0.1c0,0.3,0.2,0.6,0.4,0.8c3.1,5.3,5.7,10.8,7.8,16.5c0.6,1.6,3.2,0.9,2.6-0.7
		c-1.9-5.4-4.3-10.6-7.1-15.6c0-0.1-0.1-0.3-0.1-0.4c0-0.1,0-0.2,0-0.4c0-0.1-0.1-0.3-0.2-0.4c0.1-0.2,0.2-0.4,0.2-0.6
		c1.8-1.4,3.6-3,5.1-4.6c0.1-0.1,0.3-0.2,0.4-0.3c2.7-1.9,5.3-3.8,8-5.7c5.3-3.8,10.6-7.7,15.9-11.6c0.1-0.1,0.2-0.2,0.3-0.4
		c4.7-3.3,9.3-6.7,13.8-10.3c4.8-3.2,9.5-6.6,13.8-10.3c5-3.7,9.8-7.6,14.6-11.6C262.8,199.7,265.6,197.2,263,195.4z M149.5,261.6
		c0,0,0.1-0.1,0.1-0.1c0,0,0-0.1,0.1-0.1c0.4,0.4,1.7,0.1,2.4,0.1c0,0,0,0,0,0c-0.3,0.1-0.2,0.5,0.1,0.5c0.1,0,0.2,0,0.3,0
		c0.1,0.1,0.2,0.2,0.4,0.2c1.8,0.2,3.6,0.5,5.4,0.9c3.5,1.4,6.7,3.9,9.8,5.8c-0.6,0.4-1.4,0.8-1.6,0.9c-0.5,0.3-1.1,0.7-1.6,1
		c-2.8,1.7-5.7,3.3-8.6,4.9c-5.8,3.1-11.6,6.1-17.5,9.1c-11.7,6-23.6,11.5-35.5,17.2c-0.3,0.1-0.5,0.4-0.6,0.6
		c-6,2.7-11.9,5.4-17.9,8.1c-5.6,2.5-11.3,5-16.9,7.5c-2.7,1.2-5.5,2.4-8.2,3.7c-1.5,0.7-3,1.4-4.6,2c-1.1,0.5-2.5,1.4-3.8,1.4
		c2.6-3.2,6.5-5.6,9.8-8c1.6-1.2,3.3-2.4,5-3.5c0.3,0.4,0.9,0.5,1.3,0.2c5.1-3.1,9.7-6.9,14.6-10.3c1-0.7,2-1.4,3-2.1
		c0.3,0.5,1,0.7,1.5,0.4c5.5-3.7,10.7-7.8,16.2-11.6c2.1-1.5,4.2-3,6.4-4.4c0.3,0.2,0.8,0.3,1.2,0.1c4.6-2.7,8.9-5.8,13.4-8.9
		c0.1,0.1,0.2,0.2,0.4,0.2c1.6,0.3,3-1.3,4.3-2.1l6.9-4.6c2.9-1.9,5.8-3.9,8.6-6c1.1-0.7,2.3-1.3,3.4-2c0.4-0.2,0.5-0.6,0.5-1
		c0,0,0,0,0.1,0c0,0,0,0,0.1,0C148.3,262.1,149.1,262.1,149.5,261.6z"/>
	<path id="XMLID_37_" d="M248.2,341.4c-10.4-7-20.2-14-27.5-24.4c-7.1-10-12.9-20.8-18.3-31.8c-0.1-0.2-0.5-0.1-0.4,0.2
		c3.9,12.1,10,23.6,17.4,34c7.3,10.2,17,17.5,27.4,24.4C248.3,344.7,249.6,342.4,248.2,341.4z"/>
	<path id="XMLID_115_" d="M527.9,464.4c-0.5-0.8-1-1.6-1.6-2.3c0,0,0,0,0,0c0,0,0,0,0,0c-0.1-0.1-0.1-0.1-0.2-0.2
		c0,0-0.1-0.1-0.1-0.1c-0.1-0.1-0.2-0.2-0.2-0.3c0,0,0,0,0,0c0,0,0,0,0,0c0,0-0.1-0.1-0.1-0.1c-0.1-0.1-0.2-0.2-0.4-0.2
		c-0.3-0.3-0.8-0.2-1.1,0.1c-0.2-0.2-0.3-0.3-0.5-0.5c-0.2-0.2-0.4-0.2-0.5-0.1c-2.3-3-5-5.9-7.7-8.4c-1-0.9-2-1.8-3-2.6
		c0-0.4-0.2-0.8-0.6-1c-1.2-0.8-2.3-1.5-3.5-2.3c-2-1.5-4.2-2.9-6.3-4.2c-0.4-0.3-0.8-0.5-1.2-0.8c-3-2.4-6.5-4.3-9.7-6.1
		c-0.1,0-0.1-0.1-0.2-0.1c-0.5-0.3-0.9-0.6-1.4-0.9c-0.8-0.5-1.7-0.9-2.5-1.4c-5.8-3.8-11.8-7-18.2-9.7c-0.9-0.4-1.7-0.7-2.6-1
		c-1.8-0.8-3.5-1.6-5.3-2.4c0-0.5-0.2-1-0.7-1.2c-15.7-7.4-32.3-13.3-48.8-18.7c-16.2-5.4-32.6-9.7-49.2-13.9c0.2-0.6,0-1.4-0.8-1.6
		c-5.8-1.3-11.6-2.7-17.3-4.2c0.3-0.5,0.1-1.2-0.6-1.6c-3-1.3-6.3-2-9.4-2.9c-3.3-1-6.6-1.9-9.9-2.9c-2.8-0.8-5.6-1.6-8.4-2.5
		c0.2-0.4,0.2-0.9,0-1.3l0.3,0.1c1.4,0.6,2.1-1.8,0.6-2.3c-6.1-2.3-12.3-4.5-18.4-6.8c1-2.7,2.3-5.3,3.9-7.7
		c2.1-2.3,4.8-4.1,7.7-5.6c1.4-0.1,2.9,0.1,3.9,0.8c0.6,0.5,1.3,0,1.5-0.6c1.8-0.1,1.7-3-0.1-3c-0.1,0-0.2,0-0.3,0
		c-0.1-0.2-0.2-0.4-0.4-0.5c-1.7-0.9-3.4-1.7-5.1-2.6c-0.1-0.2-0.3-0.3-0.5-0.4c-2.3-1.2-4.6-2.4-7-3.6c-7.8-4.2-16-7.9-24.6-9.1
		c-7.8-1.1-22.6,0.1-25.7,9c-0.2,0.4-0.4,0.7-0.5,1.1c-0.2-0.1-0.4-0.1-0.6,0.1c-0.1,0.1-0.2,0.2-0.4,0.3c-0.6-0.4-1.4-0.2-1.7,0.6
		c-0.1,0.2-0.1,0.4-0.1,0.7c0,0,0,0,0,0c-0.5,1,0.6,1.9,1.4,1.4c0.4,0,0.8-0.2,1.1-0.4c0,0.1,0,0.1,0,0.2c0,0,0,0,0,0.1
		c0,0.1,0,0.1,0,0.2c0,0.4,0.5,0.4,0.6,0.1c1.1-3.5,3.2-6,5.9-7.7c1.6-0.9,3.3-1.6,4.7-2c5.3-1.6,11-1.1,16.4,0
		c7.8,1.6,14.8,4.8,21.9,8.1c-0.2,0-0.5,0.1-0.7,0.3c-4.4,4.4-7.8,9.6-10,15.4c-0.3,0.8,0.2,1.3,0.8,1.4c-0.1,0.3-0.1,0.6-0.2,0.8
		c-0.1,0.5,0.1,1,0.4,1.2c0,0.4,0.2,0.7,0.6,0.9c1.2,0.5,2.4,0.9,3.6,1.4c0.1,0.3,0.1,0.6,0.2,1c-11.6-4.4-22.9-9.6-34-15.2
		c5.4,2.4,10.9,4.8,16.5,6.8c1,0.3,1.7-1.3,0.7-1.7c-6.2-2.7-12.7-5-19.2-7.2c-0.4-0.2-0.8,0.4-0.7,0.7c0,0,0,0,0,0
		c-0.8-0.4-1.5,0.8-0.7,1.2c14.8,8.6,30.6,15.6,46.9,21.1c-0.1,0.1-0.1,0.3,0,0.3c0.9,0.4,1.8,0.8,2.7,1.2c-0.1,0.2-0.1,0.5,0.2,0.6
		c11.2,4.9,22.8,8.9,34.5,12.3c12.6,4.6,26,7.3,38.9,10.9c9.5,2.7,18.9,5.6,28.2,8.7c0.1,0.4,0.3,0.8,0.8,1
		c10.9,4.1,21.9,7.8,32.6,12.2c0.1,0.2,0.3,0.4,0.5,0.5c1.5,0.7,2.9,1.3,4.5,1.8c10.2,4,20.2,8.4,29.8,13.6c2.3,1.5,4.7,3,7.2,4.3
		c0.3,0.1,0.5,0.2,0.7,0.2c1.5,0.9,3,1.8,4.4,2.7c0.4,0.2,0.7,0.3,1,0.2c0.9,0.6,1.7,1.1,2.6,1.7c2.3,1.6,4.7,3.3,7.1,4.7
		c2.4,1.6,4.8,3.2,7.3,4.8c2.4,2.2,4.7,4.5,7.2,6.5c0.3,0.3,0.6,0.3,0.9,0.3c0.6,0.7,1.2,1.4,1.8,2.1c1.5,2,3,4.1,4.5,6.2
		c-0.2,1-0.5,2.1-0.9,3.1c0,0,0,0,0,0c-0.2-0.2-0.5-0.3-0.7-0.1c-5.4,4.7-12.4,6.4-19.4,6.8c-2.2,0.1-4.4,0-6.6-0.3
		c-1.8-0.2-3.9-0.9-5.3,0c-0.9-0.5-1.8-0.9-2.8-1.4c-1.2-0.6-2.3,0.4-2.1,1.7c0.4,2.6,1.2,4.9,2.7,7c1.1,1.5,3.5,0.1,2.5-1.5
		c-0.7-1.1-1.2-2.1-1.6-3.2c0.3,0.1,0.6,0.3,0.9,0.4c0.9,0.5,1.8,0,2.1-0.9c-0.2,0.5,7.9,1.1,8.5,1.1c2.5,0,5-0.2,7.4-0.6
		c0.2,0.4,0.7,0.8,1.3,0.6c3.9-0.8,8-2.8,11.2-5.7c1.7-0.3,2.7-1.8,3.3-3.5c0.4-0.5,0.7-1,1-1.5c0,0,0,0,0,0
		c0.2,0.2,0.4,0.4,0.6,0.5c0.4,0.6,0.9,1.3,1.3,1.9c0.9,1.4,3,0.2,2.2-1.3c-0.3-0.5-0.5-0.9-0.8-1.4
		C527.5,466.1,528.4,465.2,527.9,464.4z M302.2,340.3c-0.3,0.2-0.6,0.3-0.9,0.5c0.1-0.4,0-0.7-0.2-1
		C301.5,340,301.9,340.1,302.2,340.3z M294.3,358.7c-0.6-0.2-1.2-0.5-1.8-0.7c0,0,0,0,0,0c0.4-3,1.4-5.9,2.9-8.5
		C294.5,352.4,294,355.5,294.3,358.7z M300.3,343.2c1-0.9,2-1.7,3.1-2.4c1.4,0.8,2.9,1.6,4.3,2.5c-0.2,0.1-0.5,0.2-0.7,0.3
		c-1.4,0.6-2.5,1.6-3.5,2.8c-3.1,2.9-5.1,6.6-6.8,10.6C296.7,352.2,298.4,347.6,300.3,343.2z M297.1,362.6c0.1-0.1,0.1-0.2,0.2-0.3
		c0-0.1,0.1-0.3,0.1-0.4c5.2,2,10.4,4.1,15.5,6.1C307.6,366.4,302.3,364.6,297.1,362.6z"/>
	<path id="XMLID_43_" d="M503.8,498.8c-4-2.4-7.2-5.7-9.3-9.8c-0.3-0.5-1-0.1-0.7,0.4c2.1,4.3,5.4,7.8,9.5,10.2
		C503.8,500,504.3,499.2,503.8,498.8z"/>
	<path id="XMLID_101_" d="M562.1,521.1c-2.2-12.2-14.1-20.5-20.2-30.9c0-0.3-0.1-0.6-0.4-0.9c-0.1-0.2-0.2-0.3-0.3-0.5
		c-0.1-0.3-0.2-0.6-0.3-0.8c-0.1-0.3-0.3-0.4-0.6-0.5c-0.2-0.3-0.4-0.7-0.6-1c-0.3-0.6-1-0.7-1.6-0.5c-1.5-2.7-3-5.4-4.3-8.1
		c-0.2-0.3-0.7-0.1-0.6,0.2c1.1,3,2.4,5.9,3.7,8.7c-0.4,0.1-0.7,0.3-0.8,0.8c0,0.1,0,0.2,0,0.3l0,0c0,0,0,0,0,0
		c-0.1,0.6,0,1.1,0.1,1.7c0,0.1,0.1,0.2,0.1,0.3c0,0.3,0.1,0.5,0.1,0.8c0.1,0.4,0.4,0.7,0.8,0.8c-1.1,1-2.3,1.8-3.6,2.6
		c-0.3-0.2-0.6-0.2-1,0c-3.7,2.7-7.7,4.8-12.1,6.4c-0.3,0.1-0.5,0.2-0.6,0.4c-0.8,0.2-1.6,0.3-2.5,0.4c-0.2-0.9-1.5-1.5-2.2-0.7
		c-0.2,0.2-0.3,0.5-0.4,0.7c-0.9-0.1-1.8-0.4-2.6-0.8c-0.4-0.2-0.8,0.4-0.4,0.6c0.9,0.6,1.8,1,2.8,1.2c0.1,1.4,2,2.1,3.7,1.8
		c4.3-0.9,8.6-2.3,12.5-4.3c0.9-0.4,0.7-1.6,0.1-2.1c0.6-0.4,1.1-0.8,1.7-1.1c0.2,0,0.4,0,0.6-0.1c2.3-1.5,4.2-3.2,6-5.2
		c0.6,1,1.1,2.1,1.7,3.1c0.3,0.5,0.9,0.6,1.3,0.4c6.9,10.1,18.3,18.8,17.3,31.9c-0.1,1.2,1.3,1.6,2.1,1.1c0.1,0.9,0.2,1.7,0.2,2.6
		c0,6.3-2.6,12-7.2,16.2c-0.5,0.5-0.6,1.1-0.3,1.6c-0.2,0.1-0.4,0.2-0.6,0.3c-9.2,4.7-19.8,4.9-30,5.2c-4.2-0.2-8.3-0.5-12.5-1
		c-1.2-0.1-1.5,2-0.3,2.2c3.3,0.6,6.7,0.9,10.1,1.1c0.2,0.2,0.5,0.3,0.9,0.3c3.4,0,6.7-0.1,10.1-0.4c4.5-0.3,9.1-0.8,13.5-1.6
		c0.3-0.1,0.5-0.4,0.4-0.7c0.3,0.4,0.7,0.7,1.2,0.5c3.8-1.5,7.6-3.4,10.4-6.2c4.4-4.2,6.9-10.3,6.9-16.4
		C564.7,527.6,563.6,524.3,562.1,521.1z"/>
	<path id="XMLID_78_" d="M533.8,542.1c-5.2,0.4-10.5,0-15.6-1.1c-5-1-9.5-3.1-14.2-5c-1.3-0.5-2.1,1.6-1,2.3
		c8.9,5.3,20.8,6.4,30.8,5.1C534.6,543.3,534.7,542,533.8,542.1z"/>
	<path id="XMLID_67_" d="M377.3,510.1c-2.3-5.1-5.8-9.7-8.9-14.4c-0.9-1.4-1.9-3.7-3.7-4.2c-0.4-0.1-0.8-0.1-1.2-0.1
		c0.1,0.1,0.2,0.2,0.3,0.3c0.5,0.6,0.9,1.2,1.4,1.8c0.3,0.4,0.6,0.7,1,1c0.3,0.3,0.5,0.6,0.5,0.9c0.3,0.4,0.6,0.8,0.9,1.1
		c0.5,0.7,0.4,1.5,0,2.1c0.4,0.5,0.7,0.9,0.9,1.3c0.4,0.6,0.7,1.1,0.9,1.9c2.1,3,4.2,6.1,6.8,8.8
		C376.9,511.5,377.6,510.7,377.3,510.1z"/>
	<path id="XMLID_91_" d="M362.2,489.4c-4.5-6-11.9-10.1-18.2-13.9c-6.6-3.9-13.5-7.4-20.6-10.3c-13.6-5.7-27.8-9.6-42.4-11.9
		c-0.4-0.7-1.4-1.1-2.1-0.4c0,0-0.1,0.1-0.1,0.1c-0.7-0.1-1.3-0.2-2-0.3c-1.1-0.2-2.4,1.2-1.3,2.2l0.5,0.5
		c-15.4,12.9-31.7,24.7-48.1,36.2c-17.1,11.9-34.5,23.3-52.3,34.1c-8.7,5.2-17.4,10.3-26.1,15.4c-26,12.3-51.7,25.3-76.9,39
		c-3.8,2.1-7.6,4.1-11.5,6.2c-3,1.6-6.5,3.2-8.8,5.9c-4.3,4.9-1.8,10.8,4,12.7c7.7,2.5,16.2-0.7,23.5-2.9c8.6-2.6,17.1-5.1,25.7-7.6
		c18.3-5.4,36.7-10.8,54.8-16.9c14-4.1,28.1-8,42.2-11.8c0.8-0.2,1-0.9,0.9-1.5c4.2-1.3,8.4-2.6,12.6-3.8c0.3,0.3,0.7,0.5,1.3,0.4
		c19.4-6.2,38.7-12.3,58.1-18.5c0.4-0.1,0.7-0.4,0.8-0.7c4.1-1.1,8.3-2.2,12.4-3.4c0.2,0.2,0.5,0.3,0.9,0.2c2.9-1,5.9-2,8.8-3
		c1.8-0.6,3.6-1.1,5.4-1.7c17.6-5.4,35.7-9.4,53.3-15c1.3-0.4,0.8-2.5-0.6-2.1c-11.6,2.9-23.1,6.5-34.6,9.7
		c-0.2,0.1-0.4,0.1-0.7,0.2c-0.2-0.2-0.5-0.4-0.8-0.3c-1.1,0.3-2.1,0.7-3.2,1c-0.2-0.5-0.7-0.9-1.4-0.6
		c-22.9,8.8-47.6,11.8-70.5,20.8c-0.2,0.1-0.3,0.2-0.4,0.3c-9.4,2.7-18.7,5.4-28,8.4c-1.1,0.4-1.1,1.7-0.5,2.3
		c-0.3,0.1-0.6,0.3-0.7,0.6c-5.5,1.4-11.1,2.9-16.6,4.4c-10.1,2.8-20.2,5.6-30.3,8.5c-0.6,0.2-0.9,0.6-0.9,1.1
		c-12.6,3.6-25.2,7.3-37.8,11.1c-0.7,0.2-1,0.8-0.9,1.4c-4.7,1.3-9.3,2.7-14,4c-8,2.3-15.9,4.6-23.8,7c-7.8,2.3-15.6,5.2-23.5,6.8
		c-3.9,0.8-8.5,1.2-12.2-0.6c-5.1-2.3-3.7-7.5,0.2-10.3c2.6-1.9,5.6-3.3,8.4-4.8c3.6-2.1,7.3-4.1,11-6.1
		c14.2-7.7,28.4-15.1,42.8-22.3c16.1-8.1,32.4-15.9,48.8-23.4c1-0.5,0.5-1.7-0.4-1.9c30.2-16.8,59-36.2,86.5-56.9
		c9-6.7,17.7-13.8,26.6-20.7c29.7,4.6,58.1,16.1,81.9,34.5C361.9,490.5,362.5,489.8,362.2,489.4z"/>
	<path id="XMLID_100_" d="M516,256.4c-3.7,2.2-6.4,5.3-9.4,8.3c-1.1,1.1-2.2,2.2-3.3,3.2c-0.5-0.2-1-0.1-1.4,0.3
		c-2.8,3-5.6,5.9-8.4,8.8c-2.8,2.5-5.4,5.1-7.9,7.9c-0.2,0.2-0.3,0.5-0.2,0.7c-1.7,1.8-3.4,3.5-5,5.3c-0.2,0.1-0.4,0.2-0.6,0.4
		c-5,4.4-9.8,9-14.7,13.6c-0.1,0.1-0.2,0.3-0.3,0.4c-4.7,4-9.3,8-14,12c-0.5,0.4-0.6,0.9-0.5,1.4c-4,3.6-8,7.3-11.8,11
		c-4.9,4.1-9.8,8.2-14.7,12.4c-0.1,0.1-0.2,0.2-0.3,0.3c-1.8,1.5-3.7,3.1-5.4,4.7c-0.1,0-0.2,0.1-0.3,0.1
		c-8,5.5-15.7,11.9-21.9,19.4c-1.4,1.7,0.9,4.1,2.4,2.4c4.9-5,9.8-9.8,15.2-14.2c0.6,0.2,1.3,0.2,1.9-0.4c3.8-3.7,7.7-7.3,11.9-10.6
		c1.5-1.2,3.1-2.4,4.6-3.6c0.3-0.2,0.4-0.5,0.5-0.8c2-1.7,4-3.4,6.1-5.1c0.3-0.1,0.5-0.2,0.8-0.4c2-1.8,4-3.5,6-5.3
		c0.4-0.3,0.5-0.7,0.6-1c5.4-5.1,10.9-10,16.6-14.9c0.4-0.4,0.6-0.8,0.5-1.3c1.7-1.5,3.4-2.9,5.1-4.4c0.6,0.6,1.6,0.7,2.3-0.1
		c9.3-9.7,18.3-19.8,27.3-29.9c0.3,0,0.6-0.1,0.8-0.3c1.2-0.9,2.1-2,3-3.1c1.1-1.3,2-2.6,2.9-4.1c0.2-0.3,0.2-0.6,0.2-0.8
		c1-0.8,1.9-1.7,2.9-2.5c3.2-2.8,6.4-5.8,10.2-7.8C519.1,258,517.6,255.5,516,256.4z"/>
	<path id="XMLID_106_" d="M527.7,258.1c-0.7-0.3-1.6-0.1-2.1,0.8c0,0,0,0,0,0.1c-0.2,0.2-0.3,0.4-0.4,0.6c0,0.1-0.1,0.2-0.1,0.2
		c-3.2,5.2-6,10.5-8.5,16.1c-0.7-0.1-1.4,0.1-1.8,0.8c-5.9,10.1-11.7,20.3-17.6,30.4c-1.2,2.1,1.8,3.7,3.2,1.9
		c0.1-0.2,0.3-0.4,0.4-0.6c0.3,0.2,0.6,0.4,1,0.5c0,0.1-0.1,0.2-0.1,0.2c-2.6,4-5,8.1-7.1,12.4c-0.2,0.5-0.2,1,0.1,1.4
		c-0.5,0.9-1.1,1.9-1.5,2.8c-0.7,1.4,1,3.2,2.3,2.4c0.5,0,0.9-0.2,1.2-0.8l6.9-11.9c0.4-0.7,0.3-1.4-0.1-1.9
		c0.9-1.9,1.8-3.7,2.7-5.6c0.1-0.3,0.2-0.5,0.2-0.7c1.7-3.4,3.5-6.7,5.4-9.9c0.5,0,0.9-0.3,1.2-0.9c1.4-2.7,2.9-5.4,4.3-8.1
		c0.2-0.3,0.2-0.6,0.2-0.9c5.5-8.2,9.4-17.3,11.8-27C529.4,259.1,528.6,258.3,527.7,258.1z"/>
</g>
<g id="Layer_3">
	<path class="st0" d="M373,499.8c-3.2-4.1-7.2-7.8-10.8-11.6c-1.5-1.5-3.7-0.7-4.5,0.8c-0.6-0.2-1.2-0.4-1.8-0.6
		c0,0-0.1-0.1-0.1-0.1c0,0,0,0,0,0c0,0,0,0,0,0c-0.2-0.1-0.3-0.3-0.5-0.4c-1.2-0.9-2.3-0.5-3,0.4c-1.4,0-2.6,1-3,2.3
		c-2.1,0.9-4.2,1.8-6.3,2.7c-0.5-0.6-1.3-0.9-2.2-0.6c-0.2,0.1-0.4,0.1-0.6,0.2c-0.2,0-0.3,0-0.5,0c-2.5,0.4-5,1-7.4,1.7
		c-0.4-0.8-1.1-1.5-2.1-1.7c-0.7-1.1-2-1.9-3.5-1.4c-19.6,6.9-38.7,14.9-57.4,24c-1.2,0.6-1.7,1.8-1.5,2.9c-1.1,0.5-2.2,1-3.4,1.5
		c-3.3,1.5-0.9,7.1,2.5,5.9c0.5-0.2,1-0.3,1.4-0.5c-0.1,0.4-0.1,0.8,0,1.3c-1.4,0.5-2.9,1.1-4.3,1.6c-3.8,1.4-2.3,7.5,1.7,6.2
		c22.1-7.3,44.2-14.6,66.3-21.9c1.8-0.6,2.4-2.2,2.2-3.6c4.4-1.4,8.7-2.7,13.1-4.1c0.3-0.1,0.5-0.2,0.7-0.3c2.2-0.6,4.4-1.2,6.6-1.7
		c1.9,0.2,3.9,0.4,5.8,0.8c0.6,0.1,1.1,0.1,1.6-0.1c0,0,0.1,0.1,0.1,0.1c0.9,0.8,2,0.9,2.9,0.6c0.4,0.5,0.7,1,1.1,1.5
		c1.1,1.5,3.4,0.6,3-1.3c0-0.2-0.1-0.4-0.1-0.6c0,0,0,0,0.1,0.1C371.7,506.6,375.3,502.7,373,499.8z"/>
</g>
<g id="Layer_36_copy">
	<path id="XMLID_27_" class="st1" d="M473.4,399c-0.1-1-0.3-2-0.5-3c0-0.2,0-0.3-0.1-0.5c-0.3-1.4-0.7-2.8-1.2-4.2
		c0.1-0.1,0.1-0.2,0-0.4c-0.1-0.4-0.3-0.8-0.4-1.2c0.2-0.8-0.3-1.6-0.9-2.4c0.1-0.1,0.1-0.2,0.1-0.3c0,0,0,0,0,0c0,0,0,0,0,0
		c0,0,0,0,0,0c0,0,0,0,0,0c-0.3-0.8-0.7-1.6-1.1-2.3c-0.1-0.3-0.5-0.3-0.7-0.2c-0.3-0.1-0.5,0-0.8,0c-0.9-0.4-2.2,0.1-2.1,1.3
		c0.1,0.9,0.2,1.7,0.3,2.6c-0.5,0-1.1,0.3-1.2,0.9c-0.1,0.4-0.1,0.9-0.2,1.3c-0.3,0.2-0.5,0.5-0.5,0.9c0,0,0,0.1,0,0.1
		c0,0-0.1,0.1-0.1,0.1c-0.1,0-0.2,0.1-0.2,0.2c-7.4,6.7-10.4,16.5-8.4,26.2c0.2,1.1,2,1.7,2.8,0.7c0,0,0.1-0.1,0.1-0.1
		c0.2,0.2,0.5,0.4,0.7,0.6c1,0.7,2.1-0.2,2.3-1.2c0.2,0.1,0.5,0.1,0.7,0.1c0,0.1-0.1,0.2-0.1,0.2c-0.6,1.1,1,2,1.7,1
		c0-0.1,0.1-0.1,0.1-0.2c0.1,0.1,0.3,0.1,0.5,0.1c0.4,0.4,1.2,0.6,1.7,0.1c0.1-0.1,0.2-0.2,0.2-0.3c0.2,0,0.4,0,0.6-0.1
		c0.1,0,0.3-0.1,0.4-0.2c0.1-0.1,0.2-0.2,0.4-0.4c0.7-1.1,1.3-2.1,1.8-3.3c2.9-4.7,3.9-10.1,3.7-15.5
		C473.2,399.8,473.4,399.5,473.4,399z"/>
	<path id="XMLID_105_" class="st1" d="M242.7,430.4c0.1-1.3,0.2-2.6,0.2-4c0.5-3.3,0-6.4-0.8-9.4c0-0.1,0-0.2,0-0.3
		c0-0.2-0.1-0.3-0.1-0.5c-0.1-0.8-0.2-1.6-0.4-2.4c0.1-0.1,0.1-0.2,0-0.4c-0.1-0.2-0.2-0.4-0.3-0.6c-0.9-3.6-2.7-7.2-5.8-8.7
		c0.1-0.1,0.1-0.3,0.1-0.4h-0.4c-0.5,0-1-0.2-1.3-0.6c0,0,0,0,0,0c-0.1-0.1-0.2-0.3-0.3-0.4c-7.9-1.2-12.3,5.7-14.5,13.8
		c-0.4,1-0.6,2-0.9,3.1c0,0,0,0,0,0.1c-1.6,6.2-1.9,12.6-0.7,18.9c0.1,0.3,0.3,0.5,0.5,0.6c1.1,5,3.5,10.6,7.6,12.8
		c0.6-0.4,1.4-0.5,1.9-0.1c0.1,0.1,0.2,0.1,0.2,0.2c0.9,0.2,1.8,0.1,2.7-0.2c0.4-0.1,0.8-0.1,1.1,0.1c0.3-0.1,0.5-0.3,0.8-0.5
		c0.1,0,0.1,0,0.2-0.1c3.9-2.3,6.3-6.7,7.9-10.8c0.1-0.3,0-0.5-0.2-0.7c0.5-1.3,0.8-2.6,1-4c0.1-0.1,0.3-0.2,0.3-0.4
		c0.2-0.6,0.3-1.3,0.5-1.9c0.2,0,0.4-0.1,0.5-0.2c0,0,0,0,0,0c0,0,0-0.1,0-0.1c0,0,0,0,0,0c0,0,0,0,0,0c0.1-0.1,0.1-0.3,0.1-0.4
		c0.2-0.7,0.4-1.4,0.5-2.2C243.4,430.3,242.9,430.2,242.7,430.4z M241.3,429.5c-0.1,0-0.1,0.1-0.1,0.2c0,0.4,0,0.7,0,1.1
		c-0.2,1.4-0.5,2.9-0.9,4.3c-0.1,0.4,0.1,0.7,0.3,0.8c-0.6,1.9-1.3,3.7-2.1,5.5c-0.4,0.7-0.8,1.4-1.2,2.2c-0.1,0.1-0.1,0.2-0.1,0.3
		c-1.1,1.7-2.4,3.3-4.1,4.5c-2.9-0.2-5.8-0.4-8.7-0.6c-0.7-0.5-1.2-1.8-1.7-2.5c-2.8-4.8-3.5-9.9-3.5-15.5c0-2,0.2-4.7,0.7-7.6
		c0.1-0.1,0.2-0.2,0.2-0.3c0.9-3.5,1.8-6.8,3.3-10c0.6-1,1.2-2.1,1.7-3.2c0,0,0,0,0,0c1-1.3,2.2-2.2,3.9-3c1.6-0.7,2.2-0.8,3.9-0.4
		c2.2,0.4,2.6,1.8,3.3,3.9c0.3,0.9,1.6,0.5,1.4-0.4c0-0.1-0.1-0.2-0.1-0.4c0.1,0.1,0.2,0.2,0.3,0.4c0.6,0.9,1.2,1.9,1.7,2.9
		c0.1,0.2,0.1,0.4,0.2,0.5c1,4.9,0.8,9.6,0.6,14.5c0,0.6,0.8,0.7,1,0.3c0,0.1,0.1,0.2,0.1,0.2C241.4,428,241.4,428.7,241.3,429.5z"
		/>
	<path id="XMLID_25_" class="st1" d="M236.2,412.3c-0.2-0.4-0.9-0.1-0.8,0.3c3.3,9.9,2.3,19.1-1.8,28.6c-0.4,1,0.9,1.9,1.5,0.9
		C240.2,433.1,240.2,421.7,236.2,412.3z"/>
	<path id="XMLID_48_" class="st1" d="M319.7,353.6c-1.2-3.9-3.4-7.6-7.5-8.1c-6.3-0.8-10.1,4.8-12.7,9.7c-0.2,0.3-0.3,0.6-0.5,0.9
		c-0.1,0.3-0.1,0.5,0,0.7c-0.8,1.1-2.1,2.8-2,4.1c0.1,1.9,2.5,2.4,4.1,2.8c4.5,1,8.4,2.8,12.7,4.5c0,0.3,0,0.5-0.1,0.8
		c-0.1,1,1.5,1,1.6,0c0,0,0-0.1,0-0.1c1.1,0.5,2.5,1,3.5,0.8c0.5,0.4,1.4,0.3,1.5-0.4C321.2,364,321.5,358.5,319.7,353.6z
		 M318.6,368.5c-0.7,0-2-0.6-3.2-1.3c0.2-5.2-0.7-10.4-2.4-15.4c-0.2-0.5-1-0.3-0.8,0.2c1.5,4.7,2,9.4,1.7,14.3
		c-0.8-0.5-1.6-0.9-1.9-1.1c-2.1-1-4.2-2-6.4-2.6c-2.5-0.7-6.1-0.3-5.3-3.9c0.3-1.5,1.5-3.3,2.6-5c0.1-0.1,0.1-0.2,0.2-0.2
		c0.6-1,1.3-1.9,1.7-2.6c0.2-0.3,0.2-0.6,0-0.9c1.2-1.2,2.5-2.2,4.2-2.7c7.5-2.2,9.6,7,10,12.4c0,0,0,0,0,0
		C319,362.7,319,365.6,318.6,368.5z"/>
	<path id="XMLID_29_" class="st1" d="M327.5,530.1c-0.5,4.8-3.4,19.9-9.6,24c3.3-2.8,4.9-7.9,6.1-11.8c0.1-0.4-0.4-0.5-0.5-0.1
		c-1.6,4.2-4.1,11.1-9.2,12.1c0-0.1,0-0.3,0-0.4c0-1.1-1.6-1.1-1.7,0c0,0.3,0,0.6,0,0.9c-0.3-0.1-0.6-0.2-0.9-0.4c0,0-0.1,0-0.1,0
		c-0.4-0.3-0.8-0.5-1.1-0.9c0.2-0.3,0.3-0.8-0.1-1.2c-3.6-3.6-3.2-9.7-4.1-14.4l0,0c-0.2-0.7-1.4-0.7-1.3,0.2
		c0.3,4.7,0.2,11.4,3.6,15.1c1.2,2.1,3,3.6,5.8,3.9c0.3,0,0.8-0.3,0.8-0.6c0-0.1,0-0.2,0-0.2c9.1,0.2,13.4-20.4,14.1-26.2
		C329.4,529,327.6,529,327.5,530.1z"/>
	<path id="XMLID_26_" class="st1" d="M322.9,532.5c-3.2,1-6.4,1.8-9.6,2.7c-0.3,0.1-0.2,0.5,0.1,0.5c3-0.4,5.9-0.9,8.8-1.6
		c-0.7,2.9-1.8,5.5-3.2,8.2c-0.5,0.9,0.8,1.6,1.3,0.8c1.9-2.9,3-6.3,3.5-9.6C323.8,532.8,323.5,532.3,322.9,532.5z"/>
</g>
<g id="Layer_35_copy">
	<path id="XMLID_2529_" d="M469.7,384c-0.2-0.2-0.5,0-0.5,0.3c1.8,5.8,3.6,11.1,3.3,17.3c-0.3,6.8-3.1,11.8-6.4,17.5
		c-0.9,1.5,1.3,3.3,2.5,1.9C476.1,411.6,477.5,393.7,469.7,384z"/>
	<path id="XMLID_2528_" d="M468.8,400.1c0-0.4-0.7-0.5-0.7,0c-0.2,6.5-2.7,11.4-6.7,16.4c-1.2,1.5,0.8,3.6,2.1,2.1
		C467.9,413.6,469.4,406.5,468.8,400.1z"/>
</g>
<g id="Layer_33">
	<g id="XMLID_777_">
		<g id="XMLID_1293_">
			<g id="XMLID_1352_">
				<path id="XMLID_217_" d="M541.1,490.2c-0.5-0.9-1-1.8-1.4-2.7c0-0.1-0.1-0.2-0.2-0.3c-0.2-0.3,0.2-0.6,0.5-0.5
					c0.1,0.2,0.1,0.4,0.2,0.6C540.5,487.9,541.1,489.2,541.1,490.2z"/>
				<path id="XMLID_216_" d="M539.7,487.5c0.4,0.9,0.9,1.9,1.4,2.7c0,0.6-0.1,1.1-0.5,1.4s-1.1,0.4-1.5,0.1
					c-0.4-0.3-0.6-0.8-0.7-1.3c0.3-0.4,0.5-0.8,0.7-1.3c0.2-0.4,0.2-0.9,0-1.3L539.7,487.5z"/>
				<path id="XMLID_215_" d="M539.1,489.1c-0.2,0.5-0.5,0.9-0.7,1.3c0-0.2-0.1-0.4-0.1-0.6c-0.2-0.9-0.5-1.7-0.8-2.6
					c0.2-0.1,0.5-0.2,0.8-0.1c0.4,0.1,0.7,0.4,0.8,0.7C539.3,488.1,539.3,488.6,539.1,489.1z"/>
				<path id="XMLID_214_" class="st0" d="M527.8,250.4c1.7,1.3,2.3,3.4,2.2,5.6c-0.1,2.2-0.7,4.3-1.4,6.3c-1,2.7-2.1,5.4-3.3,8.1
					c-5.4,12.1-12.2,23.6-18.4,35.3c-6.6,12.3-13.2,24.6-19.8,36.9c-6.6,12.3-13.2,24.6-19.7,36.9c-3.3,6.1-6.5,12.2-9.8,18.3
					c-1.7,3.1-3.3,6.2-5,9.3c-0.8,1.5-1.6,3-2.5,4.6c0,0,0,0,0,0c0,0,0,0,0,0c-15.3-6.6-30.9-12.2-46.7-17.4
					c-10.7-3.5-21.4-6.7-32.2-9.8c11-7.4,21.7-15.4,32-23.8c10.4-8.4,20.6-17,30.6-25.8c10.1-8.8,20.1-17.9,29.8-27.1
					c9.9-9.3,19.6-18.8,29.1-28.5c4.8-4.9,9.5-9.8,14.2-14.8c2.2-2.3,4.3-4.8,6.5-7.1c2.1-2.3,4.2-4.7,6.8-6.5
					C522.5,249.4,525.4,248.6,527.8,250.4z"/>
				<path id="XMLID_213_" d="M534.6,479.7c-2.4-5.4-5.5-10.4-9-15.1c0.2-0.3,0.3-0.6,0.5-0.9c0.3-0.7,0.5-1.3,0-1.9l0.4-0.3
					c1.5,1.9,3,3.8,4.3,5.8c4,6,7.2,12.5,9.3,19.3c-0.3-0.1-0.6,0.2-0.5,0.5c0,0.1,0.1,0.2,0.2,0.3l-0.6,0.3
					c-0.2-0.3-0.4-0.5-0.8-0.7c-0.3-0.1-0.6,0-0.8,0.1C536.6,484.6,535.7,482.1,534.6,479.7z"/>
				<path id="XMLID_212_" d="M525.5,464.6c-0.6-0.8-1.2-1.5-1.8-2.3c0.2-0.4,0.4-0.7,0.7-0.9c0.5-0.4,1.2-0.1,1.6,0.3
					c0.5,0.6,0.3,1.3,0,1.9C525.9,464,525.7,464.3,525.5,464.6z"/>
				<path id="XMLID_211_" class="st2" d="M486.3,474.9c5.5,1.5,11.4,2,17.1,1.6c6-0.5,12.2-2,17-5.8c2.1-1.6,3.8-3.7,5.1-6
					c3.5,4.7,6.6,9.7,9,15.1c1.1,2.4,2.1,4.9,2.9,7.5c-0.5,0.3-0.7,1-1,1.5c-1,1.7-2.3,3.1-3.8,4.3c-6.6,5-16.5,5.3-24.3,3.6
					c-9.8-2.2-17.5-9.6-21-18.9c-0.2-0.5-0.4-1.1-0.6-1.6c-0.1-0.2-0.1-0.8-0.3-1C486.4,475,486.3,475,486.3,474.9z"/>
				<path id="XMLID_210_" d="M508.3,496.6c7.8,1.8,17.7,1.4,24.3-3.6c1.5-1.2,2.9-2.6,3.8-4.3c0.3-0.5,0.5-1.2,1-1.5
					c0.3,0.9,0.5,1.7,0.8,2.6c0,0.2,0.1,0.4,0.1,0.6c-2,3.1-5.4,5.4-8.7,6.7c-7.9,3.3-17.9,3.2-25.9,0.1
					c-9.4-3.6-16.5-12.2-17.8-22.2c0,0,0-0.1,0-0.1c0.1,0,0.1,0,0.2,0.1c0.1,0.1,0.1,0.1,0.1,0.1c0.2,0.2,0.2,0.7,0.3,1
					c0.2,0.5,0.4,1.1,0.6,1.6C490.8,486.9,498.5,494.4,508.3,496.6z"/>
				<path id="XMLID_209_" d="M486.3,474.9c-0.1,0-0.1,0-0.2-0.1C486.1,474.7,486.2,474.8,486.3,474.9z"/>
				<path id="XMLID_208_" d="M525.5,464.6c-1.3,2.3-3,4.3-5.1,6c-4.8,3.8-11,5.4-17,5.8c-5.7,0.4-11.6-0.1-17.1-1.6
					c-0.1-0.1-0.2-0.2-0.2-0.1c-0.2,0-0.4-0.1-0.6-0.2c-0.7-0.2,0.1-0.6,0.3-0.6c0.4-0.1,0.8,0,1.2,0c0.9,0,1.8,0,2.7,0
					c1.8,0,3.5,0.1,5.3,0.1c3.6,0,7.3,0,10.9-0.4c6.1-0.8,12-3,15.9-8.1c0.5-0.7,1-1.4,1.4-2.1c0.2-0.3,0.4-0.8,0.6-1.2
					C524.3,463.1,525,463.9,525.5,464.6z"/>
				<path id="XMLID_207_" d="M450.2,411.7c0.6,0.2,1.1,0.5,1.7,0.7c-0.2,0.4-0.4,0.9-0.8,1c-0.2,0.1-0.5,0.1-0.8,0
					c-0.1-0.1-0.2-0.2-0.3-0.3C449.6,412.6,449.9,412.2,450.2,411.7C450.1,411.7,450.1,411.7,450.2,411.7z"/>
				<path id="XMLID_206_" d="M523.7,462.3c-4.5-5.5-9.6-10.5-15.1-14.9c-11-9-23.5-16.1-36.1-22.4c-7.5-3.8-15-7.3-22.7-10.6l0.4-1
					c0.2,0.1,0.5,0.1,0.8,0c0.4-0.2,0.6-0.6,0.8-1h0c1.2,0.5,2.4,1,3.6,1.6c15.2,6.8,30.1,14.4,44,23.6c10,6.7,19.4,14.5,27,23.9
					l-0.4,0.3c-0.4-0.5-1.1-0.7-1.6-0.3C524.1,461.6,523.9,462,523.7,462.3z"/>
				<path id="XMLID_205_" d="M380.8,510.3c0.1,0,0.3-0.1,0.5-0.1c0.3-0.1,0.1,0.2,0.1,0.3c0,0-0.1,0.1-0.1,0.1c-0.1,0-0.1,0-0.2-0.1
					C380.9,510.5,380.9,510.4,380.8,510.3z"/>
				<path id="XMLID_204_" d="M477.6,545.1c17.4,5.6,35.4,9.1,53.7,9.1c8.1,0,17.4-0.2,24.2-5c5.9-4.2,8.5-11.5,8.1-18.5
					c-0.5-8.5-4.4-16.3-9.4-23.1c-4.3-5.9-9.6-11.1-13.2-17.4c-0.1-1-0.7-2.3-0.9-3c-0.1-0.2-0.1-0.4-0.2-0.6c0,0,0,0,0,0
					c0.2,0.1,0.5,0.8,0.7,0.9c0.5,0.7,0.9,1.4,1.4,2c1,1.4,2,2.7,3,4c8.5,10.7,19.5,21.4,20.9,35.7c0.7,6.7-0.7,13.6-5.4,18.6
					c-4.3,4.6-10.5,7-16.5,8c-4.1,0.7-8.4,0.8-12.5,0.9c-4.7,0-9.5-0.2-14.2-0.7c-9.6-0.9-19.1-2.8-28.5-5.3
					c-18.6-4.9-36.6-12.2-54.3-19.7c-9.1-3.8-18.2-7.7-27.3-11.5c-4.5-1.8-9.1-3.6-13.6-5.4c-2.1-0.8-4.2-1.6-6.3-2.4
					c-1.8-0.7-3.5-1-5.4-0.5c-0.7,0.2-1.3,0.3-1.7-0.5c0,0,0.1,0,0.1,0c0.1,0,0.6-0.1,0.8-0.2c0.2,0.1,0.5,0,0.4-0.3
					c-0.1-0.4-0.2-0.8-0.3-1.2c0.6-0.3,1.4-0.5,2-0.6c0.8-0.2,1.6-0.1,2.4,0.1c4.5,1.2,8.7,3.4,13,5.1c9.2,3.6,18.3,7.5,27.4,11.3
					C443.2,532.2,460.1,539.6,477.6,545.1z"/>
				<path id="XMLID_203_" d="M380.8,510.3c-0.1-0.2-0.3-0.4-0.4-0.6c0.1-0.1,0.1-0.2,0.2-0.2c0.2-0.2,0.4-0.3,0.7-0.4
					c0.1,0.4,0.2,0.8,0.3,1.2c0.1,0.4-0.2,0.4-0.4,0.3c0.1,0,0.1-0.1,0.1-0.1c0-0.1,0.2-0.4-0.1-0.3
					C381.1,510.3,381,510.3,380.8,510.3z"/>
				<path id="XMLID_202_" d="M380.2,510.5c0.2,0,0.4-0.1,0.6-0.1c0.1,0.1,0.1,0.2,0.2,0.2c0,0,0.1,0.1,0.2,0.1
					c-0.2,0.1-0.7,0.2-0.8,0.2c0,0-0.1,0-0.1,0l0,0C380.2,510.8,380.2,510.6,380.2,510.5z"/>
				<path id="XMLID_201_" d="M380.8,510.3c-0.2,0-0.4,0.1-0.6,0.1h0c0-0.3,0.1-0.5,0.2-0.8C380.5,509.9,380.7,510.2,380.8,510.3z"/>
				<path id="XMLID_197_" d="M370.6,384.3c0.2,0,0.4,0.1,0.6,0.2c0,0,0,0,0,0C370.9,384.7,370.7,384.5,370.6,384.3z"/>
				<path id="XMLID_196_" d="M516.2,251c3-3,7.7-5.8,12-3.6c3.1,1.6,4,5.4,4,8.6c0.1,4.5-1.6,8.7-3.3,12.8
					c-5,12.1-11.9,23.5-18.1,35c-6.6,12.2-13.3,24.4-19.9,36.6c-6.6,12.3-13.3,24.5-20,36.8c-3.3,6.1-6.6,12.3-10,18.4
					c-1.6,3-3.3,6.1-4.9,9.1c-0.9,1.6-1.7,3.2-2.6,4.7c-0.4,0.8-0.8,1.5-1.2,2.3c-0.1,0.2-0.2,0.5-0.3,0.7h0
					c-0.6-0.2-1.1-0.5-1.7-0.7c0,0,0,0,0,0c0.8-1.5,1.6-3,2.5-4.6c1.7-3.1,3.3-6.2,5-9.3c3.3-6.1,6.5-12.2,9.8-18.3
					c6.6-12.3,13.2-24.6,19.7-36.9c6.6-12.3,13.2-24.6,19.8-36.9c6.2-11.7,13-23.2,18.4-35.3c1.2-2.6,2.3-5.3,3.3-8.1
					c0.7-2,1.4-4.1,1.4-6.3c0.1-2.1-0.5-4.2-2.2-5.6c-2.4-1.9-5.2-1-7.5,0.6c-2.5,1.8-4.7,4.2-6.8,6.5c-2.2,2.4-4.3,4.8-6.5,7.1
					c-4.7,5-9.4,9.9-14.2,14.8c-9.5,9.7-19.2,19.2-29.1,28.5c-9.8,9.2-19.7,18.2-29.8,27.1c-10,8.8-20.2,17.4-30.6,25.8
					c-10.4,8.3-21,16.4-32,23.8c-0.2-0.1-0.4-0.1-0.6-0.2c-0.1-0.2-0.1-0.4,0-0.5c0.3-0.5,1.3-1.1,1.8-1.5c1.2-1,2.5-2,3.8-3
					c2.5-2.1,5.1-4.1,7.6-6.2c10.5-8.5,20.9-16.9,31.3-25.5c10.4-8.6,20.6-17.4,30.6-26.5c10-9,19.8-18.3,29.4-27.7
					c9.6-9.4,19.1-19,28.3-28.8c2.4-2.5,4.8-5.1,7.2-7.6C512.5,255,514.2,252.9,516.2,251z"/>
				<path id="XMLID_195_" class="st0" d="M360.7,498.8c-2.3-0.2-4.5-0.3-6.9-0.4c0.5-0.4,0.9-0.7,1.3-1.1c1.6-0.1,3.2,0,4.8,0.4
					C360.2,498,360.4,498.4,360.7,498.8z"/>
				<path id="XMLID_194_" d="M330.7,526.6c-0.6,0.2-1.2,0.4-1.9,0.6c0-0.5,0.2-1,0.9-1.1C330.3,526,330.6,526.3,330.7,526.6z"/>
				<path id="XMLID_193_" class="st1" d="M328.8,527.1c0,0.4,0,0.8,0,1.1c0,2.6-0.3,5.1-0.8,7.6c-0.9,5.1-2.7,10.3-5.9,14.4
					c-1.7,2.1-3.8,4.1-6.5,4.9c-2.5,0.7-5.4,0-6.9-2.2c-1.4-2-1.8-4.8-2.2-7.2c-0.6-3.4-0.9-6.8-1.1-10.2c0-0.3,0-0.9,0-1.4
					C313.3,531.8,321,529.5,328.8,527.1z"/>
				<path id="XMLID_191_" d="M371.3,384.5c10.8,3.1,21.5,6.4,32.2,9.8c15.8,5.1,31.4,10.8,46.7,17.4c-0.2,0.5-0.6,1-0.2,1.5
					c0.1,0.1,0.2,0.2,0.3,0.3l-0.4,1c-8.3-3.6-16.7-6.9-25.2-10c-17.7-6.5-35.8-12-53.9-17.4c-16.7-4.9-33.5-9.4-50.2-14.5l0.2-0.5
					c0.4,0.2,1,0,1.3-0.4c0.2-0.3,0.2-0.7,0.3-1.2c9.3,2.8,18.6,5.4,28,8c6.8,1.9,13.6,3.8,20.4,5.8
					C370.7,384.5,370.9,384.7,371.3,384.5C371.2,384.5,371.2,384.5,371.3,384.5z"/>
				<path id="XMLID_190_" d="M320.1,369.8c0.7,0.2,1.4,0.4,2.1,0.6c0,0.5-0.1,0.9-0.3,1.2c-0.3,0.4-0.8,0.5-1.3,0.4
					c-0.1-0.1-0.2-0.1-0.3-0.2C320,371.4,320.1,370.6,320.1,369.8z"/>
				<path id="XMLID_189_" class="st1" d="M319.9,357c0.4,2.6,0.5,5.2,0.5,7.8c0,1.2,0,2.5-0.1,3.7c0,0.3-0.1,0.8-0.1,1.3
					c-7.7-2.4-15.4-4.9-23-7.7c-0.1,0-0.3-0.1-0.4-0.2c0,0,0,0,0,0c2.1-4.4,3.9-9.1,7.4-12.7c2.4-2.5,6.2-4.4,9.7-3.2
					C318,347.7,319.3,353.1,319.9,357z"/>
				<path id="XMLID_188_" class="st0" d="M315.8,506.3c-0.2,0.1-0.4,0.2-0.6,0.3c-0.5,0.1-0.9,0.2-1.4,0.2
					C314.4,506.7,315.1,506.5,315.8,506.3z"/>
				<path id="XMLID_187_" d="M315.2,344.6c-0.3,0-0.7-0.3-1-0.5c-0.2-0.1-0.4-0.2-0.5-0.3C314.2,344.1,314.7,344.3,315.2,344.6
					c0-0.1,0.1,0,0.1,0C315.3,344.6,315.2,344.6,315.2,344.6z"/>
				<path id="XMLID_186_" d="M311.8,556c0.5,0.1,0.8,0.6,0.7,1.1c-1-0.1-1.9-0.5-2.8-1C310.4,556,311.2,555.8,311.8,556z"/>
				<path id="XMLID_185_" class="st0" d="M306.9,552.9c0.7,1.3,1.7,2.4,2.8,3.1c-0.8,0-1.6,0-2.4,0c-0.6,0-1.1,0-1.7-0.1
					c-0.5-0.8-1.8-1.6-2.2-2c-2.5-2.3-4.4-5.1-5.6-8.2c-0.7-1.8-1.2-3.6-1.5-5.5c-0.2-1-0.3-2-0.3-3c0-0.1,0-0.2,0-0.4v0
					c2.8-0.8,5.5-1.7,8.3-2.5c-0.2,2.8-0.2,5.7,0,8.5C304.7,546.3,305.3,549.9,306.9,552.9z"/>
				<path id="XMLID_184_" d="M305.7,556c0.3,0.4,0.3,0.9-0.3,1.3c-0.1,0.1-0.3,0.2-0.5,0.2c-0.8,0-1.9-1.1-2.6-1.9
					C303.4,555.7,304.6,555.9,305.7,556z"/>
				<path id="XMLID_183_" d="M312.2,557.8c-0.7,0.7-2.7,0.4-3.7,0.4c-1.2,0-2.5-0.1-3.7-0.2l0-0.5c0.2,0,0.3,0,0.5-0.2
					c0.5-0.4,0.5-0.9,0.3-1.3c0.6,0,1.1,0.1,1.7,0.1c0.8,0,1.6,0,2.4,0c0,0,0,0,0,0c0.8,0.5,1.8,0.9,2.8,1
					C312.5,557.3,312.4,557.6,312.2,557.8z"/>
				<path id="XMLID_149_" d="M308.8,552.9c1.5,2.2,4.4,3,6.9,2.2c2.7-0.8,4.8-2.8,6.5-4.9c3.2-4.1,5-9.3,5.9-14.4
					c0.5-2.5,0.7-5.1,0.8-7.6c0-0.3,0-0.7,0-1.1c0.6-0.2,1.2-0.4,1.9-0.6c0.1,0.3,0.1,0.7,0.1,1c-0.4,8-2,17.2-6.9,23.7
					c-2.3,3.1-5.7,5.5-9.7,5.8c-0.6,0-1.1,0-1.7-0.1c0-0.5-0.2-1-0.7-1.1c-0.6-0.2-1.4,0-2,0.1c0,0,0,0,0,0
					c-1.1-0.8-2.1-1.8-2.8-3.1c-1.7-3-2.2-6.6-2.5-10c-0.2-2.8-0.2-5.6,0-8.5c0.4-0.1,0.7-0.2,1.1-0.3c0,0.5,0,1,0,1.4
					c0.2,3.4,0.5,6.9,1.1,10.2C307,548.1,307.4,550.9,308.8,552.9z"/>
				<path id="XMLID_148_" d="M303.8,339.1c0.7-0.2,1.4-0.3,2.1-0.4c0.5-0.1-0.3,0.4-0.2,0.4c-0.2,0.1-0.6,0.2-0.8,0.3
					c-0.1,0-0.1,0-0.2,0.1C304.4,339.4,304.1,339.3,303.8,339.1z"/>
				<path id="XMLID_114_" d="M305.3,533.2c0.1,0.2,0.2,0.5,0.2,0.9c-0.4,0.1-0.7,0.2-1.1,0.3c0-0.4,0-0.7,0.1-1.1
					C304.5,532.9,305.1,532.8,305.3,533.2z"/>
				<path id="XMLID_112_" class="st0" d="M301.8,555.1c0.1,0.1,0.3,0.3,0.5,0.5c-4-0.7-8-1.9-11.7-3.7c-2.9-1.4-5.6-3.2-8.1-5.1
					c-1.3-1-2.6-2.1-3.8-3.2c-0.3-0.3-0.7-0.6-1-0.9c4.6-1.4,9.1-2.8,13.7-4.2c1.3-0.4,2.5-0.8,3.8-1.2
					C294.3,543.8,297.2,550.4,301.8,555.1z"/>
				<path id="XMLID_102_" d="M313.8,346.1c-3.5-1.2-7.3,0.7-9.7,3.2c-3.4,3.5-5.3,8.3-7.4,12.7c-0.1,0-0.3-0.1-0.4-0.1c0,0,0,0,0,0
					c0.1-0.3,0.2-0.7,0.3-1c0.3-0.8,0.5-1.6,0.8-2.4c0.7-1.8,1.4-3.5,2.3-5.1c1.7-3.2,3.8-6.5,6.9-8.4c2.2-1.4,4.7-1.7,7.1-1
					c0.2,0.1,0.4,0.2,0.5,0.3c0.3,0.1,0.7,0.4,1,0.5c0,0,0.1,0,0.1,0c3.1,1.7,4.9,4.8,5.8,8.1c1,3.7,1.2,7.6,1.2,11.4
					c0,1.7-0.1,3.5-0.1,5.2c0,0.3,0,0.7,0,1.1c-0.7-0.2-1.4-0.4-2.1-0.6c0-0.5,0.1-1,0.1-1.3c0-1.2,0.1-2.5,0.1-3.7
					c0-2.6-0.1-5.2-0.5-7.8C319.3,353.1,318,347.7,313.8,346.1z"/>
				<path id="XMLID_98_" class="st0" d="M296.6,360.8c-0.1,0.3-0.2,0.6-0.3,1c0,0,0,0,0,0c-1.7-0.6-3.4-1.3-5.1-1.9
					c0.5-0.3,0.5-1.2,0.6-1.8c0.6-4,2-8,4.3-11.3c1.2-1.8,2.7-3.5,4.5-4.8c0.9-0.7,1.8-1.3,2.8-1.8c0.4-0.2,0.9-0.4,1.4-0.6
					c2.5,1.2,5,2.4,7.6,3.7c0.5,0.2,1,0.5,1.4,0.7c-2.4-0.8-4.9-0.5-7.1,1c-3.1,2-5.2,5.3-6.9,8.4c-0.9,1.7-1.6,3.4-2.3,5.1
					C297.1,359.2,296.8,360,296.6,360.8z"/>
				<path id="XMLID_97_" d="M296.1,362.3c0-0.1,0.1-0.3,0.1-0.4c0.1,0,0.3,0.1,0.4,0.1c0,0,0,0,0,0c-0.1,0.2-0.2,0.4-0.3,0.5
					C296.2,362.9,296.1,362.3,296.1,362.3z"/>
				<path id="XMLID_96_" d="M303.5,554c0.5,0.4,1.7,1.2,2.2,2c-1.1-0.1-2.3-0.2-3.4-0.4c-0.2-0.2-0.4-0.4-0.5-0.5
					c-4.7-4.6-7.5-11.3-6.6-17.8c0.3-0.1,0.6-0.2,0.9-0.3c0,0.1,0,0.2,0,0.4c0.1,1,0.2,2,0.3,3c0.3,1.9,0.8,3.7,1.5,5.5
					C299.1,548.9,301,551.7,303.5,554z"/>
				<path id="XMLID_94_" d="M319.6,527.2c20-6.1,40.2-11.9,60.6-16.7h0c0,0.1,0,0.3,0.1,0.4l0,0c-0.5,0.2-1,0.4-1.5,0.5
					c-1.2,0.4-2.5,0.9-3.7,1.3c-2.5,0.8-4.9,1.6-7.4,2.5c-4.8,1.6-9.7,3.1-14.5,4.6c-7.5,2.3-15,4.6-22.5,6.8
					c-0.1-0.3-0.4-0.5-0.9-0.5c-0.7,0-0.9,0.5-0.9,1.1c-7.8,2.3-15.6,4.6-23.3,7c0-0.4,0-0.7-0.2-0.9c-0.2-0.3-0.8-0.3-0.8,0.2
					c0,0.4-0.1,0.7-0.1,1.1c-2.8,0.8-5.5,1.7-8.3,2.5c0-0.3,0-0.7,0-1c0-0.2,0.1-0.5-0.1-0.6c-0.1,0-0.2-0.1-0.3,0l-0.2-0.7
					C303.5,532.1,311.5,529.6,319.6,527.2z"/>
				<path id="XMLID_90_" d="M295.2,537.2c0.1-0.6,0.2-1.2,0.3-1.8c0-0.1,0.1-0.1,0.1-0.2c0.1,0,0.2,0,0.3,0c0.2,0.1,0.1,0.5,0.1,0.6
					c0,0.3,0,0.7,0,1v0C295.8,537,295.5,537.1,295.2,537.2z"/>
				<path id="XMLID_88_" d="M300.5,341.9c-1.8,1.4-3.2,3-4.5,4.8c-2.3,3.4-3.6,7.3-4.3,11.3c-0.1,0.6-0.1,1.5-0.6,1.8c0,0,0,0,0,0
					c-0.5-0.2-0.9-0.4-1.4-0.5c0-0.1-0.1-0.2-0.1-0.3c-0.1-0.9,0.3-2,0.5-2.8c0.2-0.9,0.4-1.8,0.7-2.6c2-6.3,6.3-12.8,13-14.5h0
					c0.3,0.1,0.6,0.3,0.9,0.4c-0.5,0.2-0.9,0.4-1.4,0.6C302.3,340.7,301.4,341.3,300.5,341.9z"/>
				<path id="XMLID_87_" d="M289.7,359.3c0.5,0.2,0.9,0.4,1.4,0.5c-0.1,0.1-0.2,0.1-0.4,0.1C290.2,360.1,289.9,359.8,289.7,359.3z"
					/>
				<path id="XMLID_84_" class="st0" d="M290.5,519.1c-0.1,0-0.1,0-0.2,0c0,0,0,0,0,0C290.4,519.1,290.4,519.1,290.5,519.1z"/>
				<path id="XMLID_83_" class="st0" d="M290.1,356.2c-0.2,0.8-0.6,1.9-0.5,2.8c0,0.1,0,0.2,0.1,0.3c-13.7-5.4-27.1-11.7-39.3-20.1
					c0.6-0.6,0.9-1.8,1.3-2.4c1.1-1.8,2.4-3.4,4.1-4.6c6.7-5,16-3.9,23.6-2.1c8.5,1.9,16.5,5.4,24.4,9.1c-6.6,1.7-11,8.2-13,14.5
					C290.6,354.5,290.3,355.4,290.1,356.2z"/>
				<path id="XMLID_82_" d="M304.9,557.9c-0.2,0-0.3,0-0.5,0c-10.7-1.2-21.2-6.3-27.8-15c0.4-0.1,0.8-0.2,1.1-0.3
					c0.3,0.3,0.6,0.6,1,0.9c1.2,1.1,2.5,2.2,3.8,3.2c2.5,2,5.2,3.7,8.1,5.1c3.7,1.8,7.6,3.1,11.7,3.7c0.7,0.8,1.8,1.9,2.6,1.9
					L304.9,557.9z"/>
				<path id="XMLID_81_" d="M369.8,492.1c5,4.6,9.9,10.2,11.5,17c-0.3,0.1-0.5,0.2-0.7,0.4c-0.1,0.1-0.1,0.1-0.2,0.2
					c-0.1-0.1-0.1-0.2-0.2-0.3c-0.5-0.8-1.1-1.7-1.6-2.5c-2.2-3.5-4.4-7-7.3-10c-2.9-3.1-6.1-5.8-9.5-8.3c-6.9-5.2-14.2-9.8-21.8-14
					c-14.9-8.2-31-14.3-47.7-17.8c-4.1-0.9-8.3-1.6-12.5-2.1c-0.4-0.1-1-0.1-1.5-0.1c0.6-0.5,1.6-1,1.3-2c-0.1-0.3-0.2-0.5-0.5-0.7
					c8.2,1,16.3,2.7,24.2,4.9c16.4,4.6,32,11.7,46.5,20.6C356.9,481.7,363.8,486.5,369.8,492.1z"/>
				<path id="XMLID_80_" d="M278.2,451.4c0.4,0,0.7,0.2,1,0.4c-0.3,0-0.5-0.1-0.8-0.1c-0.3,0-0.7-0.1-1-0.1
					C277.6,451.5,277.9,451.4,278.2,451.4z"/>
				<path id="XMLID_79_" d="M279.7,452.5c0.2,0.9-0.7,1.5-1.3,2c-0.8-0.1-1.6-0.2-2-0.8c0-0.1,0-0.2-0.1-0.3c0,0-0.1-0.1-0.1-0.1
					c0,0,0,0,0,0c0,0,0-0.1,0-0.1c0-0.1,0-0.3,0-0.4c0.4-0.4,0.9-0.8,1.4-1.1c0.3,0,0.7,0,1,0.1c0.3,0,0.5,0.1,0.8,0.1
					C279.4,452,279.6,452.2,279.7,452.5z"/>
				<path id="XMLID_74_" class="st0" d="M367.7,498.8c0.4-0.6,0.5-1.4,0-2.1c-0.3-0.4-0.6-0.8-0.9-1.1c-0.1-0.3-0.3-0.6-0.5-0.9
					c-0.4-0.3-0.7-0.7-1-1c-0.5-0.6-1-1.2-1.4-1.8c-0.8-1-2-1.1-2.9-0.7c-0.6-0.4-1.4-0.4-2-0.1c-0.4-0.4-0.9-0.7-1.4-1.1
					c-1.4-1-2.7,0-3,1.3c-7.9,2.5-16,4.6-24.1,6.8c0.1-1.4-0.9-2.8-2.6-2.2c-11.8,4.2-24.4,7.4-35.3,13.8
					c-5.8,2.3-11.4,4.8-16.9,7.9c-2.2,1.2-0.6,4.3,1.6,3.9c0.4-0.1,0.7-0.2,1-0.2c-1.5,0.9-2.9,1.9-4.3,2.9
					c-0.5,0.4-0.8,0.9-0.9,1.5c-0.6,0.4-1.2,0.9-1.9,1.3c-2.3,1.5-0.1,5.2,2.1,3.7c2.2-1.5,4.4-3,6.6-4.5c0,0,0.1,0,0.1-0.1
					c7.2-1.6,14.5-2.9,21.2-6c2.9-1.3,5.5-3,8.2-4.6c6.9-2.2,13.7-4.8,20.5-6.6c0.5-0.1,0.9-0.4,1.2-0.7c3.4-0.9,6.7-2,10-3.2
					c1.5-0.6,3-1.1,4.5-1.8c6.6-0.5,13.3-0.2,19.5,0.7c0.2,0.2,0.5,0.5,0.7,0.7c1.5,1.3,4.2,0.1,3.6-2.1c-0.3-0.9-0.6-1.4-1-2
					C368.4,499.7,368.1,499.3,367.7,498.8z M361.8,488.5c3.4,2.5,6.6,5.2,9.5,8.3c2.9,3,5.1,6.5,7.3,10c0.5,0.9,1.1,1.7,1.6,2.5
					c0.1,0.1,0.1,0.2,0.2,0.3c-0.2,0.2-0.2,0.5-0.2,0.8c-20.4,4.8-40.6,10.6-60.6,16.7c-8,2.4-16.1,4.9-24.1,7.4
					c-6.6,2-13.1,4.1-19.7,6.1c-5.8,1.8-11.6,3.6-17.5,5.4c-20.8,6.3-41.6,12.7-62.3,19.1c-20.8,6.4-41.5,12.8-62.3,19.2
					c-20.8,6.4-41.6,12.9-62.4,19.2c-2.2,0.7-4.3,1.3-6.6,1.5c-2.2,0.2-4.4-0.2-6.5-0.9c-2.6-0.8-6.2-1.8-7.6-4.5
					c-1.6-3.2,1.1-6.7,3.5-8.6c2.9-2.4,6.3-3.9,9.6-5.6c18.7-9.8,37.3-19.5,56-29.3c18.6-9.8,37.2-19.9,55.3-30.5
					c17.5-10.3,34.8-21.2,51.6-32.6c16.8-11.5,33.2-23.6,49-36.4c0.9-0.7,1.8-1.5,2.7-2.2c0,0,0.1,0,0.1-0.1
					c0.5,0.1,1.1,0.1,1.5,0.1c4.2,0.5,8.4,1.2,12.5,2.1c16.7,3.5,32.8,9.6,47.7,17.8C347.6,478.7,354.9,483.3,361.8,488.5z"/>
				<path id="XMLID_73_" d="M276,452.7c0-0.9,0.6-1.1,1.4-1.1C276.9,451.9,276.4,452.4,276,452.7z"/>
				<path id="XMLID_72_" d="M277.7,542.6c-0.4,0.1-0.8,0.2-1.1,0.3c-0.3-0.4-0.6-0.8-0.9-1.2c-0.2-0.2,0-0.5,0.2-0.6
					c0,0,0.1,0,0.2,0c0.3,0,0.6,0.5,0.8,0.7C277.2,542,277.5,542.3,277.7,542.6z"/>
				<path id="XMLID_71_" d="M276.2,453.4c0.1,0.1,0.1,0.2,0.1,0.3c-0.1-0.1-0.2-0.3-0.2-0.5C276.1,453.3,276.2,453.4,276.2,453.4z"
					/>
				<path id="XMLID_70_" d="M295.6,535.5c-0.1,0.6-0.3,1.2-0.3,1.8c-1.3,0.4-2.5,0.8-3.8,1.2c-4.6,1.4-9.1,2.8-13.7,4.2
					c-0.3-0.3-0.6-0.6-0.8-0.8c-0.2-0.2-0.5-0.7-0.8-0.7c0,0-0.1,0-0.2,0l-0.1-0.4c6.6-2,13.1-4.1,19.7-6.1l0.2,0.7
					C295.7,535.3,295.6,535.4,295.6,535.5z"/>
				<path id="XMLID_69_" d="M276,453.1c0,0,0,0.1,0,0.1c-0.1-0.1-0.2-0.2-0.3-0.3c0.1-0.1,0.1-0.1,0.2-0.2
					C276,452.9,276,453,276,453.1z"/>
				<path id="XMLID_68_" class="st0" d="M539.1,491.7c0.5,0.3,1.1,0.2,1.5-0.1s0.5-0.8,0.5-1.4c3.5,6.4,8.8,11.6,13.2,17.4
					c5,6.7,8.9,14.6,9.4,23.1c0.4,7.1-2.2,14.3-8.1,18.5c-6.9,4.9-16.2,5.1-24.2,5c-18.4,0-36.3-3.6-53.7-9.1
					c-17.5-5.6-34.5-12.9-51.4-20.1c-9.1-3.8-18.2-7.7-27.4-11.3c-4.3-1.7-8.5-3.9-13-5.1c-0.8-0.2-1.6-0.3-2.4-0.1
					c-0.6,0.1-1.4,0.3-2,0.6c-1.7-6.8-6.5-12.4-11.5-17c-6-5.6-12.9-10.4-19.9-14.7c-14.5-9-30.1-16-46.5-20.6
					c-7.9-2.2-16-3.9-24.2-4.9c-0.3-0.2-0.6-0.4-1-0.4c-0.3,0-0.6,0.1-0.9,0.2c-0.7,0-1.4,0.2-1.4,1.1c-0.1,0.1-0.1,0.1-0.2,0.2h0
					c-3.2-3.8-7.5-6.5-11.8-9c-5.1-3.1-10.2-6.4-15.4-9.5c-1.2-0.8-2.4-1.5-3.7-2.3c-0.3-0.2-0.6-0.4-0.9-0.6
					c0.4-2.7,0.6-5.5,0.5-8.2c-0.1-4.5-0.7-9.1-2.6-13.2c-0.7-1.6-1.7-3.1-2.8-4.5c0,0,0,0,0,0c-5.4-11.2-16.7-19.1-27.6-24.5
					c-6.9-3.4-15.3-6.3-23.4-6.4c-0.1-0.7-1.2-1.6-1.6-2c-2.3-2.4-3.6-5.5-4.1-8.7c-0.3-1.8-0.4-3.7-0.3-5.5c0.1-1,0.2-1.9,0.3-2.9
					c0-0.3,0.1-0.7-0.2-0.9c-0.2-0.1-0.4,0-0.6,0.1c-0.3-0.8-0.6-1.6-0.8-2.4c-0.9-2.6-1.8-5.3-2.6-7.9
					c-3.4-10.1-6.8-20.3-10.2-30.4c-1.9-5.5-3.8-11-5.5-16.6c-0.8-2.5-1.6-5.1-2.5-7.6c-0.4-1.2-0.9-2.4-1.4-3.5
					c-0.3-0.6-0.6-1.2-0.9-1.8c-0.1-0.2-0.2-0.4-0.3-0.6c0,0-0.3-0.4-0.4-0.6c4.4-2.1,8.7-4.2,13.1-6.4c0.9-0.5,1.9-0.9,2.8-1.4
					c0.8-0.4,2.1-0.7,2.6-1.4c0.4-0.6,0.2-1.3-0.2-1.8c0-0.8-0.7-1.9-1-2.4c-0.6-1-1.3-1.9-2.1-2.7c-3.4-3.5-8.2-5.3-12.8-6.4
					c-2.7-0.6-5.4-1-8.2-1.2c-1.3-0.1-2.6-0.1-3.8-0.1c-0.1,0-0.1,0-0.2,0c0-0.2-0.1-0.5-0.1-0.7c-0.3-1.3-0.6-2.5-1-3.8
					c-1.2-4.7-2.4-9.5-3.8-14.2c-0.7-2.6-1.5-5.2-2.3-7.8c-0.4-1.4-0.9-2.7-1.3-4.1c-0.1-0.2-0.1-0.6-0.3-1
					c13-5.8,26.4,2.2,35.9,11.5c1.4,1.4,2.7,2.8,3.9,4.1c3.5,4.1,6.6,8.4,9.4,13c6.1,9.9,10.8,20.8,16.1,31.2
					c7,13.9,15.7,26.7,26.6,37.7c5.5,5.5,11.5,10.6,17.8,15.1c6,4.3,12.3,8.2,18.9,11.6c16.2,8.3,33.5,14.4,50.8,19.7
					c1,0.3,1.9,0.6,2.9,0.9c16.7,5,33.5,9.5,50.2,14.5c18.1,5.3,36.2,10.9,53.9,17.4c8.5,3.1,16.9,6.5,25.2,10
					c7.6,3.3,15.2,6.8,22.7,10.6c12.7,6.4,25.1,13.5,36.1,22.4c5.5,4.5,10.6,9.4,15.1,14.9c-0.2,0.4-0.4,0.9-0.6,1.2
					c-0.4,0.7-0.9,1.4-1.4,2.1c-3.9,5-9.8,7.3-15.9,8.1c-3.6,0.5-7.2,0.5-10.9,0.4c-1.8,0-3.5-0.1-5.3-0.1c-0.9,0-1.8,0-2.7,0
					c-0.4,0-0.8-0.1-1.2,0c-0.2,0-1,0.5-0.3,0.6c0.2,0.1,0.4,0.1,0.6,0.2c0,0,0,0.1,0,0.1c1.3,10,8.4,18.6,17.8,22.2
					c8,3.1,18,3.2,25.9-0.1c3.3-1.4,6.7-3.6,8.7-6.7C538.5,490.9,538.7,491.4,539.1,491.7z"/>
				<path id="XMLID_66_" d="M275.8,452.9c0.1,0.1,0.2,0.2,0.3,0.3c0,0,0,0,0,0c0,0.2,0.1,0.3,0.2,0.5c0,0.2-0.1,0.3-0.2,0.4
					c-0.3,0.1-0.5-0.1-0.7-0.3c-0.1-0.1-0.3-0.2-0.4-0.3c0.2-0.2,0.4-0.3,0.6-0.5C275.7,453,275.7,453,275.8,452.9L275.8,452.9z"/>
				<path id="XMLID_65_" class="st0" d="M262.7,196.4c0.3,1.3-0.2,2.3-1.5,3c-1.6,1.6-3.6,3-5.3,4.5c-2,1.6-4,3.3-6,4.9
					c-4,3.3-8.1,6.5-12.2,9.8c-8.1,6.4-16.4,12.6-24.8,18.7c-4.2,3-8.4,6-12.6,8.9c-2.1,1.5-4.2,2.9-6.4,4.4
					c-1.1,0.7-2.1,1.4-3.2,2.1c-0.5,0.4-1.2,0.7-1.9,1.1c-3.5-5.6-7.4-10.9-12.1-15.5c11.1-5.1,21.8-11.1,32.5-16.8
					c11.5-6.1,23.2-11.9,35-17.6c3-1.4,6-2.8,8.9-4.4c2.4-1.4,5-3.1,7.8-3.5C262.4,194.7,263,194.8,262.7,196.4z"/>
				<path id="XMLID_64_" d="M315.6,344.4c0.3,0.2,0,0.3-0.2,0.3c-0.1,0-0.1-0.1-0.2-0.1c-0.5-0.3-1-0.5-1.5-0.6
					c-0.5-0.2-1-0.5-1.4-0.7c-2.5-1.2-5-2.5-7.6-3.7c0.1,0,0.1,0,0.2-0.1c0.3-0.1,0.6-0.2,0.8-0.3c-0.1,0,0.8-0.5,0.2-0.4
					c-0.7,0.1-1.4,0.2-2.1,0.4h0c-7.9-3.7-15.8-7.2-24.4-9.1c-7.6-1.7-17-2.9-23.6,2.1c-1.7,1.2-3,2.8-4.1,4.6
					c-0.4,0.6-0.7,1.8-1.3,2.4c-0.4-0.3-0.8-0.6-1.2-0.9c-0.3-0.2-0.6-0.5-1-0.7c0.2-0.8,0.7-1.6,1.1-2.2c0.6-1,1.2-2,2-2.8
					c1.4-1.6,3-3,4.9-4c8.3-4.6,19.1-2.6,27.8-0.1C295.3,331.9,305.9,337.5,315.6,344.4z"/>
				<path id="XMLID_62_" d="M320.4,371.8c0.1,0.1,0.2,0.2,0.3,0.2l-0.2,0.5c-1-0.3-1.9-0.6-2.9-0.9c-17.4-5.3-34.6-11.3-50.8-19.7
					c-6.6-3.4-12.9-7.2-18.9-11.6l0.8-1.1c0.4,0.3,0.9,0.4,1.3,0.2c0.1-0.1,0.2-0.1,0.3-0.2c12.2,8.4,25.5,14.7,39.3,20.1
					c0.1,0.4,0.5,0.7,1,0.7c0.1,0,0.3,0,0.4-0.1c0,0,0,0,0,0c1.7,0.7,3.4,1.3,5.1,1.9c0,0.1-0.1,0.3-0.1,0.4c0,0.1,0.1,0.7,0.3,0.3
					c0.1-0.2,0.2-0.4,0.3-0.5c0.1,0,0.3,0.1,0.4,0.2c7.6,2.8,15.3,5.3,23,7.7C320.1,370.6,320,371.4,320.4,371.8z"/>
				<path id="XMLID_61_" d="M248.2,338.6c-0.1-0.3-0.1-0.5,0-0.8c0.3,0.2,0.6,0.5,1,0.7c0.4,0.3,0.8,0.6,1.2,0.9
					c-0.1,0.1-0.2,0.2-0.3,0.2c-0.4,0.2-0.9,0.1-1.3-0.2C248.5,339.1,248.3,338.8,248.2,338.6z"/>
				<path id="XMLID_60_" d="M264,443.9c4.2,2.6,8.6,5.2,11.8,9c0,0-0.1,0.1-0.2,0.1c-0.2,0.2-0.4,0.4-0.6,0.5
					c-0.6-0.4-1.1-0.8-1.7-1.2c-1.3-0.9-2.6-1.8-3.9-2.7c-2.7-1.8-5.4-3.5-8.1-5.2c-4.9-3-9.9-5.8-14.8-8.8c-0.9-0.5-1.9-1-2.8-1.5
					c0.2-0.9,0.4-1.8,0.5-2.6c0.3,0.2,0.6,0.4,0.9,0.6c1.2,0.8,2.4,1.5,3.7,2.3C253.8,437.5,258.9,440.7,264,443.9z"/>
				<path id="XMLID_59_" d="M244.1,431.5c-0.1,0.9-0.3,1.8-0.5,2.6c-0.4-0.3-0.8-0.5-1.2-0.8c-0.2-0.2-0.3-0.3-0.4-0.5
					c0.1-0.4,0.1-0.9,0.2-1.3v0c0,0,0,0,0,0C242.8,430.8,243.5,431.1,244.1,431.5z"/>
				<path id="XMLID_57_" d="M242.2,431.5c-0.1,0.4-0.1,0.9-0.2,1.3C241.8,432.4,241.9,431.9,242.2,431.5z"/>
				<path id="XMLID_56_" d="M237.2,404.2c0.2,0.2,0,0.2-0.1,0.2c0,0,0,0,0,0c-0.1-0.1-0.1-0.2-0.2-0.3c-0.1-0.1-0.2-0.3-0.3-0.4
					C236.8,403.9,237,404.1,237.2,404.2z"/>
				<path id="XMLID_54_" d="M239.7,406.7c0.1,0.4-0.2,0.4-0.4,0.3c-0.3-0.1-0.6-0.8-0.9-1c-0.4-0.5-0.9-1.1-1.4-1.6
					c0.1,0,0.4,0,0.1-0.2c-0.2-0.2-0.5-0.3-0.7-0.5c0,0,0,0,0,0c-0.4-0.5-0.9-1-1.4-1.5c1.2,0.5,2.9,2.1,3.3,2.5
					c0.3,0.3,0.5,0.5,0.8,0.8c0,0,0,0,0,0C239.4,405.9,239.6,406.3,239.7,406.7z"/>
				<path id="XMLID_53_" d="M242.1,410.1c1.9,4.1,2.5,8.8,2.6,13.2c0,2.7-0.1,5.5-0.5,8.2c-0.6-0.4-1.3-0.7-1.9-0.1c0,0,0,0,0,0
					c0.2-1.5,0.4-3,0.4-4.5c0.2-4.5,0-9.2-1.4-13.6c-0.7-2.1-1.7-4.2-3.1-6c-0.7-0.9-1.5-1.7-2.4-2.4c-0.6-0.5-2-1-2.1-1.8
					c0.5,0.1,1,0.2,1.4,0.4c0.4,0.2,0.8,0.3,1.2,0.5c0.2,0.1,0.5,0.4,0.7,0.4c0,0,0,0,0.1,0c0,0,0,0,0,0c0.5,0.5,0.9,1,1.4,1.6
					c0.2,0.2,0.6,0.9,0.9,1c0.2,0.1,0.6,0,0.4-0.3c-0.2-0.4-0.3-0.7-0.5-1.1C240.4,406.9,241.3,408.5,242.1,410.1z"/>
				<path id="XMLID_52_" d="M236.5,403.7c-0.9-0.6-1.8-1-2.7-1.2c0.2-0.5,0.8-0.6,1.4-0.3l0,0C235.6,402.7,236.1,403.2,236.5,403.7z
					"/>
				<path id="XMLID_49_" class="st0" d="M233.5,400.4c0.6,0.6,1.1,1.2,1.7,1.8c-0.6-0.3-1.1-0.2-1.4,0.3
					c-7.1-1.9-13.1,6.3-15.6,12.6c-1.5,3.8-2.2,7.8-2.4,11.9c-0.3,4.5,0,9.2,1.2,13.6c1,3.6,3.4,8.7,6.9,11.5
					c-1.8-0.1-3.5-0.2-5.2-0.5c-7-9.1-11.6-20.2-10.5-31.9c0.4-4.3,1.6-8.7,3.5-12.6c1.8-3.7,4.4-7.3,8.2-9.2
					c1.8-0.9,3.9-1.4,5.9-1.3c1.1,0,2.2,0.2,3.3,0.5c0.4,0.1,0.9,0.4,1.4,0.5c0,0,0,0,0,0C231.6,398.5,232.5,399.5,233.5,400.4z"/>
				<path id="XMLID_47_" d="M237,404.4c-0.2,0-0.5-0.3-0.7-0.4c-0.4-0.2-0.8-0.4-1.2-0.5c-0.4-0.2-0.9-0.3-1.4-0.4
					c0-0.1,0-0.1,0-0.2c0-0.1,0.1-0.2,0.1-0.3c0.9,0.2,1.8,0.6,2.7,1.2c0,0,0,0,0,0c0.1,0.1,0.2,0.2,0.3,0.4
					C237,404.2,237,404.3,237,404.4C237.1,404.4,237,404.4,237,404.4z"/>
				<path id="XMLID_45_" class="st1" d="M224.3,408c2-2.6,4.8-5.1,8.3-5c0.4,0,0.7,0,1.1,0.1c0.1,0.9,1.5,1.4,2.1,1.8
					c0.9,0.7,1.7,1.5,2.4,2.4c1.4,1.8,2.4,3.9,3.1,6c1.4,4.4,1.6,9.1,1.4,13.6c-0.1,1.5-0.2,3-0.4,4.5v0c-0.4,0.4-0.4,0.9-0.2,1.3
					c-0.6,3.8-1.8,7.6-3.7,11c-1.9,3.4-5.1,8-9.5,8h0c-4.4,0-7.5-5-8.9-8.5c-1.8-4.4-2.3-9.2-2.3-13.9c0-3.7,0.4-7.4,1.5-11
					C220.3,414.7,221.9,411.1,224.3,408z"/>
				<path id="XMLID_42_" d="M227.1,394.4c1.9,0.2,5.4,0.9,4.7,2.6c-0.3,0.6-0.8,0.7-1.3,0.6c0,0,0,0,0,0
					C229.4,396.5,228.3,395.4,227.1,394.4z"/>
				<path id="XMLID_40_" d="M229.1,454.1c0.3-0.1,0.5-0.3,0.6-0.6c0.2-0.4,0.1-0.9-0.1-1.2c-0.2-0.3-0.5-0.4-0.7-0.4l0-0.1
					c4.3,0,7.6-4.6,9.5-8c1.9-3.4,3-7.2,3.7-11c0.1,0.2,0.2,0.4,0.4,0.5c0.4,0.3,0.8,0.6,1.2,0.8c-0.1,0.3-0.1,0.7-0.2,1
					c-0.9,3.5-2.2,6.9-3.9,10c-1.7,3.1-3.8,6.4-7,8C231.4,453.8,230.2,454.1,229.1,454.1z"/>
				<path id="XMLID_39_" d="M227.8,452c0.4,0,0.8-0.1,1.1-0.1c0.3,0,0.6,0.1,0.7,0.4c0.2,0.3,0.3,0.9,0.1,1.2
					c-0.1,0.2-0.3,0.4-0.6,0.6c-1.9,0-3.7-0.8-5.3-2C225.2,452.1,226.5,452.1,227.8,452z"/>
				<path id="XMLID_38_" class="st0" d="M226.2,394.3c-2.3-0.1-4.6,0.4-6.7,1.4c-4.4,2.2-7.6,6.3-9.8,10.6
					c-2.3,4.6-3.4,9.6-3.6,14.7c-0.4,10.9,3.3,22.5,11.1,30.3c-6.6-1.3-12.9-4-18.6-7.5c-5.9-3.5-11.4-7.7-16.4-12.4
					c-4.9-4.5-9.2-9.7-12.3-15.5c-3.1-5.7-5.1-12.3-4.4-18.8c0.6-5.5,3.1-11,7.4-14.6c7.8-6.4,19.2-5.7,28.3-3
					c9.8,2.8,18.5,8.3,26.1,14.9C226.7,394.4,226.4,394.3,226.2,394.3z"/>
				<path id="XMLID_35_" d="M218.8,452.8c-0.5-0.4-0.9-0.8-1.4-1.3c-0.1-0.1-0.2-0.2-0.3-0.3c0.2,0,0.3,0.1,0.5,0.1
					c0.3,0.1,0.7,0.1,1,0.2c0.4,0.5,0.8,1,1.2,1.6c0.3,0.3-0.2,0.4-0.4,0.4C219.3,453.4,218.9,453,218.8,452.8z"/>
				<path id="XMLID_34_" d="M228.9,451.8L228.9,451.8v0.1c-0.4,0-0.8,0.1-1.1,0.1c-1.3,0.1-2.6,0.1-3.9,0.1
					c-3.5-2.8-5.9-7.9-6.9-11.5c-1.2-4.4-1.5-9-1.2-13.6c0.2-4,0.9-8.1,2.4-11.9c2.5-6.3,8.5-14.5,15.6-12.6c0,0.1-0.1,0.2-0.1,0.3
					c0,0.1,0,0.1,0,0.2c-0.4-0.1-0.7-0.1-1.1-0.1c-3.5-0.1-6.3,2.4-8.3,5c-2.3,3.1-4,6.7-5.1,10.4c-1.1,3.6-1.5,7.3-1.5,11
					c0,4.7,0.6,9.5,2.3,13.9C221.4,446.8,224.5,451.8,228.9,451.8z"/>
				<path id="XMLID_32_" d="M219.5,395.7c2.1-1,4.4-1.5,6.7-1.4c0.2,0,0.6,0,1,0.1c1.2,1,2.3,2.1,3.4,3.1c-0.5-0.1-1-0.4-1.4-0.5
					c-1.1-0.3-2.2-0.5-3.3-0.5c-2.1-0.1-4.1,0.4-5.9,1.3c-3.7,1.9-6.4,5.5-8.2,9.2c-1.9,3.9-3.1,8.2-3.5,12.6
					c-1.1,11.7,3.4,22.8,10.5,31.9c-0.4,0-0.7-0.1-1-0.2c-0.2,0-0.3-0.1-0.5-0.1c0,0,0,0,0,0c-7.8-7.8-11.5-19.4-11.1-30.3
					c0.2-5.1,1.3-10.1,3.6-14.7C211.8,402,215.1,397.9,219.5,395.7z"/>
				<path id="XMLID_31_" d="M212.9,237.2c8.4-6.1,16.6-12.3,24.8-18.7c4.1-3.2,8.2-6.5,12.2-9.8c2-1.6,4-3.2,6-4.9
					c1.8-1.5,3.7-2.8,5.3-4.5c1.3-0.7,1.8-1.7,1.5-3c0.4-1.6-0.2-1.8-1.7-0.4c-2.8,0.4-5.4,2.1-7.8,3.5c-2.9,1.6-5.9,3-8.9,4.4
					c-11.8,5.7-23.5,11.4-35,17.6c-10.8,5.7-21.4,11.7-32.5,16.8c-0.1-0.1-0.3-0.3-0.4-0.4c-0.2-0.2-0.4-0.4-0.6-0.5
					c0.8-0.5,1.7-1.1,2.5-1.6c8.5-5.3,17.3-9.9,26.2-14.4c9.1-4.6,18.2-9.2,27.4-13.7c9.4-4.6,18.8-9.1,28.3-13.5
					c1-0.5,2.3-1.4,3.4-1.6c1-0.2,1.4,0.8,1.6,1.6c0.4,1.4,0.1,2.9-0.6,4.2c-1.6,2.8-4.5,4.7-7,6.6c-3.9,3-7.6,6.2-11.4,9.2
					c-4.1,3.3-8.2,6.6-12.4,9.8c-8.2,6.4-16.6,12.6-24.9,18.8c-4.2,3.1-8.4,6.1-12.6,9.2c-2,1.4-3.9,2.8-5.9,4.2
					c-0.5-0.8-0.9-1.6-1.5-2.4c0.6-0.4,1.4-0.8,1.9-1.1c1.1-0.7,2.1-1.4,3.2-2.1c2.1-1.4,4.2-2.9,6.4-4.4
					C204.5,243.2,208.7,240.3,212.9,237.2z"/>
				<path id="XMLID_28_" d="M189.8,256.5c-0.6,0.4-1.3,0.7-1.9,0c-0.1-0.1-0.1-0.1-0.2-0.2c-0.3-0.5-0.3-1.1,0-1.6
					c0.2-0.3,0.6-0.6,1-0.9c0.5,0.8,1,1.6,1.5,2.4C190.1,256.3,189.9,256.4,189.8,256.5z"/>
				<path id="XMLID_24_" d="M188.2,374.7c0,0.3-0.2,0.6-0.8,0.8c-0.6,0.2-1.2-0.2-1.8-0.7C186.5,374.7,187.4,374.7,188.2,374.7z"/>
				<path id="XMLID_23_" d="M248,340.5c-6.3-4.5-12.3-9.6-17.8-15.1c-10.9-11-19.6-23.9-26.6-37.7c-5.2-10.4-10-21.2-16.1-31.2
					l0.2-0.1c0,0.1,0.1,0.1,0.2,0.2c0.6,0.7,1.3,0.4,1.9,0c0.1-0.1,0.3-0.2,0.5-0.3c0.3,0.5,0.6,1,0.9,1.6
					c8.3,14.3,14.3,29.9,23.2,43.9c8.9,14.1,20.2,26.4,33.8,36.1c-0.1,0.3-0.1,0.6,0,0.8c0.1,0.3,0.3,0.5,0.5,0.8L248,340.5z"/>
				<path id="XMLID_21_" d="M182.5,355.5c-0.1,1-0.3,1.9-0.3,2.9c-0.1,1.8-0.1,3.7,0.3,5.5c0.6,3.2,1.9,6.3,4.1,8.7
					c0.4,0.4,1.6,1.3,1.6,2c-0.9,0-1.7,0-2.5,0.1c-0.6-0.6-1.2-1.3-1.5-1.8c-3.4-4.3-4.5-10.4-3.3-15.7c0.1,0.1,0.3,0.2,0.6,0.2
					c0.9,0,0.9-0.8,0.7-1.4c-0.1-0.5-0.3-0.9-0.4-1.3c0.1-0.1,0.4-0.2,0.6-0.1C182.7,354.9,182.6,355.2,182.5,355.5z"/>
				<path id="XMLID_20_" d="M182.2,356.1c0.2,0.6,0.2,1.4-0.7,1.4c-0.2,0-0.4-0.1-0.6-0.2c0.2-0.8,0.4-1.5,0.7-2.3
					c0-0.1,0.1-0.2,0.1-0.2C181.9,355.2,182,355.7,182.2,356.1z"/>
				<path id="XMLID_19_" d="M174.5,239c-0.1-0.1-0.2-0.2-0.2-0.3c-0.1-0.5,0.6-0.7,0.9-0.9c0.2-0.1,0.4-0.3,0.6-0.4
					c0.2,0.2,0.4,0.4,0.6,0.5c0.1,0.1,0.3,0.3,0.4,0.4c-0.6,0.3-1.1,0.5-1.7,0.8C174.9,239.1,174.7,239.1,174.5,239z"/>
				<path id="XMLID_18_" d="M176.7,238.3c4.6,4.6,8.6,9.9,12.1,15.5c-0.4,0.3-0.8,0.6-1,0.9c-0.3,0.5-0.3,1.1,0,1.6l-0.2,0.1
					c-2.8-4.6-5.9-8.9-9.4-13c-1.2-1.4-2.5-2.8-3.9-4.1l0.3-0.3c0.2,0.1,0.4,0.1,0.6,0.1C175.6,238.8,176.2,238.5,176.7,238.3z"/>
				<path id="XMLID_17_" d="M174.1,271.8c0.4,0,0.8,0.2,1.1,0.5c0,0.2,0,0.3-0.1,0.5c-0.5,0.9-1.7,0.5-2.1-0.3
					c-0.1-0.1-0.1-0.2-0.1-0.3C173.2,272,173.7,271.8,174.1,271.8z"/>
				<path id="XMLID_16_" class="st0" d="M171.3,269.7c0.6,0.8,1,1.7,1.5,2.6c-0.4,0.2-0.9,0.5-1.2,0.7c-1.1,0.5-2.1,1.1-3.1,1.6
					c-2,1-4.1,2.1-6.1,3.1c-8,4-16.1,8-24.2,12c-16.2,7.8-32.5,15.5-48.9,22.8c-8.3,3.7-16.6,7.4-24.9,11c-3.8,1.6-7.7,3.2-11.5,5
					c-0.9,0.5-1.3,0.4-1.8-0.5c-0.5-0.8-1.5-2.4-1.1-3.4c0.6-1.4,2.6-2.4,3.8-3.2c1.8-1.2,3.5-2.4,5.2-3.6c3.7-2.6,7.5-5.1,11.2-7.6
					c7.5-5.1,15.1-10,22.7-15c7.6-4.9,15.2-9.8,22.9-14.5c7.4-4.6,15.1-9,22.5-13.6c1.7-1.1,3.4-2.2,5.1-3.3
					c0.8-0.5,1.6-1.1,2.4-1.7c0.4-0.3,1-0.6,1.3-1c0,0,0.1-0.1,0.1-0.2c3.9,0.6,7.8,1.2,11.6,2.2
					C163.5,264.1,168.3,265.9,171.3,269.7z"/>
				<path id="XMLID_15_" d="M211.7,381.1c10.9,5.4,22.2,13.2,27.6,24.5c-0.2-0.3-0.5-0.6-0.8-0.8c-0.4-0.4-2-2-3.3-2.5l0,0
					c-0.6-0.6-1.1-1.2-1.7-1.8c-0.9-1-1.9-1.9-2.9-2.9c0.5,0.1,1,0,1.3-0.6c0.7-1.6-2.8-2.3-4.7-2.6c-7.6-6.7-16.4-12.1-26.1-14.9
					c-9.1-2.6-20.5-3.4-28.3,3c-4.3,3.6-6.8,9-7.4,14.6c-0.7,6.6,1.3,13.1,4.4,18.8c3.2,5.8,7.5,11,12.3,15.5
					c5,4.6,10.6,8.9,16.4,12.4c5.8,3.5,12,6.2,18.6,7.5c0,0,0,0,0,0c0.1,0.1,0.2,0.2,0.3,0.3c0.4,0.4,0.9,0.9,1.4,1.3
					c0.1,0.1,0.6,0.6,0.8,0.6c0.2,0,0.6,0,0.4-0.4c-0.4-0.5-0.8-1-1.2-1.6c1.7,0.3,3.5,0.5,5.2,0.5c1.6,1.3,3.3,2.1,5.3,2
					c-0.9,0.5-2.6,0.5-3.4,0.6c-13.4,1.7-26.2-6.6-36.5-14.2c-10.5-7.8-20.2-17.2-24.5-29.9c-1.9-5.6-2.6-11.6-1.1-17.5
					c1.3-5.4,4.3-10.5,8.9-13.8c4-2.9,8.5-4.3,13.2-4.6c0.6,0.5,1.2,0.9,1.8,0.7c0.6-0.2,0.8-0.5,0.8-0.8
					C196.4,374.8,204.8,377.7,211.7,381.1z"/>
				<path id="XMLID_14_" d="M181.6,355c-0.3,0.7-0.5,1.5-0.7,2.3c-0.5-0.5-0.6-1.5-0.8-2c-0.4-1.2-0.8-2.4-1.2-3.6
					c-0.9-2.6-1.8-5.3-2.7-7.9c-3.4-10.2-6.8-20.3-10.2-30.5c-1.7-5.1-3.3-10.2-5.1-15.2c-1.7-4.8-3.6-9.6-4.2-14.7v0
					c0,0,0.1,0,0.1-0.1c0.2,0.1,0.4,0.6,0.4,0.6c0.1,0.2,0.2,0.4,0.3,0.6c0.3,0.6,0.6,1.2,0.9,1.8c0.5,1.1,1,2.3,1.4,3.5
					c0.9,2.5,1.7,5.1,2.5,7.6c1.7,5.6,3.7,11.1,5.5,16.6c3.4,10.1,6.8,20.3,10.2,30.4c0.9,2.6,1.8,5.3,2.6,7.9
					c0.3,0.8,0.6,1.6,0.8,2.4C181.7,354.8,181.6,354.9,181.6,355z"/>
				<path id="XMLID_12_" d="M156.9,283.2c0,0-0.1,0-0.1,0.1C156.7,283.1,156.8,283.1,156.9,283.2z"/>
				<path id="XMLID_11_" d="M147.1,260.3c0.4-0.2,0.4,0.1,0.3,0.4c-0.3,0-0.6-0.1-0.8-0.1C146.8,260.5,147,260.4,147.1,260.3z"/>
				<path id="XMLID_9_" d="M145.4,259.4c0.5-0.1,1.1,0,1.6,0c0,0.4-0.1,0.7-0.6,0.9c-0.3,0.2-0.6,0.2-0.8,0.1
					c-0.3-0.1-0.5-0.3-0.7-0.7C145,259.5,145.3,259.4,145.4,259.4z"/>
				<path id="XMLID_8_" d="M174.2,269.9c0.3,0.6,1.1,1.6,1,2.4c-0.3-0.3-0.7-0.5-1.1-0.5c-0.4,0-0.9,0.2-1.3,0.4
					c-0.5-0.9-0.9-1.8-1.5-2.6c-2.9-3.8-7.8-5.6-12.2-6.8c-3.8-1-7.8-1.6-11.6-2.2c0.1-0.2,0.2-0.6-0.3-0.4
					c-0.2,0.1-0.4,0.2-0.6,0.2c-0.3-0.1-0.6-0.1-1-0.2c0.2,0.1,0.5,0,0.8-0.1c0.4-0.2,0.6-0.6,0.6-0.9c0.1,0,0.1,0,0.2,0
					c1.3,0,2.6,0,3.8,0.1c2.8,0.2,5.5,0.6,8.2,1.2c4.6,1.1,9.4,3,12.8,6.4C172.9,267.9,173.6,268.9,174.2,269.9z"/>
				<path id="XMLID_7_" d="M145.1,260.3c-0.5-0.1-0.4-0.4-0.2-0.6c0.2,0.3,0.4,0.6,0.7,0.7C145.4,260.4,145.3,260.3,145.1,260.3z"/>
				<path id="XMLID_6_" d="M142.2,240.7c1.3,4.7,2.5,9.5,3.8,14.2c0.3,1.2,0.7,2.5,1,3.8c0.1,0.2,0.1,0.5,0.1,0.7
					c-0.5,0-1.1,0-1.6,0c-0.2,0-0.4,0.2-0.6,0.4c-0.5-0.9-0.6-2.4-0.8-3c-2.5-9.5-5.1-19.1-6.8-28.8c0.2,0.1,0.4,0.1,0.6,0
					c0.1-0.1,0.3-0.1,0.4-0.2c0.1,0.4,0.2,0.8,0.3,1c0.4,1.4,0.9,2.7,1.3,4.1C140.7,235.4,141.4,238,142.2,240.7z"/>
				<path id="XMLID_5_" d="M138,227.2c0.1,0.1,0.3,0.4,0.4,0.6c-0.1,0.1-0.3,0.1-0.4,0.2c-0.2,0.1-0.4,0.1-0.6,0h0
					c0-0.1-0.1-0.3-0.1-0.4C137.2,227.1,137.6,226.9,138,227.2z"/>
				<path id="XMLID_4_" d="M174.3,238.7c0,0.1,0.1,0.2,0.2,0.3l-0.3,0.3c-9.5-9.3-22.9-17.3-35.9-11.5c-0.1-0.3-0.2-0.5-0.4-0.6
					c-0.3-0.2-0.8-0.1-0.7,0.4c0,0.1,0.1,0.3,0.1,0.4c-0.1-0.1-0.2-0.2-0.3-0.3c-0.1-0.4,0.1-0.6,0.4-0.8c0.8-0.5,1.7-0.9,2.6-1.3
					c1.8-0.7,3.6-1.2,5.5-1.5c3.7-0.5,7.5,0,11,1.1c7.3,2.2,13.8,6.9,19.2,12.2c-0.2,0.1-0.4,0.3-0.6,0.4
					C174.9,238,174.2,238.2,174.3,238.7z"/>
				<path id="XMLID_10_" d="M276.6,542.9c-15.9,4.8-31.7,9.7-47.5,14.6c-20.8,6.4-41.6,12.9-62.4,19.3
					c-20.8,6.4-41.6,12.9-62.5,19.3c-10.3,3.2-20.7,6.4-31,9.5c-2.3,0.7-4.7,1.6-7.1,2.1c-2.2,0.4-4.2,0.2-6.3-0.3
					c-3.2-0.7-6.6-1.6-9.3-3.6c-2.6-2-3.8-5.4-2.8-8.6c1-3.1,3.8-5.3,6.4-7c3-1.9,6.1-3.5,9.2-5.2c4.6-2.5,9.3-5,14-7.5
					c9.3-4.8,18.7-9.5,28-14.3c9.5-4.9,18.9-9.9,28.2-15c18.5-10.1,36.9-20.5,54.9-31.5c17.4-10.7,34.3-21.9,50.9-33.9
					c8.2-5.9,16.3-12,24.3-18.2c3.8-3,7.6-6,11.3-9c0.1,0.1,0.3,0.2,0.4,0.3c0.2,0.1,0.4,0.4,0.7,0.3c0.1-0.1,0.2-0.2,0.2-0.4
					c0.4,0.6,1.2,0.7,2,0.8c0,0-0.1,0.1-0.1,0.1c-0.9,0.7-1.8,1.5-2.7,2.2c-15.8,12.8-32.2,24.9-49,36.4
					c-16.8,11.5-34,22.3-51.6,32.6c-18.1,10.7-36.7,20.7-55.3,30.5c-18.6,9.8-37.3,19.5-56,29.3c-3.3,1.7-6.7,3.2-9.6,5.6
					c-2.3,1.9-5,5.4-3.5,8.6c1.3,2.7,4.9,3.7,7.6,4.5c2.1,0.7,4.3,1.1,6.5,0.9c2.3-0.2,4.4-0.9,6.6-1.5
					c20.8-6.4,41.6-12.8,62.4-19.2c20.8-6.4,41.5-12.8,62.3-19.2c20.8-6.4,41.5-12.8,62.3-19.1c5.8-1.8,11.6-3.6,17.5-5.4l0.1,0.4
					c-0.2,0.1-0.4,0.3-0.2,0.6C276,542.1,276.3,542.5,276.6,542.9z"/>
				<path id="XMLID_13_" d="M172.9,272.5c0.4,0.7,1.6,1.1,2.1,0.3c0.1-0.1,0.1-0.3,0.1-0.5c0.4,0.5,0.6,1.2,0.2,1.8
					c-0.5,0.7-1.9,1.1-2.6,1.4c-0.9,0.5-1.9,0.9-2.8,1.4c-4.4,2.1-8.7,4.3-13.1,6.4c-0.1-0.1-0.1-0.1-0.1,0.1v0
					c-12,5.8-24,11.5-36,17.1c-16.5,7.7-33,15.2-49.7,22.5c-4,1.7-8,3.5-11.9,5.4c-1.8,0.9-3.7,1.7-5.7,2.4c-1.7,0.5-3.7,1.1-5.2,0
					c-2.9-2-1.5-5.5,0.3-7.7c2.2-2.9,5.7-4.9,8.6-7c7.1-5,14.4-9.6,21.6-14.4c7.6-5,15.2-10,22.9-14.8c7.6-4.8,15.3-9.4,23-14.1
					c7.2-4.4,14.3-8.8,22-12.2c0.3,0.1,0.6,0.1,0.8,0.1c-0.1,0.1-0.1,0.2-0.1,0.2c-0.4,0.4-0.9,0.7-1.3,1c-0.8,0.6-1.6,1.1-2.4,1.7
					c-1.7,1.1-3.4,2.2-5.1,3.3c-7.5,4.6-15.1,9-22.5,13.6c-7.7,4.8-15.3,9.6-22.9,14.5c-7.6,4.9-15.2,9.9-22.7,15
					c-3.8,2.5-7.5,5.1-11.2,7.6c-1.8,1.2-3.5,2.4-5.2,3.6c-1.2,0.8-3.2,1.8-3.8,3.2c-0.5,1,0.6,2.6,1.1,3.4c0.5,0.9,0.9,1,1.8,0.5
					c3.7-1.8,7.6-3.3,11.5-5c8.3-3.6,16.7-7.3,24.9-11c16.4-7.4,32.7-15,48.9-22.8c8.1-3.9,16.1-7.9,24.2-12c2-1,4.1-2.1,6.1-3.1
					c1.1-0.5,2.1-1.1,3.1-1.6c0.4-0.2,0.8-0.5,1.2-0.7C172.9,272.3,172.9,272.4,172.9,272.5z"/>
			</g>
			<g id="XMLID_1353_">
			</g>
		</g>
	</g>
</g>
<g id="Layer_7">
	<g id="XMLID_117_">
		<g id="XMLID_120_">
			<path id="XMLID_126_" class="st2" d="M421.6,473.8c0,0,0.1,0.1,0.1,0.1c0.1,0,0.2,0.1,0.3,0.1c0.1,0,0.1,0,0.2,0
				c0.2,0.1,0.5,0.3,0.7,0.5c0,0.1,0.1,0.1,0.1,0.2c0,0.1,0.1,0.1,0.1,0.1c0,0,0,0,0,0c0,0.2,0.1,0.3,0.2,0.4c0.2,0.4,0.4,0.7,0.5,1
				c1.6,3.1,2,10.2-1.1,12.6c-3.2,2.5-5.8-0.3-6.9-3.4c-0.8-2.3-0.7-4.6-0.2-6.9c0.1-0.3,0.1-0.6,0.2-0.9c0.2-0.5,0.4-0.9,0.6-1.4
				c0.3-0.4,0.6-0.8,0.8-1.2c0,0,0,0,0.1-0.1c0,0,0.1-0.1,0.2-0.1c0.4-0.5,0.8-0.8,1.4-1.1c0.6-0.3,1.1-0.3,1.6-0.2
				C421,473.6,421.3,473.6,421.6,473.8z"/>
			<path id="XMLID_122_" d="M423.5,475.3c-0.1-0.1-0.2-0.2-0.2-0.4c0,0,0,0,0,0c0,0-0.1-0.1-0.1-0.1c0,0-0.1-0.1-0.1-0.2
				c-0.2-0.2-0.4-0.4-0.7-0.5c-0.1,0-0.1,0-0.2,0c-0.1-0.1-0.2-0.1-0.3-0.1c0,0-0.1-0.1-0.1-0.1c-0.3-0.2-0.6-0.2-0.9-0.2
				c-0.5-0.1-1.1-0.1-1.6,0.2c-0.5,0.2-1,0.6-1.4,1.1c-0.1,0-0.1,0.1-0.2,0.1c0,0,0,0-0.1,0.1c-0.2,0.4-0.5,0.9-0.8,1.2
				c-0.2,0.5-0.4,0.9-0.6,1.4c-0.1,0.3-0.2,0.6-0.2,0.9c-0.5,2.3-0.6,4.7,0.2,6.9c1,3.1,3.6,5.9,6.9,3.4c3.1-2.4,2.7-9.4,1.1-12.6
				C423.8,476,423.7,475.6,423.5,475.3z M415.1,475.5c0.1-0.1,0.1-0.2,0.2-0.4c0-0.1,0.1-0.2,0.2-0.3c0,0,0.1-0.1,0.1-0.1
				c0.1-0.2,0.2-0.4,0.3-0.6c0.9-1.1,2.1-2,3.4-2.4c0.1,0,0.2,0,0.3,0c1.3-0.4,2.8-0.1,4.1,1.1c1.4,1,2.3,2.5,2.8,4.1
				c0.5,1.7,0.8,3.1,0.8,4.9c0,0.3,0,0.6-0.1,0.9c0,0.8-0.1,1.6-0.3,2.4c-0.4,1.8-1.1,3.4-2.3,4.9c-1,1.2-3,2.7-4.7,2
				c-0.5,0-1-0.2-1.5-0.5c-2.6-0.8-4.2-4.7-4.7-7.1c-0.5-2.9-0.1-6,1.3-8.6c0,0,0,0,0,0C415,475.7,415,475.6,415.1,475.5z"/>
		</g>
		<g id="XMLID_121_">
		</g>
	</g>
	<g id="XMLID_129_">
		<g id="XMLID_135_">
			<path id="XMLID_136_" d="M406.1,473.4c0,0.3,0,0.6-0.1,0.9c0,0.8-0.1,1.6-0.3,2.4c-0.4,1.8-1.1,3.4-2.3,4.9c-1,1.2-3,2.7-4.7,2
				c-0.5,0-1-0.2-1.5-0.5c-2.6-0.8-4.2-4.7-4.7-7.1c-0.5-2.9-0.1-6,1.3-8.6c0,0,0,0,0,0c0-0.1,0.1-0.1,0.1-0.2
				c0.1-0.1,0.1-0.2,0.2-0.4c0-0.1,0.1-0.2,0.2-0.3c0,0,0.1-0.1,0.1-0.1c0.1-0.2,0.2-0.4,0.3-0.6c0.9-1.1,2.1-2,3.4-2.4
				c0.1,0,0.2,0,0.3,0c1.3-0.4,2.8-0.1,4.1,1.1c1.4,1,2.3,2.5,2.8,4.1C405.8,470.2,406.1,471.6,406.1,473.4z M401.7,480.4
				c3.1-2.4,2.7-9.4,1.1-12.6c-0.1-0.3-0.3-0.6-0.5-1c-0.1-0.1-0.2-0.2-0.2-0.4c0,0,0,0,0,0c0,0-0.1-0.1-0.1-0.1
				c0,0-0.1-0.1-0.1-0.2c-0.2-0.2-0.4-0.4-0.7-0.5c-0.1,0-0.1,0-0.2,0c-0.1-0.1-0.2-0.1-0.3-0.1c0,0-0.1-0.1-0.1-0.1
				c-0.3-0.2-0.6-0.2-0.9-0.2c-0.5-0.1-1.1-0.1-1.6,0.2c-0.5,0.2-1,0.6-1.4,1.1c-0.1,0-0.1,0.1-0.2,0.1c0,0,0,0-0.1,0.1
				c-0.2,0.4-0.5,0.9-0.8,1.2c-0.2,0.5-0.4,0.9-0.6,1.4c-0.1,0.3-0.2,0.6-0.2,0.9c-0.5,2.3-0.6,4.7,0.2,6.9
				C395.8,480.1,398.4,482.9,401.7,480.4z"/>
			<path id="XMLID_128_" class="st2" d="M402.8,467.9c1.6,3.1,2,10.2-1.1,12.6c-3.2,2.5-5.8-0.3-6.9-3.4c-0.8-2.3-0.7-4.6-0.2-6.9
				c0.1-0.3,0.1-0.6,0.2-0.9c0.2-0.5,0.4-0.9,0.6-1.4c0.3-0.4,0.6-0.8,0.8-1.2c0,0,0,0,0.1-0.1c0,0,0.1-0.1,0.2-0.1
				c0.4-0.5,0.8-0.8,1.4-1.1c0.6-0.3,1.1-0.3,1.6-0.2c0.3,0,0.6,0,0.9,0.2c0,0,0.1,0.1,0.1,0.1c0.1,0,0.2,0.1,0.3,0.1
				c0.1,0,0.1,0,0.2,0c0.2,0.1,0.5,0.3,0.7,0.5c0,0.1,0.1,0.1,0.1,0.2c0,0.1,0.1,0.1,0.1,0.1c0,0,0,0,0,0c0,0.2,0.1,0.3,0.2,0.4
				C402.5,467.2,402.6,467.6,402.8,467.9z"/>
		</g>
		<g id="XMLID_134_">
		</g>
	</g>
	<g id="XMLID_140_">
		<g id="XMLID_146_">
			<path id="XMLID_3_" d="M385.8,464.4c0,0.3,0,0.6-0.1,0.9c0,0.8-0.1,1.6-0.3,2.4c-0.4,1.8-1.1,3.4-2.3,4.9c-1,1.2-3,2.7-4.7,2
				c-0.5,0-1-0.2-1.5-0.5c-2.6-0.8-4.2-4.7-4.7-7.1c-0.5-2.9-0.1-6,1.3-8.6c0,0,0,0,0,0c0-0.1,0.1-0.1,0.1-0.2
				c0.1-0.1,0.1-0.2,0.2-0.4c0-0.1,0.1-0.2,0.2-0.3c0,0,0.1-0.1,0.1-0.1c0.1-0.2,0.2-0.4,0.3-0.6c0.9-1.1,2.1-2,3.4-2.4
				c0.1,0,0.2,0,0.3,0c1.3-0.4,2.8-0.1,4.1,1.1c1.4,1,2.3,2.5,2.8,4.1C385.5,461.2,385.8,462.6,385.8,464.4z M381.4,471.5
				c3.1-2.4,2.7-9.4,1.1-12.6c-0.1-0.3-0.3-0.6-0.5-1c-0.1-0.1-0.2-0.2-0.2-0.4c0,0,0,0,0,0c0,0-0.1-0.1-0.1-0.1
				c0,0-0.1-0.1-0.1-0.2c-0.2-0.2-0.4-0.4-0.7-0.5c-0.1,0-0.1,0-0.2,0c-0.1-0.1-0.2-0.1-0.3-0.1c0,0-0.1-0.1-0.1-0.1
				c-0.3-0.2-0.6-0.2-0.9-0.2c-0.5-0.1-1.1-0.1-1.6,0.2c-0.5,0.2-1,0.6-1.4,1.1c-0.1,0-0.1,0.1-0.2,0.1c0,0,0,0-0.1,0.1
				c-0.2,0.4-0.5,0.9-0.8,1.2c-0.2,0.5-0.4,0.9-0.6,1.4c-0.1,0.3-0.2,0.6-0.2,0.9c-0.5,2.3-0.6,4.7,0.2,6.9
				C375.6,471.2,378.2,473.9,381.4,471.5z"/>
			<path id="XMLID_44_" class="st2" d="M382.5,458.9c1.6,3.1,2,10.2-1.1,12.6c-3.2,2.5-5.8-0.3-6.9-3.4c-0.8-2.3-0.7-4.6-0.2-6.9
				c0.1-0.3,0.1-0.6,0.2-0.9c0.2-0.5,0.4-0.9,0.6-1.4c0.3-0.4,0.6-0.8,0.8-1.2c0,0,0,0,0.1-0.1c0,0,0.1-0.1,0.2-0.1
				c0.4-0.5,0.8-0.8,1.4-1.1c0.6-0.3,1.1-0.3,1.6-0.2c0.3,0,0.6,0,0.9,0.2c0,0,0.1,0.1,0.1,0.1c0.1,0,0.2,0.1,0.3,0.1
				c0.1,0,0.1,0,0.2,0c0.2,0.1,0.5,0.3,0.7,0.5c0,0.1,0.1,0.1,0.1,0.2c0,0.1,0.1,0.1,0.1,0.1c0,0,0,0,0,0c0,0.2,0.1,0.3,0.2,0.4
				C382.2,458.3,382.4,458.6,382.5,458.9z"/>
		</g>
		<g id="XMLID_145_">
		</g>
	</g>
	<g id="XMLID_151_">
		<g id="XMLID_157_">
			<path id="XMLID_158_" d="M365,454.3c0,0.3,0,0.6-0.1,0.9c0,0.8-0.1,1.6-0.3,2.4c-0.4,1.8-1.1,3.4-2.3,4.9c-1,1.2-3,2.7-4.7,2
				c-0.5,0-1-0.2-1.5-0.5c-2.6-0.8-4.2-4.7-4.7-7.1c-0.5-2.9-0.1-6,1.3-8.6c0,0,0,0,0,0c0-0.1,0.1-0.1,0.1-0.2
				c0.1-0.1,0.1-0.2,0.2-0.4c0-0.1,0.1-0.2,0.2-0.3c0,0,0.1-0.1,0.1-0.1c0.1-0.2,0.2-0.4,0.3-0.6c0.9-1.1,2.1-2,3.4-2.4
				c0.1,0,0.2,0,0.3,0c1.3-0.4,2.8-0.1,4.1,1.1c1.4,1,2.3,2.5,2.8,4.1C364.7,451.1,365,452.6,365,454.3z M360.6,461.4
				c3.1-2.4,2.7-9.4,1.1-12.6c-0.1-0.3-0.3-0.6-0.5-1c-0.1-0.1-0.2-0.2-0.2-0.4c0,0,0,0,0,0c0,0-0.1-0.1-0.1-0.1
				c0,0-0.1-0.1-0.1-0.2c-0.2-0.2-0.4-0.4-0.7-0.5c-0.1,0-0.1,0-0.2,0c-0.1-0.1-0.2-0.1-0.3-0.1c0,0-0.1-0.1-0.1-0.1
				c-0.3-0.2-0.6-0.2-0.9-0.2c-0.5-0.1-1.1-0.1-1.6,0.2c-0.5,0.2-1,0.6-1.4,1.1c-0.1,0-0.1,0.1-0.2,0.1c0,0,0,0-0.1,0.1
				c-0.2,0.4-0.5,0.9-0.8,1.2c-0.2,0.5-0.4,0.9-0.6,1.4c-0.1,0.3-0.2,0.6-0.2,0.9c-0.5,2.3-0.6,4.7,0.2,6.9
				C354.8,461.1,357.4,463.8,360.6,461.4z"/>
			<path id="XMLID_150_" class="st2" d="M361.7,448.8c1.6,3.1,2,10.2-1.1,12.6c-3.2,2.5-5.8-0.3-6.9-3.4c-0.8-2.3-0.7-4.6-0.2-6.9
				c0.1-0.3,0.1-0.6,0.2-0.9c0.2-0.5,0.4-0.9,0.6-1.4c0.3-0.4,0.6-0.8,0.8-1.2c0,0,0,0,0.1-0.1c0,0,0.1-0.1,0.2-0.1
				c0.4-0.5,0.8-0.8,1.4-1.1c0.6-0.3,1.1-0.3,1.6-0.2c0.3,0,0.6,0,0.9,0.2c0,0,0.1,0.1,0.1,0.1c0.1,0,0.2,0.1,0.3,0.1
				c0.1,0,0.1,0,0.2,0c0.2,0.1,0.5,0.3,0.7,0.5c0,0.1,0.1,0.1,0.1,0.2c0,0.1,0.1,0.1,0.1,0.1c0,0,0,0,0,0c0,0.2,0.1,0.3,0.2,0.4
				C361.4,448.2,361.6,448.5,361.7,448.8z"/>
		</g>
		<g id="XMLID_156_">
		</g>
	</g>
	<g id="XMLID_162_">
		<g id="XMLID_168_">
			<path id="XMLID_169_" d="M344.6,443.9c0,0.3,0,0.6-0.1,0.9c0,0.8-0.1,1.6-0.3,2.4c-0.4,1.8-1.1,3.4-2.3,4.9c-1,1.2-3,2.7-4.7,2
				c-0.5,0-1-0.2-1.5-0.5c-2.6-0.8-4.2-4.7-4.7-7.1c-0.5-2.9-0.1-6,1.3-8.6c0,0,0,0,0,0c0-0.1,0.1-0.1,0.1-0.2
				c0.1-0.1,0.1-0.2,0.2-0.4c0-0.1,0.1-0.2,0.2-0.3c0,0,0.1-0.1,0.1-0.1c0.1-0.2,0.2-0.4,0.3-0.6c0.9-1.1,2.1-2,3.4-2.4
				c0.1,0,0.2,0,0.3,0c1.3-0.4,2.8-0.1,4.1,1.1c1.4,1,2.3,2.5,2.8,4.1C344.3,440.7,344.6,442.1,344.6,443.9z M340.2,451
				c3.1-2.4,2.7-9.4,1.1-12.6c-0.1-0.3-0.3-0.6-0.5-1c-0.1-0.1-0.2-0.2-0.2-0.4c0,0,0,0,0,0c0,0-0.1-0.1-0.1-0.1
				c0,0-0.1-0.1-0.1-0.2c-0.2-0.2-0.4-0.4-0.7-0.5c-0.1,0-0.1,0-0.2,0c-0.1-0.1-0.2-0.1-0.3-0.1c0,0-0.1-0.1-0.1-0.1
				c-0.3-0.2-0.6-0.2-0.9-0.2c-0.5-0.1-1.1-0.1-1.6,0.2c-0.5,0.2-1,0.6-1.4,1.1c-0.1,0-0.1,0.1-0.2,0.1c0,0,0,0-0.1,0.1
				c-0.2,0.4-0.5,0.9-0.8,1.2c-0.2,0.5-0.4,0.9-0.6,1.4c-0.1,0.3-0.2,0.6-0.2,0.9c-0.5,2.3-0.6,4.7,0.2,6.9
				C334.3,450.7,336.9,453.4,340.2,451z"/>
			<path id="XMLID_161_" class="st2" d="M341.3,438.4c1.6,3.1,2,10.2-1.1,12.6c-3.2,2.5-5.8-0.3-6.9-3.4c-0.8-2.3-0.7-4.6-0.2-6.9
				c0.1-0.3,0.1-0.6,0.2-0.9c0.2-0.5,0.4-0.9,0.6-1.4c0.3-0.4,0.6-0.8,0.8-1.2c0,0,0,0,0.1-0.1c0,0,0.1-0.1,0.2-0.1
				c0.4-0.5,0.8-0.8,1.4-1.1c0.6-0.3,1.1-0.3,1.6-0.2c0.3,0,0.6,0,0.9,0.2c0,0,0.1,0.1,0.1,0.1c0.1,0,0.2,0.1,0.3,0.1
				c0.1,0,0.1,0,0.2,0c0.2,0.1,0.5,0.3,0.7,0.5c0,0.1,0.1,0.1,0.1,0.2c0,0.1,0.1,0.1,0.1,0.1c0,0,0,0,0,0c0,0.2,0.1,0.3,0.2,0.4
				C341,437.7,341.1,438.1,341.3,438.4z"/>
		</g>
		<g id="XMLID_167_">
		</g>
	</g>
	<g id="XMLID_173_">
		<g id="XMLID_179_">
			<path id="XMLID_180_" d="M323.6,434.1c0,0.3,0,0.6-0.1,0.9c0,0.8-0.1,1.6-0.3,2.4c-0.4,1.8-1.1,3.4-2.3,4.9c-1,1.2-3,2.7-4.7,2
				c-0.5,0-1-0.2-1.5-0.5c-2.6-0.8-4.2-4.7-4.7-7.1c-0.5-2.9-0.1-6,1.3-8.6c0,0,0,0,0,0c0-0.1,0.1-0.1,0.1-0.2
				c0.1-0.1,0.1-0.2,0.2-0.4c0-0.1,0.1-0.2,0.2-0.3c0,0,0.1-0.1,0.1-0.1c0.1-0.2,0.2-0.4,0.3-0.6c0.9-1.1,2.1-2,3.4-2.4
				c0.1,0,0.2,0,0.3,0c1.3-0.4,2.8-0.1,4.1,1.1c1.4,1,2.3,2.5,2.8,4.1C323.3,430.9,323.6,432.3,323.6,434.1z M319.2,441.2
				c3.1-2.4,2.7-9.4,1.1-12.6c-0.1-0.3-0.3-0.6-0.5-1c-0.1-0.1-0.2-0.2-0.2-0.4c0,0,0,0,0,0c0,0-0.1-0.1-0.1-0.1
				c0,0-0.1-0.1-0.1-0.2c-0.2-0.2-0.4-0.4-0.7-0.5c-0.1,0-0.1,0-0.2,0c-0.1-0.1-0.2-0.1-0.3-0.1c0,0-0.1-0.1-0.1-0.1
				c-0.3-0.2-0.6-0.2-0.9-0.2c-0.5-0.1-1.1-0.1-1.6,0.2c-0.5,0.2-1,0.6-1.4,1.1c-0.1,0-0.1,0.1-0.2,0.1c0,0,0,0-0.1,0.1
				c-0.2,0.4-0.5,0.9-0.8,1.2c-0.2,0.5-0.4,0.9-0.6,1.4c-0.1,0.3-0.2,0.6-0.2,0.9c-0.5,2.3-0.6,4.7,0.2,6.9
				C313.4,440.9,316,443.6,319.2,441.2z"/>
			<path id="XMLID_172_" class="st2" d="M320.3,428.6c1.6,3.1,2,10.2-1.1,12.6c-3.2,2.5-5.8-0.3-6.9-3.4c-0.8-2.3-0.7-4.6-0.2-6.9
				c0.1-0.3,0.1-0.6,0.2-0.9c0.2-0.5,0.4-0.9,0.6-1.4c0.3-0.4,0.6-0.8,0.8-1.2c0,0,0,0,0.1-0.1c0,0,0.1-0.1,0.2-0.1
				c0.4-0.5,0.8-0.8,1.4-1.1c0.6-0.3,1.1-0.3,1.6-0.2c0.3,0,0.6,0,0.9,0.2c0,0,0.1,0.1,0.1,0.1c0.1,0,0.2,0.1,0.3,0.1
				c0.1,0,0.1,0,0.2,0c0.2,0.1,0.5,0.3,0.7,0.5c0,0.1,0.1,0.1,0.1,0.2c0,0.1,0.1,0.1,0.1,0.1c0,0,0,0,0,0c0,0.2,0.1,0.3,0.2,0.4
				C320,428,320.2,428.3,320.3,428.6z"/>
		</g>
		<g id="XMLID_178_">
		</g>
	</g>
</g>
<g id="Layer_34">
	<path id="XMLID_113_" d="M540.7,488.4c-0.3-0.4-0.8-0.7-1.3-0.8c-1.2,1.5-2.4,2.8-3.8,3.9c-0.7,0.7-1.4,1.4-2.1,2
		c-0.5,0.5-1,0.9-1.6,1.3c-0.2,0-0.3,0.1-0.5,0.2c-0.3,0.2-0.7,0.5-1,0.7c-0.2,0-0.3,0-0.5,0c0,0,0,0-0.1,0c-2.1,1-4.3,1.6-6.7,2
		c-1.6,0.3-3.2,0.4-4.8,0.4c-4.9,0-9.8-1.2-13.8-3.5c-1.8-0.8-3.6-1.8-5.3-2.9c-1.4-0.9-2.8-1.9-4.1-3.1c-0.4-0.5-0.7-0.9-1.1-1.4
		c-0.8-0.9-1.6-2-2.3-3c-2.2-3.1-4.2-6.4-5.7-9.9h-0.1c0.5,2.1,0.9,4.2,1.5,6.3c0,0.1,0,0.2,0,0.3c1,2.8,2.3,5.6,3.9,8.1
		c1.5,2.2,3.2,4.3,5,6.2c1.4,1.4,2.9,2.6,4.6,3.6c0.1,0.1,0.1,0.1,0.2,0.2c2.6,1.5,5,3.1,7.9,4c0.2,0.1,0.4,0.1,0.6,0.2
		c0.2,0,0.5,0.1,0.7,0.1c0.4,0.1,0.8,0.2,1.2,0.3c1.2,0.2,2.5,0.4,3.7,0.4c1.7,0.4,3.8,0.2,5.3,0.2c3.2-0.1,6.2-0.5,9.2-1.8
		c5.2-2.2,9.5-6.7,11.6-11.9C541.9,489.5,541.4,488.7,540.7,488.4z"/>
	<path id="XMLID_234_" d="M557.1,548c-0.2,0.1-0.4,0.2-0.5,0.4c-0.6,0.4-1.1,0.7-1.7,1.1c-11.6,9.8-30.3,6.9-44.2,4.7
		c-14.9-2.3-29.3-6.5-43.4-11.5c-14.4-5.2-28.4-11.4-42.5-17.1c-9.9-4-19.8-8.3-30-11.4c0.1-0.3,0.1-0.7,0-1.1
		c0-0.2-0.1-0.5-0.2-0.7c-0.1-0.3-0.3-0.6-0.6-0.8c-0.1-0.2-0.3-0.3-0.6-0.4c-0.1,0-0.1-0.1-0.2-0.1c-1.1-0.4-2.1-0.6-3.2-0.7
		c-0.1-0.1-0.3-0.2-0.5-0.2c-0.3-0.1-0.7-0.2-1-0.2c-0.2-0.1-0.4-0.2-0.6-0.2c-1.1-0.5-2.1-1.1-3.1-1.8c-3-2.1-5.6-4.9-7.7-7.8
		c-0.2-0.3-0.8-0.2-0.8,0.2c-0.5-0.7-1.1-1.4-1.8-2c-0.3-0.3-0.7-0.3-1-0.1c-0.8-1.3-1.6-2.7-2.3-4.1c-0.4-0.8-1.5-0.5-1.8,0.2
		c-0.3-0.4-0.7-0.7-1-1.1c1-1.3,0-3.6-2-3c-0.2,0.1-0.5,0.1-0.7,0.2c-4.7-4.7-10-8.8-15.9-12.2c-0.2-0.1-0.3,0.1-0.1,0.2
		c5,3.8,9.7,8,13.9,12.6c-0.1,0-0.1,0-0.2,0.1c0.2,0.1,0.5,0.3,0.6,0.6c0.5,0.6,0.9,1.2,1.4,1.8c0.2,0.2,0.4,0.4,0.6,0.7
		c0.1,0,0.1,0,0.2-0.1c4.4,5.3,8.2,11.1,11.3,17.3c-4.3,1.2-8.6,2.8-12.6,4c-10.8,3.2-21.6,6.5-32.4,9.7
		c-21.3,6.4-42.6,12.8-63.9,19.3c-42.9,13-85.8,25.8-128.7,38.9c-24.2,7.4-48.2,14.9-72.2,22.9c-0.7,0.2-0.4,1.2,0.3,1
		c42.4-11.1,84.3-23.8,126.3-36.3c27.6-8.2,55.3-16.3,83-24.5c9,9.3,26.2,16.6,38.7,11.1c1.6-0.7,0.4-2.9-1.1-2.6
		c-4.1,0.7-7.9,1-11.7,0.6c-4-3.9-6.5-9-7-14.5c0,0,0-0.1,0-0.1c8.1-2.4,16.2-4.8,24.3-7.2c0.3-0.1,0.6-0.2,0.9-0.3
		c1.2,5.7-2.8,10.5-5.3,15.3c-0.2,0.3,0.2,0.6,0.5,0.4c4.7-4.2,8-10.1,7.4-16.4c10.3-3.1,20.6-6.1,30.9-9.2
		c5.7-1.7,11.5-3.4,17.2-5.1c5.4-1.6,11.2-4,16.9-3.4c12.4,5.4,25,10.5,37.5,15.9c14.9,6.5,30,13,45.4,18.3
		c15.1,5.2,30.9,9.1,46.9,10.2c13.2,0.9,29,0.4,39.2-9.6C558.3,549.2,557.8,548.2,557.1,548z M298.4,554.8c-1.5-0.4-3.1-0.8-4.6-1.5
		c-5.1-2-9.6-5.1-14.6-7.4c5.5-1.6,11-3.3,16.4-4.9C294.8,546.1,295.7,550.8,298.4,554.8z"/>
	<path id="XMLID_2525_" d="M281.8,452.2c-4.5-1.7-8.9-3.6-13.2-5.6c-4.7-3.1-9.6-5.8-14.7-8.1c-2.5-1.6-5-3.3-7.4-5.2
		c-0.2-0.2-0.5,0.2-0.3,0.4c1.3,1.1,2.6,2.1,3.9,3.2c-0.7-0.3-1.4-0.6-2.1-0.9c0.2-0.3,0.2-0.7-0.1-0.8c-1.1-0.5-2.2-0.8-3.3-1.2
		c-0.1-0.1-0.2-0.1-0.4-0.1c-0.1,0-0.3-0.1-0.4-0.1c-0.4-0.1-0.7,0.1-0.7,0.4c-0.5,0-0.8,0.8-0.3,1.1c10.8,5.9,21.2,12.2,31.5,18.9
		c1.1,0.7,2.3-0.5,2.2-1.5c1.6,0.7,3.1,1.3,4.7,1.8C282.6,455,283.2,452.8,281.8,452.2z"/>
	<path id="XMLID_1272_" d="M223.5,451.6c-2.8-1.2-5.6-2.1-8.5-3c-0.5-0.5-1.1-1.1-1.5-1.7c-5.9-10.9-7.5-23.4-5.7-35.8
		c0-0.1-0.1-0.2-0.2,0c-4.1,11.9-2.7,24.7,2.6,35.9c-2.7-0.9-5.3-2-7.9-3.3c-6.4-3.3-12.5-7.5-17.7-12.5
		c-10.5-10-16.9-23.1-20.9-36.9c-0.1-0.3-0.5-0.2-0.5,0.1c-0.2,15.2,7.9,29.1,18.6,39.6c5.6,5.5,12.2,10.1,19.1,13.7
		c6.6,3.4,14.5,7.1,22,7.8C225.3,455.5,225.3,452.4,223.5,451.6z"/>
	<path id="XMLID_1_" d="M187.4,374.8c-0.3-0.5-0.6-0.9-0.9-1.3c0,0,0-0.1-0.1-0.1c0,0,0-0.1,0-0.1c-0.9-0.7-1.7-1.6-2.3-2.5
		c0,0,0,0,0,0c-0.1-0.3-0.3-0.5-0.4-0.8c-0.3-0.6-1-0.5-1.4-0.2c-0.7-2-1-4.1-1.1-6.3c0.3-0.1,0.6-0.2,0.8-0.4c-0.1-1.1,0-2.2,0-3.2
		c-0.2-0.8-0.4-1.5-0.6-2.3c0.1-0.9,0.1-1.7,0.2-2.6c0.1-0.6-0.7-0.9-1.1-0.6c-3.1-11-6.9-21.8-10.3-32.7
		c-4-12.7-8.1-25.3-12.3-37.8c-0.2-0.5-0.3-1-0.5-1.6c-0.3-0.7-1-0.9-1.5-0.7c3.4-1.9,6.9-3.8,10.3-5.7c0.3,0.2,0.7,0.2,1.1,0.1
		c1.8-0.6,3.4-1.4,5-2.3c0.8-0.4,0.9-1.2,0.7-1.8c1.5-1.8-0.7-5.1-3.2-3.7c-19.1,11.4-38.7,21.9-58.7,31.7
		c-9.8,4.8-19.8,9.5-29.8,13.9c-9,4-18.3,7.4-27.1,12c-0.8,0.2-1.6,0.4-2.4,0.5c-0.3,0.1-0.5,0.2-0.6,0.5c-0.6,0-1.1-0.2-1.6-0.7
		c-0.2-0.2-0.5,0.1-0.4,0.3c0.4,0.5,0.8,1,1.4,1.2c0,0,0,0,0,0c0,0,0,0,0,0c-0.4,0.2-0.2,0.8,0.2,0.8c-0.6,0.6-0.1,1.9,0.8,1.6
		c0.7-0.2,1.3-0.4,2-0.7c0.1,0,0.1-0.1,0.2-0.1c1.4-0.5,2.8-1.1,4-1.9c0.3-0.2,0.5-0.5,0.4-0.9c8.3-2.6,16.3-6.1,24.3-9.5
		c10-4.2,19.8-8.6,29.6-13.2c14.6-6.8,29-14.2,43.2-22c-0.3,0.2-0.5,0.6-0.3,1.1c3.8,13.3,7.6,26.5,11.5,39.8
		c3.9,13.1,7.4,26.4,12,39.3c-0.6,5.4,0.2,10.7,4.3,15c0.8,0.8,1.9,0.5,2.4-0.2C186.7,377.2,188.2,376.1,187.4,374.8z"/>
	<path id="XMLID_58_" d="M264.8,193.5c-0.4-0.8-1.6-0.1-1.2,0.7c0.7,1.3,0.7,2.6,0.7,4c-0.1,0-0.2,0-0.3,0c0.1-0.8,0-1.5-0.2-2
		c-0.2-0.4-0.5-0.8-0.8-1c-0.1-0.2-0.3-0.4-0.5-0.4c0,0,0,0,0,0c-0.2,0-0.4,0-0.6,0c-0.4,0-0.9,0.1-1.3,0.4c0,0,0,0-0.1,0
		c0,0,0,0,0,0c0,0,0,0-0.1,0c-0.3,0.1-0.7,0.3-1,0.5c-0.1,0.1,0,0.2,0.1,0.2c0.2,0,0.4,0,0.6-0.1c0.1,0.4,0.6,0.7,1,0.4
		c0.2-0.1,0.4-0.2,0.6-0.3c0.5,0.1,0.8,1.4,0.7,1.7c-0.1,0.5-0.2,1.5-0.6,1.9c-0.1,0-0.1,0.1-0.2,0.1c0,0-0.1,0.1-0.1,0.1
		c-0.1,0.1-0.2,0.2-0.3,0.3c-11,9-22.4,17.5-33.8,26.1c-4,2.9-7.9,5.9-11.9,8.8c-4.8,3.6-9.6,7.2-14.3,10.9
		c-4.3,3.3-8.9,6.4-12.2,10.8c-0.2,0.2,0.1,0.6,0.4,0.5c0.1-0.1,0.3-0.1,0.4-0.2c-0.1,0.1-0.2,0.3-0.3,0.4c0,0,0,0.1,0,0.1l-0.4,0.4
		c0.5,0.4,0.9,0.9,1.2,1.5c2.5-1.6,5-3.5,6.9-5.8c23.7-16.2,44.9-36.2,67.5-53.8c0.3-0.3,0.4-0.6,0.3-0.9
		C266,197.2,265.5,195,264.8,193.5z"/>
	<path id="XMLID_2_" d="M153.3,260.3c-1.2,0-2.4,0-3.6,0.1c0.1-0.3,0.2-0.7,0.1-1.1c-1.7-5.6-3.3-11.2-5.1-16.8
		c-1-3.2-1.8-6.6-3-9.8c0.1-0.2,0.1-0.4,0-0.7c-0.3-0.8-0.6-1.6-1-2.4c-0.1-0.1-0.1-0.2-0.2-0.3c0,0,0-0.1,0-0.1
		c-0.3-0.6-0.7-1.2-1.1-1.8c-0.7-1.1-2.4-0.1-1.8,1c0.2,0.3,0.4,0.7,0.6,1c0.4,0.9,0.9,1.7,1.3,2.6c0.6,3.7,1.8,7.5,2.7,11.1
		c1.3,5.4,2.8,10.8,4.2,16.2c-0.1,0-0.2,0.1-0.2,0.1c0,0-0.1,0.1-0.1,0.1c0,0-0.1-0.1-0.1-0.1c0,0,0-0.1,0-0.1c0-0.3-0.5-0.3-0.5,0
		c0,0.1,0,0.1,0,0.2c-0.1,0.1-0.2,0.2-0.2,0.4c0,0.3-0.1,0.6-0.1,0.9c0,0.3,0.4,0.7,0.7,0.5c0.1,0,0.1-0.1,0.2-0.1
		c0.2,0.1,0.4,0.1,0.6,0c0,0,0,0,0,0c2.2,0.2,4.4,0.2,6.6,0.2C154,261.4,154,260.3,153.3,260.3z"/>
	<path id="XMLID_2469_" d="M261,346.4c-28.1-14-47.8-37.4-58.6-66.7c-0.2-0.4-0.8-0.3-0.7,0.2c0.1,0.5,0.2,1.1,0.4,1.6
		c-0.1,0-0.2,0.2-0.2,0.3c0.4,2.4,1.1,4.9,2.2,7.1c8.6,26.6,30.2,49.3,55.9,59.8C261.3,349.2,262.3,347,261,346.4z"/>
	<path id="XMLID_2490_" d="M379.4,472.3c-4.7-5-3.9-11.1-1.7-17c0.2-0.4-0.4-0.6-0.7-0.4c-5.9,4.8-4,14.3,0.5,19.3
		C378.7,475.4,380.5,473.5,379.4,472.3z"/>
	<path id="XMLID_2491_" d="M356.7,444.6c-3.8,3.2-5.3,8.2-4.5,12.8c0,0.1,0,0.1,0,0.2c0,0.2,0.1,0.3,0.1,0.5
		c0.2,0.8,0.5,1.7,0.8,2.5c0,0.1,0.1,0.2,0.1,0.3c0.4,0.9,1,1.8,1.6,2.7c0.2,0.3,0.5,0.4,0.7,0.5c0.7,0.2,1.5-0.5,1.5-1.3
		c0-0.3,0-0.7-0.3-1c-3.6-4.6-2.7-11.3,1.7-15.1C359.8,445.3,357.9,443.5,356.7,444.6z"/>
	<path id="XMLID_2492_" d="M339.7,450.5c-5.7-2.9-7.3-9.3-3-14.4c0.3-0.3-0.1-0.9-0.5-0.6c-6.7,4.9-5.2,14.7,2.3,17.9
		C340.1,454.1,341.2,451.3,339.7,450.5z"/>
	<path id="XMLID_2495_" d="M318.1,441.3c-7.7-1.7-3.2-11.4-1.8-15.9c0.1-0.4-0.4-0.7-0.7-0.4c-2.9,3.1-5.6,7.6-5,12
		c0.5,3.6,2.9,6.7,6.5,7.5C319.3,445,320.2,441.7,318.1,441.3z"/>
	<path id="XMLID_2522_" d="M400,464.7c0.2-0.3-0.1-0.8-0.5-0.6c-6.7,2.8-7.2,13.4-3.5,18.6c1,1.4,3.2,0.2,2.3-1.3
		c-1.6-2.7-2.3-5.4-2-8.5C396.7,469.4,398.4,467.5,400,464.7z"/>
	<path id="XMLID_2523_" d="M422.7,488.7c-8.3-1.9-5.2-11.5-1.6-16.2c0.3-0.3-0.1-0.9-0.5-0.7c-3.9,2.5-6.6,6.4-6.1,11.3
		c0.5,4.1,3.3,7.6,7.4,8.6C423.8,492.2,424.7,489.1,422.7,488.7z"/>
	<path id="XMLID_1271_" d="M232.8,407.8c-0.1-0.2-0.4,0-0.3,0.2c5.8,10.9,5.7,24.1-1.3,34.4c-0.9,1.4,1.3,2.7,2.2,1.3
		C240.6,432.8,240.8,418.4,232.8,407.8z"/>
	<path id="XMLID_50_" d="M511.4,447c-9-7.9-19.5-13.9-30-19.6c-4.1-2.3-8.3-4.5-12.5-6.6c0-0.2-0.1-0.3-0.3-0.4
		c-3.7-2.4-7.7-4.5-11.7-6.4c0.1-0.1,0.2-0.2,0.2-0.3c-0.3-0.2-0.6-0.3-0.9-0.5c1.4-2.9,2.6-5.8,3.8-8.8c0.1-0.2,0.2-0.5,0.3-0.7
		c0-0.1,0-0.1,0-0.2c0-0.1,0.1-0.2,0.1-0.4c5.9-12.1,11.8-24.2,17.8-36.2c3.6-6.8,7.3-13.8,10.3-20.8c1.2-2.5,2.5-4.9,3.7-7.4
		c2.7-5.2,5.4-10.4,8-15.6c0.6-1.2-1.2-2.3-1.8-1.1c-3.3,6.3-6.5,12.6-9.5,19c-0.1,0.3-0.3,0.6-0.4,0.8
		c-6.2,10.2-11.2,21.6-16.6,32.2c-5.9,11.5-12.1,22.8-18.3,34.1c-0.1-0.1-0.3-0.2-0.4-0.2c-0.6,1-1.2,2-1.7,3
		c-11.9-5.5-24.7-9.5-36.9-13.5c-17-5.6-34.4-10.3-51.6-15c-15.8-4.4-31.3-9-46.7-14.3c1.2-6.4,0-13-4.3-18.2
		c-0.3-0.3-0.7,0.1-0.5,0.4c2.4,5.4,3.5,11.1,2.3,16.9c-7.8-2.7-15.6-5.6-23.3-8.6c1.2-7.1,5.1-13.6,10.6-18.2
		c0.2-0.2-0.1-0.5-0.3-0.4c-6.9,3.8-11.5,9.9-13.3,17.4c-8.8-3.6-17.6-7.5-26.3-11.6c-0.2-0.1-0.4,0.2-0.2,0.4
		c8.3,5.4,17,10.2,26,14.4c0,0.3,0.1,0.5,0.3,0.7c0.6,0.1,1.2,0.4,1.7,0.7c0.2,0,0.3-0.1,0.5-0.2c22.4,10.2,46.5,17.4,69.8,24.3
		c17.2,5.1,34.4,10.1,51.5,15.5c13.7,4.4,27,9.9,40.4,15c0,0,0,0.1,0,0.1c0.8,0.1,1.5,0.3,2.3,0.6c0.3,0.1,0.7,0.2,1,0.4
		c0,0,0-0.1,0.1-0.1c0.2,0.1,0.4,0.2,0.6,0.3c2.3,1.2,4.6,2.3,7,3.2c5.8,2.8,11.5,5.6,17.1,8.7c10.8,5.8,21.1,12.4,32.1,17.7
		C511.4,447.5,511.7,447.2,511.4,447z"/>
	<path id="XMLID_55_" d="M243.2,478c-1.1,0.7-2.1,1.3-3.1,2.1c-0.1,0.1-0.3,0.2-0.5,0.2c-0.2,0.2-0.5,0.3-0.7,0.5
		c-1,0.8-2,1.5-3,2.2c-0.1,0.1-0.3,0.1-0.4,0.2c-1.1,0.8-2.3,1.6-3.4,2.4c-5.3,4-10.5,8.2-15.8,12c-9.1,6.5-18.3,12.7-27.7,18.7
		c-18.6,11.8-37.9,22.2-57,32.9c-0.1,0.1,0,0.3,0.1,0.2c20.4-8.4,39.6-19.3,58.2-31c9.4-5.9,18.7-12.1,27.8-18.6
		c8.8-6.3,18.1-12.6,26.1-19.9C244.5,479.3,244,478.2,243.2,478z"/>
	<path id="XMLID_2526_" d="M472.8,295.6c-6.7,6.1-12.8,13-19.3,19.3c-6.1,5.9-12.4,11.6-18.8,17.2c-13.6,11.9-27.7,23.6-42.2,34.3
		c-0.2,0.1,0,0.4,0.2,0.3c14.8-9.9,28.8-20.1,42.3-31.8c6.9-6,13.6-12.1,20.1-18.4c6.5-6.3,13.4-12.5,19-19.6
		C474.7,296,473.6,294.8,472.8,295.6z"/>
	<path id="XMLID_89_" d="M189.9,375.1c-0.5-0.3-1.1-0.5-1.6-0.8c-0.3-0.2-0.7,0.3-0.4,0.5c0.5,0.4,0.9,0.7,1.4,1.1
		C189.9,376.4,190.5,375.4,189.9,375.1z"/>
</g>
</svg>
