<?xml version="1.0" encoding="utf-8"?>
<!-- Generator: Adobe Illustrator 19.0.0, SVG Export Plug-In . SVG Version: 6.00 Build 0)  -->
<svg version="1.1" xmlns="http://www.w3.org/2000/svg" xmlns:xlink="http://www.w3.org/1999/xlink" x="0px" y="0px"
	 viewBox="0 0 2400 3200" style="enable-background:new 0 0 2400 3200;" xml:space="preserve">
<style type="text/css">
	.st0{fill:#777882;}
	.st1{fill:#D17474;}
	.st2{fill:#B99B85;}
	.st3{fill:#F2C14F;}
</style>
<g id="Layer_4">
	<g id="XMLID_4_">
		<g id="XMLID_26_">
			<g id="XMLID_19_">
				<path id="XMLID_264_" class="st0" d="M1732.28,630.23c-5.5901,15.42-11.16,30.85-16.73,46.28
					c-20.15-17.87-43.8501-31.19-69.5601-39.34c-13.15-4.16-26.72-6.87-40.4399-8.2c-10.52-1.02-21.91-1.34-32.5,0.9
					c5.8899-16.56,11.7699-33.12,17.63-49.7C1642.84,574.52,1696.28,591.14,1732.28,630.23z"/>
				<path id="XMLID_263_" class="st0" d="M1750.4399,575.59c0.42,0.48,0.88,0.84,1.3401,1.08
					c-5.3,14.45-10.5601,28.91-15.8101,43.38c-36.24-37.04-92.4399-56.63-143.38-45.3c1.99-5.62,3.9701-11.24,5.9501-16.86
					c3.3099-9.39,6.6599-18.77,10.0299-28.16C1660.22,520.59,1714.9399,535.59,1750.4399,575.59z"/>
				<path id="XMLID_262_" class="st0" d="M1768.96,527.47c0.23,0.23,0.4701,0.44,0.7101,0.63c-4.79,12.89-9.55,25.8-14.29,38.72
					c-35.37-38.31-93.71-57.75-144.41-43.76c6.04-16.77,12.14-33.53,18.17-50.33c12.62,0.64,25.22,0.79,37.73,2.89
					c12.79,2.15,25.33,5.63,37.49,10.13C1728.62,494.75,1750.7,509.17,1768.96,527.47z"/>
				<path id="XMLID_261_" class="st0" d="M1780.84,474.03c1.05,3.78,3.98,5.48,7.02,5.56c-4.3099,11.37-8.59,22.75-12.84,34.14
					c-19.04-17.95-41.79-31.5-66.4501-40.28c-23.48-8.35-51.5399-13.06-76.5699-8.68c5.5-15.35,10.9301-30.73,16.1899-46.15
					c25.52-0.42,50.4601,4.45,74.52,13.2c12.27,4.46,24.24,9.84,35.37,16.69C1767.9399,454.59,1777.64,462.43,1780.84,474.03z"/>
				<path id="XMLID_260_" class="st1" d="M1822.4399,370.27c2.14,2.57,4.79,3.06,7.13,2.3c-12.1899,30.29-24.0599,60.7-35.7,91.21
					c-4.73-10.54-13.1899-18.69-22.79-25.26c-12.21-8.36-26.2999-14.99-40.34-19.59c-25.8199-8.46-53.47-10.31-80.36-6.77
					c6.0699-17.93,11.9-35.92,17.36-54.01c4.27-14.17,8.72-28.28,13.23-42.36c5.63,0.87,11.5701,0.55,17.23,0.65
					c6.4401,0.12,12.9301,0.31,19.3401,0.87c13.49,1.17,26.7799,3.72,39.61,8.08C1782.6,334.03,1805.24,349.64,1822.4399,370.27z"/>
				<path id="XMLID_259_" class="st2" d="M1098.21,2374.0901c-0.2999,3.0598-0.61,6.1299-0.9099,9.1899
					c-0.63,0.54-1.2101,1.22-1.7101,2.05c-29.4099,48.5598-57.6599,97.8699-86.59,146.72c-28.72,48.5-57.45,97.1699-84.16,146.8201
					c-7.38,13.73-14.72,27.49-21.9901,41.2898c-4.45,8.4402-8.52,17.04-12.5699,25.6602c1.34-6.8201,2.56-13.6702,4.14-20.3701
					c3.15-13.3599,5.35-26.99,7.91-40.48c5.11-26.8101,9.97-53.6699,14.91-80.51c9.93-53.8999,19.11-107.95,28.3-161.99
					c2.58-15.1799,5.17-30.3699,7.75-45.55c2.57-15.0898,5.96-30.2998,7.45-45.5498c3.32-4,6.63-8,9.94-12
					c1.24,4.71,2.49,9.4199,3.73,14.1299c0.6801,2.6001,4.35,3.77,6.23,1.6499c0.74-0.8398,1.48-1.6799,2.22-2.52
					c10.77-12.21,21.43-24.5398,32.1-36.8298c0.04,12.05-0.46,24.0898-1.48,36.0999c-0.07,0.9702-0.15,1.9302-0.24,2.9001
					c-0.31,3.4199,4.62,5.3398,6.83,2.8298c8.36-9.48,16.79-18.8899,25.29-28.23c0.5,5.51,1,11.02,1.5,16.54
					c0.2001,2.28,1.73,4.0701,4.14,4.1401c4.42,0.1299,8.54-0.6602,12.35-2.3101c-0.7899,6.4199-1.58,12.8401-2.37,19.25
					c-0.15,1.29-0.3099,2.5701-0.47,3.8599c-0.38,3.0701,3.9399,5.4902,6.38,3.6702c5.01-3.73,9.98-7.49,14.96-11.26
					c-0.62,5.3999-1.23,10.8-1.85,16.2c-0.11,0.97-0.22,1.9399-0.33,2.9099c-0.42,3.6802,4.5,4.9102,6.7899,2.8201
					C1090.47,2381.5701,1094.41,2377.9099,1098.21,2374.0901z"/>
				<path id="XMLID_258_" class="st3" d="M1113.71,2343.1001c-2.98,8.0398-5.97,16.0698-8.95,24.1099
					c0.03-0.4199,0.0599-0.8499,0.1-1.27c0.17-2.0999-2.66-3.79-4.4-2.52c-4,2.9302-7.84,6.01-11.61,9.21
					c0.6-4.8699,1.2001-9.74,1.8101-14.6099c0.1599-1.25,0.3099-2.51,0.47-3.76c0.37-2.98-3.83-5.3201-6.21-3.5601
					c-4.9401,3.6501-9.89,7.29-14.8301,10.95c0.76-6.3198,1.51-12.6399,2.26-18.96c0.13-1.02,0.25-2.04,0.37-3.0601
					c0.4601-3.9199-4.72-5.0798-7.14-2.96c-3.1799,2.79-6.84,4.3901-10.84,4.9302c-0.6899-7.27-1.38-14.54-2.0599-21.8
					c-0.3101-3.26-4.4-5.74-6.9901-2.9001c-0.6599,0.73-1.3199,1.4602-1.98,2.1902c-7.27,8-14.47,16.0498-21.6299,24.1499
					c0.75-12.55,0.93-25.1199,0.54-37.7c-0.1-3.1501-4.34-5.4399-6.66-2.76c-0.62,0.71-1.23,1.4299-1.85,2.1399
					c-11.48,13.29-23.02,26.53-34.42,39.8901c-1.32-4.6201-2.64-9.25-3.96-13.8701c-0.66-2.3198-4.17-3.7-5.88-1.55
					c-0.67,0.8501-1.35,1.6902-2.02,2.54c-3.01,3.78-6.02,7.5701-9.03,11.3501c47.47-131.7,94.9-263.4099,142.2601-395.15
					c47.48-132.0601,94.9099-264.14,142.2799-396.23c47.61-132.74,95.16-265.49,142.65-398.27
					c47.27-132.13,94.48-264.29,141.64-396.46c14.33-40.17,28.7-80.31,43-120.49c11.0599,0.98,22.26,0.82,33.33,1.94
					c13.0801,1.32,26.03,4.15,38.53,8.23c24.99,8.14,48.22,21.64,67.61,39.39c0.5,0.46,1.03,0.8,1.5601,1.03
					c-8.6,23.85-17.2001,47.69-25.8401,71.51C1637.92,890.85,1590.26,1023.01,1542.6801,1155.2
					c-47.28,131.3501-94.1101,262.87-141.14,394.3201c-47.3201,132.22-94.77,264.4-142.61,396.4299
					C1210.91,2078.48,1162.67,2210.9199,1113.71,2343.1001z"/>
			</g>
		</g>
	</g>
</g>
<g id="Layer_4_copy">
	<g id="XMLID_5_">
		<g id="XMLID_165_">
			<g id="XMLID_167_">
				<path id="XMLID_171_" d="M1678.5067,315.324c6.3459,1.4431,13.2021,0.9969,19.6974,1.1149
					c6.4351,0.117,12.925,0.3068,19.3381,0.8673c13.485,1.1786,26.7819,3.7232,39.6111,8.0824
					c25.4467,8.6464,48.0873,24.2549,65.2896,44.8823c6.4662,7.7537,17.501-3.3842,11.0817-11.0817
					c-18.7286-22.4578-43.9988-38.8436-71.6569-48.0981c-13.7216-4.5913-28.348-7.6066-42.8385-7.9409
					c-13.0099-0.3001-30.1564,0.2713-41.0143,8.4111C1676.7151,312.5358,1676.6135,314.8934,1678.5067,315.324L1678.5067,315.324z"
					/>
			</g>
		</g>
		<g id="XMLID_158_">
			<g id="XMLID_160_">
				<path id="XMLID_164_" d="M1833.7788,362.1447c-52.9851,130.7315-99.8611,264.0503-147.957,396.6396
					c-47.9065,132.067-95.5649,264.2258-143.1421,396.4119c-47.2791,131.3577-94.1101,262.8759-141.1444,394.3213
					c-47.3134,132.225-94.7635,264.4014-142.6064,396.4358c-48.02,132.5236-96.2542,264.9691-145.2235,397.1454
					c-6.1111,16.4949-12.2334,32.9856-18.3649,49.4729c-3.1025,8.3425,10.2428,11.9436,13.3191,3.6719
					c49.1637-132.1978,97.7515-264.615,145.6616-397.2725c47.712-132.1095,94.9924-264.3744,142.1157-396.6948
					c46.8291-131.4946,93.6809-262.9828,140.2729-394.5615c46.8666-132.3541,93.8342-264.6707,141.4823-396.7457
					c47.8234-132.5615,96.045-264.9808,144.1342-397.4458c5.9911-16.503,11.4503-33.1982,17.0875-49.8249
					C1840.6448,360.0675,1835.1559,358.7468,1833.7788,362.1447L1833.7788,362.1447z"/>
			</g>
		</g>
		<g id="XMLID_151_">
			<g id="XMLID_153_">
				<path id="XMLID_157_" d="M1680.3385,306.9142c-51.3562,131.4677-98.3994,264.5013-145.8385,397.4417
					c-47.1655,132.1738-94.3849,264.3284-141.658,396.4639c-47.5013,132.7737-95.057,265.5281-142.667,398.2629
					c-47.3811,132.0968-94.8158,264.1743-142.3043,396.2324c-47.7179,132.6962-95.4901,265.3728-143.3164,398.0298
					c-5.9783,16.5823-11.9575,33.1641-17.9374,49.7456c-2.5269,7.0068,8.6351,10.0259,11.1419,3.0718
					c47.82-132.658,95.5868-265.3347,143.2988-398.0314c47.4828-132.0586,94.9117-264.1366,142.2869-396.2339
					c47.6041-132.7354,95.1541-265.4902,142.6495-398.2644c47.2673-132.136,94.4808-264.2911,141.6405-396.4655
					c23.6925-66.4029,47.485-132.7714,70.9006-199.2724c23.3599-66.342,48.8945-132.3995,69.2017-199.7474
					c5.0789-16.8436,10.4166-33.6035,15.8035-50.3506C1684.2062,305.7265,1681.0996,304.966,1680.3385,306.9142L1680.3385,306.9142z
					"/>
			</g>
		</g>
		<g id="XMLID_144_">
			<g id="XMLID_146_">
				<path id="XMLID_150_" d="M1642.7012,418.7881c27.4258-1.2711,54.2278,3.6567,80.0078,13.0281
					c12.2665,4.459,24.2412,9.8458,35.3693,16.6978c9.8618,6.0724,19.5619,13.9149,22.7653,25.511
					c2.7047,9.7908,18.0449,5.6091,15.2401-4.2015c-3.8696-13.5357-13.6411-23.5206-25.0031-31.3005
					c-12.2095-8.3602-26.2975-14.9893-40.3418-19.5886c-28.5205-9.3401-59.2582-10.6287-88.7614-5.4943
					C1638.9531,413.9664,1639.6562,418.9293,1642.7012,418.7881L1642.7012,418.7881z"/>
			</g>
		</g>
		<g id="XMLID_137_">
			<g id="XMLID_139_">
				<path id="XMLID_143_" d="M1627.9871,472.676c13.0051,0.6831,25.9966,0.7812,38.8832,2.9456
					c12.7896,2.148,25.3318,5.6263,37.4884,10.1326c24.2643,8.9943,46.3394,23.414,64.5992,41.7131
					c6.408,6.4217,16.3649-3.5309,9.9547-9.9548c-19.7881-19.8307-43.9779-34.6767-70.3414-44.059
					c-25.0437-8.9126-55.288-13.6699-81.5197-7.6909C1623.0367,466.6777,1624.1575,472.4749,1627.9871,472.676L1627.9871,472.676z"
					/>
			</g>
		</g>
		<g id="XMLID_130_">
			<g id="XMLID_132_">
				<path id="XMLID_136_" d="M1564.8464,636.0475c12.9297,1.7,26.1147,1.2601,39.1121,2.5698
					c13.0829,1.3183,26.0342,4.1576,38.5327,8.229c24.9924,8.1413,48.2213,21.6407,67.604,39.3976
					c5.1599,4.7271,12.8823-2.954,7.7009-7.7008c-20.6289-18.8984-45.1407-32.9247-71.8083-41.3713
					c-13.1431-4.1629-26.7186-6.8669-40.4375-8.2029c-13.469-1.3117-28.3828-1.4603-41.1981,3.4263
					C1562.3176,633.171,1562.7654,635.7739,1564.8464,636.0475L1564.8464,636.0475z"/>
			</g>
		</g>
		<g id="XMLID_123_">
			<g id="XMLID_125_">
				<path id="XMLID_129_" d="M1583.8973,581.0308c54.4185-7.9333,111.119,8.5006,148.6831,49.5262
					c4.2227,4.6118,11.0643-2.2591,6.8556-6.8557c-38.3075-41.8375-101.5684-63.2075-156.5626-46.3845
					C1580.4402,578.0612,1581.5032,581.3799,1583.8973,581.0308L1583.8973,581.0308z"/>
			</g>
		</g>
		<g id="XMLID_116_">
			<g id="XMLID_118_">
				<path id="XMLID_122_" d="M1598.3218,531.866c54.5498-13.1599,114.255,1.0604,152.1165,43.7288
					c4.0928,4.6124,10.8354-2.1707,6.7617-6.7617c-38.3495-43.2184-105.6056-63.5364-160.0079-41.0652
					C1594.7314,528.7842,1595.5834,532.5267,1598.3218,531.866L1598.3218,531.866z"/>
			</g>
		</g>
		<g id="XMLID_109_">
			<g id="XMLID_111_">
				<path id="XMLID_115_" d="M952.7537,2344.5979c-5.5347,2.771-6.9301,9.3706-4.0741,14.6375
					c0.9129,1.6836,3.7101,2.2175,5.0118,0.646c7.0446-8.5049,14.0891-17.0095,21.1335-25.5144
					c-1.9606-0.5176-3.9212-1.0352-5.8818-1.5527c1.8212,6.8955,3.6423,13.791,5.4635,20.6865
					c0.6863,2.5986,4.3564,3.7715,6.2355,1.6462c13.7216-15.5173,27.2335-31.2239,40.8327-46.8486
					c-2.2192-0.9192-4.4383-1.8384-6.6575-2.7576c0.4433,16.4475-0.0823,32.8779-1.5754,49.2634
					c-0.311,3.4131,4.6185,5.3347,6.8279,2.8281c10.3564-11.749,20.8277-23.395,31.4136-34.9377
					c-2.3302-0.9653-4.6603-1.9304-6.9904-2.8955c0.7869,8.7126,1.5743,17.4253,2.3621,26.1382
					c0.2067,2.2854,1.734,4.075,4.1465,4.1462c7.7748,0.2305,14.6536-2.4126,20.4911-7.4944
					c-2.3804-0.9858-4.7609-1.9719-7.1412-2.958c-1.2819,10.4175-2.5637,20.835-3.8456,31.2524
					c-0.377,3.063,3.9425,5.4819,6.3857,3.6643c7.432-5.5293,14.8005-11.145,22.1936-16.7263
					c-2.0685-1.187-4.137-2.374-6.2056-3.561c-1.0697,9.3811-2.1394,18.7622-3.2092,28.1433
					c-0.4194,3.6792,4.4955,4.9023,6.7921,2.8135c6.0856-5.5352,12.0081-11.1077,17.5378-17.2083
					c-1.6626-0.6887-3.3253-1.3774-4.9879-2.0662c-1.2354,12.5625-2.4893,25.123-3.7347,37.6843
					c-0.3121,3.1489,4.7207,4.5005,6.0446,1.6372c1.3741-2.9719,2.7268-5.9539,4.0856-8.9329
					c1.7252-3.7827-3.8818-7.094-5.6194-3.2847c-1.359,2.9797-2.7242,5.9565-4.0679,8.9434
					c2.0149,0.5457,4.0298,1.0913,6.0446,1.637c1.0299-12.5615,2.0511-25.1238,3.0911-37.6843
					c0.1738-2.0994-2.6587-3.7949-4.3966-2.5229c-6.8741,5.0315-13.2681,10.5076-19.6238,16.1707
					c2.264,0.9377,4.5281,1.8755,6.792,2.8132c1.1667-9.3811,2.3334-18.7622,3.5-28.1433c0.3711-2.9844-3.8307-5.3162-6.2056-3.561
					c-7.4424,5.5002-14.9109,10.9673-22.3146,16.5195c2.1287,1.2214,4.2572,2.4429,6.3857,3.6646
					c1.2416-10.4175,2.483-20.835,3.7245-31.2524c0.4669-3.918-4.7205-5.0815-7.1412-2.958
					c-4.1504,3.6411-9.0973,5.2588-14.5751,5.1177c1.3822,1.3821,2.7643,2.7642,4.1465,4.1465
					c-0.8214-8.7129-1.6431-17.4255-2.4653-26.1382c-0.308-3.2634-4.401-5.7419-6.9904-2.8955
					c-10.5415,11.5879-20.9679,23.2791-31.279,35.0725c2.2759,0.9426,4.5519,1.8855,6.8279,2.8281
					c1.4269-16.3894,1.8856-32.8201,1.3757-49.2634c-0.0976-3.1484-4.3406-5.4414-6.6575-2.7578
					c-13.5413,15.6858-27.1756,31.2966-40.5935,47.0881c2.0785,0.5486,4.157,1.0974,6.2355,1.6462
					c-1.9572-6.8582-3.9144-13.7163-5.8716-20.5742c-0.6626-2.3218-4.1673-3.7078-5.8818-1.553
					c-6.8898,8.6594-13.7797,17.3188-20.6696,25.9783c1.6706,0.2153,3.3412,0.4304,5.0118,0.6458
					c-2.2006-2.8765-2.1851-6.3398,0.3337-9.1218C955.6524,2345.646,954.2462,2343.8506,952.7537,2344.5979L952.7537,2344.5979z"/>
			</g>
		</g>
		<g id="XMLID_23_">
			<g id="XMLID_104_">
				<path id="XMLID_108_" d="M884.5256,2766.2134c7.4999-12.2761,15.8396-24.0408,23.2346-36.3975
					c7.3423-12.2686,14.7372-24.5059,22.1759-36.7163c14.6195-23.9976,28.9291-48.1777,43.4209-72.2529
					c29.0941-48.334,58.2204-96.645,87.1652-145.0691c16.3718-27.3899,33.1387-54.6157,48.8323-82.4009
					c5.0548-8.9495-8.4446-16.821-13.7616-8.0439c-29.4142,48.5557-57.6631,97.8679-86.5898,146.7195
					c-28.7185,48.5002-57.4567,97.1685-84.1593,146.8145c-7.3867,13.7332-14.7217,27.4944-21.994,41.2886
					c-7.6572,14.5244-14.1854,29.5334-21.4206,44.2483C880.4187,2766.4587,883.3098,2768.2034,884.5256,2766.2134
					L884.5256,2766.2134z"/>
			</g>
		</g>
		<g id="XMLID_7_">
			<g id="XMLID_17_">
				<path id="XMLID_22_" d="M885.3467,2765.9617c4.2057-13.0959,5.9155-27.1123,9.0743-40.5088
					c3.1512-13.3643,5.3452-26.9932,7.9133-40.4812c5.1048-26.8108,9.9666-53.6682,14.9084-80.5095
					c9.9246-53.905,19.106-107.9561,28.2984-161.9905c2.5833-15.1846,5.1664-30.3694,7.7497-45.5542
					c2.6483-15.5667,6.1716-31.262,7.5901-46.9902c0.7396-8.2007-12.249-9.72-14.218-1.9241
					c-3.3815,13.3884-4.9933,27.3813-7.3094,40.9954c-2.3109,13.5837-4.6218,27.1675-6.9327,40.7512
					c-4.5844,26.9482-9.1269,53.9023-13.6099,80.8677c-9.0028,54.1516-17.8884,108.3257-26.0346,162.6145
					c-2.2574,15.0439-4.7459,30.074-6.7548,45.1528c-1.0814,8.1172-1.7294,16.2715-2.9348,24.376
					c-1.1096,7.4607-2.3685,15.0088-2.5663,22.5476C880.4457,2768.155,884.5182,2768.5413,885.3467,2765.9617L885.3467,2765.9617z"
					/>
			</g>
		</g>
	</g>
</g>
<g id="Layer_3">
	<g id="XMLID_1_">
		<g id="XMLID_82_">
			<path id="XMLID_96_" d="M1606.0519,640.2393c-22.74,55.6295-41.7723,112.8525-61.9742,169.4437
				c-19.5065,54.6428-38.974,109.2996-58.4113,163.967c-38.1617,107.33-76.168,214.7147-114.0999,322.1262
				c-37.166,105.2429-74.3043,210.4956-111.5087,315.7251c-37.5941,106.3324-75.2572,212.6404-113.0728,318.8943
				c-39.3774,110.6423-78.9213,221.2253-118.6918,331.7271c-5.0275,13.9688-10.0672,27.9326-15.1472,41.8823
				c-2.5437,6.9851,8.6594,10.0513,11.142,3.0715c39.4167-110.8188,79.2738-221.481,118.6453-332.3164
				c38.0411-107.0911,75.9182-214.2405,113.7136-321.4185c37.1113-105.2385,74.1455-210.5044,111.1957-315.7644
				c37.5167-106.5856,75.0383-213.1696,112.5981-319.74c39.1765-111.1578,79.9235-221.8581,117.8682-333.4391
				c4.7998-14.1143,9.5118-28.2139,13.8901-42.464C1613.4351,637.9116,1607.5597,636.5507,1606.0519,640.2393L1606.0519,640.2393z"
				/>
		</g>
	</g>
	<g id="XMLID_2_">
		<g id="XMLID_97_">
			<path id="XMLID_101_" d="M1673.8765,658.0914c-44.2676,107.3947-81.2898,218.0761-120.5122,327.3895
				c-38.9965,108.6835-77.2604,217.6328-115.7705,326.4894c-38.8051,109.6898-77.6292,219.3729-116.6851,328.9736
				c-39.3591,110.4521-78.9547,220.8203-118.979,331.0333c-40.8884,112.5922-82.2251,225.0221-124.1727,337.2245
				c-5.325,14.2432-10.6604,28.4824-16.0044,42.7188c-2.4059,6.4087,7.8611,9.178,10.2455,2.8245
				c42.2256-112.5176,83.8302-225.2673,124.9557-338.1915c40.2122-110.4166,79.9711-220.9978,119.4672-331.6726
				c39.1465-109.6954,78.0355-219.4825,116.8781-329.286c38.5021-108.8409,76.9597-217.6975,115.5856-326.4946
				c38.8125-109.3229,77.5914-218.6671,115.342-328.3599c4.7498-13.8015,9.3965-27.5886,13.748-41.519
				C1678.8116,656.5419,1674.8876,655.6383,1673.8765,658.0914L1673.8765,658.0914z"/>
		</g>
	</g>
	<path id="XMLID_8_" d="M929.8069,2683.9692c-5.8068-7.9146-15.0123-12.6245-24.9482-11.3157
		c-2.4586,0.324-3.9968,2.0103-4.6019,3.9309c-0.8282,0.5264-1.6334,1.1323-2.4018,1.8398
		c-1.138,1.0479,0.0433,3.2009,1.5507,2.6636c0.1098-0.0391,0.224-0.0618,0.3348-0.0974
		c-9.3575,9.6448-4.4366,24.6179-11.3991,35.4375c-1.811,2.8909-1.1182,5.6152,0.6642,7.4075
		c-0.3936,0.8057-0.7953,1.6069-1.1793,2.417c-1.0175,2.1467-0.7369,4.1121,0.2339,5.554c-0.3813,0.8862-0.7659,1.771-1.1464,2.6575
		c-0.6447,1.5022-0.5241,2.9561,0.0407,4.1714c-0.0369,0.1072-0.0717,0.2153-0.1088,0.3228
		c-1.822,5.2808,6.3316,7.3574,8.2771,2.2817c0.9709-2.533,1.9418-5.0662,2.9128-7.5991c0.0873-0.2244,0.1743-0.4487,0.2615-0.6731
		c1.4266-2.9285,2.8555-5.8562,4.2803-8.7856c0.5014-1.0308,0.6007-2.123,0.4147-3.1606
		c4.7449-8.4302,9.762-16.6841,15.2457-24.6919c0.454-0.6628,0.7246-1.3157,0.8737-1.9502
		c2.7056,2.7803,8.8699,1.5222,8.2822-3.1191c-0.006-0.0479-0.0151-0.095-0.0215-0.1428
		C930.1564,2690.0273,932.0469,2687.0222,929.8069,2683.9692z"/>
</g>
<g id="Layer_5">
	<path id="XMLID_24_" d="M1836.2277,371.9099c-0.1287-0.92-1.2819-0.7787-1.691-0.1729c-4.49-5.6829-8.9963-11.3532-13.4344-17.0768
		c-3.0692-3.9583-10.2415,0.3425-8.475,4.9335c0.0992,0.2579,0.1985,0.5157,0.2977,0.7737
		c-0.0542,0.0745-0.0992,0.1545-0.1493,0.2316c-8.6167-14.1125-20.9646-25.7983-36.5527-33.1108
		c-0.55-0.258-0.9436,0.4443-0.4692,0.8028c22.7871,17.2274,39.6353,43.9653,42.2056,72.7282
		c0.1934,2.1634,1.746,3.5901,3.4738,3.9984c-6.5895,16.2615-13.2622,32.4951-19.2267,49.0104
		c-3.6077,9.9895-7.2323,19.9735-10.856,29.9579c-4.1857-10.9413-10.3206-20.9791-17.9999-29.6758
		c-8.8007-11.0566-19.3888-20.7192-30.9749-28.472c-5.6863-3.805-11.0841,5.4412-5.3627,9.1744
		c23.2957,15.2,39.4048,37.4126,49.1697,63.226c-4.8613,13.4215-9.7039,26.8497-14.4756,40.3022
		c-0.0226,0.0637-0.0452,0.1274-0.0677,0.1911c-0.0524-3.1807-0.4567-6.3181-1.1912-9.3634
		c1.1827-0.9713,1.8556-2.5449,1.3726-4.4763c-0.7917-3.1661-1.5836-6.3321-2.3754-9.4981
		c-0.8796-3.5176-4.5972-3.979-7.0177-2.5087c-1.3884-1.7535-2.9167-3.4127-4.5907-4.9499
		c-2.6252-2.4106-6.2351-0.7628-6.9645,1.9968c-6.559-7.5841-13.861-14.5161-21.8481-20.597
		c-0.4305-0.3278-0.9171,0.3629-0.5634,0.73c15.1501,15.7213,27.575,33.3678,36.6833,53.2188
		c0.8969,1.9547,2.8977,2.0909,4.4385,1.2457c-5.1272,14.4545-10.2539,28.9091-15.381,43.3635
		c-0.4373-2.6257-1.0671-5.203-1.8844-7.7139c2.095-0.6569,3.8179-2.2852,4.4556-5.0278c0.5581-2.4012-0.7368-5.8377-3.5381-6.2314
		c-1.5072-0.2118-2.7634-0.1098-3.9124,0.4994c-0.4785-0.3226-0.9573-0.6451-1.4189-0.9921
		c-0.8733-0.6628-1.6979-1.3916-2.5046-2.1356c-2.054-2.9354-4.4192-5.681-7.0808-8.188c-2.1467-2.0222-5.2214-1.5248-7.0889,0.1295
		c-5.5833-4.6593-11.9094-8.6002-18.0641-12.0842c-0.3805-0.2153-0.6722,0.3254-0.3351,0.5734
		c16.1693,11.894,27.4299,31.7449,32.8925,50.8211c0.5785,2.0204,2.1852,3.068,3.8966,3.2696
		c-4.2086,11.8655-8.4172,23.7309-12.626,35.5964c-3.2476-10.9373-8.9092-20.9501-16.5941-29.6998
		c-1.9254-2.1923-4.8383-1.6938-6.6886-0.0535c-6.5022-6.1202-13.9141-11.1429-22.1184-14.4727
		c-2.2566-0.9159-3.1918,2.4175-1.535,3.6412c12.7267,9.4003,23.6711,19.9577,31.4381,32.8759
		c0.4617,1.1017,0.9081,2.2106,1.3196,3.3359c2.3799,6.5069,2.9133,13.8549,5.7112,20.0944
		c0.5192,1.1578,1.2803,1.8301,2.1357,2.1293c-4.1274,11.6369-8.2551,23.2738-12.3828,34.9108
		c-0.193-0.8222-0.5811-1.6408-1.2238-2.4119c-2.4744-2.9689-4.9417-5.9439-7.4303-8.9008
		c-2.1107-2.5078-5.3705-1.9413-7.4098-0.0454c-0.4331-0.6501-0.8856-1.2869-1.3365-1.9248
		c-2.0847-3.412-4.338-6.7338-6.7753-9.9424c-0.9349-1.2308-2.1698-1.8435-3.4199-1.9887
		c-10.2972-9.9821-23.174-17.1622-37.5237-19.0257c-0.1876-0.0244-0.3004,0.0668-0.3485,0.1949
		c-6.8857-2.4767-14.1017-4.1874-21.5789-4.9971c-0.7-0.0758-0.7651,0.972-0.1588,1.174
		c25.0465,8.3459,48.0643,24.3008,63.4868,45.6959c5.0603,11.7077,8.2416,24.1645,9.024,37.0018
		c0.0796,1.3053,0.5447,2.3501,1.2358,3.1436c-37.4988,105.8013-74.8115,211.6693-112.5028,317.4022
		c-19.3101,54.1693-39.0254,108.2185-57.978,162.519c-0.1439,0.2825-0.2788,0.5762-0.394,0.8931
		c-27.7021,76.1689-55.3636,152.3525-82.9989,228.5459c-27.5009,75.8228-55.0317,151.6345-82.5696,227.4438
		c-27.6726,76.1807-55.3542,152.3582-83.0344,228.5361c-27.6777,76.1715-55.0413,152.4551-82.7659,228.6104
		c-25.7891,70.8379-51.6765,141.6406-77.4177,212.4961c-2.2365-1.7163-5.9281-1.4629-6.677,2.0684
		c-1.0354,4.8823-2.0707,9.7649-3.1061,14.6475c-3.1962,13.8489-7.1886,27.3528-13.0428,40.531
		c-0.7798,1.7556,1.6187,3.2786,2.6377,1.5417c1.4574-2.4839,2.8748-5.0103,4.2537-7.5667c0.2285,0.3738,0.515,0.6956,0.8414,0.9729
		c-13.3639,23.8176-27.7535,47.1042-41.7875,70.5276c-14.6707,24.4861-29.4636,48.8972-44.342,73.2576
		c-29.412,48.1567-59.0381,96.1877-88.9241,144.0518c-17.02,27.2585-34.3773,54.3447-49.4095,82.7754
		c-0.534,1.0098,0.8315,1.7334,1.4908,0.8713c17.3902-22.7332,32.9053-46.7854,48.3021-70.8882
		c15.3694-24.0603,30.6629-48.1689,45.8794-72.3262c30.0804-47.7546,59.5915-95.8655,89.0475-144.0068
		c16.7764-27.4185,32.9579-55.26,50.2527-82.3523c1.9055-2.9851,0.0869-5.9141-2.4741-7.0469
		c0.1423-0.2468,0.2725-0.5088,0.3804-0.7974c28.3909-75.9333,55.8741-152.2139,83.7363-228.3428
		c27.731-75.77,55.8037-151.4132,83.5806-227.1652c27.9099-76.1149,55.8156-152.2313,83.7329-228.3436
		c27.9177-76.1135,55.8289-152.2295,83.7839-228.3295c27.8193-75.731,55.6373-151.4623,83.3903-227.2175
		c3.5197-9.6075,7.0394-19.2151,10.5591-28.8226c0.6554-1.7888,0.5538-3.3583-0.0337-4.6426
		c16.7255-46.4275,32.8894-93.0677,49.3546-139.5833c19.9801-56.4457,40.0601-112.8549,60.1771-169.252
		c40.3468-113.1101,80.58-226.2606,120.8309-339.4049c11.146-31.3315,22.0503-62.7484,33.0168-94.1432
		c5.4807-15.69,10.9436-31.3689,15.7054-47.293c2.4742-8.2741,5.1715-16.4668,7.7611-24.7042
		c1.1079-3.5242,2.9709-7.7786,3.2178-11.5023C1837.493,378.1102,1836.6445,374.8893,1836.2277,371.9099z M1716.1448,695.1873
		l-1.2114,3.4153c-0.1761-0.7897-0.3536-1.5793-0.5283-2.3694C1715.0271,695.9983,1715.6172,695.6398,1716.1448,695.1873z"/>
	<path id="XMLID_25_" d="M1024.2222,2351.2095c-3.1619,0-3.1672,4.9141,0,4.9141
		C1027.3843,2356.1235,1027.3894,2351.2095,1024.2222,2351.2095z"/>
	<path id="XMLID_9_" d="M1609.3966,609.7569c-8.3624-0.3079-15.4259,2.101-22.7638,5.9338c-1.1106,0.58-0.3303,2.5491,0.8699,2.0634
		c6.5261-2.6415,14.1199-2.8331,21.0289-1.6055C1613.2054,616.9789,1614.1177,609.9307,1609.3966,609.7569z"/>
	<path id="XMLID_10_" d="M1641.3379,618.9883c-3.2231-4.7078-9.188-6.3885-14.3555-3.9172
		c-2.2092,1.0565-0.6263,4.9379,1.6885,4.0054c3.0229-1.2178,6.4797-0.3541,8.1946,2.5261
		C1638.582,624.4858,1643.2124,621.7261,1641.3379,618.9883z"/>
	<path id="XMLID_12_" d="M1673.3129,628.146c-3.7428-1.0718-7.4857-2.1436-11.2285-3.2155c-2.385-0.683-4.1427,3.1015-1.7397,4.1267
		c3.5552,1.5168,7.1105,3.0338,10.6656,4.5506C1675.0298,635.3228,1677.4294,629.3249,1673.3129,628.146z"/>
	<path id="XMLID_13_" d="M1702.6936,643.5941c-3.7756-0.9561-7.5513-1.9121-11.327-2.8681
		c-2.3788-0.6024-4.1479,3.0244-1.7397,4.1267c3.5028,1.6033,7.0055,3.2067,10.5082,4.8101
		C1704.6111,651.7117,1707.2607,644.7505,1702.6936,643.5941z"/>
	<path id="XMLID_15_" d="M1716.7614,656.481c-0.1989-0.7464-0.4189-1.4084-0.8925-2.0356c-0.1162-0.1539-0.3269-0.383-0.3733-0.5203
		c-0.0688-0.2045-0.1061-0.5726-0.1605-0.8212c-0.4855-2.2178-3.9199-1.6909-3.9132,0.5296
		c0.0001,0.0388,0.0309,0.5903,0.0162,0.7783c-0.0367,0.0805-0.0736,0.1609-0.1105,0.2414
		c-0.4083,0.9089-0.5259,1.6582-0.5665,2.6399c-0.0767,1.8494,1.723,3.2336,3.4607,3.0001
		C1716.0314,660.05,1717.2378,658.2702,1716.7614,656.481z"/>
	<path id="XMLID_27_" d="M1795.6145,374.4372c-4.1346-9.9382-10.3065-18.4656-18.2368-25.724
		c-0.7896-0.7227-2.2585,0.2451-1.5645,1.2071c5.75,7.9685,10.0345,17.011,12.6237,26.4957
		c1.2311,4.5095,2.0436,9.1136,2.3754,13.7764c0.3618,5.0831-0.3883,10.1239-0.1355,15.1662
		c0.2864,5.7105,9.4868,7.7189,10.5657,1.4299C1803.0492,396.2581,1799.6428,384.1195,1795.6145,374.4372z"/>
	<path id="XMLID_28_" d="M1793.6206,422.3741c-1.4133,0.9288-2.8267,1.8575-4.24,2.7863c-1.5969,1.0494-2.0107,3.2872-0.6047,4.6933
		c1.3989,1.3989,3.6431,0.9935,4.6934-0.6048c0.9287-1.4133,1.8574-2.8267,2.7861-4.24
		C1797.3027,423.4153,1795.2151,421.3264,1793.6206,422.3741z"/>
	<path id="XMLID_29_" d="M1060.0283,2401.0493c-15.4106,28.1621-29.658,56.7993-43.993,85.5112
		c-0.2275,0.4556,0.4226,0.8467,0.6881,0.4023c16.4323-27.5117,32.8476-54.9097,48.2361-83.0312
		C1066.7247,2400.7061,1061.795,2397.8208,1060.0283,2401.0493z"/>
	<path id="XMLID_30_" d="M1006.4341,2505.5186c-0.0673-0.939-1.3934-0.9407-1.4609,0c-0.1771,2.469-0.3541,4.9382-0.5312,7.4072
		c-0.1164,1.6233,2.6401,1.6262,2.5234,0C1006.7883,2510.4568,1006.6113,2507.9875,1006.4341,2505.5186z"/>
	<path id="XMLID_31_" d="M997.7328,2530.8809c-1.2346,1.2346-2.4692,2.4692-3.7037,3.7039c-0.7262,0.7261,0.4005,1.8533,1.127,1.127
		c1.2346-1.2346,2.4691-2.4692,3.7037-3.7039C999.5859,2531.2817,998.4593,2530.1545,997.7328,2530.8809z"/>
</g>
</svg>
