<?xml version="1.0" encoding="utf-8"?>
<!-- Generator: Adobe Illustrator 19.0.0, SVG Export Plug-In . SVG Version: 6.00 Build 0)  -->
<svg version="1.1" xmlns="http://www.w3.org/2000/svg" xmlns:xlink="http://www.w3.org/1999/xlink" x="0px" y="0px"
	 viewBox="0 0 2400 3200" style="enable-background:new 0 0 2400 3200;" xml:space="preserve">
<style type="text/css">
	.st0{fill:#273777;}
	.st1{fill:#FDCF45;}
	.st2{fill:#B02026;}
	.st3{fill:#DEECF9;}
	.st4{fill:#A9C575;}
</style>
<g id="Layer_5">
	<path id="XMLID_54_" d="M2155.2415,1720.062c0.2297-2.6467-1.6526-3.9929-3.7083-4.0736c0.3125-3.0925,0.6938-6.1746,1.1206-9.2314
		c0.3022-2.1649-1.6003-3.6108-3.2434-3.4996c0.7539-3.0394-1.2661-6.3257-3.8716-7.1216c1.7883-2.2505,3.5767-4.5009,5.3542-6.7579
		c3.4373-4.3641-2.6555-10.5975-6.187-6.1871c-9.2046,11.495-18.2471,23.1477-27.6851,34.4517
		c-3.3206,3.9769,0.7659,9.7859,5.6121,7.2736c2.271-1.1774,4.4761-2.4508,6.6252-3.8021
		c-0.9661,5.8402,7.2317,10.2578,10.2964,4.1642c0.6917-1.3751,1.3516-2.7627,2.009-4.1512
		c0.2148,2.6232,0.2568,5.2251,0.1548,7.8102c-2.3394,1.1188-4.0227,3.549-3.1858,6.7894
		c1.3867,5.3685-0.0574,10.5063-1.6318,15.6743c-1.7026,5.5883-3.5227,11.1438-5.2861,16.7134
		c-3.5696,11.2756-7.1394,22.5513-10.7092,33.8268c-7.1392,22.55-14.249,45.1057-21.2153,67.7098
		c-0.4302,1.3953-0.3401,2.6455,0.0906,3.7024c-0.4521,1.2058-0.9143,2.4078-1.3704,3.6123
		c-1.2856,0.5327-2.3818,1.6335-2.9231,3.4172c-1.0159,3.3477-1.9629,6.67-2.7471,10.0811
		c-0.1184,0.5156-0.1528,1.0203-0.1213,1.5088c-6.1479,15.6313-12.6187,31.1394-19.4133,46.521
		c-8.9856,18.7957-18.467,37.3499-28.3411,55.7307c-0.5034,0.9373-1.0161,1.8688-1.5238,2.8035
		c-0.9653-0.0115-1.905,0.4843-2.4791,1.7113c-3.6278,7.7531-7.4607,15.4095-11.478,22.9686
		c-8.9009,15.2203-18.1165,30.2441-27.207,45.3538c-19.3757,28.8088-41.6711,55.658-66.4556,79.9578
		c-1.6798,1.647-2.042,3.5886-1.5859,5.3335c-35.6354,36.2771-74.2881,69.8657-114.9368,100.4106
		c-18.9552,7.0347-38.4612,12.6079-58.2778,16.6187c-1.3143-2.2256-3.9138-3.8008-7.3333-3.332
		c-13.4331,1.8406-26.8611,3.7205-40.2909,5.5852c-3.567,0.4954-5.4465,5.011-4.6217,8.1399
		c1.0101,3.832,4.6152,5.1001,8.1399,4.6216c2.9961-0.4067,5.9922-0.8123,8.9885-1.218c0.6047,2.6355,2.6357,4.699,6.1561,4.2612
		c15.8619-1.9727,31.5309-4.8655,46.965-8.6382c-4.3569,2.4646-8.7429,4.8796-13.1616,7.2351
		c-16.2445,8.6597-32.9376,16.5039-50.0139,23.3828c-8.4695,3.4116-17.0276,6.6025-25.6637,9.5674
		c-8.4558,2.9028-17.65,4.813-25.7242,8.6372c-2.7435,1.2996-3.3074,3.6096-2.5981,5.6992
		c-5.9692,1.3616-11.968,2.5947-17.9929,3.7012c-17.2589,2.0667-34.5178,4.1333-51.7766,6.1997
		c-5.6577-0.0693-11.3121-0.252-16.96-0.5598c1.1868-3.5713-0.5579-7.9619-5.507-7.7966
		c-14.1422,0.4719-28.2853,1.021-42.431,1.3875c-4.9216-0.1238-9.834-0.3469-14.738-0.6536
		c0.7109-3.6152-0.8162-7.5603-5.302-8.4895c-22.6077-4.6833-45.2156-9.3669-67.8232-14.0503
		c-3.813-0.7898-6.7253,1.1306-8.2087,3.8093c-11.6687-2.4849-23.2822-5.2371-34.833-8.2139
		c-0.5901-0.4429-1.3263-0.7849-2.2241-0.9834c-3.5459-0.7839-7.0828-1.6028-10.6147-2.4397
		c-0.4232-0.1169-0.8485-0.2271-1.2716-0.3445c-6.3619-2.189-12.725-4.3745-19.0844-6.5713
		c0.6488-3.0212-0.5271-6.5356-4.2598-7.8271c-13.4575-4.6565-27.0278-9.0215-40.6101-13.345
		c-17.9701-5.9956-35.9104-12.1721-53.6949-18.7412c-13.8575-5.9114-27.7787-11.6755-41.7604-17.2878
		c-0.4297-1.3948-1.4409-2.678-3.2014-3.5955c-35.5481-18.5247-70.7627-37.4851-104.9915-58.3174
		c-0.2444-1.8518-1.3345-3.6262-3.575-4.8577c-11.2292-6.1709-22.2974-12.627-33.2023-19.3469
		c1.7448-2.6211,1.6232-6.231-2.1407-8.2583c-10.1134-5.4478-20.4744-10.4346-30.3137-16.3718
		c-2.8536-1.7219-5.6892-3.4736-8.5149-5.241c-21.6987-17.2917-42.6971-35.593-64.6614-52.5906
		c-9.7744-7.564-19.7399-14.8652-30.0366-21.6858c-6.2043-7.3811-12.6898-14.4661-20.5673-20.0791
		c-4.814-3.4302-10.0248-6.0824-15.5328-7.8596c0.0272-1.8828-0.8311-3.7919-2.2703-4.9104
		c1.8839-24.8074,8.6381-48.3781,17.5069-71.8358c4.8691-12.8789,9.5284-26.2213,15.9788-38.4071
		c5.5467-10.4785,16.191-25.6262,30.1291-21.7001c1.7037,0.4799,2.8331-2.0416,1.2221-2.8987
		c-11.5281-6.1329-23.7465,1.7755-31.0818,10.788c-9.8101,12.0533-15.5987,26.7717-21.5993,40.9417
		c-11.2946,26.6711-22.5227,55.3101-23.8717,84.6355c-0.9701,0.2721-1.9405,0.5366-2.9116,0.7886
		c-4.8356,0.0127-9.598,0.6112-14.3013,1.575c-10.4667,1.3807-20.892,2.9658-31.2833,4.7878
		c-6.4994,0.7981-12.9525,1.8901-19.2749,3.6595c-4.0696,1.139-5.2079,4.6598-4.3089,7.681
		c-6.6631,2.8193-12.5309,6.9132-17.3042,12.0732c-2.1016-0.5989-4.6466,0.2424-5.7378,3.0032
		c-0.3165,0.8008-0.6145,1.5996-0.9131,2.3987c-0.4741,0.1458-0.8599,0.5144-0.7975,1.0938
		c0.0299,0.2776,0.0678,0.5557,0.0982,0.8333c-1.05,2.9622-1.9725,5.927-2.7077,8.9331c-0.199,0.6492-0.3937,1.3008-0.5988,1.9463
		c-0.2375,0.7473-0.3091,1.4368-0.2553,2.0657c-0.5795,3.1011-0.9713,6.2588-1.1028,9.5234
		c-0.0526,1.3042,0.5002,2.197,1.3019,2.7051c0.0123,0.0596,0.0163,0.116,0.0305,0.1763
		c14.9767,63.749,41.7781,124.54,78.1953,178.9402c2.0641,3.0833,5.5175,3.3323,8.0967,2.0269
		c0.8315,1.2427,1.6827,2.4722,2.5209,3.7104c-0.6628,1.551-0.7065,3.3503,0.2947,5.052
		c13.3967,22.7688,28.9409,44.2246,46.4099,63.9946c0.1609,1.0981,0.6363,2.2134,1.5232,3.2568
		c6.727,7.9153,13.971,15.3088,21.6564,22.1982c-0.325,1.3789,0.0588,2.863,1.5718,4.0557
		c0.3295,0.2598,0.6661,0.5098,0.9965,0.7683c0,0-0.0005,0.0007-0.0008,0.0012c0.002,0.001,0.0039,0.0017,0.0059,0.0027
		c2.9176,2.2839,5.8736,4.5137,8.8574,6.7039c-0.8791,1.1521-0.9662,3.0283,0.5864,3.6997
		c4.1511,1.7954,8.2964,3.6062,12.4442,5.4106c0.4052,0.2695,0.8074,0.5437,1.2137,0.8115
		c1.7887,1.6904,3.6118,3.3403,5.5023,4.9058c0.3975,1.5667,1.4817,3.0039,3.4695,3.9766c1.7157,0.8396,3.4413,1.6616,5.1683,2.4814
		c0.1182,0.0796,0.2388,0.1558,0.3572,0.2349c-4.6791-1.5757-9.309-3.2852-13.887-5.1475c-4.2001-1.7661-8.3722-3.604-12.509-5.5266
		c-1.8329-0.8518-3.5944-0.667-5.0333,0.082c-21.1036-11.4854-42.382-22.6355-63.5357-34.0288
		c-1.9143-1.031-3.9244-0.6113-5.3835,0.5005c-54.2551-29.6587-103.1712-67.5679-148.0261-110.1484
		c-24.4998-23.2576-47.7936-47.7595-70.3193-72.9253c-11.1539-12.4612-22.1208-25.0889-32.9589-37.8254
		c-10.8356-12.7339-22.8154-26.2642-25.9874-43.2297c-0.5664-3.0295-0.8679-6.1086-0.9517-9.2175l2.9057-8.7605
		c0.7274-2.1931,0.3115-4.0386-0.7255-5.4067c3.4554-18.4844,8.8416-36.5472,15.966-53.9177
		c3.2417,2.4523,8.0563,2.5747,10.2294-2.0867c1.1252-2.4136,2.1365-4.8411,3.0468-7.2881
		c3.0208,2.1356,7.5227,2.1556,9.6877-1.3159c2.1232-0.979,3.7029-3.0125,3.634-6.1122c-0.0113-0.507-0.0375-1.0133-0.0512-1.5201
		c0.499-1.1582,0.9826-2.3223,1.4534-3.4915c3.8406,1.5278,9.2834-1.0259,9.5566-6.0985c0.2435-4.5219-0.758-8.4902-2.7144-12.1884
		c-7.6089-31.6567-16.2878-63.166-31.9553-91.9332c-1.4835-2.724-4.348-3.5082-6.9645-2.973
		c-1.7888-3.5906-3.6626-7.1367-5.6042-10.6445c-0.2723-0.5535-0.5391-1.1096-0.8145-1.6615
		c-1.5466-3.0992-3.1795-6.1483-4.854-9.173c-1.9944-4.8966-4.0093-9.7849-6.0511-14.6621
		c0.2948,0.0125,0.5906,0.0343,0.8844,0.0378c8.0223,0.0966,8.865-10.9388,1.8173-13.4277
		c-3.0845-1.0894-6.2855-1.8954-9.5148-2.6381c-1.1478-2.6617-2.2969-5.323-3.4589-7.9788
		c2.6521-3.4532,5.1026-7.0885,7.3613-10.864c2.7957,1.2167,6.2497,0.764,7.7659-2.5431
		c11.3331-24.7217,19.087-50.842,23.2092-77.5652c3.5312-16.2429,4.694-32.8455,3.508-49.3605
		c0.4389-0.7693,0.637-1.6375,0.4802-2.4901c0.3211-0.376,0.603-0.7661,0.877-1.1604c0.5326,0.3066,1.1652,0.5071,1.9263,0.5198
		c6.7311,0.1121,13.4822-0.0474,20.2042-0.5323c13.2085,3.6737,28.7513-1.4376,41.6644-8.0205
		c5.439-1.8187,10.7864-3.9464,15.9993-6.4608c18.8381-9.0869,35.8027-24.222,43.2498-43.947
		c0.1429,0.8961,0.2782,1.7925,0.4302,2.6882c-2.1587,1.5747-3.4631,4.2825-2.6152,7.467
		c6.5735,24.6895,19.6325,47.1957,37.7496,65.2046c1.9301,1.9185,4.7288,2.271,7.185,1.546
		c1.8697,2.3883,3.8148,4.7347,5.8458,7.0328c2.4127,2.7299,6.8867,2.6675,9.6026,0.5718c0.5483-0.4231,1.0045-0.8882,1.3821-1.3833
		c2.377,0.0808,4.6114-1.175,5.8762-2.9855c7.3076,3.3969,14.8248,6.3425,22.4813,8.9075
		c10.9179,3.6575,23.1235,8.0812,34.7974,6.3667c0.2638,4.462,5.9659,8.1202,10.2445,4.1288
		c6.9214-6.4568,13.869-12.8851,20.8279-19.301c1.5157,0.1917,3.0438-0.0786,4.2694-1.0212
		c2.3517-1.8086,4.1032-4.0117,4.7672-6.5645c2.7196,1.886,6.9976,2.0601,9.5483-1.3452
		c7.5792-10.1184,15.5117-19.951,23.7274-29.5442c1.7157,1.0337,3.9786,1.1217,5.8547-0.6663
		c33.8633-32.1118,68.1622-63.7123,103.0934-94.6079c2.1587,1.6367,5.2498,1.9893,7.769-0.4703
		c17.9739-17.547,35.9478-35.0941,53.9215-52.641c4.004-3.3704,7.999-6.7512,12.0089-10.1144
		c0.5376-0.451,0.939-0.9342,1.2302-1.4327c1.3462,0.1453,2.7861-0.1798,4.0918-1.1924
		c51.6792-40.083,102.6025-81.2314,153.2034-122.7279c23.3044-15.7198,46.609-31.4396,69.9136-47.1592
		c16.1888-10.9199,32.3777-21.8397,48.5664-32.7596c4.0544-2.7349,3.5452-7.6968,0.9707-10.3994
		c38.3247-28.4556,78.6721-54.1453,119.4836-78.911c15.5627-9.444,31.198-18.7673,46.8339-28.0895
		c4.9159-2.9308,3.4188-10.5898-0.972-12.3491c3.6082-2.4272,7.2161-4.8546,10.8242-7.2819
		c21.22-13.6238,43.1136-26.2147,65.7209-37.3577c3.2722-1.6128,3.7988-4.6788,2.7341-7.2631
		c20.7495-11.2625,42.0664-21.4622,63.8291-30.5093c28.5984-11.8888,57.9861-21.8818,87.9136-29.8562
		c7.434-1.9807,15.3979-3.7393,23.3091-5.8701c0.4125,0.0397,0.8511,0.0405,1.3174-0.004
		c9.333-0.8932,18.6006-2.5131,27.5364-5.4022c1.3118-0.4241,2.6075-0.9089,3.8999-1.4067
		c0.5244-0.0647,1.0476-0.1385,1.5729-0.1982c1.6979-0.1931,3.0455-0.9116,4.0426-1.9126c0.9172-0.3148,1.8398-0.6094,2.7744-0.8605
		c4.2283-1.1359,7.6765-0.5616,11.8799,0.4264c8.9766,2.1099,17.929,4.3268,26.8926,6.49
		c9.2781,2.2391,18.6816,4.9222,28.1965,5.8818c2.2625,0.2283,3.589-1.3979,3.8823-3.2693
		c56.634,77.4749,104.8452,160.4316,136.6536,251.2988c9.5623,27.3164,19.6665,55.6382,21.0378,84.7852
		c0.4094,8.7043,14.0715,8.7159,13.5625,0c-1.5605-26.7133-9.7251-52.3708-18.3533-77.5179
		c-8.1091-23.6337-17.3386-46.89-27.4683-69.7289c-3.6929-8.326-7.5129-16.6143-11.4585-24.8528
		c1.9065-1.3474,2.9534-3.7783,1.2893-6.17c-3.4614-4.9745-6.6855-10.0991-9.5784-15.4261
		c-2.8752-5.2944-4.9846-10.9778-7.8582-16.2473c-0.895-1.6418-2.5037-1.8318-3.7781-1.1931
		c-12.5831-23.1553-26.2839-45.7031-41.2366-67.2864c-16.1519-23.3143-33.3866-45.6281-52.3384-66.7339
		c-1.7465-1.9449-4.9304-0.1967-5.0455,1.9564c-2.7916-2.0175-6.0072-3.0831-9.8223-2.7664
		c-0.6754,0.056-1.2433,0.2677-1.7262,0.5673c-4.3687-1.2467-8.7766-2.3713-13.1287-3.5618
		c-9.4075-2.5734-18.7881-5.3223-28.2418-7.7206c-4.6373-1.1764-8.7101-1.3003-12.7371-0.769
		c1.4977-1.6396,2.9111-3.3879,4.2128-5.277c17.9146-25.9989,1.4514-58.121-18.0995-77.5267
		c-21.0409-20.8847-45.7316-38.9379-69.9149-55.983c-49.217-34.6896-102.4512-63.4868-158.2472-86.0938
		c-43.1899-17.4994-87.941-30.9412-133.6488-39.7442c-48.6589-11.2895-98.4783-18.0638-148.2234-19.232
		c-43.9539-1.0322-88.4202,2.6917-130.8958,14.4226c-5.2462,1.4489-5.3458,7.4387-2.3857,10.3798
		c-32.333,9.5554-63.5895,22.4111-93.3279,38.3235c-12.2583,6.5591-24.2209,13.6452-35.887,21.1958
		c-0.0691-0.4948-0.332-0.9516-0.7823-1.2081c5.2563-3.4152,10.6024-6.6838,16.0565-9.765c2.5115-1.4188,1.9674-4.393,0.2219-5.7776
		c0.531-0.3713,1.0537-0.7542,1.5857-1.1241c0.3481-0.1035,0.7014-0.2477,1.0574-0.4381
		c35.0582-18.746,70.0608-37.8893,104.4973-57.7552c3.9268-2.2653,2.5571-9.7665-2.4792-9.1533
		c-2.8577,0.348-5.7085,0.7188-8.5559,1.1014c-1.6578-0.97-3.7524-1.231-5.9307-0.1664c-0.9485,0.4636-1.8922,0.9363-2.8386,1.4041
		c-13.6157,2.0026-27.126,4.3799-40.562,7.1001c-9.9331,0.7664-19.9543,3.0414-29.6033,4.9694
		c-12.3806,2.4737-24.6459,5.5908-36.7695,9.1068c-6.5972,1.9133-13.1294,4.0081-19.6133,6.2344
		c-0.1254-0.0394-0.2566-0.0667-0.3993-0.059c-1.9137,0.103-3.8314,0.3435-5.7485,0.6719
		c-0.9314-1.7721-2.8373-2.8859-5.4237-2.0018c-14.4934,4.9543-29.5103,9.2094-43.6652,15.0532
		c-1.2521,0.5169-2.0622,1.4158-2.4968,2.4448c-0.9612,0.3689-1.9225,0.7371-2.8836,1.1063
		c-9.2674,2.8572-18.3856,6.4417-27.3703,10.0252c-1.1061-0.751-2.5014-1.0703-4.0403-0.6189
		c-10.813,3.1717-21.3929,8.6177-31.6211,13.3073c-10.5565,4.8402-20.9889,9.9476-31.3314,15.2286
		c-15.646,7.989-31.3075,16.1476-46.6544,24.7789c-5.1918,2.2305-10.0859,5.0182-14.6634,8.4619
		c-1.3631,1.0255-2.0053,2.3601-2.1018,3.6764c-4.4089,2.7546-8.7707,5.5852-13.0903,8.4771
		c-1.0975-0.2565-2.3355-0.0733-3.5966,0.7721c-14.0912,9.4469-28.2053,18.8582-42.2396,28.3881
		c-4.6627,2.9535-9.2217,6.0687-13.6803,9.3516c-2.1749,1.6014-2.5847,4.0668-1.9183,6.106
		c-11.9092,8.9795-23.5491,18.3166-34.8889,28.0146c-1.2578,0.0568-2.5519,0.5247-3.7388,1.5552
		c-22.8998,19.8827-44.5891,41.0247-65.2021,63.1885c-0.3784,0.4039-0.7517,0.8122-1.1282,1.2177
		c-5.859,6.3226-11.6349,12.7238-17.3211,19.2076c-0.7825,0.1964-1.5205,0.6396-2.1307,1.4048
		c-2.917,3.6588-5.7867,7.3505-8.6217,11.0668c-4.538,5.3531-9.0256,10.7515-13.4547,16.2008
		c-1.0392,1.2787-1.4354,2.6792-1.3843,4.015c-2.7217,3.8513-5.412,7.7267-8.0609,11.6344
		c-0.6239,0.9203-0.889,1.8195-0.8918,2.6558c-5.0182,6.8087-9.9363,13.6908-14.7191,20.6663
		c-17.2584,25.1705-33.5717,51.4059-47.5197,78.6674c-1.4265-4.0571-8.347-4.8148-10.1776,0.3734
		c-1.1266,3.193-2.1916,6.4076-3.2159,9.6354c-1.8356,0.6165-3.4161,1.9436-4.101,4.0107
		c-2.1127-0.5718-4.4419,0.0649-5.7557,2.6083c-20.0216,38.7576-37.45,78.8357-52.8047,119.6635
		c-0.9306,2.4268-1.8442,4.8602-2.7256,7.3062c-0.5505,1.5276-0.4738,2.8685,0.0069,3.9738
		c-12.1526,33.5496-23.062,67.5419-32.6896,101.911c-1.1227,4.0081,1.5681,6.7788,4.7056,7.4115
		c-4.1196,20.3685-7.3132,40.902-9.225,61.5983c-0.0433,0.469,0.0104,0.8928,0.1052,1.2938
		c-0.9009,7.0642-1.692,14.1367-2.3764,21.2159c-1.2615,0.5797-2.2473,1.7048-2.5463,3.4562
		c-2.1434,12.5524-3.7577,25.1664-4.8641,37.8336c-1.2645,6.2664-1.7469,12.5498-1.3421,18.927
		c-2.1922,37.0542-2.1573,74.3826,3.7799,111.0327c0.6124,4.2189,1.3402,8.4235,2.2307,12.5886
		c-0.016,0.6118,0.0437,1.2214,0.1086,1.7373c0.5021,3.9929,2.1884,8.166,3.5303,12.1169c0.2297,0.7251,0.4609,1.4495,0.7032,2.1702
		c0.4377,1.4536,1.3599,2.2791,2.4125,2.6106c0.0079,0.0583,0.0151,0.1171,0.0233,0.1753c-1.5427,0.811-2.4944,2.3806-1.6144,4.5045
		c1.3331,3.2179,2.5585,6.4904,3.9283,9.6958c1.7127,9.3595,3.7388,18.6262,5.8621,27.9039
		c-0.5928,0.7343-0.948,1.6436-0.8801,2.6836c1.3749,21.0422,6.0997,42.1498,12.2598,62.2684
		c0.1228,0.4011,0.2753,0.7657,0.4456,1.1058c20.5913,77.6631,52.7253,152.2896,95.2177,220.4836
		c13.7094,22.0015,28.2135,43.9124,44.5934,64.0325c0.192,0.2356,0.3959,0.4402,0.6048,0.6309
		c2.28,4.6194,5.0275,9.0879,8.1928,13.405c10.3381,14.0999,22.3633,27.0876,33.913,40.1936
		c45.9913,52.1882,94.9542,102.0698,150.3628,144.3389c31.3104,23.8857,64.6271,45.2637,100.1426,62.3506
		c1.4106,0.6787,2.9011,0.6343,4.1968,0.1343c24.3466,16.3904,52.0661,28.5991,80.2963,37.3606
		c17.2692,6.7063,34.9849,12.2056,53.0726,16.3962c3.4025,0.7881,5.7275-0.9644,6.5732-3.3281
		c6.28,2.249,12.6255,4.1724,18.9885,5.6226c1.0662,0.2432,2.019,0.1982,2.8444-0.0503c9.3734,2.7607,18.8265,5.2783,28.345,7.532
		c0.7772,1.114,1.9657,1.9341,3.609,2.1848c8.2578,1.2603,16.5225,2.5205,24.7942,3.7593
		c14.4148,2.6284,28.918,4.689,43.4385,6.1826c44.4202,5.8765,89.0471,10.0525,133.9006,9.1946
		c9.2461-0.1768,18.4828-0.5906,27.7021-1.2427c0.6163,0.1943,1.2668,0.2769,1.9348,0.2117
		c25.9032-2.5298,51.761-5.6423,77.5214-9.3794c0.8335,0.2461,1.7618,0.3184,2.7751,0.1426
		c3.4484-0.5986,6.8969-1.2009,10.3453-1.8052c-0.3683,1.5073,0.843,3.4087,2.8567,2.9656
		c16.7134-3.678,33.3235-7.8428,49.778-12.5281c10.3641-1.9648,20.717-3.9805,31.0491-6.0747
		c24.6835-4.2241,48.9736-11.0562,72.764-19.373c2.3975-0.6697,4.7898-1.3569,7.1814-2.0479
		c1.0801,1.3196,2.7773,2.0212,4.8059,1.2512c3.6371-1.137,7.2283-2.5574,10.7913-4.0845
		c9.8994-3.7434,19.761-7.5061,29.542-11.4817c5.8684-2.0227,11.719-4.0981,17.5511-6.2244
		c0.5206,0.0662,1.0968,0.0166,1.7305-0.2034c14.1511-4.9084,28.0226-10.8813,41.8861-16.698
		c3.9041-1.5981,7.8027-3.2078,11.6902-4.8411c5.4688-2.2183,3.135-11.2002-2.4781-8.9888
		c-18.7069,7.3696-37.592,14.199-56.611,20.6272c-1.0592-1.657-2.9321-2.7351-5.0957-1.9595
		c-22.1318,7.9358-43.9707,16.6206-66.2115,24.2463c-0.7773,0.2261-1.5559,0.4487-2.3335,0.6743
		c8.1124-3.7231,16.1561-7.6099,24.1027-11.7168c6.0537-3.1289,0.7395-11.9336-5.2996-9.0667
		c-29.9534,14.2202-60.3855,27.5569-91.4003,39.3262c-22.6832,3.9243-45.3292,8.178-67.9254,12.6106
		c-2.9116,0.4395-5.8231,0.8779-8.7305,1.3103c-19.8079,2.9453-39.6694,5.4451-59.5784,7.5286
		c-0.8489-0.4238-1.7847-0.6365-2.7578-0.522c-3.6606,0.4302-7.3197,0.8721-10.9785,1.3149
		c-23.1084,2.511-46.2891,3.3328-69.4683,2.9419c-0.291-0.4614-0.7654-0.7964-1.3931-0.79
		c-7.9805,0.0808-15.9572,0.0469-23.927-0.095c-4.6438-0.2439-9.2863-0.5286-13.927-0.853
		c4.5879-2.9375,3.5698-11.5251-3.2117-11.5027c-43.0259,0.1426-86-1.127-128.8315-5.2563
		c-18.1835-4.3662-36.1902-9.6267-53.9666-15.8887c-1.2991-0.4575-2.5885-0.9355-3.8821-1.4045
		c-22.9375-11.5315-45.8751-23.0632-68.8126-34.595c-3.7355-2.592-7.3937-5.2891-10.9531-8.1099
		c-0.2273-0.312-0.4875-0.6194-0.7973-0.917c-5.9205-5.6843-11.841-11.3687-17.7615-17.0532
		c-6.7142-6.8516-13.1776-13.9333-19.363-21.2476c1.4485-2.1858,1.7841-5.2097-0.2873-7.7676
		c-39.9565-49.3411-74.18-103.4175-101.4153-160.7778c-0.7761-1.6345-2.1279-2.4902-3.6241-2.7456
		c-0.0411-0.2305-0.0943-0.4651-0.1747-0.7087c-6.418-19.448-12.8361-38.8962-19.2541-58.3442
		c-1.6542-6.1548-3.1765-12.3508-4.5743-18.5886c0.3487-0.4319,0.6471-0.938,0.873-1.5288
		c5.8192-15.2148,19.1744-22.4026,34.5089-24.9742c15.5467-2.6073,30.6052-5.7723,45.4471-10.9198
		c1.7659-0.3434,3.5157-0.7357,5.2494-1.1765c20.5922,19.5476,43.4734,36.8555,68.3302,50.6035
		c1.2418,0.687,2.5088,0.8909,3.699,0.7488c0.3007,0.2466,0.5989,0.4958,0.8998,0.7422
		c23.7653,23.7681,50.1432,44.9138,78.4979,62.9885c30.0696,23.2024,61.47,44.6633,94.344,64.0725
		c7.9723,4.707,16.0151,9.3091,24.1249,13.7915c7.709,4.3569,15.5203,8.54,23.4354,12.5347
		c49.5448,39.1064,110.6694,58.2905,170.3414,76.374c0.9772,0.2961,1.8712,0.3638,2.6754,0.2576
		c7.6899,2.3196,15.4131,4.5217,23.1494,6.6526c0.5854,0.1846,1.168,0.3784,1.7539,0.562c0.4939,0.1548,0.9897,0.3074,1.484,0.4617
		c0.517,0.6921,1.2832,1.251,2.3488,1.5476c2.1473,0.5977,4.2971,1.1958,6.448,1.7939c23.095,8.5544,47.01,14.7812,71.3928,18.5898
		c5.3457,1.2268,10.7002,2.4045,16.0642,3.519c0.7507,0.751,1.7896,1.322,3.1638,1.5908
		c16.5625,3.2407,33.2661,5.5759,50.0298,7.0059c0.3944,0.043,0.7893,0.0803,1.1838,0.1223
		c23.0101,3.2498,46.1273,5.7444,69.3152,7.4458c3.5654,0.2615,6.5809-2.8369,7.1731-6.1804
		c1.5288-0.1006,3.0571-0.2139,4.585-0.3379c1.179,2.5972,3.8521,4.5188,7.4563,3.6807
		c11.8674-2.7603,23.6277-5.9502,35.2717-9.5107c8.3567-2.2534,16.7134-4.5068,25.0701-6.76
		c1.9541-0.5269,3.2332-1.6482,3.9441-3.0151c7.3086-2.6985,14.5554-5.5608,21.7391-8.5737
		c1.2509-0.4116,2.5065-0.8081,3.7535-1.2317c5.2659-1.7886,10.4973-3.6799,15.6882-5.6753
		c4.6003-1.7686,10.0393-3.2646,14.0421-6.2173c0.3325-0.2451,0.6456-0.5127,0.9486-0.7898
		c40.197-20.426,79.0352-43.4285,116.2588-68.8816c6.1948-4.2361,2.3573-12.5522-3.8514-12.197
		c24.9357-20.7627,48.8639-42.7371,71.3344-66.1492c5.2374-5.4568,10.4016-10.9834,15.5117-16.5601
		c0.8356,0.272,1.7236,0.364,2.611,0.2063c-6.4376,6.8286-12.9795,13.5549-19.6481,20.1472
		c-4.3109,4.2612,2.4023,10.9775,6.6511,6.6511c47.3676-48.2336,87.8069-102.3904,120.2378-161.7178
		c1.1152-2.04-1.907-3.8098-3.1166-1.8218c-3.7406,6.1486-7.579,12.2413-11.4816,18.2952
		c7.3074-13.126,14.2549-26.4462,21.0491-39.7324c3.2219-6.3008,6.3438-12.6562,9.4163-19.0375
		c0.6829-0.4102,1.2878-1.0577,1.739-1.9943c12.7141-26.3911,24.3445-53.3706,34.7759-80.8118
		c0.8657-0.4402,1.6184-1.2092,2.1318-2.3866c3.5686-8.184,6.9268-16.4366,10.0718-24.7548
		c5.2048-9.4679,8.3369-19.8948,11.2529-30.2844c3.9607-14.1119,7.8965-28.2317,11.7295-42.3789
		c1.6333-6.0282,3.2644-12.0618,4.8633-18.104l3.9697-12.5797c3.1797-10.0763,7.6011-20.5896,5.9683-31.2491
		C2153.6895,1730.8794,2154.7815,1725.3613,2155.2415,1720.062z M644.1,1662.9526c-0.3774-1.9255-1.8578-3.2983-3.5809-3.871
		c0.1631-0.4926,0.2913-0.9996,0.3349-1.5333c0.3094,0.76,0.9417,1.3678,1.9644,1.5464c2.9382,0.5128,5.8673,0.8333,8.7874,1.0115
		c-0.0711,0.8927,0.0319,1.783,0.3294,2.6097C649.2894,1662.8574,646.6747,1662.9344,644.1,1662.9526z M760.3289,1595.729
		c-1.895-0.2124-3.822,0.4078-5.2956,2.2577c-1.265,1.588-2.5335,3.1766-3.809,4.7618c2.7339-23.7925,6.1513-47.4998,10.2291-71.093
		c-1.6725,18.1526-2.9216,36.3452-3.7238,54.5657c-0.1584,3.5981,2.0664,5.6073,4.713,6.0891
		c0.1044,1.1677,0.2159,2.3352,0.3326,3.5024C761.9708,1595.6306,761.1368,1595.5947,760.3289,1595.729z M1375.4208,1280.7986
		c-0.2311-0.3223-0.4883-0.6284-0.7684-0.9155c4.7207-3.2462,9.4625-6.4604,14.2251-9.6431
		C1384.3555,1273.7146,1379.8704,1277.2349,1375.4208,1280.7986z M1108.5625,819.9284
		c52.5322-30.0725,110.4976-50.8448,170.1337-61.0127c19.926-3.3973,40.0267-5.0909,60.105-7.2581
		c0.1995-0.0215,0.3763-0.0745,0.5629-0.1142c11.6752-0.7719,23.3809-1.0999,35.0802-1.0292
		c7.5988,0.0459,15.1958,0.2092,22.7872,0.5283c0.6094,0.0491,1.2188,0.0981,1.8281,0.1489
		c-1.5378,1.5474-0.1537,4.8773,2.5537,4.2979c7.0969-1.5189,14.231-2.0224,21.3647-1.8817
		c11.6832,1.3867,23.3352,3.0588,34.937,4.9824c20.4307,3.3875,40.7375,7.5701,60.8668,12.4915
		c26.0126,6.5167,51.7415,14.2223,77.0359,23.1033c17.8607,6.271,35.5114,13.1387,52.9071,20.6032
		c0.3387,0.1454,0.6678,0.2516,0.9917,0.3382c3.1436,1.3681,6.2726,2.7693,9.3979,4.178
		c32.7043,18.1353,65.2836,36.5578,97.6327,55.3109c30.0724,17.4332,59.1268,36.1064,85.8383,58.4258
		c7.5055,6.2715,14.5757,12.9546,21.4875,19.8676c4.2472,4.2479,8.636,8.4677,12.8008,12.8673
		c5.34,9.5505,7.9178,20.0722,5.178,31.5759c-6.2422,26.2095-38.9902,30.639-60.813,36.1635
		c-29.179,7.3865-57.8717,16.6893-85.8459,27.7974c-46.6963,18.542-91.4132,41.938-133.136,69.8982
		c-89.9714,42.4022-175.9382,93.1948-256.4032,151.6744c-23.8456,17.3303-47.204,35.3303-70.0719,53.931
		c-0.224,0.1821-0.426,0.3691-0.614,0.5591c-20.1919,15.0444-39.6992,31.0107-58.4189,47.8706
		c-5.5229,4.9741,2.0261,15.1409,8.0825,10.4753c4.3323-3.3372,8.6858-6.6467,13.0386-9.9572
		c-14.5637,13.0826-28.884,26.436-42.8574,40.1696c-0.6819,0.6702-1.3503,1.3538-2.0305,2.0256
		c-55.2869,42.8765-107.7021,89.4485-156.7379,139.3542c-1.8895,1.9231-2.2471,4.1223-1.6656,6.0378
		c-18.6192,16.0753-37.1417,32.2622-55.5691,48.5571c-2.1406-1.2056-4.9421-1.2469-7.3581,0.915
		c-18.7357,16.7661-36.9969,34.0476-54.7856,51.8064c-0.0422,0.0276-0.0861,0.0466-0.1281,0.0754
		c-5.9598,4.0864-12.2163,7.7054-18.8245,10.6437c-3.1505,1.4008-6.3864,2.6034-9.6624,3.6763
		c-0.5592,0.1832-2.1793,0.7567-3.8,1.2693c-3.1146-1.0768-6.579-1.3348-10.2386-0.8201c-3.2712,0.4601-4.5825,3.1937-4.4983,5.985
		c-5.4666-1.0701-10.8941-2.3407-16.2658-3.814c-8.7405-2.3975-17.3132-5.3806-25.7518-8.6951
		c-2.5323-2.4369-5.0209-4.9268-7.4379-7.4932c-7.1345-14.0076-15.8102-27.188-25.7935-39.3141
		c-7.5045-18.8263-12.6343-38.7983-17.1963-58.5145c2.3584-43.9033,5.6668-87.7299,11.4741-131.3296
		c0.6512-4.8895,1.3363-9.7748,2.0433-14.6569c3.2217-14.5374,6.1581-29.1591,9.632-43.5858
		c5.954-24.7256,12.3254-49.3507,19.1101-73.8613c13.7385-49.6316,29.1736-98.7927,46.2656-147.3716
		c9.7039-27.5801,19.964-54.9688,30.5838-82.2089c1.2362-3.1342-0.1563-5.5045-2.4052-6.6671
		c29.9595-55.9224,61.8015-110.8116,94.925-164.9161c-1.1037,4.1341,4.7913,7.7518,8.2472,4.424
		c18.5774-17.8886,38.6917-34.364,58.0546-51.3975C1072.8586,850.5226,1090.6606,835.1785,1108.5625,819.9284z M991.2361,909.2161
		c1.9221-3.1318,3.8311-6.2717,5.7617-9.3983c0.2831,0.3512,0.6113,0.6644,0.9716,0.9275
		C995.594,903.4937,993.3306,906.3146,991.2361,909.2161z M1082.0038,836.1973c-8.6884,7.2026-17.4095,14.3665-26.1614,21.4977
		c-1.4629-2.0423-4.0917-3.0991-6.8182-1.2866c-1.1134,0.7402-2.2174,1.494-3.3204,2.2492
		c15.0676-13.5733,30.8883-26.3021,47.6974-37.4404c0.0309,0.501,0.2501,0.9855,0.6646,1.2817
		c-4.7765,3.1323-9.5068,6.3362-14.179,9.6257C1077.5674,833.7576,1079.5903,837.5057,1082.0038,836.1973z M1166.0483,754.0118
		c0.1724-0.0391,0.3472-0.0698,0.5194-0.1097c1.8816-0.4359,2.9092-1.777,3.2123-3.2997c2.3079-0.3184,4.6184-0.6072,6.928-0.9058
		c-3.7631,2.0286-7.5094,4.0878-11.2356,6.1825C1165.8118,755.2953,1166.0072,754.6569,1166.0483,754.0118z M565.965,1204.2457
		c3.3063-10.9047,6.1775-21.9474,8.5756-33.1152c0.2266-1.0555,0.194-2.021-0.0231-2.8864
		c4.3747-7.8058,8.8339-15.5537,13.3889-23.244c1.1547-0.0253,2.2833-0.5963,3.0066-1.9532
		c4.7669-8.9431,9.653-17.8174,14.6666-26.6152c3.8755-5.9714,7.8395-11.8947,11.9182-17.7576
		c20.7741-29.8611,43.5129-58.2866,68.1513-85.0491c1.6485-1.7906,1.9332-3.8608,1.3881-5.6771
		c7.5424-7.9366,15.2569-15.71,23.1186-23.3323c1.2117-0.0649,2.4521-0.5518,3.5754-1.6185
		c9.6301-9.1447,19.2662-18.2809,28.8352-27.4885c1.559-1.3979,3.1328-2.7787,4.705-4.1613
		c-0.2645,0.9905,1.232,1.8362,2.0836,1.0683c12.2719-11.0661,24.4311-22.1205,36.9193-32.8032
		c22.7238-17.1011,46.5329-32.77,71.233-46.9331c2.5817-1.4803,3.1445-3.9954,2.478-6.1959
		c10.4746-5.9198,21.0001-11.7686,31.3492-17.899c0.699-0.4141,1.2382-0.9051,1.6457-1.4407
		c15.3315-8.2825,30.972-16.0089,46.7728-23.2365c0.845-0.3865,1.6974-0.7559,2.5438-1.1392
		c0.9441,0.0256,1.9595-0.2614,2.9899-0.9797c0.5385-0.3754,1.0901-0.724,1.6329-1.0906
		c12.2499-5.4503,24.6337-10.5933,37.158-15.3835c14.7018-5.623,29.8747-10.1741,44.3339-16.3815
		c0.6732-0.289,1.2034-0.6635,1.6134-1.0934c12.8846-3.8531,25.8467-7.4376,38.8671-10.7138
		c15.25-3.8373,30.6196-7.181,46.0398-10.2594c8.0171-1.6005,16.0586-3.0788,24.1212-4.4312
		c6.8424-1.1477,14.5094-1.6138,21.2719-3.6363c-0.0002,0.0001-0.0002,0.0001-0.0002,0.0001
		c-27.045,13.3565-52.7596,29.286-76.7705,47.4744c-18.1786,12.7657-35.4709,26.6744-51.1387,42.4417
		c-1.7798-0.3477-3.7386,0.0187-5.4817,1.4718c-14.1221,12.3173-29.8085,22.5488-45.8121,32.2328
		c-6.3703,3.8548-0.8042,12.5322,5.686,9.7275c3.6154-1.5623,7.1448-3.2786,10.5997-5.1217
		c0.653,1.3575,1.8003,2.5215,3.1387,3.1656c-1.1345,1.2237-2.2851,2.433-3.4107,3.6646c-0.0925,0.1012-0.174,0.2045-0.2551,0.3078
		c-0.7242-0.0768-1.4878,0.1831-2.0045,0.9594c-1.497,2.249-2.9829,4.5051-4.4722,6.7591
		c-2.1584-1.3629-5.3772-1.4053-7.3046,1.2339c-38.9785,53.3756-72.0915,111.0389-97.7289,171.9721
		c-0.0092,0.0164-0.0184,0.0327-0.0275,0.0491c0.0018,0.001,0.0035,0.002,0.0052,0.0029c-0.1496,0.3557-0.3064,0.708-0.4554,1.064
		c-0.5663,1.3516-0.3192,2.575,0.3716,3.5278c-0.3466,0.46-0.6514,0.9785-0.8917,1.5732
		c-11.3242,28.0244-22.0046,56.3198-32.0953,84.8304c-3.9817,10.5692-7.9561,21.1411-11.9297,31.7134
		c-6.6782,16.8943-13.1194,33.8774-19.1404,50.9789c-0.877,2.491,0.3118,4.3052,2.1042,5.1025
		c-10.3693,33.8137-19.942,67.8685-28.7216,102.1055c-1.3698,0.354-2.5921,1.2605-3.3486,2.8704
		c-7.7493,16.49-12.2096,34.1765-15.2124,52.2147c-13.7356,52.5343-23.5759,106.2657-29.2024,160.1112
		c-1.4312,13.6968-2.5945,27.4186-3.5438,41.1558c-1.275,1.5011-2.5615,2.9921-3.8659,4.4661
		c-14.3623,2.7041-25.5204,12.2151-38.1119,19.2954c-10.8978,6.1282-22.3745,10.9485-34.2766,14.5916
		c-7.0536,1.509-14.2382,2.3506-21.502,2.3477c2.0136-3.5281,1.3598-8.5128-2.7083-11.1907
		c-2.0583-1.355-4.0728-1.3606-5.7306-0.5776c-1.0739-1.2878-2.0626-2.6976-2.7661-3.4731
		c-1.2379-1.3647-2.4572-2.7458-3.6678-4.1348c-11.205-23.8311-22.4101-47.6624-33.6152-71.4934
		c-0.7817-1.6626-1.9184-2.6621-3.1884-3.1407c1.4431-1.5609,2.1343-3.6952,1.2343-6.071
		c-8.8144-23.2699-17.5944-46.7896-25.4502-70.6078c-0.04-0.176-0.0799-0.3518-0.1199-0.5278
		c-12.5908-57.5034-18.126-116.2698-23.6335-174.8035c-0.1494-1.5872-0.6923-2.8706-1.4744-3.8538
		C551.0549,1270.1077,557.9255,1237.0376,565.965,1204.2457z M447.5237,1667.6792c-2.6299-21.2002-3.361-42.6304-2.9854-64.0474
		c3.137,0.6873,6.8049-1.0386,6.7826-5.2332c-0.0504-9.4526-0.1509-18.9054-0.2291-28.3579
		c-0.0076-0.9152-0.2469-1.6584-0.6193-2.2617c-0.0341-9.6655,0.1608-19.3323,0.5944-28.9878
		c0.7008-0.7981,1.1904-1.8384,1.3166-3.1228c2.8068-28.5657,5.4015-57.165,8.351-85.7206
		c2.6649-17.464,5.0919-34.9586,7.856-52.4193c11.7607-39.3114,25.1949-78.1074,40.275-116.2772
		c0.5167-1.3077,0.4728-2.5333,0.0611-3.6061c4.1685-10.2336,8.4773-20.4082,12.9119-30.5287
		c1.1703-0.1876,2.3068-0.8434,3.1578-2.1149c2.7982-4.181,5.3748-8.4829,7.7352-12.8899
		c-0.9983,6.718-1.8119,13.4553-2.4448,20.2086c-0.067,0.2745-0.1355,0.5486-0.2025,0.8231
		c-0.154,0.6313-0.1375,1.2052-0.014,1.7246c-1.6697,19.1541-1.9559,38.424-1.1592,57.6995
		c-0.3206,2.8743-0.647,5.7478-0.9668,8.6223c-0.2132,1.9163,0.5005,3.4285,1.6782,4.4843
		c0.4078,6.2147,0.9105,12.4271,1.5142,18.6337c-0.153,12.4738,0.1479,24.9412,0.894,37.3766
		c-1.4995,1.1178-2.4885,2.8424-2.336,5.0939c5.1799,76.4999,19.0447,154.8138,56.7168,222.552
		c7.9523,14.2991,17.0362,27.9292,27.1057,40.8075c0.035,0.0682,0.0717,0.1356,0.1069,0.2036
		c1.3315,4.3859,2.6605,8.7723,3.991,13.1586c2.4774,10.657,4.0092,21.5049,4.561,32.4868
		c0.0533,2.7413,0.1241,5.4832,0.2301,8.2258c0.0143,0.3716,0.061,0.7212,0.1216,1.0605
		c-0.4099,5.4829-1.0053,10.9537-1.7527,16.4001c-1.3823,10.0725-3.3701,20.0393-5.7491,29.9194
		c-0.1114,0.3281-0.2159,0.6589-0.3286,0.9865c-3.6707,10.676-8.0602,21.1298-13.2169,31.1818
		c-0.3651,0.5718-0.7374,1.1365-1.1161,1.6965c-1.0374-6.1335-11.8616-7.9124-14.6712-0.3479
		c-1.1708,3.1522-3.9909,5.2375-7.1696,6.0905c-1.7045-0.7307-3.4089-1.4613-5.1134-2.192
		c-1.6208-0.6948-3.2975-0.9825-4.853-0.7158c-12.2598-4.3505-24.478-8.9388-36.1739-14.4865
		c-7.9623-4.6287-15.7513-9.5477-23.3346-14.7374c-6.7111-4.5928-13.2687-9.4285-19.663-14.4681
		C468.1792,1723.5331,454.9937,1696.4738,447.5237,1667.6792z M596.5848,1821.031c-0.8634-0.1969-1.7257-0.397-2.5847-0.606
		c-0.09-0.1118-0.1788-0.2246-0.2697-0.3357c0.383-0.3718,0.7634-0.7476,1.1191-1.1525c0.1975-0.2249,0.3797-0.4642,0.575-0.6913
		C595.8139,1819.1731,596.1971,1820.1029,596.5848,1821.031z M599.8564,2069.8428c-0.0261,0.3088-0.0328,0.6128-0.0548,0.9204
		c-0.1808,1.1765-0.3516,2.3545-0.5185,3.5334c-7.3158-10.2776-14.5107-20.6362-21.3275-31.2944
		c-12.3205-19.2637-23.7827-39.0588-34.4576-59.2795c-21.2311-40.2161-39.015-82.2017-53.1047-125.4408
		c-6.7008-20.5636-12.5414-41.3961-17.5627-62.4298c-0.8724-3.7429-1.7464-7.4854-2.6074-11.2296
		c-0.4189-1.8217-1.4034-3.0182-2.6326-3.6903c-0.436-2.0151-0.8565-4.0349-1.2647-6.059c0.3115-0.5367,0.4985-1.1719,0.4754-1.9158
		c-0.1725-5.5402-1.6414-10.6329-3.7281-15.692c-0.002-0.012-0.0042-0.0239-0.0062-0.0359c-0.0024,0.001-0.0049,0.002-0.0074,0.0031
		c-0.1519-0.3678-0.2987-0.7357-0.457-1.1034c-0.489-1.1357-1.3625-1.7952-2.366-2.0862
		c-2.2344-7.1248-4.1735-14.3804-5.8936-21.6708c0.0728-0.0283,0.1481-0.0485,0.2193-0.0812
		c2.2681,2.7533,4.608,5.4425,6.8253,8.1323c5.7419,6.9659,11.6318,13.782,17.8326,20.344
		c12.0945,12.7991,24.9914,24.822,38.9313,35.5948c13.3284,10.3004,27.5586,19.4087,42.7902,26.6398
		c7.7281,3.6689,15.6852,6.9258,23.8116,9.6024c2.1229,0.6992,4.3066,1.4276,6.5258,2.1229
		c12.9895,20.1058,23.9066,41.5006,32.3168,63.8047c0.3048,0.9463,0.6277,1.8872,0.9238,2.8362
		c1.5833,5.0743,3.0382,10.1881,4.3629,15.3359c1.3854,5.3839,2.1567,11.1349,4.2355,16.2922
		c0.4058,1.0068,1.0567,1.8279,1.8442,2.4573c2.1765,9.073,3.9383,18.2527,5.2435,27.5205
		c-1.0453,0.4988-2.0013,1.3308-2.7491,2.5798c-1.2681,2.1182-2.505,4.2539-3.7198,6.4016
		c-0.1997,0.3538-0.3913,0.7117-0.5894,1.0664c-7.6017,13.567-14.1532,27.7012-19.575,42.2881
		C607.0991,2032.7258,601.4262,2051.2537,599.8564,2069.8428z M2145.8145,1713.3037c-0.1997-0.075-0.4038-0.1353-0.6125-0.168
		c0.3513-0.7991,0.6968-1.6028,1.0457-2.4031C2146.0986,1711.5894,2145.9524,1712.4463,2145.8145,1713.3037z"/>
	<path id="XMLID_3_" d="M2156.8965,1447.646c-5.3149-40.901-15.2485-81.1338-29.2527-119.9253
		c-7.6851-21.2877-16.3916-43.8564-29.3743-62.5203c-1.1433-1.6434-4.0435-0.7024-3.3984,1.4327
		c5.8281,19.2935,14.136,37.9138,20.6604,57.0031c6.5767,19.2416,12.2742,38.7523,16.8845,58.5603
		c9.1489,39.3071,14.4897,79.6256,15.6169,119.9708c0.1316,4.7098,0.1812,9.4191,0.1887,14.1278
		c-1.5139,0.2754-2.8992,1.3921-3.0278,3.3494c-1.3101,19.9421-2.6274,39.8838-3.9385,59.8258
		c-1.334,0.4132-2.6348,1.2926-3.7297,2.7462c-16.3833,21.7476-31.8096,44.0886-46.7568,66.8396
		c-3.697,5.6272,3.3479,10.9207,8.2534,8.4495c-6.7451,11.4501-13.8169,22.7142-21.2266,33.7732
		c-2.8542,4.2604,0.3208,8.4954,4.3552,9.4524c-19.4902,13.1965-39.386,25.7806-59.6477,37.7483
		c-1.627-0.5153-3.4979-0.4302-5.4266,0.5956c-10.8838,5.7887-21.7676,11.5773-32.6514,17.3658
		c-39.8929,20.1462-81.1985,37.3601-122.9381,53.3777c-28.6051,6.5872-56.9958,14.1079-85.3932,21.6101
		c-34.2937,5.5731-68.587,11.1613-102.9867,16.0952c-36.7449,5.2703-73.519,10.3125-110.3135,15.2063
		c-0.3733-3.4707-3.4093-6.9673-7.8872-6.1711c-42.4917,6.7197-84.7445,14.7639-127.3337,20.9246
		c-20.2855,2.9343-40.5878,5.5967-60.926,7.9282c-14.4204,0.8104-28.8416,1.5779-43.2578,2.3457
		c-2.1812,0.1162-3.755,1.105-4.7253,2.4714c-6.5583,0.5605-13.1202,1.0935-19.6904,1.5676
		c-24.1714,1.7444-48.4779,2.8942-72.707,3.3606c-1.3655,0.0264-1.9812,1.0999-1.8822,2.1204
		c-5.1039,0.022-10.2078,0.03-15.3116,0.0139c-0.9144-1.1394-2.3043-1.9503-4.1721-2.0593
		c-67.4478-3.9382-134.8691-7.8676-202.3757-10.6405c-3.7028-0.1521-3.5883,5.3571,0,5.6875
		c7.8828,0.726,15.7666,1.4332,23.6511,2.1295c-0.8369,3.0989,0.8738,7.2192,5.0833,7.6194
		c68.3542,6.4968,137.0497,9.6106,205.7131,8.9785c68.3313-0.6289,136.6306-4.7385,204.5435-12.3159
		c8.9529-0.9989,17.8982-2.0636,26.8367-3.1819c9.1875-0.9668,18.3655-2.0378,27.5371-3.1687
		c-0.0425,0.0295-0.0803,0.0634-0.1213,0.0942c-12.7717,1.6177-25.5471,3.2133-38.3181,4.8699
		c-6.8335,0.7103-6.9814,11.4497,0,10.8264c23.6726-2.1136,47.3324-4.8157,70.949-7.9275
		c36.9462-3.2501,73.833-7.8889,110.5419-13.7456c1.196,2.019,3.4545,3.3765,6.3934,2.6354
		c16.4067-4.1376,32.8101-8.2941,49.2139-12.4481c39.6714-7.6616,79.0609-16.6599,118.0135-26.7876
		c14.8607-3.8638,29.6693-7.9231,44.4257-12.165c1.3083,2.1392,3.7452,3.4419,6.9399,2.3851
		c12.317-4.0741,24.524-8.4689,36.614-13.1615c5.9321-2.1324,11.8644-4.2649,17.7966-6.3972
		c6.0774-1.7808,12.1287-3.6472,18.1536-5.5941c1.2131,2.7816,4.1365,4.8958,7.6829,3.9866
		c38.8297-9.9545,76.0056-25.9398,109.9299-47.2943c4.1257-2.5972,3.6494-8.502,0.5933-11.1226
		c4.7485-2.517,9.4968-5.0342,14.2451-7.551c6.4971-3.4438,2.0532-14.3668-5.0566-11.9946
		c-12.5503,4.1873-25.1003,8.3744-37.6504,12.5616c30.917-18.1383,60.9849-37.7144,90.0801-58.6859
		c4.9006-3.5325,3.7327-12.4614-3.3123-12.229c-4.6653,0.1538-9.2271,0.7112-13.6919,1.6504
		c14.7405-23.3064,28.1074-47.4739,39.9431-72.3795c-0.7983,12.1107-1.5894,24.2219-2.3918,36.3324
		c-0.3716,5.6063,8.4551,5.6243,8.75,0c0.9951-18.9771,2.0056-37.9532,3.0098-56.9297c0.0652-0.1504,0.1326-0.3,0.1978-0.4504
		c0.9539-2.2024,0.8655-4.2307,0.1355-5.8531c0.1104-2.0835,0.2202-4.167,0.3306-6.2505c3.6235,1.7499,9.3301-0.2023,9.9375-5.5575
		C2163.8623,1530.2625,2162.1924,1488.4006,2156.8965,1447.646z"/>
</g>
<g id="Layer_3">
	<g id="XMLID_64_">
		<g id="XMLID_70_">
			<g id="XMLID_11_">
				<path id="XMLID_290_" class="st0" d="M1700.58,2356.2c-61.5599,27.49-127.0599,47.4001-192.26,62.1799
					c-89.6799,20.3301-181.98,29.8901-273.9399,26.9702c-70.88-2.26-141.9-12.05-210.09-31.79
					c-46.3101-30.0701-86.33-68.98-119.21-113.28c-33.93-45.72-60.51-96.4399-82.93-148.6599
					c-6.61-15.4102-12.63-31.05-18.82-46.6401c-3.14-7.8999-6.12-15.8599-9.24-23.77c-2.76-6.99-5.1-14.25-8.56-20.9299
					c1.5,0.1099,2.98-0.6501,3.96-1.8101c1.49,1.21,3.56,1.71,5.74,0.6799c17.63-8.3599,35.87-15.3199,54.6-20.7899
					c16.78-4.9,33.93-8.4,51-12.15c0.07,0.1901,0.19,0.39,0.36,0.5701c0.57,0.64,1.14,1.27,1.73,1.9c0.26,0.45,0.59,0.8199,0.99,1.1
					c19.02,20.8,40.4,39.4399,61.73,57.8301c22.21,19.1499,45.08,37.5598,68.45,55.2798
					c47.23,35.8401,96.78,68.9702,148.8101,97.4402c52.5,28.73,107.4399,53.1699,164.08,72.52
					c58.6901,20.0498,119.35,34.1899,180.91,41.71C1585.1899,2361.5601,1643.1899,2362.45,1700.58,2356.2z"/>
				<path id="XMLID_289_" class="st1" d="M948.12,2362.5701c15.49,15.49,32.11,29.78,49.71,42.78
					c-7.13-2.3601-14.23-4.8401-21.28-7.4402c-79.28-29.2-152.4-74.7-216.73-129.2c-57.97-49.1199-109.39-105.95-153.27-168.1799
					c0.28-45.5701,18.5-87.3,47.15-122.2001c47.88,19.0701,92.38,43.6901,129.02,80.59c0.04,0.04,0.07,0.0701,0.11,0.1001
					c-0.04,0.1499-0.05,0.3-0.03,0.47c2.15,14.71,8.29,29.4199,13.14,43.4299c4.89,14.1501,10.37,28.1001,16.02,41.96
					c11.1,27.27,23.32,54.0801,37.09,80.1101C875.55,2275.0801,907.95,2322.4099,948.12,2362.5701z"/>
				<path id="XMLID_288_" class="st2" d="M590.52,1812.9301c27.45,50.6599,49.16,103.73,60.22,160.4399
					c0.05,0.24,0.11,0.46,0.18,0.67c-1.39-0.23-2.09,1.09-1.65,2.0699c-30.45,28.9301-47.58,71.15-50.71,112.91
					c-51.39-75.21-91.9-157.9401-119.89-244.23c-12.78-39.39-25.27-78.6801-32.58-119.54c-0.11-0.62-0.34-1.13-0.64-1.52
					c-0.35-2.58-0.68-5.16-0.99-7.74c6.62,8.75,14.14,17,21.62,24.75c11.03,11.42,23,22.03,35.82,31.4
					c25.08,18.34,54.17,34.75,84.7,41.48c1.07,0.23,1.98-0.84,1.86-1.74l1.7599-0.05
					C590.22,1812.17,590.31,1812.55,590.52,1812.9301z"/>
				<path id="XMLID_287_" class="st3" d="M659.24,1971.03c-11.07-56.14-31.68-111.61-64.12-158.99l0.16-0.11
					c1.8,2.75,6.5099,3.88,8.27,0.1399c5.28-11.2,11.01-22.08,15.62-33.61c4.66-11.6499,8.65-23.61,11.7-35.7899
					c2.9-11.64,5.19-23.4501,6.45-35.39c1.23-11.55,2.36-23.67,1.6-35.36c0.73,0.4199,1.64,0.62,2.73,0.5299
					c21.31-1.7699,42.12-6.9199,61.84-15.1899c16.7-6.99,33.13-16.03,46.38-28.51c0.12,0.88,0.48,1.76,1.13,2.59
					c16.74,21.0701,37,39.54,59.89,53.74c11.14,6.91,22.82,12.88,34.91,17.9401c6.37,2.66,12.81,5.03,19.44,6.96
					c5.71,1.65,12.42,3.96,18.47,3.7001c-1.33,1.2999-2.66,2.61-3.98,3.9299c-0.96,0.96,0.45,2.27,1.46,1.46
					c1.03-0.83,2.06-1.6599,3.09-2.5099c-2.8,14.95-0.51,29.84,3.42,44.3799c3.97,14.66,8.77,29.1001,14.33,43.2301
					c10.91,27.6699,24.27,55.83,41.89,79.9099c0.08,0.11,0.16,0.2101,0.25,0.3101c-16.02,17.88-26.46,41.4399-33.37,64.04
					c-3.88,12.71-6.6,25.7899-8.05,39c-1.18,10.86-2.06,22.4199-1.09,33.49c-38.37,1.33-76.8799,13.83-111.73,29.16
					c-0.74,0.3198-1.31,0.75-1.73,1.23c-35.91-35.14-81.25-64.3401-130.62-75.8301C658.83,1974.53,659.62,1972.97,659.24,1971.03z"
					/>
				<path id="XMLID_286_" class="st4" d="M587.72,1810.96c-28.1299-12.46-55.43-25.23-80.11-43.9099
					c-12.37-9.3601-24.1-19.5601-34.9-30.7001c-10.88-11.23-20.02-23.49-29.54-35.84c-0.17-0.23-0.36-0.4301-0.56-0.61
					c-7.24-67.86-7.14-136.4301,1.58-204.23c12.17-94.62,39.54-187.37,81.56-273.05c5.29-10.79,10.81-21.47,16.55-32.02
					c-11.57,57.4401-14.87,116.37-9.61,174.8101c6.15,68.35,23.29,135.5399,48.63,199.25c14.51,36.45,31.44,72.13,52.13,105.48
					c0.34,0.5499,0.87,0.7,1.34,0.5699c-1.4,11.61-2.09,23.2101-4.16,34.77c-2.1,11.76-4.57,23.47-7.82,34.97
					c-6.44,22.8401-14.68,46.66-27.51,66.79c-1.08,1.7-0.88,3.37-0.02,4.6901l-0.16,0.11c-0.29-0.4301-0.58-0.86-0.88-1.29
					c-1.32-1.91-4.02-0.8-4.02,1.08l-1.7599,0.05C588.41,1811.51,588.18,1811.17,587.72,1810.96z"/>
				<path id="XMLID_285_" class="st0" d="M635.25,1668.0699c-15.39-31-30.77-62.0699-43.81-94.1399
					c-12.79-31.4801-23.91-63.62-32.62-96.4701C541.54,1412.3,533.54,1344.67,537.31,1277.29c2.03-36.12,7.48-71.87,16.33-106.91
					c76.39-132.08,187.25-243.45,319.76-319.54c76.41-43.88,160.21-78.11,246.41-96.8701c27.25-5.93,54.8099-10.3,82.5299-13.24
					c-52.84,23.17-102.58,55.42-145.61,93.24c-25.34,22.27-46.89,47.42-67.13,74.33c-21.12,28.07-40.72,57.28-58.8,87.4
					c-36.08,60.07-66.08,123.71-90.71,189.28c-24.8,66-44.11,134-58.81,202.9401c-14.7401,69.1699-25.02,139.2999-29.86,209.87
					c-0.6,8.6799-1.04,17.2999-1.16,26c0,0.01,0,0.01,0,0.02v0.0099c-16.15,9.4401-32.2,18.9601-49.81,25.5901
					c-18.87,7.11-38.68,11.27-58.8,12.64c-3.11,0.21-4.77,2.6-4.98,5.0499C636.1,1667.16,635.56,1667.48,635.25,1668.0699z"/>
				<path id="XMLID_284_" class="st1" d="M905.19,1693.4399c-6.5,5.9801-12.95,11.9701-19.29,18.1101
					c-0.11-0.3-0.32-0.5801-0.65-0.79c-5.07-3.3201-11.82-4.89-17.46-7.0701c-6.13-2.36-12.23-4.87-18.21-7.6
					c-11.82-5.4-23.21-11.76-34.02-19c-21.79-14.59-41.22-32.26-57.4-52.9099c-0.75-0.9601-1.62-1.4901-2.5-1.6801
					c0.01-0.63-0.56-1.23-1.24-1.0601c4.48-33.25,7.72-66.6899,12.16-99.96c4.65-34.83,10.36-69.54,17.09-104.03
					c13.41-68.6899,31.27-136.5599,54.41-202.63c22.94-65.49,51.14-129.1699,85.25-189.6399
					c16.96-30.0801,35.38-59.35,55.28-87.5801c19.35-27.47,39.63-54.68,63.49-78.44c48.11-47.92,107.1901-86.34,169.24-113.64
					c5.54-2.44,11.1-4.83,16.7001-7.12c64.96-4.87,130.5699-2.22,195.02,6.15c93.75,12.17,184.99,36.45,269.5699,79.21
					c80.39,40.64,153.5,95,216.86,158.95c8.3101,8.39,16.45,16.94,24.41,25.65c-29.3101,1.5-58.49,8.14-86.55,16.14
					c-35.5499,10.14-70.4,23.02-104.33,37.67c-32.67,14.1-63.92,30.85-94.8201,48.46c-36.61,20.86-72.49,42.98-107.76,66.04
					c-73.4299,48.01-144.1699,100.0299-213.22,154.12c-72.4099,56.73-142.9399,115.83-212.52,176
					C1043.97,1567.97,973.97,1630.0699,905.19,1693.4399z"/>
				<path id="XMLID_283_" class="st4" d="M2162.1299,1689.86c-1.3098,10.03-2.8298,20.03-4.5698,30
					c-14.2,81.28-41.9001,161.3101-76.1702,236.21C2012.54,2106.54,1906.47,2244.3899,1760.33,2326.29
					c-11.4399,6.4099-23.08,12.5-34.89,18.28c-57.84,8.4399-116.75,9.5999-174.95,4.5c-61.37-5.3901-122-18.05-180.76-36.48
					c-57.2-17.9402-112.23-41.73-165.1-69.9302c-51.33-27.3699-100.64-58.4199-147.6801-92.6299
					c-47.71-34.7-91.96-73.23-136.5599-111.74c-3.5-3.03-7.01-6.02-10.55-8.98c0.95-0.77,1.6-1.9,1.61-3.3
					c0.12-12.67-0.7-25.0601,0.6-37.74c1.3-12.7001,3.68-25.24,7.18-37.52c6.64-23.3101,17.92-43.83,29.54-64.77
					c1.52-0.2999,2.88-1.2999,3.44-2.66c82.79,18.37,169.35,22.52,253.8699,22.14c88.8101-0.4099,177.4801-7.5,265.6801-17.5599
					c85.3099-9.73,170.53-21.4501,255.3099-35.04c80.54-12.92,160.92-28.9,238.42-54.78c38.08-12.71,75.58-27.6,111.46-45.6799
					C2108.21,1736.65,2141.25,1718.91,2162.1299,1689.86z"/>
				<path id="XMLID_282_" class="st2" d="M886.63,1714.66c34.31-27.9501,66.84-58.26,100.08-87.4601
					c34.77-30.5499,69.53-61.12,104.4799-91.47c69.2201-60.12,139.28-119.2999,211.0601-176.34
					c69.22-55,140.08-108.03,213.48-157.33c35.04-23.55,70.6801-46.2301,107.02-67.7401c32.08-18.99,64.58-37.6899,98.3101-53.6499
					c32.3799-15.3201,65.83-28.53,99.96-39.41c33.51-10.6801,68.23-20.01,103.34-23.33c5.74-0.55,11.49-0.9,17.26-1.01
					c108.41,121.6201,183.5599,272.92,213.17,433.2501c13.0601,70.74,16.95,143.47,10.1099,215.1499
					c-12.76,33.37-45.0698,53.9401-75.0898,70.2401c-35,19-71.55,35.24-109.03,48.6599c-75.4601,27.03-154.11,44.13-233.02,57.49
					c-82.9301,14.04-166.45,25.49-249.95,35.6001c-86.2301,10.46-172.8601,18.37-259.7401,20.35
					c-87.2,1.98-174.73-2.0901-261.0599-14.9501c-8.43-1.26-16.89-2.27-25.34-3.38c-7.49-12.12-15.29-23.95-22.09-36.48
					c-7.06-13.01-13.45-26.4-19.05-40.1c-5.41-13.23-10.14-26.73-14.17-40.45c-4.37-14.88-8.46-30.13-8.11-45.76
					C888.27,1715.51,887.49,1714.84,886.63,1714.66z"/>
			</g>
		</g>
	</g>
</g>
<g id="Layer_3_copy">
	<g id="XMLID_77_">
		<g id="XMLID_237_">
			<g id="XMLID_239_">
				<path id="XMLID_243_" d="M454.9069,1781.969c-18.1971-94.2224-22.979-191.0144-10.7201-286.2992
					c12.1736-94.6226,39.5434-187.3677,81.5588-273.0498c75.9731-154.9324,198.0145-285.8452,347.6526-371.7826
					c76.4068-43.8805,160.2073-78.1075,246.4147-96.8644c99.3302-21.6121,202.6945-22.48,303.2516-9.4221
					c93.7458,12.1733,184.9806,36.4516,269.5614,79.2086c80.3982,40.6427,153.5024,94.9998,216.8624,158.9476
					c125.6842,126.8505,212.8475,291.7287,245.3007,467.4676c16.3926,88.7687,18.3301,180.6539,2.7727,269.6892
					c-14.2007,81.2719-41.9053,161.3063-76.175,236.2056c-68.8455,150.4674-174.9133,288.3207-321.0524,370.2201
					c-77.8772,43.644-165.2073,72.4072-252.0094,92.0854c-89.6865,20.3323-181.9865,29.897-273.9426,26.9722
					c-87.6018-2.7864-175.4076-17.0835-257.8329-47.4382c-79.282-29.197-152.4009-74.7036-216.7266-129.2002
					c-130.8723-110.8745-228.3358-261.0596-281.1575-423.9194c-12.776-39.3909-25.269-78.6833-32.5789-119.5386
					c-0.8275-4.6249-7.8759-2.6652-7.0513,1.9438c7.5775,42.3513,15.7294,84.9258,29.2045,125.8621
					c13.6625,41.5057,30.2143,82.083,49.342,121.3687c38.355,78.7756,87.3589,152.4863,145.5956,217.9731
					c57.162,64.2783,123.63,120.6628,197.7299,164.5144c74.9851,44.3755,157.2079,73.3335,242.9597,88.281
					c90.8547,15.8367,183.9879,17.3271,275.6012,7.6016c92.9957-9.8723,184.9296-31.0042,272.6018-63.623
					c82.0314-30.5203,157.9376-71.6135,224.3425-129.0444c63.9106-55.2734,117.526-121.9607,161.3063-194.0698
					c43.066-70.9325,76.9191-147.4514,102.3383-226.3936c27.5161-85.4545,42.7573-173.1803,40.6062-263.1464
					c-2.1877-91.4927-20.3418-182.4692-51.428-268.4651c-30.8042-85.2161-74.0798-166.007-128.3715-238.573
					c-54.3868-72.6935-119.7-137.0643-193.5309-189.9363c-74.2399-53.1648-157.2715-94.1352-245.2579-118.8327
					c-96.731-27.152-199.7739-38.82-300.1102-35.2596c-98.4775,3.4945-193.8057,24.9686-284.8531,62.416
					c-78.9689,32.4795-153.2685,75.548-220.0002,128.8776c-67.1887,53.6948-125.9403,117.5177-174.7667,188.2837
					c-53.9754,78.2286-95.1312,164.8936-121.2869,256.2885c-26.4669,92.4822-37.4266,189.5043-31.2503,285.5444
					c2.964,46.0894,10.2495,91.2959,22.2971,135.8799C452.5976,1784.5664,455.258,1783.7867,454.9069,1781.969L454.9069,1781.969z"
					/>
			</g>
		</g>
		<g id="XMLID_230_">
			<g id="XMLID_232_">
				<path id="XMLID_236_" d="M884.3783,1716.021c-2.952,15.1306-0.6579,30.2114,3.3256,44.921
					c3.9696,14.6581,8.7621,29.0989,14.3304,43.2271c10.9039,27.6661,24.2672,55.8269,41.8824,79.9093
					c3.3766,4.6163,10.9939,0.4994,7.8522-4.5897c-7.5156-12.1744-15.3619-24.046-22.1915-36.6418
					c-7.055-13.0114-13.4479-26.3977-19.0477-40.0996c-5.4062-13.2284-10.1426-26.7307-14.1677-40.4429
					c-4.369-14.8839-8.4653-30.1343-8.1165-45.7599C888.2939,1714.3712,884.8103,1713.8068,884.3783,1716.021L884.3783,1716.021z"/>
			</g>
		</g>
		<g id="XMLID_223_">
			<g id="XMLID_225_">
				<path id="XMLID_229_" d="M948.5026,1879.823c-18.4883,18.3152-30.1939,44.0312-37.6979,68.6057
					c-3.8803,12.7076-6.6087,25.7955-8.0526,39.0056c-1.4143,12.9402-2.3781,26.8888-0.3302,39.8004
					c0.8289,5.2261,8.9744,3.8076,9.0234-1.2212c0.1233-12.6709-0.6982-25.0643,0.6033-37.7438
					c1.3032-12.6952,3.6788-25.2443,7.1781-37.5193c7.0828-24.8456,19.4315-46.5299,31.8527-68.9393
					C951.9754,1880.1945,949.847,1878.4911,948.5026,1879.823L948.5026,1879.823z"/>
			</g>
		</g>
		<g id="XMLID_216_">
			<g id="XMLID_218_">
				<path id="XMLID_222_" d="M905.457,2020.8315c-39.6301,0.6008-79.5286,13.4053-115.5226,29.2515
					c-6.1145,2.6919-0.8315,11.9729,5.2996,9.0664c17.6287-8.3572,35.8708-15.3163,54.5986-20.7893
					c18.4815-5.4011,37.422-9.0902,56.1977-13.2931C908.4136,2024.5334,907.8741,2020.7948,905.457,2020.8315L905.457,2020.8315z"/>
			</g>
		</g>
		<g id="XMLID_209_">
			<g id="XMLID_211_">
				<path id="XMLID_215_" d="M885.2522,1710.7567c-5.0719-3.3171-11.8187-4.8853-17.4583-7.0624
					c-6.1302-2.3665-12.2328-4.8789-18.2108-7.6074c-11.8273-5.3984-23.2175-11.7595-34.0208-18.9928
					c-21.7899-14.5892-41.2209-32.2616-57.4003-52.9181c-4.0036-5.1116-11.1832,2.0942-7.1594,7.1594
					c16.7395,21.0719,36.9973,39.5474,59.8903,53.7472c11.1357,6.9072,22.8179,12.8809,34.9063,17.9347
					c6.3677,2.6622,12.808,5.0358,19.438,6.9598c5.9501,1.7268,12.9913,4.1674,19.2344,3.6621
					C885.9954,1713.5159,886.583,1711.6271,885.2522,1710.7567L885.2522,1710.7567z"/>
			</g>
		</g>
		<g id="XMLID_202_">
			<g id="XMLID_204_">
				<path id="XMLID_208_" d="M754.1304,1621.5524c-17.4736,10.1697-34.6647,20.702-53.6756,27.8574
					c-18.8787,7.1057-38.6895,11.2688-58.8039,12.6355c-6.6675,0.453-6.6599,10.9602,0,10.4062
					c21.3116-1.7726,42.1179-6.9252,61.8411-15.1881c19.0938-7.9993,37.8436-18.6771,51.8881-34.0914
					C756.1524,1622.3243,755.1737,1620.9452,754.1304,1621.5524L754.1304,1621.5524z"/>
			</g>
		</g>
		<g id="XMLID_195_">
			<g id="XMLID_197_">
				<path id="XMLID_201_" d="M635.0143,1668.8395c-1.5536,12.2328-2.1996,24.4641-4.3801,36.639
					c-2.1066,11.762-4.5771,23.4674-7.8224,34.9714c-6.4445,22.845-14.6805,46.6624-27.515,66.7916
					c-3.3538,5.26,5.6547,10.348,8.257,4.8263c5.2797-11.2028,11.0069-22.0787,15.6151-33.6031
					c4.6606-11.6555,8.6544-23.6128,11.6965-35.7946c2.9064-11.6383,5.1902-23.4528,6.4585-35.3851
					c1.3367-12.5763,2.5582-25.8188,1.3466-38.4456C638.4424,1666.4617,635.3088,1666.5205,635.0143,1668.8395L635.0143,1668.8395z"
					/>
			</g>
		</g>
		<g id="XMLID_188_">
			<g id="XMLID_190_">
				<path id="XMLID_194_" d="M590.5162,1812.9294c27.4587,50.6589,49.1678,103.726,60.2237,160.4429
					c1.0834,5.558,9.5923,3.2085,8.4977-2.3427c-11.1704-56.6521-32.0517-112.6245-64.9977-160.2769
					C592.6763,1808.4912,589.1766,1810.4579,590.5162,1812.9294L590.5162,1812.9294z"/>
			</g>
		</g>
		<g id="XMLID_181_">
			<g id="XMLID_183_">
				<path id="XMLID_187_" d="M650.1805,1976.9406c49.2195,19.2633,95.0013,44.1812,132.5379,81.9838
					c4.2141,4.2441,10.8217-2.3599,6.5629-6.5627c-37.6642-37.168-85.8745-67.8699-138.3033-78.3138
					C649.059,1973.6654,648.3962,1976.2422,650.1805,1976.9406L650.1805,1976.9406z"/>
			</g>
		</g>
		<g id="XMLID_174_">
			<g id="XMLID_176_">
				<path id="XMLID_180_" d="M881.188,1719.0653c36.3254-29.1567,70.5302-61.1292,105.522-91.8679
					c34.7737-30.5472,69.5341-61.1145,104.4799-91.4648c69.2209-60.118,139.2777-119.307,211.0648-176.3474
					c69.2164-54.9978,140.0719-108.0221,213.4709-157.3292c35.0487-23.5444,70.6865-46.2219,107.0212-67.7325
					c32.0826-18.9934,64.5878-37.6957,98.3104-53.6494c32.3835-15.3203,65.8302-28.5376,99.9637-39.4142
					c33.512-10.6783,68.2277-20.0068,103.3394-23.3311c7.2316-0.6846,14.4838-1.0643,21.7482-1.0616
					c5.6704,0.0022,5.6797-8.8103,0-8.8125c-33.3883-0.0126-66.8047,7.3221-98.7611,16.4426
					c-35.547,10.1453-70.3933,23.0237-104.3229,37.6697c-32.6702,14.1024-63.9296,30.8497-94.8275,48.4585
					c-36.6069,20.8624-72.4885,42.9862-107.7523,66.0425c-73.4302,48.0105-144.1763,100.0309-213.2228,154.1248
					c-72.4135,56.7318-142.9456,115.8315-212.5183,176.0007c-70.7339,61.1733-140.7371,123.2758-209.5132,186.6458
					c-8.6183,7.9409-17.1677,15.8883-25.4608,24.1677C878.7678,1718.5671,880.1764,1719.8773,881.188,1719.0653L881.188,1719.0653z"
					/>
			</g>
		</g>
		<g id="XMLID_167_">
			<g id="XMLID_169_">
				<path id="XMLID_173_" d="M944.2771,1881.5233c85.1799,19.8923,174.579,24.3308,261.7982,23.933
					c88.8186-0.4052,177.4807-7.4924,265.6851-17.5559c85.3075-9.7329,170.527-21.4471,255.3057-35.0441
					c80.5457-12.9181,160.9236-28.8961,238.4196-54.7726c38.0873-12.7177,75.5889-27.6031,111.4648-45.6829
					c31.3252-15.7861,64.4514-33.5681,85.3308-62.7421c4.9199-6.8745,8.7908-14.328,11.8843-22.1826
					c2.2231-5.6449-6.988-8.199-9.1306-2.5172c-12.6628,33.5813-45.092,54.2369-75.2295,70.6006
					c-34.9983,19.0031-71.5416,35.2361-109.0295,48.6628c-75.4595,27.0267-154.1079,44.1249-233.0125,57.4873
					c-82.9352,14.0449-166.4535,25.4862-249.9515,35.6052c-86.2305,10.4501-172.8641,18.3682-259.7385,20.3425
					c-87.2029,1.9818-174.7375-2.0876-261.0646-14.9508c-10.6059-1.5803-21.2628-2.7802-31.8843-4.257
					C943.1593,1878.1764,942.2227,1881.0436,944.2771,1881.5233L944.2771,1881.5233z"/>
			</g>
		</g>
		<g id="XMLID_160_">
			<g id="XMLID_162_">
				<path id="XMLID_166_" d="M901.1879,2026.782c19.7003,22.0168,42.1061,41.554,64.4523,60.8247
					c22.2132,19.1562,45.0833,37.5586,68.4508,55.2871c47.229,35.8313,96.7836,68.9641,148.814,97.4358
					c52.4974,28.7271,107.4364,53.1665,164.0759,72.519c58.6843,20.0513,119.3463,34.189,180.9138,41.7109
					c61.3145,7.4912,123.4312,7.9856,184.7439,0.2163c7.5909-0.9619,15.1654-2.0439,22.7238-3.2339
					c5.3484-0.842,3.0776-8.9739-2.243-8.136c-60.3019,9.4939-121.8446,10.9968-182.6265,5.6606
					c-61.3728-5.3882-122.0042-18.0444-180.7633-36.4756c-57.1959-17.9407-112.2268-41.7332-165.0962-69.9292
					c-51.3286-27.3745-100.6404-58.4241-147.6812-92.6362c-47.7089-34.698-91.9646-73.2217-136.5628-111.7324
					c-5.5112-4.7589-11.0164-9.4578-16.6824-14.0303C901.9456,2022.8414,899.6301,2025.041,901.1879,2026.782L901.1879,2026.782z"/>
			</g>
		</g>
		<g id="XMLID_153_">
			<g id="XMLID_155_">
				<path id="XMLID_159_" d="M782.8026,2059.4924c2.1512,14.7036,8.2913,29.4126,13.1381,43.4243
					c4.8943,14.1489,10.3737,28.1033,16.0198,41.9675c11.1036,27.2661,23.3172,54.0791,37.0867,80.1074
					c26.5,50.093,58.907,97.4194,99.0767,137.5803c22.8101,22.8052,48.09,43.043,75.3017,60.3582
					c4.5435,2.8911,8.7336-4.3269,4.2112-7.2046c-47.726-30.3689-88.8864-70.0757-122.5535-115.4424
					c-33.9329-45.7246-60.5117-96.4417-82.9291-148.6616c-6.6181-15.4165-12.6329-31.0564-18.8268-46.6436
					c-3.1386-7.8984-6.1163-15.8589-9.2374-23.7637c-2.9784-7.5435-5.4681-15.4155-9.4025-22.5166
					C784.077,2057.5959,782.6444,2058.4116,782.8026,2059.4924L782.8026,2059.4924z"/>
			</g>
		</g>
		<g id="XMLID_146_">
			<g id="XMLID_148_">
				<path id="XMLID_152_" d="M652.2581,1973.3497c-36.0335,32.3088-54.4693,82.8024-54.2144,130.526
					c0.0293,5.4885,8.604,5.4988,8.5312,0c-0.6317-47.7161,18.4451-91.3373,48.7326-127.4766
					C657.0783,1974.2863,654.3497,1971.4744,652.2581,1973.3497L652.2581,1973.3497z"/>
			</g>
		</g>
		<g id="XMLID_139_">
			<g id="XMLID_141_">
				<path id="XMLID_145_" d="M587.719,1810.9606c-28.1262-12.4641-55.429-25.2294-80.1059-43.9095
					c-12.3696-9.3636-24.0984-19.5607-34.8995-30.703c-10.8846-11.2285-20.028-23.4922-29.5403-35.8416
					c-2.9527-3.8334-9.4471-0.4596-6.7189,3.9274c8.1608,13.1226,18.9254,25.2241,29.6271,36.3075
					c11.0294,11.4226,22.9979,22.0286,35.8202,31.4023c25.0817,18.3361,54.1682,34.7477,84.6975,41.4728
					C588.1129,1813.95,589.3021,1811.6621,587.719,1810.9606L587.719,1810.9606z"/>
			</g>
		</g>
		<g id="XMLID_105_">
			<g id="XMLID_134_">
				<path id="XMLID_138_" d="M635.6368,1668.8668c-15.5075-31.2682-31.048-62.5846-44.1937-94.9377
					c-12.7913-31.481-23.9091-63.6177-32.6232-96.4723c-17.2825-65.1589-25.2756-132.7871-21.5053-200.168
					c2.163-38.6581,8.2592-76.8979,18.2501-114.3026c1.1382-4.2615-5.5194-6.09-6.5992-1.8193
					c-16.8525,66.6478-22.4404,135.7687-16.2785,204.2427c6.1511,68.3536,23.2914,135.5414,48.638,199.25
					c14.5015,36.4495,31.4371,72.1292,52.1262,105.4849C634.3166,1671.5396,636.3572,1670.3192,635.6368,1668.8668
					L635.6368,1668.8668z"/>
			</g>
		</g>
		<g id="XMLID_79_">
			<g id="XMLID_81_">
				<path id="XMLID_98_" d="M754.0344,1624.2996c4.684-34.1941,7.9729-68.5952,12.5455-102.8195
					c4.6539-34.8333,10.361-69.5421,17.0936-104.0339c13.4078-68.6891,31.2691-136.5586,54.4103-202.6246
					c22.9402-65.4922,51.1378-129.1758,85.2417-189.6368c16.969-30.0836,35.3887-59.3524,55.2828-87.5887
					c19.355-27.4709,39.6323-54.6765,63.4895-78.4358c48.1152-47.9175,107.194-86.3383,169.2412-113.6445
					c7.3715-3.2441,14.774-6.4001,22.274-9.3368c4.4183-1.73,2.5836-8.9097-1.9938-7.2321
					c-63.694,23.3433-123.9937,60.2814-174.8905,105.0186c-25.3394,22.2727-46.8889,47.4267-67.1331,74.3339
					c-21.12,28.0714-40.7133,57.2844-58.7988,87.3984c-36.0786,60.0745-66.0766,123.7114-90.7114,189.2866
					c-24.793,65.9966-44.1102,133.9984-58.8018,202.9321c-14.7422,69.1713-25.0273,139.3059-29.8656,209.8745
					c-0.5948,8.6766-1.0422,17.3021-1.1589,25.9976C750.2312,1625.8876,753.7342,1626.4915,754.0344,1624.2996L754.0344,1624.2996z"
					/>
			</g>
		</g>
	</g>
</g>
<g id="Layer_4">
	<path id="XMLID_12_" d="M1464.8802,742.5995c-5.9424-1.2174-12.2539-1.1086-18.3018-1.4955
		c-5.1958-0.3325-10.4713-0.9133-15.704-1.0557c-13.2655-2.6699-27.0436-3.7476-40.4635-4.6437
		c-5.4442-0.3635-10.8951-0.6227-16.3488-0.7885c-0.3274-2.7283-2.24-5.421-5.6667-5.847
		c-39.9683-4.968-80.3143-2.9906-119.2715,5.3442c-0.906-0.6838-2.0092-1.1722-3.2888-1.3345
		c-3.73-0.4732-7.2896,0.1526-10.5021,1.6723c-7.6561,1.6242-15.3033,3.9432-22.7601,5.6898
		c-2.8762,0.6736-3.9089,2.8588-3.6232,5.0019c-36.2003,12.1798-70.5619,30.0085-101.5122,53.028
		c-20.4742,15.228-39.3741,32.4382-56.3658,51.4764c-0.1187,0.1331-0.1488,0.2799-0.1278,0.4158
		c-8.097,7.2411-15.8898,14.8071-23.3741,22.6945c-1.2864-1.2766-3.1829-1.7512-5.0499-0.3541
		c-15.9773,11.9554-30.1168,26.9662-43.3964,41.8069c-13.4511,15.0323-26.0992,30.7823-38.0097,47.0607
		c-23.678,32.3613-44.2731,66.9276-62.1851,102.787c-39.284,78.645-64.9362,162.9883-84.4995,248.4736
		c-11.5143,50.314-20.6632,101.1021-26.3372,152.4111c-0.048,0.4338,0.6464,0.5117,0.752,0.1018
		c22.5938-87.7836,38.2616-177.1334,66.536-263.4358c3.9571-12.0782,8.1134-24.0988,12.4745-36.0454
		c1.6823,0.3235,3.6186-0.3595,4.3785-2.4236c0.2247-0.6104,0.4484-1.2214,0.6732-1.8318c1.4022,0.6212,3.1194,0.3864,4.0595-1.3757
		c4.8128-9.021,7.7444-18.5334,9.0115-28.6711c0.1646-1.3164-0.429-2.2622-1.3267-2.8142c0.0364-0.1078,0.0748-0.215,0.1113-0.3229
		c0.088-0.2606,0.118-0.5044,0.1243-0.7399c1.6094,0.2612,3.3895-0.417,4.0334-2.4036c4.4256-13.6523,9.8881-26.8892,16.325-39.6519
		c4.6005-8.1217,9.1852-16.2529,13.8265-24.3484c0.745-1.2996,0.6141-2.5385,0.0214-3.4961
		c0.4728-0.8037,0.5056-1.6194,0.2452-2.3433c2.3086-4.0232,4.6082-8.0519,6.9031-12.0833c0.7485-0.123,1.4582-0.5654,1.9509-1.4467
		c3.1962-5.7157,6.2878-11.4941,9.3264-17.3026c3.7356-6.9305,7.4711-13.861,11.2067-20.7914
		c0.3384-0.6277,0.4428-1.2395,0.3904-1.8067c1.5154-2.9783,3.0316-5.9555,4.5551-8.9265c0.2224-0.4337,0.1876-0.8461,0.0109-1.1746
		c2.3097-3.4828,4.6444-6.9507,7.0225-10.3926c12.6625-18.3276,26.2708-35.9868,40.8847-52.8021
		c14.7837-17.0107,31.1876-32.3511,46.4319-48.8821c0.999-1.0833,1.2825-2.4584,1.0771-3.761
		c38.1685-34.832,81.4313-64.2644,128.1948-86.2028c55.4221-26.0005,115.2241-40.9805,176.3086-44.5734
		c16.8711-0.9924,33.7964-1.0669,50.6743-0.1912c17.1843,0.8916,34.0807,3.5383,51.1724,5.2139
		c1.7305,0.1696,2.9689-0.6853,3.6582-1.9206c5.5935,0.6525,11.2711,0.5015,16.8896-0.2995
		c2.7231,0.3255,5.4415,0.546,8.1141,0.4952C1467.2656,748.2329,1468.1869,743.277,1464.8802,742.5995z"/>
	<path id="XMLID_10_" d="M940.9019,1667.2869c0.1197-0.1167,0.176-0.2498,0.2063-0.385c1.516-1.6782,3.0022-3.3735,4.4191-5.1034
		c1.8134-2.214-0.9753-5.1093-3.1709-3.171c-5.5812,4.9272-10.8354,10.4766-15.8958,16.1201
		c-3.0015,2.1333-5.9485,4.3702-8.8027,6.7202c-0.6931,0.0046-1.4069,0.1934-2.0969,0.6389
		c-4.7752,3.0837-8.7233,7.1245-13.7676,9.92c-5.1032,2.8282-10.5394,4.5831-16.2235,5.8037
		c-11.3696,2.4415-23.4553,2.1985-34.6218-1.2345c-0.9423-0.2898-1.3479,0.9851-0.6321,1.4993
		c8.5295,6.1277,18.5328,9.293,28.8591,9.3716c-0.09,0.161-0.1713,0.3267-0.2374,0.4987c-1.0668,0.7877-1.587,2.3622-1.2483,3.5944
		c0.3407,1.2397,1.2431,1.9668,2.3248,2.2383c-0.0062,0.0226-0.0125,0.0452-0.0187,0.0679c1.7043,0.2861,3.4183,0.368,5.1376,0.418
		c-0.0002,1.0723,0.5281,2.2085,1.2285,2.9089c0.0717,0.0718,0.1512,0.1332,0.2277,0.1987
		c-2.4165,8.1665-3.0563,16.4425-1.3079,24.7998c-0.1008,7.5232,0.8505,15.1099,2.6658,22.5037
		c0.0076,0.0405,0.0211,0.0767,0.03,0.1165c0.5214,2.1123,1.1021,4.2113,1.7623,6.2854c1.3404,4.2109,8.8049,3.7581,8.164-1.105
		c-0.6893-5.2305-1.7897-10.3411-2.7184-15.4664c2.9977-34.8419,22.6047-65.1932,49.623-87.2882
		c0.6036-0.4937-0.1651-1.3511-0.7952-1.0308c-1.554,0.7897-3.0677,1.6389-4.5627,2.5149c0.1149-0.1235,0.2338-0.2444,0.3483-0.3682
		C940.1662,1667.9977,940.5356,1667.6439,940.9019,1667.2869z"/>
	<path id="XMLID_16_" d="M790.6051,1658.6057c-23.7086-26.2799-28.2069-60.9509-26.9699-95.3857
		c0.2675-1.3396,0.5437-2.6782,0.8364-4.0149c0.1057-0.4827-0.2195-0.8965-0.6155-1.0507
		c0.7283-14.1715,2.3182-28.2311,3.8277-41.5751c0.0348-0.3071-0.4684-0.3696-0.5371-0.0726
		c-0.3154,1.3629-0.6301,2.7269-0.9443,4.0911c0.1086-4.1532-6.6929-5.11-7.5141-0.8955
		c-8.0231,41.181-3.1733,96.4994-42.7259,123.1566c-0.6262,0.4221-0.2536,1.595,0.5478,1.2996
		c2.6312-0.9698,5.114-2.1289,7.4594-3.4509c-0.5206,0.3506-1.0406,0.7026-1.5661,1.0437
		c-0.6973,0.4526-0.2382,1.4402,0.5479,1.2996c3.4076-0.61,6.6511-1.6469,9.7271-3.0089c0.3237,0.4323,1.0423,0.6125,1.542,0.1886
		c0.828-0.7024,1.6208-1.4287,2.3963-2.1665c7.1526-4.0557,13.1725-10.0183,17.6879-17.0095
		c2.9869,11.1589,8.7371,21.5649,16.8766,29.8218c1.1354,1.1517,2.5997,1.3673,3.9221,1.0074
		c2.9583,4.3453,6.2746,8.4512,10.0107,12.2133C788.6599,1667.6674,793.9375,1662.2996,790.6051,1658.6057z M754.8105,1606.7568
		c0.2402-0.7839,0.4836-1.5667,0.7085-2.3572c0.0763,0.801,0.164,1.6013,0.2579,2.4009
		C755.4586,1606.7483,755.1345,1606.7316,754.8105,1606.7568z"/>
	<path id="XMLID_39_" d="M745.5519,936.749c-11.9383,8.5596-24.1493,16.8254-35.2565,26.4691
		c-11.6661,10.129-22.7289,20.87-33.3801,32.0597c-13.5204,14.2039-27.0175,29.1423-39.1442,44.9435
		c-1.4924,1.64-2.9773,3.2867-4.4498,4.9451c-0.7281,0.2098-1.4374,0.5626-2.0867,1.0948
		c-6.1118,5.0103-10.9789,12.0021-15.7974,18.2188c-4.9134,6.3391-9.6609,12.802-14.1945,19.4187
		c-9.2807,13.545-17.5508,27.6765-24.8965,42.3602c-2.9421,5.8812-5.7243,11.8442-8.3806,17.8636
		c-0.2147,0.0381-0.4217,0.0859-0.6306,0.1315c0.2549-1.17,0.5204-2.3363,0.809-3.4938c1.0085-4.0444-4.7842-5.5344-6.1697-1.7009
		c-1.8166,5.0264-3.6767,10.0334-5.3087,15.1218c-0.1444,0.4065-0.2813,0.8197-0.4054,1.2444
		c-0.2099,0.7185-0.0944,1.3883,0.2101,1.9592c-0.5992,2.2-1.1323,4.4127-1.5383,6.6487c-0.0273,0.1509-0.0264,0.29-0.0393,0.4351
		c-4.4669,10.3364-8.9663,20.6609-13.3405,31.0364l-0.03,0.0645c0.0007,0.0002,0.0015,0.0007,0.0023,0.001
		c-0.1535,0.3643-0.3101,0.7271-0.4633,1.0913c-0.7852,1.8674-0.004,3.5276,1.3661,4.575
		c-1.2927,3.8528-2.5673,7.7134-3.8069,11.5908c-1.1227,3.5118,1.0139,5.8721,3.7076,6.4871
		c-0.2881,2.5217-0.5764,5.0435-0.8646,7.5652h0.0527c0.0368,0.5852,0.2808,1.0793,0.6429,1.4508
		c-2.3539,11.5194-4.2324,23.2723-4.3605,34.9672c-0.6849,3.1786-1.3697,6.3572-2.0546,9.5356
		c-0.2449,1.1367,0.5889,1.905,1.4691,2.0061c-0.1017,0.6268-0.2147,1.2526-0.3116,1.8799
		c-0.2162,1.2585-0.3975,2.5234-0.5482,3.7944c-0.1061,0.7939-0.2098,1.5879-0.3028,2.3826
		c-0.048,0.4104,0.1585,0.7073,0.4525,0.8966c-13.3838,96.3818,0.8733,196.8025,39.0003,286.2587
		c10.9297,25.6443,23.7803,50.4331,38.3879,74.1738c0.8959,1.4562,2.1855,2.1306,3.5078,2.2336
		c0.7907,2.0988,1.5455,4.2153,2.2581,6.3533c5.5034,16.5105,8.3181,33.5977,10.3022,50.8369c0.5036,4.3754,7.1546,4.6365,7.0345,0
		c-0.0238-2.2444-0.1087-4.5-0.2493-6.7632c-0.3066-6.3882-0.8422-12.6641-1.7111-18.8733c0.0049,0,0.0091,0.0017,0.014,0.0017
		c1.2417,0,2.1934-0.5469,2.8248-1.365c2.8164,0.8499,6.0972,0.356,7.7885-2.3199c2.0761-3.2845-0.0028-7.2456-3.0382-8.9906
		c0.0425-0.2272,0.0734-0.4573,0.0823-0.6902c3.1842,0.6945,6.4628,1.0304,9.8312,0.9602c5.1088-0.1064,5.0228-7.5342,0-7.875
		c-14.6823-0.9961-24.1139-14.2007-31.0157-25.7993c-9.4242-15.8379-18.0145-32.1322-27.7748-47.7722
		c-0.4594-0.7361-1.4583-0.0953-1.1333,0.6625c0.382,0.8907,0.7797,1.7723,1.1668,2.66
		c-33.4639-69.5917-53.2523-146.2323-57.0475-223.1077c-1.3198-26.734-1.134-53.7289,0.8733-80.4236
		c0.3439-0.0992,0.6335-0.3325,0.7018-0.752c0.6787-4.1665,1.1624-8.3772,1.6074-12.5913c0.0342-0.1545,0.0598-0.3098,0.095-0.4641
		c0.0305-0.1335,0.0286-0.2556,0.0057-0.3672c0.1686-0.6323,0.3176-1.2698,0.48-1.9037c0.6296-2.2587,1.2591-4.5172,1.8887-6.7758
		c0.1121-0.402,0.091-0.7617-0.0096-1.0795c2.5709-11.5406,4.5277-23.2372,7.3718-34.7294
		c3.8343-15.4939,9.1677-30.2518,14.8009-45.1592c11.1629-29.5408,25.6921-57.4745,43.0407-83.8545
		c4.8839-7.4264,10.017-14.689,15.3936-21.7668c0.8176-1.0762,1.6661-2.1394,2.5261-3.1979
		c0.4986-0.2817,0.9656-0.6719,1.3677-1.1991c1.1892-1.5596,2.3679-3.1266,3.5404-4.6978c3.3836-4.0299,6.722-8.1038,9.4334-12.5082
		c0.2023-0.3287,0.3542-0.6525,0.4838-0.9733c4.4512-6.0737,8.9307-12.1277,13.6125-18.04c2.5141-3.175,5.0673-6.3187,7.646-9.4415
		c4.3473-4.1386,8.7303-8.2276,13.1395-12.2325c1.3729-1.2471,1.4346-2.7906,0.7945-4.0425
		c2.434-2.7385,4.8925-5.4551,7.3774-8.1474c9.8669-10.6904,20.1435-21.0247,30.6014-31.1362
		c10.8433-10.484,21.2921-21.4122,32.7111-31.2859C746.6785,937.2068,746.0591,936.3853,745.5519,936.749z M641.3699,1667.6702
		c0.1459,0.1272,0.2905,0.2568,0.4245,0.4011c0.908,0.9773,1.869,2.8584,0.5836,3.9491c-0.9175,0.7787-2.3581,0.3411-3.2689-0.2561
		c-0.2629-0.1724-0.5163-0.3679-0.7358-0.5936c-0.1265-0.8857-0.2341-1.7729-0.2806-2.6721
		c-0.0054-0.1047-0.0287-0.2003-0.0437-0.3002C639.4224,1668.6843,640.5621,1668.3854,641.3699,1667.6702z M633.6667,1665.8677
		c-0.2606,0.1277-0.4985,0.3015-0.7079,0.5234c-0.0948-0.4319-0.1791-0.8647-0.2781-1.2963
		C632.9949,1665.3665,633.3282,1665.6195,633.6667,1665.8677z"/>
	<path id="XMLID_6_" d="M621.1656,1867.0195c-1.7431-4.2694-3.7193-8.4207-5.9153-12.4454c0.5446-0.589,0.7502-1.4397,0.1718-2.2993
		c-2.3917-3.5543-4.9154-7.0029-7.5395-10.3657c1.2177-0.8873,1.926-2.3422,1.2407-3.9691
		c-2.9422-6.9856-6.765-13.4797-11.3667-19.3931c0.6775-0.1407,1.3338-0.5739,1.8427-1.3936
		c1.1284-1.8179,2.2568-3.6359,3.3852-5.4539c0.5671-0.9136,0.5618-1.7766,0.2328-2.48c0.2695-0.5911,0.5389-1.1819,0.8084-1.7728
		c0.8076-1.7709-0.0983-3.4152-1.4051-4.2008c3.095-2.9563,5.4641-6.7214,6.6248-11.1299c0.0739-0.2808,0.1094-0.554,0.1208-0.8213
		c2.9386-3.6985,5.2978-7.8986,6.9222-12.4805c1.0634-2.9993-3.8867-5.1487-5.1976-2.1913
		c-1.6722,3.7722-3.6979,7.3066-6.0405,10.5719c-1.1437,0.0448-2.2462,0.6152-2.9196,1.9216
		c-1.8953,3.6775-4.6304,6.4202-7.8212,8.2708c-4.4231,1.4923-9.0719,2.3677-13.7733,2.6312
		c-2.1633-0.2755-4.327-0.8334-6.4241-1.7018c-1.7243-0.714-3.2084,0.0139-4.1033,1.2734
		c-7.0748-0.9595-13.944-3.2616-19.9582-6.8953c-0.6129-0.3701-1.3005,0.0986-1.4608,0.6704
		c-0.3586,0.3231-0.4944,0.8948-0.0689,1.3308c6.5806,6.7444,15.8272,11.3734,25.442,13.1226
		c0.0609,0.032,0.1237,0.0571,0.1848,0.0884c-1.0282-0.0583-1.9761,0.3164-2.639,0.9922
		c-9.0509-4.8806-18.6046-8.9098-28.612-12.0673c-0.9259-0.2921-1.594,1.1974-0.6743,1.5992
		c10.21,4.4615,19.9824,9.9602,29.1857,16.3015c1.0951,2.809,3.108,5.2529,6.4318,5.3391c0.2995,0.0077,0.5943-0.0042,0.8836-0.0328
		c8.5676,6.5446,16.5692,13.8297,23.8723,21.7008c0.4045,0.436,0.8937,0.7142,1.416,0.8816
		c2.2712,3.1353,4.4394,6.3521,6.5087,9.6436c2.6564,5.0525,4.9104,10.3214,6.7429,15.8303
		C618.0953,1870.5969,622.1337,1869.3906,621.1656,1867.0195z"/>
	<path id="XMLID_7_" d="M674.9149,1985.2866c-0.3969,0.0349-0.7951,0.0667-1.1939,0.0974c0.0102-1.166-0.5223-2.3196-1.769-2.9998
		c-3.9846-2.174-8.3426-3.2544-12.69-3.3372c0.2964-0.7329,0.3336-1.5693,0.0036-2.5249c-0.4208-1.2191-1.3579-1.766-2.3482-1.8562
		c-0.2646-0.189-0.5637-0.325-0.8833-0.3911c-0.5225-0.6426-1.2164-1.1364-2.0356-1.3317
		c-0.1811-0.4211-0.4093-0.8378-0.7416-1.2373c0.0516-0.9774-0.137-2.0017-0.5532-2.9332
		c-0.3263-0.7302-0.9417-1.2002-1.6514-1.4708c0.119-2.4229,0.7434-5.1156,0.7587-7.1809
		c0.0282-3.8143-0.2732-7.6202-0.8141-11.3944c-1.1241-7.8438-3.4864-15.321-6.8713-22.4768
		c-1.9697-4.1641-7.907-0.5284-6.1188,3.5767c8.8181,20.2434,5.0438,40.9729-1.8448,61.1021
		c-0.271,0.7917,0.7978,1.4285,1.392,0.9043c0.514,1.1827,1.6274,2.093,2.9135,2.3219c-4.2372,4.0796-7.6259,9.1007-9.7908,14.9696
		c-0.3466,0.9395,0.9918,1.3212,1.4993,0.6321c8.8257-11.9807,22.8659-20.3816,37.9341-20.5717
		c0.5247-0.0066,0.9993-0.1327,1.4276-0.3312c1.1288,0.0858,2.2573,0.1626,3.3773,0.2612
		C677.3765,1989.3315,677.381,1985.0695,674.9149,1985.2866z"/>
	<path id="XMLID_22_" d="M809.653,2136.022c-2.8564-5.8894-5.6797-11.8748-8.3465-17.9348c2.5837,1.0376,6.1951-1.9441,4.566-5.2573
		c-0.1299-0.2642-0.2598-0.5283-0.3897-0.7927c-0.7457-4.5566-2.006-8.915-3.7571-13.0842
		c0.2957-0.5657,0.3768-1.2537,0.1027-2.0237c-3.127-8.7808-5.2305-17.8882-5.5381-27.1162
		c0.5392-5.2305,1.8256-10.4629,3.6273-15.5623c0.322-0.9114-1.0135-1.6965-1.6453-0.9578c-0.6749,0.7896-1.303,1.603-1.8876,2.4373
		c-1.2639-2.2625-4.5004-3.0149-6.3566-0.1897c-0.098,0.1492-0.1882,0.3037-0.2847,0.4539
		c-1.4196-0.1533-2.8943,0.4219-3.8107,1.6934c-0.5817-0.752-1.1511-1.5125-1.7263-2.269
		c-0.6174-1.6091-1.2455-3.2148-1.8979-4.8135c-0.6876-1.6848-2.1114-2.3967-3.4652-2.3396
		c-1.6947-1.6868-4.3769-0.583-5.3139,1.2673c-2.8522-4.1125-5.8776-8.1389-9.1021-12.0798
		c-0.9891-1.209-2.9539,0.3533-2.1473,1.6567c6.5854,10.6418,12.6422,21.7803,17.9855,33.2061
		c0.2968,0.9905,0.6071,1.9751,0.9378,2.9509c2.4307,7.1716,5.6789,14.0461,8.3352,21.1321
		c5.2783,14.0811,10.9053,27.5566,18.3203,40.6719C808.524,2138.248,810.2306,2137.2131,809.653,2136.022z"/>
	<path id="XMLID_30_" d="M932.7908,2049.9402c-3.3674-4.5096-7.0912-8.572-9.9688-13.4573
		c-3.0912-5.2478-5.4666-10.8472-7.2084-16.6802c-3.501-11.7241-2.7657-22.6125-2.1281-34.6008
		c0.2063-3.8792-5.4449-4.3585-6.5527-0.8867c-3.723,11.6676-1.8151,25.9182,1.6974,37.4128
		c0.12,0.3926,0.2524,0.7913,0.3797,1.1876c-0.0502,0.1536-0.0709,0.3201-0.0131,0.5052c0.5037,1.6157,1.0714,3.1726,1.6847,4.6902
		c-0.7084,0.5078-1.1217,1.3865-0.8218,2.5012c0.0064,0.0239,0.0145,0.0474,0.0209,0.0713
		c-1.1858-0.6561-2.3948-1.272-3.6194-1.8591c0.1406-1.2994-0.5942-2.7881-2.2804-2.8879c-1.6088-0.0953-3.2084-0.101-4.801-0.0376
		c-1.0965-0.3838-2.2015-0.7488-3.3209-1.0784c-1.8631-0.5486-3.3022,0.209-4.0847,1.4441
		c-2.9626,0.1914-5.9251,0.3828-8.8877,0.5742c-1.7268,0.1116-1.8801,2.3562-0.4631,2.8544
		c-2.4428,0.3883-4.7643,1.0507-6.8194,2.0887c-0.0441,0.0222-0.0291,0.0864,0.0131,0.0999
		c3.9268,1.2522,8.0909,1.5417,12.1215,2.3313c4.1948,0.8218,8.1758,2.178,12.1985,3.5896
		c8.597,3.0166,16.2999,7.1477,23.1256,13.2439c1.0212,0.9121,2.1284,1.1638,3.1281,0.9961
		c0.5984,0.5469,1.2078,1.0752,1.8318,1.5764c0.9299,0.9922,2.2245,1.031,3.304,0.5508c1.0159,0.5811,2.3243-0.5186,1.775-1.7073
		C933.4434,2051.6907,933.4269,2050.7922,932.7908,2049.9402z"/>
	<path id="XMLID_29_" d="M1035.6957,1887.1624c-19.0704-1.6372-37.7861-5.9001-56.6456-9.116
		c-14.2397-2.428-31.7869-4.1025-41.0236-16.4935c-0.2157-0.2893-0.6863-0.1298-0.5997,0.2528
		c1.6537,7.3064,6.8188,12.1277,13.1602,15.5128c-0.0521,0.0983-0.1032,0.1969-0.1468,0.2992
		c-0.2921-0.0632-0.6096-0.0487-0.946,0.0928c-4.5709,1.9211-7.4059,6.9346-7.1352,11.8927c0.0573,1.0494,0.2815,2.0249,0.633,2.924
		c-3.5083,3.1039-6.6475,6.7075-9.3213,10.7649c-0.4123,0.6257,0.5169,1.3276,1.0307,0.7953
		c1.1216-1.1619,2.3024-2.2552,3.5175-3.3046c0.4126,0.766,1.0761,1.3914,1.8643,1.6663c-3.1125,3.16-6.0423,6.6106-8.9135,10.3682
		c-0.3812,0.499,0.4345,1.099,0.8589,0.6628c5.7871-5.949,13.4374-10.8318,21.3203-14.6063
		c0.106-0.0026,0.2112,0.0031,0.3174-0.0023c3.1649-0.1621,6.0941-1.496,8.1786-3.6285c0.7429-0.2819,1.483-0.5547,2.2182-0.8163
		c11.6453-4.144,22.6619-5.0653,34.8524-4.7379c1.3217,0.1449,2.6429,0.2679,3.9626,0.3621
		c10.9141,0.7788,21.8887,1.233,32.8176,1.8148C1038.7435,1892.0277,1038.6753,1887.4182,1035.6957,1887.1624z M950.8204,1881.4047
		c0.1155,0.1813,0.2409,0.3612,0.3879,0.537c0.317,0.3789,0.6654,0.7085,1.0306,1.0063c-0.9525,0.3191-1.9016,0.6543-2.8444,1.019
		c-0.9252,0.358-1.5972,0.9888-2.0366,1.7307C947.6975,1883.8613,949.0056,1882.2937,950.8204,1881.4047z"/>
	<path id="XMLID_34_" d="M2179.2632,1603.5258c0.0156-0.5366,0.0356-1.0729,0.0457-1.61c0.0537-2.9324-1.4763-4.8599-3.5164-5.7986
		c1.312-6.2644,2.249-12.561,2.7422-18.8391c0.1182-1.5015-0.1465-2.8357-0.6758-4.0005c0.3887-4.3357,0.689-8.6874,0.8911-13.0559
		c0.2542-5.4893-4.9209-7.29-8.8276-5.6646c-0.0679-0.7815-0.1372-1.5654-0.2036-2.3452c-0.0142-0.1672-0.0317-0.3341-0.0459-0.5013
		c-1.2532-27.3903-3.665-54.7169-7.2656-81.8275c-4.9539-37.2985-12.2788-73.9353-23.9536-109.7366
		c-0.5325-1.6326-2.8494-0.9585-2.5464,0.702c0.5554,3.0436,1.1016,6.088,1.6477,9.1324
		c-16.5808-61.2041-38.885-120.7539-68.0449-177.1591c-9.2551-17.9027-19.7207-35.361-29.915-52.7438
		c-10.2454-17.4701-20.947-34.6653-32.1605-51.5304c-0.359-0.5398-1.2194-0.0514-0.8771,0.5126
		c3.8208,6.2942,7.5872,12.6279,11.29,19.001c-4.9701-7.4189-10.0045-14.7827-15.0823-22.0908
		c-1.8647-2.6838-3.7493-5.3438-5.6321-8.0057c0.3481-0.5901,0.4744-1.3297,0.3961-2.0604
		c3.0421-0.6266,5.2733-4.2657,2.3014-6.9495c-0.8374-0.7563-1.6978-1.4832-2.5432-2.2291
		c-0.1605-0.2146-0.3427-0.4249-0.5698-0.6245c-7.4363-6.5333-14.9065-12.9918-22.4266-19.3888
		c-0.8585-1.1199-1.6989-2.2522-2.5646-3.3674c-0.0552-1.6218-0.7834-3.2502-2.4468-4.4248
		c-0.7666-0.5309-1.5259-1.0721-2.2908-1.6055c-1.4144-1.7769-2.8319-3.5519-4.2693-5.3149
		c-0.0352-0.0431-0.0779-0.0604-0.116-0.0942c-0.4791-1.193-1.4805-2.1875-3.1157-2.6113
		c-1.9536-0.5063-3.9111-0.9722-5.8711-1.4139c-0.7842-0.5573-1.5701-1.1119-2.354-1.6696c1.2029-2.4065,0.9998-5.5517-1.0476-7.889
		c-1.2849-1.4669-2.7576-2.7267-4.364-3.7684c0.495-1.3228,0.1292-2.7057-0.8173-3.9028c-1.3087-1.6555-2.9836-2.2902-4.7072-3.3554
		c-1.0278-0.6353-2.1372-1.1723-3.2371-1.7185c1.0436-4.1149-3.6106-6.5276-7.1409-5.3757
		c-0.2111-0.5485-0.4275-1.0948-0.6372-1.6439c-0.8599-2.2499-2.8258-3.3475-4.7439-3.3616
		c-0.0891-0.0507-0.1804-0.097-0.2717-0.1433c-8.3894-8.4141-16.7788-16.8281-25.1682-25.2421
		c-0.7787-0.7809-1.7107-1.1686-2.6638-1.2574c-6.0447-7.938-12.4147-15.6069-19.0923-22.9922
		c-3.5366-4.5924-7.4653-8.8961-11.7644-12.8649c-0.4659-0.4301-0.9524-0.7369-1.4442-0.9479
		c-16.2579-16.1186-34.1083-30.6652-53.4382-43.3668c-12.9729-8.5245-26.5092-16.0746-40.505-22.7833
		c-1.0028-0.4807-1.874,0.9436-0.8833,1.5111c32.551,18.6446,62.5327,42.1795,88.5726,69.4362
		c0.1049,0.8763,0.4913,1.7712,1.2462,2.6025c7.0741,7.7904,13.6506,16.0184,19.687,24.6215
		c1.589,2.7972,3.0527,5.6717,4.3752,8.6211c0.3264,0.728,0.6486,1.4633,0.9678,2.2029c1.071,4.1805,1.6724,8.4758,1.619,12.8694
		c-0.1089,8.9711-3.5358,18.197-9.9569,24.2846c-3.7158,2.3925-7.6038,4.5588-11.6625,6.4922
		c-3.16,1.5054-2.6254,5.4809-0.4259,7.3645c-1.7871,0.6396-3.563,1.3148-5.3203,2.0452
		c-4.2467,0.7736-8.4824,1.6265-12.7024,2.5596c-30.0125,6.6357-59.5352,16.679-88.0223,28.5989
		c-0.0463-0.5771-0.312-1.1553-0.7218-1.6245c0.0952-0.1144,0.1682-0.2373,0.2294-0.364c-7.2034,1.7979-14.42,3.5818-21.5575,5.634
		c-6.9336,3.3862-13.8521,6.804-20.7698,10.2231c-0.8779-0.238-1.8665-0.1924-2.887,0.2964
		c-48.6208,23.293-95.8284,50.054-142.2258,77.4648c-45.9875,27.1687-91.0812,55.8492-135.186,85.9781
		c-87.9609,60.0878-172.3883,125.7491-251.4021,197.2216c-22.3843,20.2479-44.3916,40.9126-66.0052,61.9811
		c-21.6759,21.1292-41.9183,43.4481-62.0264,66.0504c-0.3726,0.4187,0.2089,1.0114,0.6188,0.6187
		c19.2886-18.4788,38.9745-36.5654,58.4656-54.8342c0.3962-0.3713,0.7914-0.7437,1.1875-1.1151
		c0.3007,0.3185,0.8018,0.4305,1.2053,0.0162l7.1003-7.2898c0.8571,1.1931,2.6345,1.7603,4.0686,0.4557
		c1.7939-1.6318,3.3906-3.58,4.9441-5.5453c6.2997-5.3313,12.6035-10.6577,18.9092-15.9824
		c14.0547-10.2947,27.6902-21.1484,40.8914-32.5814c0.5312-0.4601,0.8005-0.981,0.8831-1.5052
		c7.3835-5.8743,14.3728-12.241,20.9087-19.0603c9.8064-8.3831,19.5933-16.7888,29.3304-25.2517
		c0.6367-0.5535,0.8878-1.1942,0.8732-1.8151c1.9644-1.6959,3.9502-3.4,5.9097-5.139c0.783,0.1656,1.6208,0.0309,2.4072-0.5491
		c15.0134-11.0715,29.6158-22.676,43.7881-34.7979c3.0747-2.6058,6.1272-5.2373,9.1318-7.9219
		c0.6472-0.5784,0.9888-1.2246,1.0981-1.8722c3.9965-3.4094,8.0255-6.7812,12.1255-10.0662
		c1.5701,1.2854,3.9854,1.6183,6.0759-0.0834c29.7355-24.2048,60.384-47.274,91.8662-69.1587
		c1.6116-1.1204,2.1106-2.7734,1.8689-4.2877c0.9036-0.6466,1.8103-1.2882,2.7129-1.9366c0.4487-0.3223,0.748-0.715,0.9456-1.1342
		c2.1145-1.3107,4.2222-2.6329,6.3312-3.9526c0.6562,0.2748,1.432,0.3007,2.2365-0.101
		c18.1284-9.05,34.9904-20.2285,50.4414-33.2725c11.2325-7.0323,22.4572-14.0977,33.2415-21.7717
		c3.0977-2.2043,1.6423-6.5146-1.2345-7.092c15.0924-9.501,30.2787-18.8518,45.575-28.0193
		c51.3608-30.7819,104.1216-58.6744,157.0238-86.6614c1.1738-0.6211,1.77-1.5173,1.9548-2.4727
		c0.7141-0.2998,1.4282-0.5997,2.1423-0.8994c10.0505-2.8768,19.9385-6.2753,29.6448-10.2123
		c0.9788-0.3971,1.4785-1.1038,1.6154-1.8496c30.9252-9.8141,61.5861-20.2828,93.5206-26.6409
		c31.778-6.3268,64.6309-8.2955,96.5408-2.5836c2.3812,1.0797,4.7322,2.228,7.0393,3.4623
		c2.8074,1.7711,5.6118,3.5465,8.4114,5.3295c-0.5405,0.0322-1.0793,0.074-1.6194,0.109c2.9153,1.5258,5.2612,3.9672,6.9248,6.8766
		c0.8971,0.0132,1.7946,0.0195,2.6909,0.0471c0.6705,0.0208,1.2371-0.1256,1.7197-0.3718c4.699,4.5386,9.4539,9.016,14.3286,13.365
		c1.8502,2.7871,3.708,5.5696,5.5691,8.3496c-0.4617-0.0115-0.9227-0.0046-1.3842-0.0107c1.7965,2.0549,3.5359,4.1614,5.2367,6.3003
		c0.1278,0.0104,0.2559,0.0151,0.3835,0.0259c0.769,1.1454,1.5385,2.2906,2.3077,3.4358c3.5189,4.6238,6.868,9.3809,10.0953,14.1924
		c0.7268,1.0835,1.2678,2.2195,1.6646,3.3823c7.3337,11.0393,14.5625,22.1492,21.4832,33.4636
		c17.3629,28.3865,33.0283,57.5966,46.1755,88.0898c3.5273,8.5439,6.9836,17.1128,10.3638,25.7173
		c5.1191,13.6755,9.6787,27.5237,13.5042,41.6062c1.0056,1.479,1.7834,3.103,2.2427,4.8363
		c1.1035,4.1644,2.5537,8.2122,4.0371,12.2488c0.5493,0.1805,1.1318,0.2649,1.7214,0.2352
		c13.7576,40.8657,25.3359,82.3033,34.2358,124.4238c2.4929,25.3759,3.8921,51.1584,3.5366,76.8645
		c-0.4614,0.9534-0.9307,1.9019-1.397,2.8519c2.894,20.7499,1.3335,41.5363-3.6719,61.5677
		c-0.167,1.0991-0.3274,2.1996-0.5034,3.2969c-0.0498,0.2063-0.1057,0.4109-0.1558,0.6172
		c-0.2271,0.3982-0.4678,0.7883-0.6963,1.1857c-1.9771,7.0424-4.3682,13.9823-7.1431,20.7825
		c0.9768-1.3776,1.9565-2.7534,2.918-4.1418c-18.3713,59.2911-54.9575,112.2592-105.4478,149.6619
		c-11.2478,8.3323-23.1309,15.8378-35.5046,22.4113c-0.4749-0.0013-0.9724,0.0883-1.481,0.3092
		c-18.094,7.861-35.365,17.8439-52.6041,27.5978c-1.256,0.5819-2.5123,1.1627-3.767,1.7473
		c-32.2239,10.3823-65.3582,18.6489-96.9065,30.8948c-0.3876,0.1504-0.386,0.8533,0.108,0.798
		c9.5536-1.0715,19.1171-2.5219,28.6517-4.2733c-42.234,9.8379-84.3325,20.0574-126.8846,28.5538
		c-0.2108-0.0402-0.4297-0.0614-0.6649-0.0365c-1.8823-0.245-3.8325-0.3232-5.8168-0.2942c0.6665-0.2771,1.337-0.5334,2.001-0.8237
		c2.4863-1.0864,0.3408-4.855-2.153-3.6831c-4.8948,2.3-9.9443,4.2831-15.1047,5.9044c-0.5901,0.0592-1.1802,0.1117-1.77,0.1873
		c-3.8774,0.4965-7.723,1.1736-11.5376,1.9969c-5.9795,0.8337-11.9595,1.6636-17.9424,2.4724
		c-17.6907,2.391-35.343,5.0647-53.0347,7.4551c-6.8092,0.9202-13.6182,1.8402-20.4276,2.7578
		c-10.9817,1.1582-21.976,2.1597-32.9775,3.1061c-21.8666,1.8812-43.7228,3.6067-65.6455,4.7067
		c-2.1666,0.1086-2.1969,3.385,0,3.3906c3.7096,0.0093,7.4208,0.0087,11.1327-0.001c-1.3729,0.4021-1.6035,2.3109-0.5792,2.9213
		c-2.9363,0.2291-5.8734,0.4467-8.8116,0.6469c-0.6375-0.6257-1.5051-1.001-2.5833-0.9043
		c-8.3442,0.7485-16.6868,1.5176-25.0286,2.2944c-1.8289,0.0581-3.6575,0.1223-5.4869,0.1659
		c-0.4908,0.0117-0.8651,0.1904-1.1351,0.4536c-41.047,3.8534-82.072,7.9747-123.108,11.9231
		c-2.016,0.194-3.3098,1.4637-3.8781,2.9781c-20.1589,0.9885-40.3262,1.7588-60.495,2.287
		c-55.8817,1.4635-111.7548-0.3358-167.6185,0.8219c-0.7188,0.0149-0.686,1.0195,0,1.0938
		c49.7632,5.3939,100.27,5.3379,150.2775,4.8163c49.4413-0.5157,98.9008-2.3741,148.2244-5.8561
		c98.9871-6.9882,197.7479-19.724,295.2059-38.4377c54.7393-10.5109,109.8147-21.8625,163.3672-37.439
		c1.1497-0.3345,1.8704-1.0223,2.2512-1.8396c24.8057-5.2595,48.9211-13.5389,71.7686-24.6223
		c1.1227-0.5447,1.6177-1.4255,1.6797-2.3506c20.4781-7.1498,40.6062-15.3091,60.0598-24.9014
		c3.9572-1.9512,7.8844-3.9705,11.7842-6.0443c0.0234-0.0026,0.0435,0.0031,0.0681-0.0026
		c14.6696-3.3586,28.5115-7.3298,42.1821-13.7828c13.688-6.4611,26.2708-14.6372,37.9963-24.1953
		c3.9731-3.2386,7.8845-6.6831,11.7036-10.2972c1.7952,1.4199,4.27,1.8445,6.8203,0.198
		c5.8711-3.7908,11.1016-8.2314,15.6174-13.3311c-0.0029,0.1492-0.0051,0.2983-0.0078,0.4476
		c-0.1653,0.2041-0.2913,0.4596-0.3098,0.8075c-0.1411,2.6138-0.3091,5.2261-0.4893,7.8376
		c-0.9805,8.2896-1.9609,16.5791-2.9412,24.8687c-0.0745,0.6311,0.1208,1.1113,0.4568,1.45
		c-2.1978,18.2996-5.3657,36.4846-9.5051,54.4429c-7.9973,28.0586-16.95,55.8247-26.9802,83.1893
		c-0.0525,0.1232-0.103,0.2471-0.1555,0.3702c-0.1934,0.4535-0.3547,0.9144-0.4829,1.3782
		c-17.0103,46.1667-37.0955,91.1824-60.8494,134.5149c-19.0282,34.7117-39.5315,68.4866-62.6621,100.5173
		c-39.8499,43.9868-80.7991,86.8491-127.1375,124.2864c-4.1816,3.3782-8.4073,6.7034-12.6683,9.9824
		c-0.3768,0.123-0.7556,0.238-1.1327,0.3596c-5.156,5.0049-10.6785,9.6719-16.6169,13.9814
		c-5.0869,3.6919-10.4487,6.9692-15.9897,9.9287c-11.6887,7.8384-23.6357,15.2727-35.8494,22.2178
		c-1.5417,0.3423-3.0845,0.6716-4.6267,1.0059c-3.2271,1.627-6.4761,3.2146-9.7473,4.76
		c-3.5232,1.7332-7.0717,3.4133-10.6458,5.0327c2.585-0.4485,5.168-0.907,7.7456-1.3889
		c-30.316,15.782-62.1519,28.5552-95.4343,37.3745c-8.9897,2.3823-18.012,4.3923-27.0632,6.0996
		c-3.9387,0.7043-7.8821,1.3882-11.8274,2.061c-27.9189,4.4077-56.1316,5.905-84.647,5.3828
		c-0.5421-0.0098-0.6858,0.8606-0.1307,0.9668c24.4147,4.6792,49.3138,5.4512,74.1068,3.2622
		c28.9675,4.3281,58.7708,1.9355,87.3684-4.0479c0.2531-0.053,0.5051-0.1123,0.7581-0.166
		c-85.1287,43.7212-178.2092,69.8972-272.8025,83.3896c-98.0312,13.9832-198.9934,12.644-296.2639-6.3389
		c-25.1617-4.9106-50.3192-10.9429-74.6898-19.0149c-0.4528-1.9395-1.7675-3.5649-4.0872-3.9104
		c-5.3899-0.8025-10.6166-1.9321-15.6953-3.3506c-8.4397-3.4075-16.7979-7.0068-25.3569-10.0596
		c-0.2328-0.083-0.4651-0.1687-0.6979-0.252c-35.6819-18.3364-63.7708-50.5583-90.417-80.6096
		c-0.756-0.8525-2.2555,0.2769-1.5951,1.2307c16.9396,24.4705,34.5037,49.8706,57.4139,69.1787
		c8.3073,7.001,17.2096,13.408,26.6332,18.8364c9.9438,6.7961,20.795,11.8501,31.8611,16.6252
		c23.0369,9.9404,47.1975,17.4685,71.6443,23.0325c49.6942,11.3105,100.7935,17.4309,151.6841,19.585
		c101.4938,4.2959,205.2913-7.771,301.8347-39.9434c27.2634-9.0854,54.417-18.1689,81.009-29.1191
		c26.4242-10.8809,52.4049-22.9661,77.9047-35.8621c1.7765-0.8984,2.6467-2.2908,2.8519-3.7773
		c2.2764,0.2908,4.707-0.1279,6.981-1.1355c92.356-40.9219,173.1406-105.6157,238.1351-182.5396
		c33.8756-40.0933,63.7137-83.4878,89.4518-129.219c27.395-48.6755,49.3491-100.8005,67.6768-153.5085
		c20.6929-59.5098,37.0825-120.5354,49.7207-182.245c0.9382-4.5087-1.5874-7.8767-4.8872-9.3524l-0.0403-2.782
		c-0.0435-2.9976-1.9377-5.2075-4.3396-6.3369c0.0603-0.2146,0.1267-0.426,0.1841-0.6421
		c2.2571-8.5015,8.7266-14.3394,16.4658-16.674c0.6357-15.1158,0.5107-30.2155-0.1155-45.3119
		c1.4626-5.9041,2.5391-11.8914,3.0789-17.9475C2180.2605,1606.103,2179.9219,1604.6946,2179.2632,1603.5258z M1154.7412,1469.5757
		c0.7-0.6467,1.4072-1.2859,2.1082-1.9316c0.0361,0.0559,0.0703,0.1133,0.1116,0.1646
		C1156.2209,1468.3975,1155.4856,1468.9923,1154.7412,1469.5757z M1916.3314,1012.739c-0.3604,0.0381-0.7208,0.077-1.0814,0.1292
		c-3.2413,0.469-3.5356,3.7277-2.11,5.9364c-0.8517-0.0545-1.7037-0.1057-2.5594-0.1391
		c-11.1793-0.4359-22.3428,0.5146-33.1641,2.9622c0.2246-0.1598,0.4509-0.3173,0.6713-0.4822
		c2.61-1.5204,5.1464-3.1592,7.6093-4.9011c0.6824,1.5318,2.4875,2.658,4.4268,1.6716c1.9484-0.9909,4.1282-1.3076,6.1603-1.9683
		c1.463,1.2601,3.579,1.7119,5.6027,0.4929c1.5968-0.9619,3.1663-2.1017,4.5012-3.4379c2.4644,2.0153,6.2025,1.3616,7.5496-1.7409
		c1.3118,1.2452,3.0322,1.3749,4.5139,0.7881c0.1646,0.1499,0.3269,0.3016,0.4866,0.4554
		c-0.8718,0.0607-1.7432,0.1237-2.6086,0.2178C1916.3301,1012.7284,1916.3307,1012.7337,1916.3314,1012.739z M2043.0869,1759.9731
		c-2.5869,1.1605-5.1887,2.2686-7.8098,3.2668c2.26-1.2467,4.5034-2.5227,6.7373-3.8157c0.3345,0.2051,0.696,0.3667,1.0759,0.4928
		C2043.0907,1759.9359,2043.0861,1759.9543,2043.0869,1759.9731z M2149.5591,1698.7441c-0.0864,0.5437-0.1675,1.0879-0.2532,1.6316
		c-0.6133,0.0773-1.2124,0.2688-1.7268,0.5699c-0.0972,0.0568-0.1853,0.1221-0.2761,0.1848
		c-0.011-0.0642-0.0198-0.1293-0.031-0.1934c0.8174-1.0626,1.6184-2.1398,2.3713-3.2601
		C2149.6169,1698.0327,2149.5862,1698.3884,2149.5591,1698.7441z"/>
</g>
</svg>
