<?xml version="1.0" encoding="utf-8"?>
<!-- Generator: Adobe Illustrator 19.0.0, SVG Export Plug-In . SVG Version: 6.00 Build 0)  -->
<svg version="1.1" xmlns="http://www.w3.org/2000/svg" xmlns:xlink="http://www.w3.org/1999/xlink" x="0px" y="0px"
	 viewBox="0 0 607.2026 809.9988" style="enable-background:new 0 0 607.2026 809.9988;" xml:space="preserve">
<style type="text/css">
	.st0{fill:#F2C250;}
	.st1{fill:#4D61AC;}
	.st2{display:none;}
	.st3{display:inline;}
	.st4{fill:#D3D9ED;}
	.st5{fill:#0A0A0B;}
</style>
<g id="Layer_12">
	<path id="XMLID_47_" d="M140.8876,440.0422c-0.0466,0.0265-0.0913,0.055-0.1378,0.0816c-0.5657-1.4625-2.3845-2.3854-3.6501-0.8557
		c-2.1866,2.643-4.4272,5.2471-6.6541,7.8622c-2.0165,1.5828-3.9837,3.2404-5.9316,4.9561
		c-0.902,0.7946-0.8498,1.8226-0.3289,2.5941c-0.147,0.1843-0.2999,0.3641-0.4462,0.549c-1.6345,2.066,1.1995,5.0315,2.9518,2.9518
		c1.7265-1.6863,3.3732-3.4593,4.9907-5.2612c2.2983-1.479,4.515-3.0992,6.6864-4.7259c1.175-0.8802,1.1426-2.3479,0.5038-3.2958
		c1.129-0.8355,2.2736-1.6479,3.4355-2.4277C143.7975,441.4704,142.478,439.138,140.8876,440.0422z"/>
	<path id="XMLID_46_" d="M89.353,495.0405c-3.5363,1.8041-7.0961,3.5603-10.6393,5.3504c-4.47,2.2583-9.1573,5.4979-14.4301,4.6721
		c-0.9504-0.1489-1.3121,1.101-0.3987,1.4464c4.0607,1.5356,7.6012,0.5621,11.5002-1.0706
		c5.3398-2.236,10.5254-4.8511,15.7188-7.4032C93.1006,497.0544,91.3451,494.0242,89.353,495.0405z"/>
	<path id="XMLID_45_" d="M104.7881,401.4486c-0.5278,2.4739-1.5472,4.204-3.4489,5.8727c-0.9851,0.8644-0.8107,2.4342,0,3.3234
		c3.2224,3.5342,2.2478,8.2625,0.4973,12.2628c-0.9836,2.2477-3.103,4.7176-3.3356,7.2474
		c-0.2179,2.3701,1.2581,4.6931,1.3057,7.0983c0.0574,2.9016-0.8876,5.604-2.5643,7.8403
		c-1.2749-0.9075-3.5382,0.1309-3.4974,1.8638c0.0004,0.0162-0.0005,0.0321-0.0001,0.0483
		c-0.2524,0.3332-0.4229,0.7523-0.4513,1.2671l-0.5658,10.2539c-0.0294,0.5331,0.14,0.9734,0.418,1.3215
		c-2.1651,4.1993-5.8795,7.8835-9.5057,9.9896c-1.9679,1.1429-4.5377,1.564-6.1769,3.2377
		c-2.1472,2.1924-3.1833,6.279-4.5665,8.9449c-0.1747,0.3368-0.1444,0.654-0.0148,0.9183
		c-3.1666,4.9387-6.8809,9.3051-11.9975,12.9274c-3.4575,2.4477-7.2475,4.4482-11.2388,5.8708
		c-3.6377,1.2966-7.6766,1.536-11.1741,3.1288c-0.2065,0.094-0.1354,0.3879,0.0464,0.4606
		c-0.0175,0.0038-0.0348,0.0079-0.0523,0.0117c-0.6592,0.1428-0.4448,1.0509,0.1495,1.1049
		c9.1624,0.8329,17.9175-2.4254,25.3715-7.6461c0.5856-0.4102,0.792-1.0031,0.748-1.5717
		c7.0407-4.9833,13.5366-12.1261,16.2828-20.3579c0.183-0.5486,0.1077-1.0511-0.1245-1.4647
		c1.3447-0.6135,2.8788-0.9479,4.1783-1.6296c3.5428-1.8588,6.5692-4.9302,9.0544-8.0056
		c4.394-5.4373,6.5659-11.8144,4.3239-18.3859c1.6953-1.3629,3.0303-3.08,3.9745-5.199c1.8672-4.1908,0.4011-7.0251,0.541-11.2017
		c0.1481-4.4202,4.3497-8.6074,4.8732-13.3645c0.3345-3.0391-0.2759-5.8245-1.7573-8.3044
		c1.7343-1.8327,2.8602-3.9646,3.4985-6.5421C110.351,399.6535,105.4528,398.3326,104.7881,401.4486z"/>
	<path id="XMLID_63_" d="M583.6596,412.2581c-0.1337-0.1473-0.2697-0.2886-0.4071-0.4108c-0.5804-0.5162-1.214-0.9775-1.8914-1.3572
		c-0.4353-0.244-0.9374-0.3216-1.4176-0.251c-0.1378-0.2159-0.3063-0.4268-0.5464-0.6214c-0.5009-0.4061-0.9677-0.8342-1.431-1.2651
		c-1.7134-1.8796-3.3389-3.9197-4.8528-5.9333c-0.4213-0.5603-0.9483-0.8796-1.494-1.0225l-2.5441-3.451
		c-0.3013-0.4086-0.6682-0.6782-1.0587-0.8502c-2.1172-2.7621-4.1321-5.6021-6.0138-8.5276
		c0.2421-0.651,0.2527-1.3897-0.1266-2.0945c-4.2791-7.9507-8.8331-15.8392-13.0181-23.8758
		c0.5242-0.6629,0.6987-1.5966,0.1465-2.6072c-3.3994-6.2222-7.1367-12.2557-11.0783-18.1509
		c0.019-0.5632-0.137-1.1494-0.5602-1.6853c-1.6705-2.1157-3.3409-4.2313-5.0114-6.347c-0.3038-0.3847-0.673-0.6044-1.0638-0.703
		c-2.1165-2.4561-4.2329-4.9122-6.3494-7.3682c-0.3637-0.4221-0.802-0.6349-1.2552-0.7009
		c-0.2382-0.2585-0.4733-0.5211-0.7189-0.772c-0.0231-0.032-0.0381-0.0652-0.0632-0.0969
		c-4.4053-5.5869-9.2537-10.7035-14.5184-15.4244c-1.5602-1.5063-3.2193-2.9103-4.9694-4.2415
		c-0.0444-0.0361-0.0873-0.0735-0.1317-0.1095c-0.0009,0.0012-0.0019,0.0024-0.0028,0.0036
		c-0.1302-0.0985-0.2518-0.204-0.3831-0.3018c-0.0969-0.0721-0.1957-0.1269-0.2951-0.1736
		c-0.1318-0.2357-0.3232-0.463-0.5941-0.6674c-4.0215-3.0358-8.1396-5.8948-12.3426-8.6063
		c-0.1366-0.2659-0.3377-0.5135-0.6342-0.7169c-2.03-1.3918-4.0917-2.7198-6.1782-3.9967
		c-1.3287-1.0934-2.6874-2.1354-4.0766-3.1243c-1.6689-1.2765-3.3517-2.5341-5.0831-3.7236
		c-0.4154-0.2854-0.8234-0.3669-1.196-0.3161c-9.0084-5.2504-18.8972-8.9067-28.8704-12.1287
		c-2.3705-0.8089-4.7609-1.5557-7.1617-2.2447c-8.0208-2.4263-15.8971-4.378-23.8459-5.6385
		c-7.5323-1.3195-15.3558-1.8487-23.1652-1.6417c-0.0475-0.2687-0.1761-0.5455-0.4263-0.8125
		c-1.3473-1.4374-2.6525-2.8965-4.1434-4.1863c-0.4599-0.3979-1.0781-0.3077-1.4642,0.0187
		c-1.1548-0.8337-2.7452,0.9221-1.6765,2.1457c0.8968,1.0269,1.7936,2.0536,2.6904,3.0805
		c-1.4625,0.0925-2.9232,0.1989-4.3772,0.3458c-3.8101,0.0981-7.6201,0.206-11.4295,0.3291
		c-2.6846,0.0349-5.3712,0.1245-8.0603,0.2719c-1.457,0.0798-2.2957,1.0832-2.5156,2.1989
		c-1.0073,0.0452-2.0149,0.0834-3.0219,0.134c-1.1548,0.0579-1.8302,0.8218-2.0317,1.6929
		c-1.506,0.3172-3.0105,0.6414-4.5129,0.9748c-5.1088,1.0178-10.1912,2.1965-15.2381,3.527
		c-0.2216,0.0516-0.4431,0.1005-0.6646,0.1526c-0.1028,0.0242-0.193,0.0588-0.2811,0.0949
		c-0.6393,0.1711-1.2762,0.3517-1.9144,0.5275c-1.0558,0.2626-2.1109,0.5258-3.1647,0.7894
		c-1.0146,0.2538-2.0292,0.5203-3.0437,0.7838c2.0793-0.6995,4.1709-1.3768,6.2881-2.0078c1.7309-0.5159,1.0087-3.1776-0.7477-2.712
		c-11.2913,2.9928-22.4974,6.8668-33.2496,11.7215c-3.067,0.8981-6.0527,2.2142-8.9556,3.7675
		c0.3286-0.5187,0.4086-1.1544,0.2806-1.7241c1.3668-0.7496,2.7421-1.4824,4.1224-2.2051
		c21.8126-9.4344,44.4491-16.9401,68.1018-20.0461c0.6061-0.0793,1.0766-0.3539,1.4264-0.7232
		c2.4956-0.1962,4.9966-0.3522,7.5068-0.4374c1.3544-0.046,1.3616-2.0822,0-2.1094c-2.3041-0.046-4.5991-0.019-6.8898,0.0422
		c-0.2355-0.8176-0.9092-1.432-2.0434-1.286c-21.0624,2.8104-42.0192,6.7862-62.5083,12.4557
		c-2.1177,0.586-1.8301,3.3189-0.2769,4.043c-10.4659,4.4183-20.7189,9.3354-30.7197,14.7559
		c-0.7368,0.3993-1.0788,0.989-1.1469,1.6033c-1.9734,1.1669-3.9366,2.348-5.8784,3.5555
		c-1.1553,0.7184-1.2706,1.8648-0.8099,2.7443c-4.2038,2.8029-8.3687,5.6562-12.5034,8.5261
		c-2.2542,1.5646-0.1641,5.2637,2.1766,3.7238c8.8476-5.821,17.6871-11.721,26.7244-17.248
		c3.1985-1.4003,6.412-2.7673,9.6419-4.1004c-2.5117,1.4797-4.9591,3.0816-7.3442,4.6743c-2.1973,1.3307-4.3564,2.7192-6.485,4.1508
		c-2.8062,1.4808-5.5782,3.019-8.3001,4.6328c-0.2639-0.2981-0.6827-0.4487-1.0761-0.1776
		c-2.8185,1.9427-5.5216,4.0151-8.1835,6.1363c-2.5984,1.8112-5.1283,3.7173-7.582,5.726
		c-3.2179,2.4474-6.4309,4.9002-9.6262,7.3781c-0.014,0.0098-0.0281,0.0195-0.0422,0.0292c0.0005,0.0007,0.001,0.0013,0.0015,0.002
		c-0.1686,0.1308-0.3395,0.2586-0.5082,0.3895c-0.319,0.2477-0.5219,0.5406-0.6462,0.8521
		c-4.0839,3.1048-8.0942,6.3171-12.0152,9.6518c-0.9756,0.8297-1.0184,1.8561-0.5684,2.6841
		c-3.5748,3.5635-6.9313,7.3308-10.0647,11.3123c-0.4274,0.5431-0.5808,1.1379-0.5551,1.708
		c-2.722,3.5004-4.8721,7.7067-7.1557,11.3266c-0.1918,0.3041-0.2784,0.6127-0.2977,0.9133
		c-0.0393,0.0604-0.084,0.1087-0.1209,0.1744c-0.3565,0.6354-0.713,1.2709-1.0695,1.9063c-0.2654,0.473-0.3624,0.9359-0.3555,1.3754
		c-2.674-7.2938-9.3335-13.5699-17.3962-13.4135c-0.4063,0.0079-0.6523,0.6429-0.2247,0.8298
		c6.5947,2.8828,12.4409,8.0621,13.3243,15.5853c0.0367,0.3124,0.1195,0.5814,0.2225,0.8287
		c-2.7194,2.5805-5.295,5.3104-8.0407,7.8652c-0.1852,0.1723-0.3177,0.3594-0.4246,0.5515
		c-3.1805,1.9706-6.4301,3.7864-9.7404,5.5391c-0.3645,0.193-0.6248,0.4589-0.8123,0.7593c-1.3387,0.61-2.7,1.1736-4.084,1.7023
		c-0.5038-0.0599-1.0074-0.0499-1.5054,0.0309c-20.8149-7.0419-28.8246-28.939-39.3971-46.8927
		c-2.8685-5.8361-6.4086-11.281-10.6938-16.2889c-0.2325-0.2717-0.4919-0.4634-0.7643-0.5883
		c-19.7393-25.7728-49.2808-43.4285-83.3511-38.5659c-2.4845,0.3546-2.1734,4.1465,0,4.7217
		c1.6801,0.4447,3.313,0.9787,4.9098,1.5804c4.8266,4.1564,10.6791,7.5737,16.4833,9.7215c0.2434,0.0901,0.477,0.1159,0.6964,0.0933
		c3.5231,2.6505,6.9016,5.5288,10.215,8.4606c2.8588,3.6445,5.4552,7.4888,7.3022,11.7594c1.3744,3.1779,2.2181,6.4355,2.1416,9.921
		c-0.0435,1.9812-0.5517,4.0944,0.6501,5.8016c1.0096,1.4342,2.9714,2.109,4.3786,3.0533c2.3717,1.5915,4.559,3.4728,6.5009,5.568
		c3.1718,3.4222,5.1964,7.1149,6.9657,11.1109c-0.0795,4.3242-0.2052,11.0715-0.3093,11.0947c-1.3654,0.304-2.26,2.2279-1.3914,3.42
		c1.9476,2.6727,3.5593,5.5418,5.2484,8.3843c1.6682,2.8073,6.149,0.175,4.3713-2.5552c-0.9339-1.4343-1.8658-2.8553-2.8144-4.263
		c0.0886,0.0211,0.1718,0.0554,0.2625,0.0704c0.9136,0.1514,1.7962-0.2928,1.9305-1.286c0.1286-0.9507-0.5867-1.7014-1.5192-1.7525
		c-0.3021-0.0165-0.8872-0.1771-1.2726-0.4623c-0.2727-0.2018-0.5663-0.4771-0.7683-0.7867c0.0076-0.11,0.0305-0.2095,0.0333-0.3228
		c0.0396-1.6434-0.1172-3.3569-0.3511-5.0914c1.5435,0.6735,3.5787-0.4618,3.1902-2.6805
		c-0.9342-5.3355-3.9268-10.5426-7.1973-14.7853c-1.8743-2.4316-3.9664-4.6702-6.3171-6.6486
		c-0.92-0.7744-1.923-1.5512-2.904-2.2468c-0.7112-0.5042-3.4353-1.7578-3.8893-2.4406c-0.9322-1.4019-0.697-6.0589-1.1637-7.8959
		c-0.7382-2.9056-1.8721-5.7106-3.3304-8.33c-0.9943-1.786-2.161-3.4601-3.4152-5.0726c1.3581-0.6913,2.1414-2.5086,0.6912-3.8158
		c-8.4847-7.648-17.2347-15.3021-27.4354-20.3196c10.8911,0.0439,21.1643,2.5688,30.6238,6.9382
		c2.1108,1.7743,4.1544,3.6296,6.109,5.5927c1.0306,1.0352,2.4594,0.2808,2.8532-0.7627
		c12.0678,7.4551,22.5257,17.9158,30.8771,29.8203c1.9595,3.1531,3.9429,6.2774,5.9739,9.3677
		c1.9387,3.3537,3.7234,6.7787,5.3335,10.25c0.398,0.8581,1.1625,1.2079,1.9589,1.2039
		c6.4515,12.3806,12.8857,25.5348,23.1729,33.9106c-0.4125-0.0782-0.8243-0.163-1.2369-0.2343
		c-0.4818-0.1707-0.9611-0.346-1.4393-0.5236c-0.2144-1.9737-2.8776-3.6172-4.6208-2.2932c-0.0334,0.014-0.067,0.0154-0.1001,0.035
		c-1.2156,0.7164-2.3821,1.4914-3.5056,2.3134c-5.2992,2.8049-9.1946,7.3979-11.7285,12.8068
		c-1.6843,2.7265-3.1145,5.6299-4.2816,8.6617c-0.4648,1.2074,0.1372,2.1792,1.0582,2.6681
		c-0.8369,6.5292,0.032,12.6555,2.8638,17.8494c-0.0067,0.1957,0.0046,0.3989,0.0392,0.61
		c0.2644,1.6155,0.7935,2.9753,1.5158,4.1393c-0.1263,0.4091-0.1077,0.8686,0.1321,1.3017
		c0.8799,1.5892,2.1975,2.9337,3.7166,4.0498c2.9006,3.0145,6.8557,4.757,11.4282,4.6964c2.2676-0.03,3.1-2.2856,2.5022-3.9195
		c1.8926-0.0287,3.7836-0.1382,5.6188-0.2721c-4.2064,2.2579-8.2928,4.9908-12.0543,7.6133
		c-1.0168,0.6886-2.0212,1.3953-3.0137,2.1164c-1.2419,0.9024-1.3839,2.3322-0.8965,3.4305
		c-6.5223,5.3863-12.4818,11.4475-17.7388,18.2033c-1.4025,1.8024-0.06,4.145,1.5916,4.4471
		c-9.9898,10.3381-21.2372,19.3181-33.1542,28.1942c-0.6801,0.5065-0.115,1.4773,0.6624,1.1333
		c22.3737-9.9011,40.6188-29.6153,53.6158-49.9328c0.2017-0.3152,0.2841-0.6248,0.2919-0.9189
		c1.2495-1.1652,2.5047-2.3244,3.7868-3.4548c2.1877-1.3575,4.3879-2.6944,6.6276-3.9683c4.071-2.3156,8.6613-4.1073,12.4131-6.8995
		c0.2789-0.2076,0.4916-0.4549,0.6544-0.7211c0.6673,0.0032,1.334,0.0217,2.0005,0.0397c3.0901,1.2357,6.2754,1.8304,9.6033,1.7869
		c2.0305,0.4343,4.0789,0.7239,6.1562,0.8735c1.1638,0.4222,2.3179,0.8833,3.4479,1.437c6.0594,2.9686,11.2037,7.4083,15.8546,12.24
		c9.6315,10.0059,17.7189,21.317,27.6747,31.0503c9.8892,9.6682,20.7743,18.3488,32.3839,25.8643
		c10.6332,6.8833,21.5911,12.9438,33.5248,16.6949c0.0182,0.5793,0.2713,1.14,0.8131,1.5162
		c0.1335,0.3099,0.3367,0.5922,0.6242,0.8204c0.5986,0.4752,1.2574,0.8514,1.9408,1.1855
		c-6.6365,0.9531-13.2338,2.2216-19.7783,3.9152c-0.4575,0.1183-0.6056,0.4714-0.5533,0.8108
		c-3.5094,0.9561-6.9885,1.9993-10.4401,3.1294c-1.1658,0.3182-2.3311,0.6379-3.4915,0.978
		c-3.7911,0.9487-7.5377,2.4471-11.1372,3.8432c-0.7144,0.2771-1.501,0.5348-2.2877,0.8159
		c-0.4973-0.391-1.011-0.7694-1.5457-1.1309c-2.6152-1.7681-5.0824,1.8766-3.4329,4.0377c-0.3214,0.1406-0.6431,0.2798-0.9623,0.428
		c-0.9073,0.4213-0.2637,1.9717,0.6863,1.6279c0.459-0.1661,0.9243-0.3208,1.3844-0.4849c0.3205,0.0764,0.6461,0.1164,0.9754,0.1268
		c5.0574,4.0934,7.7333,10.5049,6.7671,17.068c-0.2869,1.9481,1.1401,3.8768,3.2921,3.2921
		c7.5572-2.0535,14.0069,4.0825,12.1314,11.7363c-0.5887,2.4025,1.8741,4.0805,3.9771,3.0574
		c9.3823-4.5646,15.8453,4.2448,18.1745,12.3892c-0.3664,0.0959-0.7325,0.2006-1.0978,0.3157
		c-2.9003,0.9134-2.5798,5.9359,0.7562,5.5873c1.2623-0.1319,2.5247-0.2639,3.7869-0.3958c0.5117-0.0535,0.9597-0.1971,1.3429-0.408
		c7.5239-0.3376,14.9778,3.8058,17.9177,11.1057c0.6154,1.528,1.9052,2.4227,3.6034,2.046
		c5.7114-1.2669,11.2432,0.3063,15.479,4.3322c1.2308,1.1698,2.9599,1.0711,4.2077,0c10.7826-9.2552,18.6276-21.7291,22.011-35.5615
		c2.9547-12.0795,2.7073-25.8353,8.7849-36.695c0.2593,0.0877,0.5364,0.1498,0.8438,0.1593
		c3.1501,0.0971,6.2938,0.0895,9.4348,0.0071c14.8839,2.3617,30.473,1.0431,45.1938-1.5524
		c14.4119-2.541,29.4861-6.6948,42.8235-13.3625c19.0274-5.9227,37.3875-14.1874,53.8592-25.3727
		c1.3848-0.9403,1.4661-2.5126,0.8432-3.652c2.2943-1.8253,4.5397-3.7244,6.7359-5.7079
		c6.434-5.2383,12.8732-10.9297,18.2936-17.2581c3.2703-3.3423,6.3841-6.8564,9.3831-10.4734
		c3.0262-2.7937,5.703-6.0052,8.4816-9.0401c2.4442-2.6695,5.4872-5.3431,7.4496-8.4153c1.7175-2.6887,1.9618-6.0358,0.1294-8.1584
		c0.047-0.5333-0.1567-1.0712-0.7406-1.3634c-1.8076-0.9047-3.0656-1.2977-5.0786-1.1181
		c-0.6141,0.0548-1.0574,0.9957-0.3549,1.3102c0.4677,0.1691,0.91,0.3818,1.3404,0.6147c-0.19,0.7175,0.0031,1.5393,0.7363,1.8632
		c4.8134,2.1268-6.1784,11.8535-7.204,12.907c-2.8979,2.9769-6.0171,5.8602-8.5727,9.1371
		c-0.3342,0.4285-0.4908,0.8806-0.5211,1.3161c-2.2545,2.3496-4.4882,4.7173-6.7043,7.1005
		c-3.5103,2.5723-7.1396,4.9973-10.8421,7.3564c-1.6743,1.0668-0.1243,3.7454,1.5615,2.6713
		c1.2341-0.7863,2.4249-1.6266,3.6017-2.4846c-4.6035,3.8044-9.1949,7.6132-14.049,11.1429
		c-7.1056,5.1669-14.8082,9.4316-21.9142,14.5544c-0.7595,0.5475-1.0817,1.277-1.0828,1.9811
		c-0.2778,0.119-0.5516,0.2476-0.8301,0.3645c-0.6503,0.2729-1.0462,0.7079-1.2462,1.1915
		c-8.0441,4.4167-16.2343,8.5081-24.6212,12.1793c-0.5651-1.1584-1.9742-1.9568-3.5277-1.25
		c-7.5817,3.4493-15.0733,6.751-22.7067,9.632c-5.1622,1.235-10.6066,1.7723-15.6506,3.3831
		c-0.5681,0.1814-0.977,0.5464-1.2341,0.9904c-5.8661,1.0898-11.7673,1.9823-17.7192,2.6625
		c-2.1273-0.0696-4.1974,0.0073-6.2886,0.3265c-6.9983,0.1375-13.9961,0.286-20.9938,0.4836
		c-0.5611,0.0159-1.0209,0.1793-1.3975,0.4259c-2.7396,0.1953-5.4792,0.3024-8.2211,0.3481
		c0.0392-0.0837,0.0486-0.168,0.0776-0.2521c1.864,0.0955,3.6133-2.1183,2.584-4.1538c-0.5544-1.0963-1.1046-2.1949-1.6592-3.2913
		c-0.3531-2.0363,0.0488-4.1154-1.6217-5.896c-2.3009-2.4526-6.2734-4.1132-9.1034-5.8455
		c-1.3138-0.8042-2.7792-0.379-3.6696,0.5967c-2.1913,0.5859-6.7088-0.0211-8.5341,0.0635
		c-3.4184,0.1586-6.8359,0.3384-10.2538,0.5092c-2.0838,0.1041-3.1654,1.8986-2.9542,3.5339
		c-2.1846-0.0541-4.367-0.0568-6.5493-0.0341c0.0547-1.2092-0.7103-2.4855-2.1387-2.3487
		c-3.8201,0.3658-7.6243,0.8285-11.4192,1.366c-0.619-0.6336-1.5485-1.0139-2.6392-0.845
		c-0.7601,0.1177-1.5219,0.2174-2.2833,0.3221c-0.0584,0.0024-0.1111-0.0048-0.1718,0.0016
		c-1.6147,0.1691-3.2114,0.3994-4.8126,0.5872c-0.4083-0.9559-1.3323-1.7166-2.4739-1.7462
		c-2.8971-0.0753-5.4918,0.4127-7.983,1.515c-1.0279-0.6356-2.398-0.9108-3.778-0.8293
		c-13.072-6.9058-26.3868-13.361-38.6304-21.7189c-14.6496-10.0004-27.924-21.9641-39.4471-35.4459
		c-10.0876-11.8022-19.5729-25.4362-34.2254-31.9161c-0.403-0.4438-0.9875-0.7411-1.7638-0.7422
		c-0.0085,0-0.0167-0.0009-0.0252-0.0009c-4.6444-1.7913-9.5-2.6743-14.4235-3.0504c-2.829-1.1668-5.6842-2.28-8.6041-3.1202
		c-1.945-0.5596-2.8574,1.6782-1.8865,2.9589c-3.0054,0.0923-6.0082,0.2535-9.012,0.3885
		c-3.7316-0.0914-7.3877-0.4875-10.9978-1.2189c-2.2707-7.4465-4.3346-15.1816-3.2932-22.9843
		c0.0653-0.4894,0.1467-0.9722,0.2374-1.451c0.2012-0.3332,0.4021-0.6667,0.5961-1.0072c1.0461,0.0356,2.122-0.4724,2.5587-1.7245
		c1.5616-4.4774,3.1348-8.9513,4.6583-13.442c4.5542,4.0204,10.1164,6.2989,16.1476,7.0614
		c1.5599,0.1972,2.3879-0.848,2.4968-2.0615c9.2421-2.7735,18.1569-6.9429,25.493-13.2748c0.683-0.5895,0.7803-1.3746,0.5434-2.0753
		l0.4616-0.2964c1.1831,0.4235,2.6965,0.0038,3.0678-1.4881c0.3267-1.3129-0.1962-2.4163-1.1172-3.0428
		c0.7479-0.838,1.4843-1.686,2.1993-2.553c0.16-0.1546,0.2708-0.318,0.3585-0.4838c0.335-0.508,0.4742-1.1852,0.2725-2.0176
		c-0.073-0.3013-0.1675-0.5997-0.2544-0.8992c1.0517,1.517,3.5658,2.0718,4.6431-0.0195c2.4952-4.8439,5.3745-9.4794,8.4449-13.9789
		c0.411-0.5988,0.8189-1.1978,1.2227-1.7957c0.4599-0.6809,0.5079-1.3298,0.3159-1.8834
		c26.0689-25.3328,56.7382-45.4941,90.2542-59.1492c5.4189-1.791,10.8708-3.5015,16.3308-5.2837
		c0.7581-0.2474,1.2358-0.719,1.4826-1.269c0.384-0.1264,0.7681-0.252,1.1527-0.3767c0.8315-0.2668,1.6655-0.5262,2.4993-0.7864
		c8.9912-2.4847,18.1031-4.5755,27.3279-6.3461c14.568-1.4033,29.2036-1.7346,43.8987-0.8965
		c2.0642,0.1177,2.5952-2.7214,1.0071-3.7182c-0.0657-0.0412-0.136-0.075-0.2025-0.1149c2.1951,0.1075,4.3873,0.2767,6.5729,0.5233
		c6.6426,0.7495,13.1052,2.3553,19.5087,4.1947c4.8982,1.6046,9.7994,3.2097,14.7451,4.6462
		c0.2849,0.0828,0.5433,0.0927,0.7899,0.0759c0.6288,0.2017,1.2555,0.4089,1.8828,0.6146
		c7.3467,3.0931,14.4664,6.7621,21.6271,10.6688c1.1307,0.6168,2.1493,0.2483,2.749-0.4875
		c3.7443,2.0773,7.3566,4.417,10.7869,7.1081c0.6913,0.5674,1.4787,0.6479,2.1649,0.4354c1.5923,1.0535,3.171,2.1294,4.7268,3.2419
		c0.4696,0.3395,0.9374,0.4031,1.3522,0.2924c3.2372,2.2672,6.4038,4.6318,9.5159,7.0657c0.6989,0.5861,1.4008,1.1693,2.0885,1.7667
		c0.0828,0.2787,0.2398,0.5438,0.5078,0.768c4.6658,3.9031,8.9734,8.1494,12.9411,12.7143
		c-0.185,0.6976-0.0533,1.4825,0.5906,2.1649c0.8835,0.9362,1.7465,1.8881,2.6077,2.8416c0.9661,3.2913,2.4638,6.1866,4.664,8.8162
		c0.8191,0.979,2.0576,0.869,2.9683,0.2525c0.8218,1.051,1.6398,2.1052,2.4368,3.1787c0.6282,0.8463,1.5348,1.1158,2.376,1.0087
		c0.3598,0.4197,0.7195,0.8394,1.0793,1.2592c3.6091,5.2521,7.0353,10.6068,10.3315,16.0511
		c-0.0167,0.3887,0.0764,0.8138,0.3316,1.2621c4.2056,7.3866,7.952,15.0881,11.6929,22.7654
		c-0.4358,0.6562-0.5579,1.5128-0.0528,2.405c0.543,1.0632,1.1387,2.0721,1.7617,3.0598
		c3.9374,6.7302,8.1708,13.1907,13.0442,19.3235c0.0256,0.0322,0.0559,0.051,0.0824,0.0809
		c-0.1008,0.2233-0.1198,0.4872,0.0187,0.7643c0.1636,0.3272,0.3272,0.6544,0.4908,0.9817c0.2921,0.5842,0.9083,0.5327,1.2971,0.2
		c0.1334,0.1739,0.2667,0.3477,0.4,0.5216c0.1572,0.205,0.3356,0.3638,0.5214,0.5026c1.5375,2.2761,3.4006,4.2939,5.5466,6.0553
		c0.8412,0.6905,1.799,0.7507,2.6216,0.4583c0.3501,0.3235,0.701,0.6459,1.0549,0.9646c0.2711,0.3285,0.5469,0.6533,0.8196,0.9796
		c0.2839,0.3397,0.5565,0.6954,0.8547,1.0227c0.2032,0.223,0.4319,0.4133,0.654,0.6109
		c-4.3736,6.7477-9.2933,12.6014-16.2019,17.0674c-1.3268,0.8577-1.1979,2.4293-0.4376,3.389
		c-2.2624,2.3115-4.5812,4.5701-6.9851,6.7535c-3.6317,3.2986-7.6487,6.2255-11.5121,9.2903
		c-11.4249,5.1737-23.5087,8.8283-35.8778,10.8533c-0.2656-0.4167-0.7198-0.715-1.3738-0.7154
		c-2.5926-0.0016-5.1935-0.0607-7.7955-0.1822c4.4245-0.2454,8.8261-0.6024,13.1708-1.0419c3.0544-0.309,3.1987-4.9433,0-4.875
		c-10.8961,0.2327-21.6609,0.8326-32.4805,0.7997c-2.2772-0.9493-4.408-1.2492-6.5848-0.8964
		c-0.1733-0.0662-0.347-0.132-0.507-0.2145c-1.2339,0.0594-1.982-0.4282-2.2612-1.4435c1.6552-4.9926,2.2875-10.3171,1.7688-15.7778
		c-0.2966-3.1232-3.798-3.5754-5.2066-1.509c-0.7265,0.0237-1.4475,0.5219-1.469,1.4242c-0.0765,3.2123,0.0144,6.1615-0.1762,9.0514
		c-0.0928,0.7645-0.1857,1.5289-0.2786,2.2935c-0.0865,0.7124-0.215,1.4729-0.3281,2.2482
		c-0.2966,1.3853-0.7119,2.7816-1.3019,4.2108c-0.3756,0.7951-0.7822,1.5785-1.2227,2.3478
		c-5.3412,3.221-10.6824,6.4421-16.0236,9.663c-2.67,1.6101-1.1625,5.2355,1.3116,5.4195c0.8253,1.055,2.3409,1.5943,3.9252,0.9041
		c0.3906,1.4429,2.1678,2.4025,3.6419,1.0447c1.7007-1.5665,3.3037-3.2467,4.7828-5.0204
		c4.1213-2.0224,8.1907-4.1507,12.1333-6.4957c0.4672-0.2779,0.8064-0.616,1.0503-0.9839
		c6.2911,2.0012,12.6948,3.4642,19.1626,4.3755c0.1165,1.135,0.9023,2.1215,2.3853,1.9844
		c3.9842-0.2648,7.9665-0.559,11.9482-0.8619c7.812,0.1382,15.6566-0.4864,23.4443-1.8879
		c2.8234-0.5081,2.3243-5.1127-0.3954-5.2278c2.5563-0.9595,5.0839-2.0014,7.5827-3.1226
		c-0.5888,1.6432,1.3027,3.5603,3.1001,2.5551c6.4988-3.6346,12.2548-9.6558,17.4506-14.9246
		c3.939-3.9946,7.6467-8.2043,11.2352-12.5143c5.8179-4.985,10.7144-11.2124,13.2417-18.4821
		c0.1185-0.0587,0.2375-0.1144,0.3562-0.1757C587.1738,415.5308,585.9006,411.97,583.6596,412.2581z M139.3829,396.3918
		c0.3966-0.5705,0.7999-1.1349,1.2091-1.6937c-0.0883,0.3141-0.1782,0.6275-0.2584,0.944c-0.5299,1.0464-1.061,2.0923-1.5905,3.1391
		C138.9252,397.9788,139.1402,397.1827,139.3829,396.3918z M138.0243,403.591c0.0479,0.0626,0.1017,0.1194,0.1539,0.1778
		c0.0084,0.1182,0.0253,0.2344,0.0541,0.3469c-0.1043,0.6157-0.2006,1.2329-0.2762,1.8536
		C137.9435,405.1802,137.9709,404.3864,138.0243,403.591z M138.0879,408.1338c0.2959,0.4523,0.801,0.7433,1.351,0.863
		c0.2712,2.7372,0.7694,5.4563,1.4072,8.1511C139.2852,414.3995,138.3976,411.3279,138.0879,408.1338z M321.5939,532.9447
		c11.363-0.8349,22.7451-0.9998,34.09-2.1428c1.0782-0.1086,1.0913-1.5922,0-1.6875c-9.4631-0.8271-19.6799-1.7101-29.903-1.7113
		c4.4763-0.2655,8.9528-0.4642,13.4338-0.6462c2.3847,0.215,4.7657,0.4657,7.1397,0.764c0.859,0.1079,1.3536-0.4409,1.4719-1.1089
		c1.64-0.0662,3.2799-0.1315,4.9221-0.2042c0.0889-0.0039,0.1662-0.0239,0.2501-0.035c0.3273,0.0223,0.6561,0.0568,0.9824,0.0701
		c2.2994,0.115,4.571,0.058,6.8283-0.1611c0.3204,0.0464,0.6609,0.0561,1.0308-0.0046c0.7853-0.129,1.5521-0.2876,2.3193-0.4489
		c0.0421-0.0071,0.084-0.0173,0.1261-0.0246c5.894-0.2083,14.3954-0.6877,17.7085,3.3677c-2.577,2.0295-5.1603,4.0511-7.6826,6.1482
		c-0.7639,0.635-0.5259,1.5437,0.072,2.0701c-5.9115,7.9091-7.4029,19.089-9.0285,28.8061
		c-2.5878,15.4681-8.9214,28.8667-20.3674,39.4755c-4.8372-3.6163-10.6328-5.1292-16.6445-4.3709
		c-4.3233-7.9556-12.7269-13.0389-21.6371-12.9301c-2.7717-10.3842-11.1486-20.0931-22.01-17.8524
		c-0.3299-8.3342-7.1885-14.7617-15.6703-14.3198c0.0067-6.1349-2.1432-11.8247-6.188-16.3014
		c0.3152-0.1183,0.6255-0.2291,0.9289-0.3253c4.2778-1.356,8.735-2.2203,12.9644-3.6891c0.8133-0.2824,1.2708-0.8339,1.4351-1.4449
		c3.9058-1.0575,7.8367-2.0164,11.7801-2.8986c3.5206-0.5234,7.0441-1.0258,10.5724-1.4917
		c-5.0738,1.1378-9.9805,2.7354-14.6086,4.9438c-2.8966,1.3823-0.8398,5.9147,2.1491,5.0977
		c5.1553-1.4092,10.1196-3.3312,15.3555-4.5028C309.4069,534.045,315.478,533.3941,321.5939,532.9447z"/>
	<path id="XMLID_48_" d="M380.1237,256.0276c-14.9644-10.2133-26.955-23.7805-44.2275-30.3037
		c-9.0983-3.4362-18.711-5.6023-28.241-7.4485c-10.3187-1.999-20.97-3.4117-31.4821-2.4135c-3.2155,0.3054-3.3315,5.264,0,5.1094
		c19.6901-0.9137,40.7415,2.9072,59.1405,10.072c9.0796,3.5356,16.589,8.9764,24.0311,15.1544
		c5.9748,4.9599,12.2116,10.0942,19.9663,11.7578C380.4963,258.2096,381.1179,256.7062,380.1237,256.0276z"/>
	<path id="XMLID_53_" d="M232.3322,271.9261c-1.1258,0.5859-2.3619,1.1473-3.5726,1.7571c0.725-1.1282,0.108-2.9372-1.5588-2.9777
		c-1.1519-0.028-2.1318,0.3218-2.9567,0.9062c-0.149,0.0541-0.2997,0.1032-0.448,0.1595c-0.7463,0.2831-1.1675,0.9905-1.2484,1.7053
		c-0.213,0.3489-0.4108,0.7117-0.5759,1.0986c-0.6143,1.4406-0.9727,2.8873-2.166,3.9855c-1.1753,1.0815-2.7589,1.6197-4.2,2.2358
		c-2.5013,1.0693-0.3489,4.7999,2.153,3.6833c2.0594-0.9192,4.2055-2.1036,5.6603-3.8665c0.4816-0.5836,0.9553-1.8951,1.4887-3.1521
		c0.2283,0.2542,0.5692,0.4106,0.9633,0.3195c1.3236-0.3058,2.5817-1.0685,3.8046-1.6523c1.3306-0.6352,2.6413-1.3119,3.9576-1.9761
		C235.1114,273.4064,233.8065,271.1588,232.3322,271.9261z"/>
	<path id="XMLID_50_" d="M263.5015,230.4123c0.0601-0.2834,0.1241-0.5661,0.1812-0.8502c0.1037-0.5161-0.2585-0.8665-0.6558-0.9417
		c-0.0263-0.9842,0.0341-1.9869-0.2318-2.9225c-0.1599-0.563-0.8939-0.6212-1.1995-0.1568
		c-0.7076,1.0756-0.7939,2.5096-0.9355,3.7699c-0.1195,1.0635-0.2714,2.2454-0.1269,3.3433
		c-0.941,2.2394-2.9911,3.6479-5.1147,5.0159c-0.694-0.1615-1.4691-0.0074-1.9764,0.5289c-0.9113,0.9637-1.7552,1.962-2.6117,2.9744
		c-0.8166,0.9653-0.6285,2.1255-0.0102,2.9007c-2.7949,1.2042-7.2935,1.3139-8.4376,2.4859
		c-0.5444,0.5577-0.68,1.1597-0.8865,1.8539c0.0939,1.0797,0.033,2.1568-0.1826,3.2313c-0.4578,1.7245-1.2672,3.2646-2.4225,4.6234
		c-1.6038,0.2242-3.1005,0.7534-4.5476,1.5789c-0.531,0.3029-0.7795,0.8792-0.7869,1.459
		c-0.0448,0.1503-0.0539,0.3141-0.0051,0.4837c0.0673,0.2341,0.1729,0.4179,0.2941,0.5805
		c0.2579,0.4077,0.6827,0.6805,1.2512,0.6497c0.6696,0.0731,1.468-0.0788,2.272-0.342c2.0046-0.3865,3.9176-0.9713,5.844-1.804
		c2.1263-0.9191,0.2904-4.0295-1.8217-3.1166c-0.0097,0.0042-0.0198,0.0074-0.0296,0.0116c0.9063-1.0276,1.6535-2.1197,2.3029-3.476
		c0.8868-1.8524,0.6249-2.3844,2.4483-3.1136c1.2902-0.5161,2.8514-0.5815,4.1937-1.0831c2.5476-0.9521,4.8629-2.39,6.0119-4.4752
		c0.4059,0.9097,1.8436,1.3421,2.4701,0.214c0.9124-1.6431,1.6822-3.3471,2.3422-5.0927c1.9476-1.5401,3.4757-3.4009,3.7189-6.4484
		C264.9294,231.2912,264.2933,230.6453,263.5015,230.4123z"/>
	<path id="XMLID_61_" d="M409.8695,399.5364c-0.0272-0.0135-0.0537-0.0166-0.0808-0.0293c-0.5556-1.4333-1.3507-2.8009-2.423-4.125
		c-0.8677-1.0715-1.965-1.1324-2.8615-0.6543c-1.973-2.4659-3.7781-5.0692-5.3802-7.8753c-0.8452-1.4804-2.694-1.5875-3.9832-0.8823
		c-0.2773-0.6998-0.5698-1.3937-0.8548-2.0905c0.0735-0.3856,0.0627-0.7991-0.0847-1.2361
		c-4.5672-13.5319-9.749-27.5369-20.9971-36.9555c-0.7607-1.0276-1.5347-2.0457-2.3178-3.0569
		c-4.0423-6.483-9.0465-12.1856-15.014-17.041c-1.6261-1.3231-3.622-0.6266-4.483,0.7049
		c-6.3866-4.9595-13.5522-8.3586-21.4854-9.9714c-0.0383-0.0303-0.0766-0.0605-0.1149-0.0908
		c-1.7253-1.3634-5.0094-0.5-5.0226,1.7621c-0.4243,1.0413-0.2396,2.2401,0.9182,3.0358c-0.194,0.885,0.0349,1.8024,0.9274,2.4422
		c2.6529,7.5586,4.5719,16.0961-0.5246,22.6619l-1.16,1.3409c-1.2939,1.4958-0.7692,3.3373,0.3931,4.3145
		c-0.5062,0.8005-1.0142,1.6-1.5557,2.3859c-1.006,1.4602-0.1631,3.4067,1.2811,4.1421c-0.1918,0.4735-0.3771,0.9506-0.5511,1.4337
		c-1.0931-0.3055-2.3218,0.0136-3.097,1.3578c-2.2464,3.8955-1.3147,8.5537,1.7576,11.2651
		c-0.0322,1.5024-0.3123,2.9547-0.8891,4.252c-2.6336,1.8193-5.2672,3.6385-7.9009,5.4578
		c-1.2662,0.8747-1.8336,2.4706-1.0181,3.8831c2.6141,4.5284-0.4279,9.9833-5.4148,10.7637
		c-1.8591,0.291-2.665,2.8324-1.7464,4.2928c2.7766,4.4146-0.9608,7.6796-4.7964,9.6719c-3.3154-0.0471-5.9335,2.7997-7.1406,5.991
		c-1.1554,3.0546-1.7344,5.4384-4.3521,7.4793c-2.673-1.7209-5.9144-1.5047-8.6037,0.0279
		c-0.4335,0.0803-0.871,0.1726-1.3151,0.2805c-0.916,0.2225-1.6318,0.9247-2.0013,1.7738
		c-1.3473,0.6437-1.9682,2.3347-1.5345,3.7769c-0.6504,1.5886-1.1166,3.2617-1.7377,4.876
		c-1.8867,4.9036-6.3303,7.8522-11.6505,6.8688c-3.9233-0.7252-5.3156,4.4996-1.634,5.9269
		c2.6764,1.0376,5.3887,1.4435,8.1057,1.2065c15.658,8.1868,33.17,11.8835,50.8555,10.2811
		c2.2003-0.1993,3.2601-3.2502,1.5989-4.4149c10.4686-0.1456,20.9466-0.7692,31.4032-1.6432
		c2.2006-0.1839,2.9556-2.1289,2.3444-3.6165c3.6569-1.2673,7.2596-2.6672,10.7936-4.215
		c11.9301-3.8307,23.5245-8.765,34.6199-14.7733c1.0308-0.5582,1.3878-1.5824,1.274-2.5708l3.4702-1.9946
		c0.3067,0.1007,0.6153,0.1738,0.9265,0.2159c0.2656,0.3325,0.5463,0.6627,0.8614,0.9899c1.6259,1.688,4.4048,0.7906,5.0605-1.3361
		c0.7368-2.3896,1.1804-4.763,1.3817-7.1448c0.1362-0.133,0.2656-0.2741,0.3791-0.4304
		C418.9922,412.0546,416.6939,402.941,409.8695,399.5364z M281.8357,433.1713c0.6642,0.0679,1.3129-0.1259,1.8611-0.4922
		c0.2755-0.0084,0.5495-0.0312,0.8237-0.0526c-1.2443,1.1349-2.4917,2.2624-3.7422,3.3817
		C281.0661,435.1609,281.4212,434.1561,281.8357,433.1713z M401.9601,415.944c-0.6199,0.5616-1.2404,1.1231-1.8489,1.6954
		c-0.2591-0.1025-0.5308-0.1772-0.8162-0.2078c-1.8574-0.3531-3.7543,0.1191-5.2646,1.9734
		c-1.0286,1.2628-1.4135,2.7796-1.2736,4.2225c-4.5582,3.446-9.3127,6.6028-14.2399,9.4606
		c-8.7432,3.3614-17.4205,6.8904-26.0349,10.5734c-4.8831,1.2226-9.8174,2.2349-14.7836,3.0804
		c-11.3529-0.2442-22.6797,0.6885-33.9247,2.7454c-9.1932-0.4091-18.3604-1.3284-27.4648-2.9771
		c-0.2547-0.0444-0.4926-0.0426-0.7223-0.0217c0.3681-0.7332,0.424-1.5892,0.2031-2.3589c0.109-0.0956,0.2209-0.1856,0.328-0.285
		c0.9148-0.8484,1.6925-1.7902,2.3611-2.8063c0.5578,0.6082,1.4091,0.9761,2.2904,0.7774
		c8.7636-1.9756,17.3463-3.8542,26.3282-4.6385c2.7815-0.2429,2.8694-4.5245,0-4.4062c-6.6053,0.2722-13.3019,0.9842-19.7943,2.4606
		c1.5665-1.6754,3.1389-3.3437,4.7126-5.0092c0.1659-0.0993,0.334-0.1919,0.4978-0.2973c1.8848-1.213,3.5363-2.7949,4.7728-4.6685
		c0.1586-0.2404,0.3746-0.7079,0.6293-1.2985c2.239-2.3928,4.4599-4.8002,6.6458-7.2383c0.571-0.305,0.9401-0.7556,1.1366-1.2747
		c0.4468-0.5038,0.8912-1.0099,1.3344-1.5169c2.2841-1.7325,4.2012-3.8265,5.2364-6.2004c2.6205-3.2205,5.1506-6.5238,7.5381-9.9595
		c0.7665-1.1031-1.0047-2.0876-1.7809-1.041c-1.6038,2.1627-3.2676,4.2858-4.9733,6.3798c-0.052-0.5823-0.1501-1.1732-0.3213-1.7762
		c5.658-2.731,8.5416-9.655,6.6434-15.6668c1.2386-0.6602,2.4061-1.5574,3.4452-2.6217c1.0244-0.7245,2.0464-1.452,3.066-2.1872
		c1.4581-1.0513,1.4663-2.8082,0.7347-4.0077c0.2685-0.8121,0.4623-1.6373,0.5685-2.4626c3.515,0.6127,4.946-4.8353,1.3343-5.7294
		c-0.961-0.2379-1.6836-0.8199-2.0953-1.5569c0.1711-0.2069,0.3469-0.4119,0.5144-0.6204c0.3042-0.0477,0.6078-0.1371,0.902-0.2778
		c3.6937-1.7664,6.0816-4.9289,6.6421-9.0022c0.1229-0.8932-0.0125-1.7343-0.4291-2.4047c0.3716-0.836,0.7308-1.6818,1.0665-2.5472
		c0.6428-1.6572-0.2132-2.825-1.4637-3.296c0.9916-2.0137,1.8926-4.0773,2.7068-6.2031c0.5604-1.4632-0.366-2.7927-1.6274-3.378
		c0.4817-4.197-0.1351-8.5792-1.2564-12.8852c5.0599,2.0435,10.0463,3.9844,14.782,7.1824
		c6.606,4.4608,12.4324,10.1332,17.0453,16.636c9.0413,12.7453,14.1663,27.7375,23.8904,40.0623
		c0.0002,0.0004,0.0004,0.0008,0.0007,0.0012l0.0001-0.0001c0.153,0.1938,0.2969,0.3929,0.4521,0.5854
		c0.4279,0.5305,0.9414,0.8018,1.4719,0.8909c0.4929,0.6804,0.9775,1.3683,1.4901,2.0304
		c2.4077,3.7985,5.0456,7.4641,8.0026,10.9415c1.2751,1.4996,3.7109,0.7148,4.5081-0.819c0.0496,0.0494,0.1027,0.0962,0.1525,0.1456
		C405.3979,408.0397,403.011,412.0468,401.9601,415.944z"/>
	<path id="XMLID_43_" d="M361.4044,555.9013c-2.1214,6.8548-3.1849,13.9677-5.0378,20.8928
		c-1.7349,6.4839-4.4795,11.8844-8.2166,17.4083c-1.379,2.0382,1.7114,4.3706,3.3865,2.613
		c9.9348-10.4245,8.3019-27.4097,11.7664-40.3907C363.6307,555.1963,361.7783,554.6932,361.4044,555.9013z"/>
	<path id="XMLID_44_" d="M451.3448,446.3869c-8.4306-21.4863-12.5296-42.9628-8.6207-66.0101
		c0.3167-1.8673-2.4526-2.7089-2.8928-0.7975c-5.1703,22.4484-3.7869,48.0112,6.7585,68.8122
		C447.9001,450.9763,452.4315,449.1563,451.3448,446.3869z"/>
</g>
<g id="Layer_95">
	<g id="XMLID_5001_">
		<g id="XMLID_4992_">
			<path id="XMLID_6509_" class="st0" d="M374.4026,519.636c5.95,0.66,10.74,5.11,10.9,10.94c-0.08,0-0.17,0.01-0.25,0.06
				c-13.04,7.33-10.7,26.22-13.74,38.67c-3.97,16.24-12.32,32.01-24.39,43.69c-0.22,0.2-0.35,0.43-0.4,0.66
				c-4.95-6.48-14.76-9.52-22.03-5.95c-1.37-12.05-14.65-14.57-25.35-13.12c2.4-4.74,1.26-10.65-2.48-14.54
				c-4.23-4.4-10.52-5.15-16.27-4c1.23-3.46,0.52-7.42-1.98-10.43c-3.4-4.1-9-4.62-13.91-3.32c3.72-10.02-2.54-19.67-11.74-21.55
				c16.84-8.61,35.15-13.59,53.88-16.22c0.85-0.12,1.7-0.24,2.55-0.35c10.48-1.35,21.03-2.14,31.59-2.59
				c11.11-0.46,22.35-0.18,33.39-1.58C374.3526,519.9861,374.4626,519.7661,374.4026,519.636z"/>
			<path id="XMLID_6486_" class="st0" d="M409.3626,405.1261c4.87,6.57,0.78,17.63-7.87,17.07c0.12-1.18-1.61-2.27-2.5-1.17
				c-14.87,18.18-38.35,24.81-60.78,28.15c-23.15,3.44-46.75,2.38-69.49-2.94c4.16-0.8,8.09-2.39,10.81-5.75
				c2.61-3.22,3.78-7.74,2.01-11.39c9.45,2.89,18.96-4.47,17.73-14.05c0.1,0.03,0.2,0.05,0.31,0.06c7.65,0.89,15.4-8.16,11.49-15.09
				c0.08,0,0.16-0.01,0.25-0.02c6.24-1.23,11.11-9.74,7.5-15.29c4.73-1.5,9.09-5.15,9.91-10.27c0.51-3.21-0.6-6.61-3.01-8.65
				c8.34-3.11,10.9-12.76,5.11-19.36c5.83-7.53,5.55-18.22-0.58-25.01c18.16,5.19,32.63,18.07,43.24,33.39
				c5.35,7.71,9.83,16.03,13.91,24.47c4.08,8.41,7.04,17.04,13.56,23.93c0.38,0.4,1.04-0.11,0.76-0.59
				c-0.71-1.2-1.39-2.42-2.04-3.66c0.44,0.11,0.93,0.21,1.48,0.4C404.3726,400.4261,407.3426,402.4061,409.3626,405.1261z"/>
			<path id="XMLID_6461_" class="st0" d="M197.4526,363.2661c-1.25-7.74-6.85-13.62-14.22-15.87c2.71-2.13,4.59-5.18,5.22-8.7
				c0.36-2-0.62-4.26-0.28-6.04c0.47-2.53,4.89-4.76,6.61-6.58c3.96-4.17,6.55-9.41,8.91-14.59c2.31-5.09,4.44-10.06,3.79-15.62
				c5.4-2.28,8.37-7.91,7.14-13.72c1.66,0.45,3.68-0.11,5.13-1.14c2.63-1.86,3.25-4.87,2.48-7.67c7.07,0.36,9.65-7.38,9.19-13.84
				c7.09,1.42,11.1-5.89,11.31-12.47c5.34,1.34,10.07-2.29,10.28-7.83c2.6,0.17,4.99-0.89,6.8-3.03c2.64-3.13,2.63-7.17,1.91-10.99
				c6.5,1.87,12.85-3.24,11.91-10.37c9.02,1.32,18.24,1.65,27.27,2.82c11.36,1.47,22.67,3.78,33.44,7.72
				c10.45,3.83,19.92,9.54,29.11,15.73c8.53,5.75,16.54,12.38,25.02,18.2c-9.33,0.26-18.66,1.2-27.91,2.67
				c-25.47,4.06-50.68,11.43-74.13,22.21c-24.42,11.24-47.17,26.56-65.05,46.78
				C212.4426,341.0461,205.9426,352.8561,197.4526,363.2661z"/>
			<path id="XMLID_7_" class="st1" d="M580.9126,411.5361c-1.71-1.26-3.37-2.58-4.9-4.06c-7.9301-7.66-12.59-17.97-17.26-27.76
				c-9.7-20.38-21.96-39.35-37.17-56.06c-30.58-33.6-72.5-57.72-118.49-60.12c-3.44-0.18-6.89-0.26-10.34-0.23
				c-23.86,0.15-47.71,4.96-70.46,11.83c-23.09,6.97-45.52,16.69-65.62,30.09c-9.87,6.57-19.19,13.98-27.61,22.33
				c-8.76,8.68-15.87,18.43-23.06,28.39c-2.46,3.41-5.28,6.99-8.41,10.4c-11.23,12.23-26.39,22.2-42.88,13.75
				c-0.14-0.07-0.27-0.16-0.37-0.25c-6.21,5.85-11.05,12.18-12.94,20.8c-1.98,9.04-0.32,22.34,9.52,26.17
				c0.66,0.26,0.99,0.8,1.05,1.36c8.67-1.45,17.57-0.8,26.08,1.43c0.13-0.03,0.26-0.05,0.39-0.08c0.74-0.15,1.33,0.17,1.67,0.66
				c3.17,0.94,6.28,2.09,9.3,3.44c14.97,6.7,24.64,18.89,35.17,30.92c22.19,25.35,52.57,40.22,82.47,54.49
				c0.87,0.42,1.01,1.22,0.73,1.91c11.23-1.49,22.54-2.14,33.86-2.42c9.76-0.24,19.69-0.45,29.44,0.61
				c0.02-0.15,0.1201-0.3,0.28-0.36c10.33-3.88,19.09,6.67,16.01,16.53c-0.52,1.68-3.18,0.95-2.65-0.7401
				c0.31-0.99,0.5-1.95,0.55-2.89c-2.2,1.92-3.8199,4.12-5.02,6.5c17.25,2.09,34.74,1.99,51.96-0.41
				c30.54-4.26,60.13-15.35,85.88-32.32c13.15-8.66,25.27-18.85,36-30.38c6.07-6.54,11.71-13.47,17.22-20.48
				c2.99-3.82,6.56-7.61,8.9-11.85c1.55-2.81,2.68-7.21-0.93-8.9c-0.8-0.37-1.77-0.55-2.65-0.41
				c-1.7681,2.2518-3.5826,4.4642-5.4484,6.6308c0.6892-1.6673,0.1067-3.2199-1.0568-4.2736
				c1.0651-1.2677,2.1163-2.546,3.1451-3.8372c0.35-0.44,0.71-0.89,1.06-1.34c2.92-3.72,5.77-7.51,8.52-11.36
				c0.47-0.66,1.39-1.65,1.6-2.33C585.4926,413.566,582.8826,412.9861,580.9126,411.5361z M399.6526,424.936
				c-13.88,17.4-38.77,23.76-59.71,27.02c-26.65,4.15-53.89,2.46-79.84-4.8c-0.13-0.04-0.26-0.07-0.39-0.11
				c-1.7-0.47-1.28-2.89,0.4-2.97c0.13-0.01,0.27-0.01,0.4-0.02c4.64-0.22,9.59-0.36,13.75-2.64c5.03-2.77,7.61-8.54,4.99-13.87
				c-0.25-0.49,0.37-1.03,0.78-0.61c0.17-0.95,0.98-1.7599,2.1-1.3199c8.63,3.37,16.63-3.8,15.57-12.71
				c-0.05-0.45,0.4-0.63,0.75-0.5c0.25-0.27,0.62-0.44,1.1299-0.42c3.09,0.09,6.01-0.69,8.06-3.14c2.46-2.93,2.11-6.61,1.45-10.1
				c-0.04-0.23,0.11-0.45,0.3-0.53c0.03-0.57,0.3701-1.09,1.11-1.2c6.36-0.98,8.34-8.15,6.11-13.46c-0.08-0.2-0.01-0.3701,0.13-0.47
				c0.08-0.5,0.4-0.95,1.01-1.15c3.27-1.08,6.44-2.84,7.96-6.12c1.77-3.8,0.36-8-2.91-10.4c-0.49-0.36-0.22-1.29,0.44-1.06
				c0.13,0.04,0.25,0.09,0.37,0.15c0.01-0.56,0.31-1.12,0.99-1.36c7.09-2.43,8.7-10.51,3.43-15.68c-0.55-0.54-0.5-1.4,0-1.95
				c6.98-7.69,5.49-20.71-2.33-27.33c-0.17-0.14,0.05-0.4,0.23-0.3c0.77,0.45,1.49,0.95,2.16,1.49c0.05-1.09,0.95-2.19,2.33-1.81
				c17.4,4.72,31.85,16.19,42.63,30.41c6.39,8.42,11.58,17.69,15.96,27.3c3.2,7.02,5.99,14.32,9.43,21.25h0.01
				c2.65-0.95,6.7599,1.37,8.81,2.73c3.69,2.45,6.65,6.31,7.29,10.78C415.7726,418.576,408.0926,426.376,399.6526,424.936z
				 M460.5226,471.6561c-1.73,1.67-4.41-1.11-2.61-2.6c3.15-2.6201,6.33-5.89,8.71-9.55c3.94-6.02,5.72-13.11,1.74-20.1
				c-0.27-0.47,0.43-1.06,0.79-0.6c5.37,6.95,4.4,14.31,0.83,20.95c3.5061,0.9029,7.0789,1.7767,10.6944,2.575
				c-0.6823,0.6506-1.0532,1.4814-1.1566,2.3649c-3.5614-0.9698-7.0861-2.0435-10.5578-3.1899
				C466.6626,465.2361,463.6126,468.686,460.5226,471.6561z"/>
			<path id="XMLID_5361_" class="st0" d="M150.6826,360.9061c6.18,9.01,15.58,19.71,26.82,17.62c-6.8,2.55-14.17,2.77-21.2-1.15
				c-1.02-0.58-1.99,0.11-2.29,0.96c-16.71,8.1-24.55,40.97-5.94,50.64c-0.13,0.02-0.27,0.06-0.4,0.09
				c-0.71,0.18-0.57,1.32,0.18,1.29c8.03-0.39,16.04-0.11,23.82,1.3c-8.87,3.8-15.87,10.95-22.26,18.26
				c-9.83,11.26-19.72,22.03-31.62,31.18c-22.36,17.2-52.22,33.15-80.75,23.94c17.62,0.5,34.04-12.09,39.71-28.59
				c11.76-4.19,19.56-15.48,17.19-27.72c6.64-2.27,9.01-12.34,4.43-17.45c6.46-4.91,8.25-15.19,3.17-21.55
				c8.14-5.57,9.12-16.65,1.78-23.26c3.65-7.74,2.1-17.54-4.35-23.13c6.56-15.15-5.86-26.69-17.88-33.88
				c6.84-10.39-5.8-23.16-12.86-29.72c-8.65-8.06-19.08-14.39-30.49-17.5c31.99-12.15,64.5,11.11,83.58,35.48
				C132.0726,331.4361,140.8326,346.5561,150.6826,360.9061z"/>
		</g>
	</g>
</g>
<g id="Layer_103_copy">
	<g id="Layer_102_copy">
		<path id="XMLID_6049_" d="M576.1524,428.3309c-10.4236,9.5865-19.4243,20.264-31.5547,27.6159
			c-19.1139,9.4609-41.4015,7.4863-63.1033,7.0313c-0.2107-0.0044-0.2669,0.3362-0.0509,0.376
			c3.8026,0.7008,7.7672,1.3316,11.8218,1.835c-2.168-0.1298-4.3328-0.3323-6.4909-0.6541c-0.4446-0.0663-0.6321,0.535-0.189,0.6855
			c6.9527,2.3617,14.474,2.8598,21.8702,2.9105c0.0493,0.0091,0.0888,0.0301,0.1437,0.0319
			c1.1248,0.0374,2.2438,0.0519,3.3608,0.0557c0.1185,0.0335,0.2471,0.0479,0.3906,0.0231
			c0.0461-0.0079,0.0922-0.0158,0.1383-0.0237c5.5688-0.0075,11.0601-0.4274,16.6091-1.2808
			c0.4764-0.0732,0.793-0.3074,0.9832-0.6139c3.4808-0.7948,6.8994-1.8701,10.2166-3.3114
			c15.0634-6.5448,28.5112-19.1711,38.6002-31.9354C580.4164,429.1553,578.0382,426.5965,576.1524,428.3309z"/>
		<path id="XMLID_6048_" d="M472.587,442.5636c-0.4869-1.7083-1.5527-3.2541-3.1746-3.9554
			c-0.3198-0.1383-0.8325,0.1885-0.5558,0.5558c0.3715,0.4934,0.7076,0.9745,1.0083,1.4572
			c-0.3132,0.3648-0.4337,0.937-0.0635,1.4162c0.5737,0.7426,1.0517,1.4833,1.4562,2.2213c0.0717,0.4958,0.1122,1.011,0.0969,1.568
			c-0.0139,0.5025,0.4871,0.7656,0.8997,0.6901c0.2387,0.7077,0.4163,1.4121,0.5245,2.1115
			c-0.0429,0.0347-0.0737,0.0868-0.0748,0.1629c-0.0018,0.121-0.0134,0.2388-0.0176,0.359
			c-0.1391,0.0906-0.2528,0.2307-0.2971,0.4506c-0.1558,0.7733-0.3479,1.5315-0.5606,2.2817
			c-0.376,0.0609-0.7126,0.2697-0.89,0.6775c-0.4532,1.0427-0.6065,2.0439-0.4827,3.1295c-0.2346,0.5303-0.4773,1.058-0.7461,1.5784
			c-0.1929,0.3733-0.0751,0.7232,0.159,0.9554c0.0596,0.2547,0.252,0.4504,0.4828,0.5239
			c-1.8665,3.0778-4.5416,5.9086-7.3301,8.3859c-0.0521,0.0386-0.1034,0.0779-0.1555,0.1164
			c-0.2161-0.253-0.5588-0.3793-0.9238-0.1431c-0.374,0.2421-0.7553,0.47-1.1307,0.7093c-0.089-0.3198-0.5186-0.5671-0.8431-0.2661
			c-1.0602,0.9839-2.1566,1.915-3.2878,2.8076c-0.79,0.4686-1.5883,0.9247-2.3871,1.3802
			c-0.1493,0.0397-0.2967,0.0802-0.4471,0.1198c-0.1085,0.0286-0.1574,0.1294-0.152,0.2266
			c-0.1143,0.0637-0.2247,0.1332-0.3394,0.1962c-0.0211,0.0116-0.0222,0.0343-0.0386,0.0489
			c-0.1331,0.0784-0.2601,0.1665-0.3925,0.246c-0.9655,0.4302-1.9374,0.8496-2.9184,1.2556
			c-0.2066,0.0855-0.2744,0.2687-0.239,0.4263c-0.3492,0.1818-0.6962,0.3689-1.0378,0.5676
			c-0.1663,0.0967-0.0865,0.3405,0.0947,0.3494c6.7501,0.3318,14.3937-4.4385,18.7552-9.329
			c0.1678-0.1882,0.2208-0.4217,0.2022-0.6506c2.3964-2.3613,4.3826-5.0808,5.6313-8.0031
			c0.1174-0.0799,0.2226-0.1757,0.3029-0.2953c0.6324-0.9417,0.8712-2.0101,0.7849-3.1006
			C475.2847,450.1245,474.8306,446.2781,472.587,442.5636z"/>
		<path id="XMLID_6047_" d="M305.0707,519.4589c-25.2481-12.2331-51.8368-26.7342-71.1276-47.5053
			c-15.659-16.8606-30.1534-45.9156-57.6047-41.4231c-0.352,0.0576-0.2388,0.5699,0.08,0.5908
			c28.4536,1.8658,41.4418,32.4044,59.8107,49.5806c19.1619,17.9177,43.1567,31.195,66.6336,42.5346
			C305.386,524.4554,307.6074,520.688,305.0707,519.4589z"/>
		<path id="XMLID_6046_" d="M581.57,408.2056c-10.7806-10.1977-17.6594-22.1598-24.4566-35.2067
			c-7.9822-15.3212-17.1842-29.7921-27.2431-43.8278c-0.1609-0.2246-0.5233-0.0267-0.3777,0.2208
			c9.1104,15.4965,17.5277,31.4446,25.5953,47.5061c6.0501,12.0448,12.6345,26.4656,25.5212,32.5529
			C581.3788,409.8146,582.2657,408.8637,581.57,408.2056z"/>
		<path id="XMLID_6045_" d="M412.5933,414.3124c-0.1035-0.584-0.6301-1.055-1.2249-1.1345
			c0.2159-1.0501,0.2834-2.1458,0.2015-3.2714c0.2573-0.2207,0.4276-0.5472,0.3504-0.9659
			c-0.2827-1.5336-0.8074-2.9691-1.682-4.2681c-0.5045-0.7492-1.4441-2.0386-2.4675-1.8816
			c-0.0378,0.0058-0.0736,0.046-0.0818,0.0818c-0.1995,0.866,0.6664,1.9346,1.0342,2.6854c0.4439,0.9059,0.7866,1.8576,1.028,2.8353
			c0.0591,3.3039-1.0938,6.664-3.3193,8.9743c-3.0201,1.3978-6.3116,2.2264-9.676,2.1697c-0.5801-0.0098-0.702,0.8654-0.1371,1.0128
			c0.032,0.0084,0.0609,0.0149,0.0927,0.0231c-0.2978,0.0787-0.53,0.4572-0.228,0.6937c0.4275,0.3347,0.8679,0.6004,1.3184,0.7957
			c-15.7157,14.8962-35.6835,24.0609-56.8463,28.1346c-11.9985,2.3097-24.2531,2.9426-36.4435,2.2648
			c-12.1967-0.6782-24.2843-3.9123-36.4705-4.1266c-0.2108-0.0037-0.306,0.3077-0.1104,0.4077
			c10.6691,5.451,23.8354,6.7513,35.6355,7.6284c12.8594,0.9557,25.8856,0.4985,38.5793-1.8564
			c22.0369-4.0883,42.9791-14.1266,59.1917-29.6912c0.4993-0.4793,0.6888-1.0258,0.6674-1.5511
			c0.1376-0.0513,0.2666-0.1148,0.4021-0.1692c1.5495-0.2853,3.0196-0.8317,4.3334-1.6342c0.384,0.1411,0.822,0.0676,1.1902-0.3776
			c0.4459-0.5392,0.8583-1.0768,1.2405-1.6225c1.4348-0.7107,2.7817-1.5931,3.9771-2.6611
			C414.0136,416.035,413.4686,414.7119,412.5933,414.3124z"/>
		<path id="XMLID_6044_" d="M557.9177,471.5101c-8.9893,8.7493-18.7176,16.1675-28.246,24.2664
			c-0.1132,0.0962-0.1375,0.2099-0.1144,0.3154c-21.4177,14.9664-45.3126,25.6655-70.4835,32.7314
			c-13.0637,3.6671-26.4713,6.3795-39.9616,7.8586c-13.4359,1.4732-26.9641,1.4036-40.4398,1.9809
			c-0.0215,0.0009-0.0388,0.0104-0.059,0.0142c1.0708-2.0405,2.3822-3.9741,4.0231-5.7603
			c0.1388-0.1511-0.0506-0.4382-0.2319-0.3006c-12.2703,9.3104-11.5596,25.5443-14.3126,39.2059
			c-3.0683,15.2259-10.789,29.0193-21.8334,39.852c-4.4888-7.2387-13.684-10.0381-20.5242-5.6071
			c-0.1017-4.8054-3.1722-8.9369-7.4722-11.1823c-6.3951-3.3395-13.3576-1.0234-19.6802,1.1909
			c0.2577-0.1358,0.4881-0.3627,0.6559-0.71c2.4511-5.0717,4.4514-10.8662,0.345-15.6778
			c-3.8406-4.5001-9.7412-4.6612-15.1074-3.3691c-0.191,0.046-0.1308,0.3055,0.0436,0.3223
			c4.0718,0.3903,8.7293,1.0818,11.8243,4.0687c3.8911,3.7551,1.9794,8.7363-0.0197,12.9525
			c-0.7034,1.4835,0.8027,2.8271,1.9805,2.5212c-0.0652,0.0503-0.0546,0.1756,0.0458,0.1661
			c8.0645-0.7682,24.9341-1.3768,23.5854,11.1621c-0.0718,0.6674,0.1748,1.1411,0.5651,1.4354
			c-0.0396,0.0472-0.0812,0.0898-0.1205,0.1378c-0.2533,0.3089,0.0668,0.8297,0.4544,0.5889
			c0.2214-0.1375,0.4501-0.2528,0.6751-0.3796c0.7109,0.0361,1.4744-0.2736,1.8851-0.9305
			c6.7716-2.8288,14.5119-1.0852,18.2674,5.931c0.1803,0.3368,0.4193,0.5589,0.6827,0.7c0.4089,1.4995,2.4338,2.612,3.9319,1.2028
			c10.5264-9.9011,18.3757-22.3729,22.5203-36.24c3.826-12.8012,1.5117-28.5617,7.485-40.6446
			c0.0455,0.0999,0.1309,0.1813,0.2741,0.2095c26.2278,5.1596,55.3896,1.0956,80.9409-5.9884
			c26.7669-7.421,51.873-20.1154,74.4431-36.2602c1.1136-0.7966,0.8836-2.2425,0.1202-2.9432
			c9.5129-5.3718,18.2751-13.3227,25.3655-21.3121C560.3315,471.9976,558.91,470.5443,557.9177,471.5101z"/>
		<path id="XMLID_6043_" d="M280.4976,564.1411c-3.4613-4.1379-9.0648-4.525-13.5994-2.0316
			c-0.3152,0.1733-0.092,0.623,0.2348,0.5569c3.6535-0.7399,8.1726,0.1521,10.8063,2.9658c2.6959,2.8803,2.3889,6.895,0.2744,9.9296
			c-0.9705,1.3928,1.2252,3.0858,2.3558,1.8177C283.8301,573.7225,283.5981,567.8476,280.4976,564.1411z"/>
		<path id="XMLID_6042_" d="M386.9762,527.5927c-2.223-8.338-11.1219-9.0419-18.381-8.5434
			c-2.3587,0.162-4.7157,0.2946-7.0722,0.4104c-9.6524-0.2372-19.2881-0.2631-28.9393,0.1083c-1.9263,0.0741-1.9224,2.8974,0,2.9899
			c8.7823,0.4227,17.5684,0.4923,26.3544,0.1274c3.3406-0.1388,8.1723-0.9528,12.7407-0.9267
			c2.399,0.0981,4.7289,0.385,6.8466,1.0025c2.5931,0.9376,4.6208,2.6527,5.5128,5.6416
			C384.5976,530.2773,387.4833,529.4949,386.9762,527.5927z"/>
		<path id="XMLID_6041_" d="M172.2506,431.4543c-0.6467-0.0786-1.2824-0.1183-1.9084-0.1249
			c-0.1122-0.0145-0.2311-0.0109-0.3533,0.004c-9.544,0.0982-16.6918,8.2502-22.0706,15.5126
			c-7.9562,10.7422-16.0676,21.8111-25.0994,31.6775c-0.4072,0.4448,0.2213,1.0775,0.6629,0.6629
			c8.2382-7.7349,15.7958-15.3587,22.6304-24.4218c1.6756-2.2219,3.3045-4.4455,4.9677-6.5972
			c-0.0012,0.0045-0.0031,0.0087-0.0043,0.0132c-0.1241,0.4486,0.4959,0.8683,0.8226,0.4789
			c1.4717-1.7541,2.9043-3.3942,4.3708-4.917c0.3177,0.0983,0.6669,0.0653,0.9924-0.1825c1.7236-1.312,3.4625-2.6321,5.2277-3.9197
			c0.9194-0.6127,1.8521-1.2093,2.8167-1.775c0.2753-0.1614,0.4525-0.3724,0.5503-0.6031c1.6486-1.1216,3.3256-2.1943,5.0436-3.1809
			c0.6918-0.3972,0.8306-1.1297,0.6155-1.7415c0.2766-0.0779,0.5401-0.1699,0.8228-0.2411
			C172.7242,432.0016,172.5944,431.4961,172.2506,431.4543z"/>
		<path id="XMLID_6040_" d="M154.8077,378.4254c0.219-0.1564,0.0966-0.58-0.1987-0.4713
			c-10.6714,3.929-18.5247,13.1169-20.2228,24.4559c-1.4464,9.6579,1.6621,23.7657,12.3066,26.9335
			c1.4437,0.4297,2.2725-1.6348,1.0114-2.3989c-8.7358-5.293-11.3755-17.2778-9.0814-26.6874
			C140.8515,391.116,147.3141,383.7766,154.8077,378.4254z"/>
		<path id="XMLID_6039_" d="M176.9693,377.094c-13.2093,1.4077-20.7739-9.1639-27.5296-18.8316
			c-6.3909-9.1458-12.0311-18.8888-17.0651-28.8414c-0.118-0.2334-0.5225-0.0701-0.4284,0.1806
			c4.7578,12.6763,11.0369,24.7583,19.0605,35.694c6.0936,8.3052,15.0674,17.1011,26.3364,14.5607
			C178.8593,379.5145,178.5648,376.924,176.9693,377.094z"/>
		<path id="XMLID_6038_" d="M200.0467,362.4876c-1.882-8.8398-10.4284-16.3802-19.7692-14.5163
			c-0.5267,0.1051-0.547,0.9958,0,1.0848c7.8405,1.2762,14.8064,6.2358,16.2435,14.4035
			C196.9244,365.7524,200.54,364.8051,200.0467,362.4876z"/>
		<path id="XMLID_6037_" d="M389.7974,257.4755c-1.4888-0.1544-2.9882-0.2675-4.4897-0.3703
			c0.1348-0.2851,0.2011-0.5997,0.1904-0.9214c0.4934-0.8549,0.436-2.0207-0.6674-2.6529
			c-1.3865-0.7899-2.5262-1.6802-3.6313-2.8313c-0.6534-0.6805-1.433-0.7332-2.074-0.4377c-0.354-0.2028-0.7079-0.4056-1.062-0.6085
			c-0.8292-0.4752-1.647-0.2941-2.2133,0.1928c-11.6277-10.8994-24.0583-20.7244-39.7496-25.2407
			c-0.3467-0.0998-0.6015,0.4498-0.2529,0.5997c16.1777,6.9584,29.2218,19.33,41.6268,31.5945
			c-24.9398-0.2932-50.9805,5.8292-73.66,14.6873c-26.4499,10.3306-52.4223,26.2809-70.9394,48.08
			c-0.235,0.2767,0.1208,0.6331,0.3978,0.3978c9.9962-8.4943,20.2545-16.4194,31.0064-23.5261
			c-0.4036,0.8561,0.4865,2.0457,1.4745,1.415c31.5115-20.1141,68.0529-31.6696,105.3112-34.1112
			c1.386-0.0908,2.0343-1.2836,1.947-2.357c5.5609-0.1545,11.1426-0.1794,16.7856-0.207
			C392.2281,261.1668,392.121,257.7164,389.7974,257.4755z"/>
	</g>
	<g id="Layer_95_copy_2">
		<g id="XMLID_5812_">
			<g id="XMLID_6030_">
				<g id="XMLID_6032_">
					<path id="XMLID_6036_" d="M468.364,439.411c6.3986,11.2236-2.0905,22.6996-10.4491,29.6412
						c-1.8038,1.498,0.8734,4.2731,2.6075,2.6075c8.9591-8.6062,17.5604-21.3016,8.6269-32.8546
						C468.7951,438.347,468.091,438.9321,468.364,439.411L468.364,439.411z"/>
				</g>
			</g>
			<g id="XMLID_6023_">
				<g id="XMLID_6025_">
					<path id="XMLID_6029_" d="M467.3832,460.9821c19.6674,6.6323,41.0675,11.2211,61.7527,6.6927
						c14.756-3.2304,27.186-11.6944,37.4714-22.5298c5.5145-5.8094,10.4585-12.138,15.2427-18.5529
						c2.3314-3.1261,7.1597-7.6182,6.6525-11.8385c-0.5391-4.4854-7.1119-7.0359-9.9597-9.813
						c-8.5807-8.3681-13.1619-19.8703-18.2669-30.475c-4.9611-10.306-10.6823-20.2367-17.1403-29.6781
						c-25.264-36.9355-61.9128-67.3734-105.418-79.7398c-25.1642-7.153-51.4483-7.1958-77.1523-3.0993
						c-25.4752,4.06-50.6841,11.4236-74.1329,22.2111c-24.424,11.236-47.1671,26.5593-65.052,46.7815
						c-9.2882,10.502-15.9483,22.848-24.9229,33.5438c-9.4969,11.3183-25.537,21.0311-40.1544,12.8893
						c-1.783-0.9931-3.3953,1.8028-1.593,2.7253c21.0836,10.7919,39.9881-8.4936,51.2895-24.1487
						c7.1933-9.9644,14.3055-19.7141,23.0629-28.3943c8.4235-8.3493,17.7426-15.7609,27.6075-22.3344
						c20.1041-13.3966,42.5363-23.117,65.6187-30.0849c26.0411-7.8611,53.5136-13.0298,80.8024-11.604
						c45.9893,2.403,87.9084,26.5201,118.4885,60.118c15.2161,16.7178,27.469,35.6879,37.1759,56.0667
						c4.6638,9.7912,9.3297,20.1019,17.2557,27.7545c1.535,1.4821,3.1865,2.8043,4.9036,4.0675
						c1.9725,1.451,4.5744,2.0265,3.5375,5.3788c-0.2105,0.6806-1.1336,1.6677-1.603,2.3269
						c-2.7437,3.8531-5.6008,7.642-8.5207,11.3632c-10.506,13.3891-22.7469,26.0367-39.207,31.7196
						c-21.6521,7.4755-45.7774,2.5084-67.2484-3.1241C466.7169,458.9008,466.2656,460.6052,467.3832,460.9821L467.3832,460.9821z"/>
				</g>
			</g>
			<g id="XMLID_6016_">
				<g id="XMLID_6018_">
					<path id="XMLID_6022_" d="M154.6956,378.0155c-17.7562,7.7799-26.0303,43.4626-4.6206,51.8719
						c1.9079,0.7494,2.7432-2.3359,0.8474-3.0736c-9.8431-3.8305-11.4955-17.1241-9.517-26.1629
						c1.9899-9.0909,7.2704-15.6417,13.9719-21.752C155.8862,378.4349,155.2389,377.7775,154.6956,378.0155L154.6956,378.0155z"/>
				</g>
			</g>
			<g id="XMLID_6009_">
				<g id="XMLID_6011_">
					<path id="XMLID_6015_" d="M147.8483,430.3548c15.8305-0.7548,31.6081,1.0498,45.5871,9.0191
						c14.1653,8.0755,22.9142,21.7569,34.0046,33.221c21.6474,22.377,50.1928,36.1126,77.9058,49.3568
						c1.9503,0.9321,3.6645-1.978,1.7034-2.9142c-29.8926-14.2702-60.2722-29.1446-82.4616-54.4905
						c-10.5342-12.0327-20.2054-24.2223-35.1748-30.9207c-13.0071-5.8203-27.8242-8.065-41.7389-4.5606
						C146.9663,429.2439,147.0999,430.3904,147.8483,430.3548L147.8483,430.3548z"/>
				</g>
			</g>
			<g id="XMLID_6002_">
				<g id="XMLID_6004_">
					<path id="XMLID_6008_" d="M574.3085,435.2442c0.7484-2.0812,3.2333-2.2223,4.97-1.41c3.6111,1.689,2.4808,6.0924,0.9334,8.8977
						c-2.3431,4.2478-5.9092,8.0388-8.9028,11.8516c-5.5081,7.0155-11.1439,13.944-17.2207,20.4785
						c-10.7228,11.5304-22.8449,21.7246-35.9911,30.3861c-25.7537,16.968-55.3471,28.0627-85.8891,32.3177
						c-17.3885,2.4225-35.0411,2.4973-52.4589,0.346c-2.3455-0.2897-2.3351,3.4096,0,3.6875
						c36.5848,4.3536,73.9397-1.5359,107.6945-16.2026c16.5948-7.2106,32.2454-16.5445,46.4514-27.7511
						c16.0716-12.6782,29.3186-27.9153,41.8358-44.0246c3.6492-4.6965,13.3435-14.7963,6.9542-20.9171
						c-2.9146-2.7921-9.3495-2.7486-9.543,2.1824C573.1146,435.7897,574.0922,435.8456,574.3085,435.2442L574.3085,435.2442z"/>
				</g>
			</g>
			<g id="XMLID_5995_">
				<g id="XMLID_5997_">
					<path id="XMLID_6001_" d="M183.1619,375.7417c-18.9152,7.2297-31.7456-19.7794-39.7389-32.2387
						c-9.0585-14.1198-18.3401-28.3234-30.0558-40.4202c-20.3411-21.0029-52.2293-35.6327-80.7596-22.5667
						c-2.0999,0.9617-0.276,4.0608,1.8138,3.1031c33.0489-15.1447,67.1657,8.8824,86.905,34.0925
						c10.7454,13.7235,19.5042,28.8471,29.3542,43.1971c7.2313,10.5349,18.8764,23.4022,32.7099,15.3755
						C183.6721,376.1211,183.4846,375.6184,183.1619,375.7417L183.1619,375.7417z"/>
				</g>
			</g>
			<g id="XMLID_5988_">
				<g id="XMLID_5990_">
					<path id="XMLID_5994_" d="M32.5328,281.9131c10.9888,3.8339,21.5043,8.8998,30.48,16.396
						c6.8491,5.7202,23.1208,20.1771,15.7309,30.0141c-0.9892,1.3168,1.2919,2.6998,2.2396,1.3091
						c7.1016-10.42-5.6487-23.2935-12.7467-29.8978c-9.9061-9.2169-22.1146-16.1711-35.4795-18.6351
						C32.2246,281.0013,32.0161,281.7328,32.5328,281.9131L32.5328,281.9131z"/>
				</g>
			</g>
			<g id="XMLID_5981_">
				<g id="XMLID_5983_">
					<path id="XMLID_5987_" d="M77.7964,329.1724c9.7908,7.1139,25.2241,18.5015,18.2136,32.5944
						c-0.9772,1.9645,2.0546,3.6618,2.9142,1.7034c7.1615-16.3147-7.6731-28.4542-20.418-35.5121
						C77.6985,327.5108,77.0769,328.6496,77.7964,329.1724L77.7964,329.1724z"/>
				</g>
			</g>
			<g id="XMLID_5974_">
				<g id="XMLID_5976_">
					<path id="XMLID_5980_" d="M95.008,363.0206c6.9195,5.605,9.7436,15.038,5.2398,23.0638
						c-0.2887,0.5144-0.2724,1.3597,0.2276,1.7643c6.7018,5.4229,6.4833,14.9062-0.9275,19.6181
						c-1.625,1.0332-0.1194,3.6329,1.5142,2.5904c8.8656-5.6576,9.8075-17.6293,1.4723-24.2675
						c0.0759,0.5881,0.1518,1.1762,0.2276,1.7643c4.8756-8.8495,2.5376-20.9573-6.5044-26.1531
						C95.2788,360.8384,94.0713,362.2618,95.008,363.0206L95.008,363.0206z"/>
				</g>
			</g>
			<g id="XMLID_5967_">
				<g id="XMLID_5969_">
					<path id="XMLID_5973_" d="M98.9179,408.8132c4.8765,6.4112,4.2868,15.6447-2.6005,20.3373
						c-1.5532,1.0583-0.0853,3.6046,1.4826,2.5364c7.5581-5.1491,9.3072-17.4334,2.124-23.6501
						C99.4146,407.596,98.449,408.1967,98.9179,408.8132L98.9179,408.8132z"/>
				</g>
			</g>
			<g id="XMLID_5960_">
				<g id="XMLID_5962_">
					<path id="XMLID_5966_" d="M96.2803,431.2266c1.8075,2.6507,2.4757,5.3049,1.6737,8.4759
						c-0.8269,3.269-2.7059,4.862-5.6055,6.2611c-1.6249,0.784-0.4794,3.3752,1.216,2.8844
						c7.4172-2.1473,9.822-13.8774,3.6992-18.6048C96.6914,429.8013,95.892,430.657,96.2803,431.2266L96.2803,431.2266z"/>
				</g>
			</g>
			<g id="XMLID_5953_">
				<g id="XMLID_5955_">
					<path id="XMLID_5959_" d="M92.2598,445.9939c2.1925,11.313-5.1326,24.6763-16.8077,27.0482
						c-2.304,0.4681-1.2678,4.295,0.972,3.5257c12.8969-4.43,21.1658-17.3591,16.7397-30.8231
						C92.9742,445.1677,92.1454,445.4034,92.2598,445.9939L92.2598,445.9939z"/>
				</g>
			</g>
			<g id="XMLID_5946_">
				<g id="XMLID_5948_">
					<path id="XMLID_5952_" d="M33.5549,504.7693c19.4238,2.4783,38.1838-11.4904,43.6909-29.8265
						c0.5678-1.8906-2.3996-2.7053-2.9531-0.8141c-5.2751,18.0219-22.3352,29.2767-40.7378,29.5157
						C32.8098,503.654,32.8574,504.6804,33.5549,504.7693L33.5549,504.7693z"/>
				</g>
			</g>
			<g id="XMLID_5939_">
				<g id="XMLID_5941_">
					<path id="XMLID_5945_" d="M33.0002,504.6976c25.4635,15.1733,57.9737-1.1836,79.5422-16.1263
						c12.2275-8.4713,23.2873-18.4591,33.0879-29.6414c9.4182-10.7461,18.8303-23.3543,33.6722-26.3026
						c2.0278-0.4028,1.1717-3.516-0.8557-3.1038c-12.2374,2.4883-21.1076,11.308-29.0373,20.3932
						c-9.829,11.2612-19.7195,22.0302-31.6204,31.1813c-23.3094,17.9238-54.7621,34.4941-84.3795,22.6286
						C32.8387,503.498,32.4981,504.3985,33.0002,504.6976L33.0002,504.6976z"/>
				</g>
			</g>
			<g id="XMLID_5932_">
				<g id="XMLID_5934_">
					<path id="XMLID_5938_" d="M371.472,519.6018c8.5769-0.8298,16.0304,6.2423,13.2535,14.9686
						c-0.5375,1.6892,2.1248,2.4183,2.6518,0.731c3.0775-9.8543-5.6859-20.4098-16.0174-16.5283
						C370.9509,518.9268,370.9619,519.6512,371.472,519.6018L371.472,519.6018z"/>
				</g>
			</g>
			<g id="XMLID_5925_">
				<g id="XMLID_5927_">
					<path id="XMLID_5931_" d="M385.0528,530.6364c-13.0383,7.334-10.7047,26.2235-13.7421,38.6666
						c-3.9641,16.239-12.3199,32.0174-24.3889,43.6911c-1.4529,1.4053,0.8626,3.6996,2.2097,2.2097
						c10.1358-11.2101,18.1963-23.6304,22.89-38.0892c2.2568-6.9521,3.5633-14.0674,4.278-21.3287
						c0.8875-9.0173,1.9227-18.2262,9.3213-24.4133C386.0386,531.0232,385.504,530.3826,385.0528,530.6364L385.0528,530.6364z"/>
				</g>
			</g>
			<g id="XMLID_5918_">
				<g id="XMLID_5920_">
					<path id="XMLID_5924_" d="M374.2403,519.5179c-10.7526-1.4802-21.7734-1.2574-32.6021-0.9942
						c-11.4891,0.2793-22.964,0.9568-34.3601,2.4792c-21.9486,2.932-43.5073,8.9033-62.7003,20.1722
						c-1.723,1.0116-0.585,3.7479,1.3599,3.2256c10.6866-2.8701,19.1275,6.9872,15.2029,17.2045
						c-0.7866,2.0479,2.5053,2.9343,3.2846,0.9055c4.8935-12.7397-6.3684-24.9541-19.4258-21.5135
						c0.4533,1.0752,0.9066,2.1504,1.3599,3.2256c19.2888-11.2026,40.8132-17.1931,62.8338-20.0438
						c10.4782-1.3564,21.032-2.146,31.586-2.5891c11.1086-0.4664,22.3516-0.1853,33.3947-1.5809
						C374.422,519.9776,374.5476,519.5602,374.2403,519.5179L374.2403,519.5179z"/>
				</g>
			</g>
			<g id="XMLID_5911_">
				<g id="XMLID_5913_">
					<path id="XMLID_5917_" d="M261.1678,564.6203c4.5524-1.3251,9.6283-1.8885,13.6152,1.2759
						c3.4783,2.7607,4.7867,7.9053,1.5655,11.437c-0.9302,1.0199-0.0391,2.938,1.4273,2.452
						c4.9874-1.6532,10.9606-2.1616,15.3834,1.2533c4.2043,3.2462,5.5918,9.0767,2.3779,13.514
						c-1.1687,1.6136,1.5156,3.1644,2.6714,1.5615c3.5511-4.925,2.6146-11.7465-1.5437-16.0649
						c-5.0964-5.2928-13.1527-5.2989-19.6689-3.0931c0.4758,0.8173,0.9516,1.6346,1.4273,2.452
						c3.4672-3.9464,3.3607-9.7378-0.0079-13.7921c-4.314-5.1922-12.132-4.6544-17.6449-1.938
						C260.2425,563.938,260.6128,564.7818,261.1678,564.6203L261.1678,564.6203z"/>
				</g>
			</g>
			<g id="XMLID_5904_">
				<g id="XMLID_5906_">
					<path id="XMLID_5910_" d="M293.8396,596.608c9.7749-0.0033,27.253-1.3887,27.4243,12.8605
						c0.0258,2.1504,3.3813,2.1553,3.3438,0c-0.2768-15.884-19.4652-17.0632-30.8885-13.7506
						C293.232,595.8591,293.3214,596.6081,293.8396,596.608L293.8396,596.608z"/>
				</g>
			</g>
			<g id="XMLID_5897_">
				<g id="XMLID_5899_">
					<path id="XMLID_5903_" d="M320.302,612.1315c7.9853-4.7604,19.1457-4.1091,24.3288,4.4592
						c1.082,1.7888,3.9172,0.1384,2.8063-1.6403c-5.6317-9.0166-20.2998-12.5206-27.6463-3.4815
						C319.5055,611.8199,319.862,612.3938,320.302,612.1315L320.302,612.1315z"/>
				</g>
			</g>
			<g id="XMLID_5890_">
				<g id="XMLID_5892_">
					<path id="XMLID_5896_" d="M197.7142,365.8383c-0.3844-10.464-8.4109-18.1622-18.6301-19.3028
						c0.2599,0.9597,0.5199,1.9194,0.7798,2.8792c4.4838-1.9253,7.7199-5.8755,8.5883-10.7236
						c0.3566-1.9906-0.6157-4.2528-0.2801-6.036c0.4753-2.5249,4.8857-4.7552,6.6116-6.5764
						c3.9583-4.1767,6.5472-9.4081,8.9062-14.5969c2.5144-5.5303,4.8113-10.9051,3.5736-17.0606
						c-0.3657,0.6442-0.7315,1.2883-1.0972,1.9325c6.4415-1.9576,10.0468-8.385,8.2859-14.9035
						c-0.5239-1.9394-3.5374-1.1168-3.0134,0.8307c1.3029,4.843-1.2583,9.5747-6.1078,11.0431
						c-0.8553,0.2589-1.2677,1.0801-1.0972,1.9325c1.2973,6.486-2.3376,12.9832-5.1586,18.6205
						c-2.2758,4.5479-4.9605,9.0379-9.0252,12.2043c-2.2735,1.7711-4.9407,2.5981-5.2476,5.7114
						c-0.3593,3.6453,1.398,5.7311-0.4558,9.4253c-1.3018,2.594-3.4186,4.3857-6.0425,5.5284
						c-1.5688,0.6833-0.5428,2.7384,0.7798,2.8792c8.7374,0.9294,15.6533,7.9373,17.4639,16.3705
						C196.6882,366.6496,197.7388,366.5063,197.7142,365.8383L197.7142,365.8383z"/>
				</g>
			</g>
			<g id="XMLID_5883_">
				<g id="XMLID_5885_">
					<path id="XMLID_5889_" d="M212.4765,280.6068c1.582,2.4421,5.0733,1.9599,7.2755,0.4041
						c3.327-2.3503,3.4263-6.5482,1.5862-9.8228c-0.4562,0.5934-0.9124,1.1869-1.3686,1.7803
						c9.7142,2.5422,12.5662-8.3102,11.177-15.6654c-0.5442,0.5442-1.0884,1.0884-1.6326,1.6326
						c9.0438,3.5554,13.8445-6.3639,13.1553-13.8849c-0.69,0.396-1.38,0.7919-2.0701,1.1879
						c6.7846,3.3643,13.4222-1.6437,12.3054-9.0547c-0.5659,0.5659-1.1317,1.1317-1.6976,1.6976
						c3.2777,0.9126,6.3864-0.0851,8.6065-2.7197c3.2747-3.8861,2.4702-9.1944,1.2864-13.7295
						c-0.6785,0.5216-1.357,1.0432-2.0355,1.5648c7.6076,4.6134,16.4093-1.6002,14.3581-10.326
						c-0.4039-1.7183-2.9438-0.9781-2.6216,0.7227c1.2078,6.3772-4.9328,10.4841-10.3377,7.2103
						c-1.05-0.636-2.3366,0.4138-2.0355,1.5648c1.1968,4.5748,1.7703,15.3453-6.4869,13.0509
						c-1.1064-0.3074-1.8489,0.6973-1.6976,1.6976c0.7153,4.7297-4.1813,7.9627-8.2552,5.9452
						c-0.8464-0.4191-2.1732,0.0691-2.0701,1.1879c0.5272,5.7197-2.1187,14.2595-9.6982,11.3253
						c-1.0253-0.3969-1.8053,0.7437-1.6326,1.6326c1.0119,5.2078-0.072,14.5198-7.9731,12.6226
						c-1.0111-0.2428-1.9189,0.846-1.3686,1.7803c2.374,4.0307-0.4053,6.9841-4.7868,7.9117
						c-0.4874,0.1032-1.4501,0.0717-1.9353,0.1688C212.4748,280.5018,212.4504,280.5666,212.4765,280.6068L212.4765,280.6068z"/>
				</g>
			</g>
			<g id="XMLID_5876_">
				<g id="XMLID_5878_">
					<path id="XMLID_5882_" d="M270.3015,214.2644c10.0717,1.7939,20.4548,2.055,30.6035,3.3655
						c11.353,1.466,22.6702,3.7753,33.4388,7.7193c10.4482,3.8266,19.9145,9.534,29.107,15.7272
						c9.7401,6.5622,18.802,14.278,28.6485,20.6246c1.235,0.7961,2.6472-1.0302,1.5716-2.0368
						c-8.3477-7.8126-18.5572-14.2381-28.0077-20.6322c-9.1431-6.1862-18.5378-11.915-28.8748-15.891
						c-10.3341-3.9749-21.1941-6.2903-32.1393-7.802c-11.1796-1.5441-22.8991-2.8197-34.1939-2.2101
						C269.842,213.1619,269.6251,214.1439,270.3015,214.2644L270.3015,214.2644z"/>
				</g>
			</g>
			<g id="XMLID_5869_">
				<g id="XMLID_5871_">
					<path id="XMLID_5875_" d="M398.6962,397.09c0.1207,0,0.1208-0.1875,0-0.1875
						C398.5755,396.9025,398.5753,397.09,398.6962,397.09L398.6962,397.09z"/>
				</g>
			</g>
			<g id="XMLID_5862_">
				<g id="XMLID_5864_">
					<path id="XMLID_5868_" d="M397.275,397.4414c1.0218,1.5345,2.1324,1.3249,3.8839,1.9099
						c3.2138,1.0734,6.1847,3.0499,8.2043,5.7742c5.1197,6.9062,0.3269,18.7976-9.2596,16.8902
						c-1.8658-0.3712-2.6644,2.4896-0.7892,2.8627c8.5637,1.7039,16.4792-6.1974,15.2384-14.8461
						c-0.6409-4.4669-3.6039-8.3235-7.2932-10.7797c-2.3733-1.58-7.5472-4.4549-9.9626-1.9817
						C397.2555,397.3135,397.2405,397.3896,397.275,397.4414L397.275,397.4414z"/>
				</g>
			</g>
			<g id="XMLID_5855_">
				<g id="XMLID_5857_">
					<path id="XMLID_5861_" d="M401.7247,402.6193c-5.1028-8.6406-8.556-18.2295-12.7087-27.3395
						c-4.3802-9.6092-9.5702-18.8793-15.9598-27.3065c-10.7814-14.2193-25.2323-25.6868-42.6385-30.412
						c-2.332-0.633-3.327,2.9835-0.9969,3.6161c18.5475,5.035,33.3018,18.0834,44.0753,33.6251
						c5.3465,7.7128,9.8222,16.0342,13.9098,24.471c4.074,8.4086,7.0333,17.0438,13.5581,23.9328
						C401.3435,403.607,402.0039,403.0921,401.7247,402.6193L401.7247,402.6193z"/>
				</g>
			</g>
			<g id="XMLID_5848_">
				<g id="XMLID_5850_">
					<path id="XMLID_5854_" d="M325.7025,318.1851c7.816,6.6206,9.3077,19.6458,2.3289,27.3356
						c-0.4957,0.5462-0.5522,1.4044,0,1.946c5.2713,5.17,3.6572,13.2508-3.426,15.6821c-1.7404,0.5974-0.9903,3.3787,0.7643,2.7723
						c9.0188-3.1169,11.5762-13.7238,4.6077-20.4003c0,0.6487,0,1.2973,0,1.946c7.9659-8.9863,6.4534-23.39-4.0476-29.5761
						C325.7514,317.7856,325.5362,318.0443,325.7025,318.1851L325.7025,318.1851z"/>
				</g>
			</g>
			<g id="XMLID_5841_">
				<g id="XMLID_5843_">
					<path id="XMLID_5847_" d="M322.7986,365.4128c3.2782,2.3985,4.6822,6.6039,2.9171,10.4076
						c-1.5211,3.2777-4.6925,5.0319-7.9658,6.1109c-1.8018,0.594-1.0552,3.4138,0.7892,2.8627
						c4.8449-1.4475,9.3566-5.1429,10.1887-10.3594c0.6654-4.1714-1.3956-8.6397-5.4838-10.0785
						C322.5806,364.1226,322.3083,365.054,322.7986,365.4128L322.7986,365.4128z"/>
				</g>
			</g>
			<g id="XMLID_5834_">
				<g id="XMLID_5836_">
					<path id="XMLID_5840_" d="M316.6128,383.5566c2.2293,5.3103,0.2548,12.4806-6.1121,13.4595
						c-1.9362,0.2977-1.1492,3.3738,0.8224,2.9832c6.8918-1.3653,12.098-11.5854,6.0992-16.9141
						C317.1006,382.7995,316.4091,383.0714,316.6128,383.5566L316.6128,383.5566z"/>
				</g>
			</g>
			<g id="XMLID_5827_">
				<g id="XMLID_5829_">
					<path id="XMLID_5833_" d="M309.0965,398.7484c0.6592,3.4902,1.0074,7.1652-1.4514,10.0972
						c-2.0546,2.45-4.9772,3.2306-8.0663,3.1359c-2.0551-0.063-1.9464,2.8996,0,3.125c8.295,0.9604,16.7012-9.7528,10.249-16.7838
						C309.5101,397.9766,309.0211,398.3493,309.0965,398.7484L309.0965,398.7484z"/>
				</g>
			</g>
			<g id="XMLID_5820_">
				<g id="XMLID_5822_">
					<path id="XMLID_5826_" d="M297.701,412.905c1.0634,8.9082-6.9376,16.0797-15.5677,12.7067
						c-2.0721-0.8099-3.0872,2.6589-0.9304,3.375c10.2966,3.4187,20.8344-5.4584,17.603-16.2312
						C298.6323,412.1767,297.623,412.2509,297.701,412.905L297.701,412.905z"/>
				</g>
			</g>
			<g id="XMLID_5813_">
				<g id="XMLID_5815_">
					<path id="XMLID_5819_" d="M279.2496,427.5449c2.6252,5.3362,0.0467,11.1035-4.9867,13.8666
						c-4.2838,2.3516-9.3978,2.4328-14.1516,2.661c-1.6755,0.0805-2.0967,2.5001-0.4029,2.9771
						c26.0715,7.343,53.4581,9.073,80.2346,4.9082c21.7794-3.3875,47.8277-10.1464,61.3277-29.1755
						c0.9454-1.3326-1.2361-3.0405-2.2823-1.7609c-14.8648,18.1809-38.3506,24.8136-60.7734,28.1525
						c-25.9515,3.8643-52.4612,2.0615-77.7008-5.0472c-0.1343,0.9923-0.2686,1.9847-0.4029,2.9771
						c6.7741-0.3252,14.8264-0.94,19.4238-6.6179c3.1599-3.9026,4.2102-9.6965,0.4998-13.5469
						C279.6243,426.5128,279.0073,427.0523,279.2496,427.5449L279.2496,427.5449z"/>
				</g>
			</g>
		</g>
	</g>
	<g id="Layer_101_copy">
		<g id="XMLID_5805_">
			<g id="XMLID_5807_">
				<path id="XMLID_5811_" d="M456.8111,450.2079c-15.5948-19.3398-21.693-44.977-14.5154-68.9589
					c0.7108-2.3748-2.9978-3.3896-3.7065-1.0218c-7.3552,24.5753-1.2526,52.8516,17.2496,70.9529
					C456.4859,451.8133,457.355,450.8825,456.8111,450.2079L456.8111,450.2079z"/>
			</g>
		</g>
		<g id="XMLID_5798_">
			<g id="XMLID_5800_">
				<path id="XMLID_5804_" d="M437.6101,454.4874c-9.6635-20.7346-19.1971-45.2336-7.3582-67.1299
					c1.0331-1.9108-1.8797-3.6168-2.9142-1.7034c-12.407,22.9471-3.1288,48.7378,9.5169,69.275
					C437.1544,455.416,437.845,454.9914,437.6101,454.4874L437.6101,454.4874z"/>
			</g>
		</g>
		<g id="XMLID_5791_">
			<g id="XMLID_5793_">
				<path id="XMLID_5797_" d="M429.3479,455.2823c-6.3163-7.6395-10.4874-16.3734-10.828-26.4047
					c-0.0707-2.0835-3.3911-2.0479-3.2188,0c0.8747,10.3911,5.0379,20.5027,13.4059,27.0455
					C429.1638,456.2802,429.7255,455.739,429.3479,455.2823L429.3479,455.2823z"/>
			</g>
		</g>
		<g id="XMLID_5784_">
			<g id="XMLID_5786_">
				<path id="XMLID_5790_" d="M459.0025,362.4153c5.8412-17.2005,18.3147-29.1478,36.5616-31.5227
					c2.7585-0.359,2.9696-4.4607,0-4.4688c-18.5501-0.0502-37.6529,17.009-37.4823,35.8668
					C458.0867,362.8333,458.8349,362.9088,459.0025,362.4153L459.0025,362.4153z"/>
			</g>
		</g>
	</g>
	<g id="Layer_100_copy" class="st2">
		<g id="XMLID_5777_" class="st3">
			<g id="XMLID_5779_">
				<path id="XMLID_5783_" d="M286.2846,233.4613c19.1765,3.6144,37.2404,12.1231,51.9996,24.8882
					c1.3611,1.1772,3.3552-0.791,1.9887-1.9887c-15.2501-13.3666-33.7112-21.6509-53.8638-23.8202
					C285.8872,232.4844,285.7664,233.3637,286.2846,233.4613L286.2846,233.4613z"/>
			</g>
		</g>
		<g id="XMLID_5749_" class="st3">
			<g id="XMLID_5751_">
				<path id="XMLID_5755_" d="M347.9989,342.0277c15.7708,17.1604,28.131,37.1642,35.3466,59.3745
					c0.514,1.5822,3.0291,0.899,2.5011-0.6895c-7.4804-22.5082-20.0038-42.9406-37.5383-58.9943
					C348.1003,341.528,347.8079,341.8199,347.9989,342.0277L347.9989,342.0277z"/>
			</g>
		</g>
		<g id="XMLID_5714_" class="st3">
			<g id="XMLID_5716_">
				<path id="XMLID_5720_" d="M281.6123,538.4091c23.0985-9.0919,48.4467-8.2599,72.8324-7.5256
					c1.3668,0.0412,1.3683-2.0945,0-2.125c-24.7587-0.5517-49.7696-0.5276-72.9287,9.4222
					C281.3873,538.2359,281.4802,538.4611,281.6123,538.4091L281.6123,538.4091z"/>
			</g>
		</g>
		<g id="XMLID_5693_" class="st3">
			<g id="XMLID_5695_">
				<path id="XMLID_5699_" d="M91.5439,302.4008c25.6089,17.5359,30.2536,50.649,48.7919,73.7799
					c0.7684,0.9587,2.4616-0.3282,1.7178-1.3254c-17.5259-23.4993-24.5122-56.1284-50.3204-72.7783
					C91.5286,301.9451,91.3466,302.2657,91.5439,302.4008L91.5439,302.4008z"/>
			</g>
		</g>
		<path id="XMLID_49_" class="st3" d="M285.1609,273.2008c-7.26-5.2046-15.2406-8.295-24.1881-8.8
			c-0.3079-0.0173-0.2907,0.432,0,0.4688c8.4686,1.0704,16.424,4.4005,22.768,10.1718
			C284.9799,276.1686,286.5562,274.2011,285.1609,273.2008z"/>
		<path id="XMLID_51_" class="st3" d="M247.575,297.9685c-3.2218-3.8956-7.9611-6.1159-13.0319-5.5197
			c-0.7247,0.0852-0.7202,1.0339,0,1.125c4.2716,0.5405,8.3494,2.5028,11.0074,5.9568
			C246.6759,300.9931,248.7728,299.4168,247.575,297.9685z"/>
		<path id="XMLID_52_" class="st3" d="M355.3844,568.5905c0.6973,10.3271-2.6937,19.1746-8.3188,27.6633
			c-0.2126,0.3208,0.2503,0.6423,0.5154,0.3976c7.6945-7.1036,11.1306-17.7747,11.0847-28.0609
			C358.6562,566.4657,355.2429,566.4944,355.3844,568.5905z"/>
		<path id="XMLID_54_" class="st3" d="M131.8523,449.2172c-5.9885,11.8745-14.8467,21.908-25.7215,29.5481
			c-0.2431,0.1708-0.0285,0.5591,0.2366,0.4048c11.8242-6.885,21.1694-16.6422,27.8325-28.5806
			C135.0577,449.0524,132.6366,447.662,131.8523,449.2172z"/>
		<path id="XMLID_57_" class="st3" d="M373.0676,427.8603c-8.1499,6.4518-17.8236,9.168-28.1342,9.2262
			c-0.3105,0.0018-0.3906,0.4797-0.0748,0.5525c10.8146,2.491,21.8279-0.7484,30.4297-7.5579
			C376.8723,428.8272,374.6365,426.6182,373.0676,427.8603z"/>
	</g>
	<g id="Layer_10">
		<path id="XMLID_8_" d="M508.443,389.0789c-0.3521-4.1242-2.4095-7.4756-5.2999-9.7037c-1.8462-1.9155-4.8699-2.9169-7.342-3.1424
			c-1.6237-0.1481-3.2891-0.0062-4.8965,0.3463c-0.5566,0.1118-1.0978,0.2505-1.6171,0.4301
			c-0.2393,0.0756-0.4779,0.1529-0.7123,0.2374c-0.7571,0.2727-1.5681,0.5482-2.204,1.0128
			c-3.955,2.1779-6.2991,7.0853-6.5446,11.689c0.0059,0.0742,0.012,0.1479,0.0178,0.2222
			c-0.0995,1.5808,0.0625,3.1718,0.4329,4.4827c0.5206,1.8429,1.2747,3.3076,2.2934,4.539c0.0118,0.0219,0.0206,0.045,0.0327,0.0668
			c0.0575,0.0818,0.1067,0.1715,0.1651,0.2524c1.5802,1.9498,3.5993,3.4067,5.9865,4.4976
			c1.1841,0.4092,2.4095,0.6567,3.5842,0.7092C500.611,405.7106,509.1935,397.8697,508.443,389.0789z"/>
		<path id="XMLID_12_" d="M529.4422,391.0934c-0.0051-0.0209-0.0065-0.0425-0.0126-0.0632
			c-0.0146-0.0489-0.0125-0.0915-0.0203-0.1379c-0.0146-0.0341-0.0278-0.0701-0.058-0.0872
			c-0.057-0.7475-0.1449-1.4863-0.273-2.2586c-0.1826-1.7166-0.9626-3.7511-1.3347-4.9192
			c-0.8961-2.8133-2.0493-5.1304-3.6536-7.5543c-1.1115-1.6794-2.3863-3.1229-3.8051-4.3667
			c-5.52-5.8259-14.1204-8.6401-22.0167-7.7719c-2.9563,0.3251-5.7657,1.1274-8.4449,2.2839l-0.0005-0.0012
			c-0.0024,0.0016-0.0051,0.0031-0.0075,0.0048c-1.3303,0.5746-2.6308,1.2301-3.8965,1.9705
			c-3.8474,2.2506-6.4297,5.5925-8.9083,9.2385c-5.4779,8.0585-4.6532,20.0236,0.4708,28.0255
			c2.0649,3.2245,4.9713,6.7861,8.2491,8.8493c4.1231,2.5952,8.752,3.976,13.5647,4.4689c0.9547,0.0978,1.8967,0.1026,2.8304,0.0495
			c0.0081,0.0001,0.0163-0.0009,0.0244-0.001c0.066-0.0038,0.132-0.0077,0.1978-0.0121c0.1102-0.0099,0.2199-0.0203,0.3277-0.0274
			c0.1822-0.0148,0.3648-0.0269,0.5464-0.0457c0.9511,0.0427,1.9769-0.1963,2.8782-0.3296
			c1.5399-0.2278,3.0082-0.6227,4.4357-1.1931c0.6508-0.2021,1.2919-0.429,1.8876-0.7267c0.228-0.0803,0.446-0.1833,0.6392-0.2839
			c2.092-0.7845,4.0553-1.9799,5.7907-3.3577c1.046-0.8304,2.2644-1.8983,3.2634-3.0448c0.0192-0.0096,0.0385-0.0048,0.0569-0.0211
			c0.246-0.2166,0.438-0.514,0.6467-0.7667c0.0038-0.0046,0.0115-0.0181,0.0159-0.024c0.0052-0.0027,0.0115,0.0004,0.0164-0.0038
			c0.1171-0.1014,0.2157-0.2369,0.3104-0.3779c0.0435-0.0527,0.085-0.1055,0.1234-0.1595c0.087-0.0911,0.1626-0.1901,0.2084-0.3086
			c0.002-0.0034,0.0045-0.0067,0.0065-0.01c0.1127-0.1321,0.2273-0.2631,0.3356-0.398c0.512-0.6375,0.926-1.2662,1.3683-1.9534
			c0.0071-0.0111-0.0002-0.0206,0.0048-0.0317c2.496-3.6421,3.9369-7.9677,4.1966-12.3438
			c0.0038-0.0029,0.0029-0.0103,0.0064-0.0135c0.0213-0.7581,0.0452-1.5161,0.0302-2.2747
			C529.443,391.1082,529.4425,391.1008,529.4422,391.0934z M529.1364,392.0383c-0.0027,0.0967-0.0032,0.1915-0.0097,0.2888
			c-0.0096,0.0407-0.0117,0.0833-0.0233,0.1234c-0.0886,4.8594-1.8981,9.2861-4.6417,13.2787
			c-0.3088,0.4493-0.6495,0.8805-0.9907,1.311c-0.1066,0.0967-0.1964,0.237-0.2872,0.3774
			c-0.0497,0.0204-0.0967,0.0527-0.1294,0.116c-0.0182,0.0353-0.0412,0.0698-0.0601,0.105
			c-0.0597,0.0714-0.1254,0.1382-0.1859,0.209c-0.0125,0.0079-0.0221,0.0223-0.0351,0.029
			c-0.0495,0.0257-0.0716,0.0646-0.084,0.1049c-2.6617,3.0716-6.0814,5.5784-9.9335,6.907
			c-5.1186,1.7655-10.986,2.5045-16.1896,0.6604c-2.3593-0.8361-4.8201-1.9901-6.877-3.4168
			c-0.7407-0.5138-1.4589-1.0855-2.1807-1.6225c-1.2413-0.9234-2.1087-1.8623-3.1165-2.99
			c-6.4356-7.201-8.0354-18.9947-3.3632-27.6347c1.1875-2.1959,2.1256-3.9382,3.9333-5.7396
			c2.1123-2.105,4.6604-3.9083,7.3345-5.2357c4.7936-2.3796,10.4919-3.3735,15.7851-2.2691
			c5.1127,1.0668,10.27,3.2123,13.7183,7.264c1.9464,2.2869,3.5463,4.7708,4.7109,7.5146c0.6979,1.6441,1.2687,3.2792,1.713,5.0104
			c0.1556,0.6066,0.4602,1.5648,0.5987,2.4437c0.0316,0.0813,0.0637,0.1625,0.0719,0.2615c0.032,0.3854,0.0611,0.7707,0.0859,1.1561
			c0.0051-0.0282,0.0128-0.0545,0.0181-0.0825c0.0246,0.2426,0.0488,0.4852,0.0517,0.7336
			c0.0006,0.0526,0.0063,0.0921,0.0109,0.1345c-0.0149,0.0256-0.0205,0.0569-0.0099,0.0916
			c0.0815,0.2611,0.0925,0.5527,0.0853,0.8488c-0.0005,0.0015-0.0017,0.0024-0.002,0.0042
			C529.1349,392.0268,529.1358,392.0325,529.1364,392.0383z"/>
	</g>
</g>
<g id="Layer_11" class="st2">
	<g id="XMLID_1_" class="st3">
		<g id="XMLID_3_">
			<g id="XMLID_22_">
				<path id="XMLID_40_" class="st4" d="M593.0826,349.8261c0.09,2.19-0.51,4.03-1.4,6.01c-0.78,1.73-1.55,3.5-2.92,4.84
					c-1.52,1.5-4.18,2.47-6.28,3.05c-9.06,2.5-18.36-3.53-19.31-12.99c-0.17-1.71,0.29-4.1,0.65-5.81c0.5-2.37,1.76-4.34,3.44-6.09
					c2.83-2.95,6.44-4.42,10.53-4.5c4.93-0.11,9.61,1.86,12.52,5.97c1.09,1.53,2.0099,3.53,2.52,5.52
					c-0.09,0.05-0.16,0.14-0.12,0.26C592.9626,347.0461,593.0426,348.8761,593.0826,349.8261z"/>
				<path id="XMLID_13_" class="st4" d="M564.0426,301.5861c1.77,1.68,2.41,3.56,2.68,5.76c-0.19,2.46-0.4,4.36-1.91,6.44
					c-1.79,2.47-5.03,4.39-8.1,4.25c-5.03-0.23-9.15-3.88-9.71-8.92c-0.58-5.14,4.08-10.64,9.34-10.67
					C559.4726,298.4261,561.7626,299.4261,564.0426,301.5861z"/>
				<path id="XMLID_5_" class="st4" d="M557.6826,259.8361c-0.05,0.03-0.09,0.08-0.1,0.16c-0.2,3.69-1.95,7.21-5.85,8.21
					c-4.74,1.21-9.86-1.81-10.47-6.8c-0.57-4.63,3.91-9.1,8.52-8.96C553.7626,252.5661,557.1426,256.0461,557.6826,259.8361z"/>
				<path id="XMLID_14_" class="st4" d="M589.5526,276.2961c0.87,5.31-2.2,10.42-7.47,11.93c-5.64,1.61-11.89-3.24-12.12-9.11
					c-0.19-4.71,3.09-8.99,7.61-10.13c5.02-1.26,10.59,2.32,11.98,7.27c0,0.01,0,0.02,0,0.02
					C589.5526,276.2861,589.5526,276.2861,589.5526,276.2961z"/>
				<path id="XMLID_15_" class="st4" d="M572.7826,233.4961c0.01-0.19,0-0.38-0.01-0.57c0.24,1.44-0.54,3.84-1.09,4.79
					c-1.12,1.94-3.1801,3.4-5.38,3.82c-4,0.77-8.18-1.46-9.26-5.43c-1.24-4.58,1.34-8.77,5.8-10.15c4.68-1.43,9.68,3.04,9.88,7.54
					C572.7226,233.5361,572.7826,233.5361,572.7826,233.4961z"/>
				<path id="XMLID_21_" class="st4" d="M544.2126,209.7861c0.06,2.84-0.82,4.83-3.65,5.88c-2.1201,0.78-5.27-0.27-6.35-2.34
					c-1.21-2.29-0.31-4.8,1.61-6.3C538.7326,204.7461,543.3326,206.3161,544.2126,209.7861z"/>
				<path id="XMLID_39_" class="st5" d="M593.3526,346.9861c0.03,0.57,0.01,1.13-0.07,1.69c-0.01,0.02-0.05,0.02-0.05-0.01
					c-0.02-0.91-0.17-1.87-0.4-2.84c0.11-0.04,0.26-0.01,0.3,0.14c0.08,0.31,0.15,0.63,0.21,0.95
					C593.3526,346.9361,593.3526,346.9561,593.3526,346.9861z"/>
				<path id="XMLID_38_" class="st5" d="M589.8226,277.6661c-0.05-0.47-0.14-0.94-0.27-1.39c0,0,0-0.01,0-0.02
					c0-0.13,0.14-0.22,0.25-0.19c0.12,0.53,0.2,1.06,0.22,1.6C590.0326,277.7961,589.8326,277.7961,589.8226,277.6661z"/>
				<path id="XMLID_37_" class="st5" d="M572.6926,232.1961c0.05,0.24,0.07,0.48,0.08,0.72c-0.03-0.19-0.08-0.35-0.15-0.5
					C572.5826,232.3261,572.6226,232.2461,572.6926,232.1961z"/>
				<path id="XMLID_36_" class="st5" d="M569.0326,279.4761c-0.74-5.75,4.13-10.74,9.49-11.59c5-0.8,10.16,3.33,11.28,8.18
					c-0.11-0.03-0.25,0.06-0.25,0.19c-1.39-4.95-6.96-8.53-11.98-7.27c-4.52,1.14-7.8,5.42-7.61,10.13
					c0.23,5.87,6.48,10.72,12.12,9.11c5.27-1.51,8.34-6.62,7.47-11.93c0-0.01,0-0.01,0-0.02c0.13,0.45,0.22,0.92,0.27,1.39
					c0.01,0.13,0.21,0.13,0.2,0c-0.02-0.54-0.1-1.07-0.22-1.6c0.06,0,0.1,0.05,0.12,0.13c0.9,5.77-2.23,11.18-8.01,12.81
					C575.6926,290.7561,569.8026,285.5461,569.0326,279.4761z"/>
				<path id="XMLID_35_" class="st5" d="M566.9726,307.0861c0.06,0.62,0.06,1.26,0,1.91c0,0.07-0.1,0.07-0.1,0
					c-0.03-0.57-0.08-1.12-0.15-1.65c0.01-0.03,0.01-0.07,0.01-0.1C566.7426,307.1061,566.8626,307.0561,566.9726,307.0861z"/>
				<path id="XMLID_34_" class="st5" d="M567.2626,338.8361c-1.68,1.75-2.94,3.72-3.44,6.09c-0.36,1.71-0.82,4.1-0.65,5.81
					c0.95,9.46,10.25,15.49,19.31,12.99c2.1-0.58,4.76-1.55,6.28-3.05c1.37-1.34,2.14-3.11,2.92-4.84c0.89-1.98,1.49-3.82,1.4-6.01
					c-0.04-0.95-0.12-2.78-0.37-3.74c-0.04-0.12,0.03-0.21,0.12-0.26c0.23,0.97,0.38,1.93,0.4,2.84c0,0.03,0.04,0.03,0.05,0.01
					c0.08-0.56,0.1-1.12,0.07-1.69c1.06,5.86-1.71,13.59-7.22,16.15c-7.12,3.3-14.79,2.52-20.16-3.56
					c-4.75-5.37-4.74-14.28-0.42-19.9c4.43-5.77,12.41-7.67,19.11-4.69c4.23,1.88,8.4,7,8.68,11.93c-0.06-0.32-0.13-0.64-0.21-0.95
					c-0.04-0.15-0.19-0.18-0.3-0.14c-0.51-1.99-1.43-3.99-2.52-5.52c-2.91-4.11-7.59-6.08-12.52-5.97
					C573.7026,334.4161,570.0926,335.8861,567.2626,338.8361z"/>
				<path id="XMLID_33_" class="st5" d="M557.8426,259.9961c0,0.09-0.12,0.08-0.13,0c-0.01-0.05-0.01-0.11-0.03-0.16
					c0.05-0.03,0.11-0.03,0.16-0.02C557.8426,259.8761,557.8426,259.9361,557.8426,259.9961z"/>
				<path id="XMLID_30_" class="st5" d="M566.0626,242.2761c-4.73,0.89-9.05-2-10.03-6.66c-1.07-5.07,2.31-9.78,7.44-10.66
					c4.33-0.73,8.58,3.08,9.22,7.24c-0.0699,0.05-0.11,0.13-0.0699,0.22c0.0699,0.15,0.12,0.31,0.15,0.5
					c-0.01-0.24-0.03-0.48-0.08-0.72c0.06-0.04,0.15-0.03,0.2,0.06c0.38,0.78,0.14,2,0.05,2.82c-0.12,1.15-0.45,2.2-1.05,3.2
					C570.6426,240.3661,568.4426,241.8261,566.0626,242.2761z M562.8426,225.9561c-4.46,1.38-7.04,5.57-5.8,10.15
					c1.08,3.97,5.26,6.2,9.26,5.43c2.2-0.42,4.26-1.88,5.38-3.82c0.55-0.95,1.33-3.35,1.09-4.79c0.01,0.19,0.02,0.38,0.01,0.57
					c0,0.04-0.06,0.04-0.06,0C572.5226,228.9961,567.5226,224.5261,562.8426,225.9561z"/>
				<path id="XMLID_29_" class="st5" d="M556.7126,318.0361c3.07,0.14,6.31-1.78,8.1-4.25c1.5099-2.08,1.72-3.98,1.91-6.44
					c0.07,0.53,0.12,1.08,0.15,1.65c0,0.07,0.1,0.07,0.1,0c0.06-0.65,0.06-1.29,0-1.91c0.07,0.01,0.13,0.06,0.13,0.16
					c0.17,5.89-4.39,11.43-10.44,11.51c-5.54,0.08-10.06-4.16-10.56-9.64c-0.52-5.74,4.44-11.39,10.24-11.56
					c5.65-0.17,10.16,4.15,10.63,9.53c-0.11-0.03-0.23,0.02-0.24,0.16c0,0.03,0,0.07-0.01,0.1c-0.27-2.2-0.91-4.08-2.68-5.76
					c-2.28-2.16-4.57-3.16-7.7-3.14c-5.26,0.03-9.92,5.53-9.34,10.67C547.5626,314.1561,551.6826,317.8061,556.7126,318.0361z"/>
				<path id="XMLID_28_" class="st5" d="M544.3626,210.6661c-0.02-0.3-0.07-0.6-0.15-0.88c0-0.04,0-0.08,0-0.12
					c0-0.12,0.08-0.18,0.17-0.19c0.08,0.38,0.12,0.78,0.1,1.19C544.4826,210.7461,544.3726,210.7361,544.3626,210.6661z"/>
				<path id="XMLID_25_" class="st5" d="M541.2626,261.4061c0.61,4.99,5.73,8.01,10.47,6.8c3.9-1,5.65-4.52,5.85-8.21
					c0.01-0.08,0.05-0.13,0.1-0.16c0.02,0.05,0.02,0.11,0.03,0.16c0.01,0.08,0.13,0.09,0.13,0c0-0.06,0-0.12,0-0.18
					c0.08,0.02,0.14,0.08,0.13,0.18c-0.33,4.43-2.96,8.46-7.61,9.12c-5.01,0.71-9.71-2.88-10.06-8.03c-0.33-4.98,4.5-9.73,9.48-9.46
					c4.15,0.22,7.98,4.01,8.06,8.19c-0.05-0.01-0.11-0.01-0.16,0.02c-0.54-3.79-3.92-7.27-7.9-7.39
					C545.1726,252.3061,540.6926,256.7761,541.2626,261.4061z"/>
				<path id="XMLID_24_" class="st5" d="M544.2126,209.7861c0.08,0.28,0.13,0.58,0.15,0.88c0.01,0.07,0.12,0.08,0.12,0
					c0.02-0.41-0.02-0.81-0.1-1.19c0.11-0.03,0.2401,0.04,0.25,0.19c0.07,3.08-1.22,6.32-4.66,6.96c-2.9,0.55-6.66-1.16-7.16-4.27
					c-0.5601-3.44,1.5-6.96,5.24-7.29c2.9-0.26,5.78,1.6,6.33,4.41c-0.09,0.01-0.17,0.07-0.17,0.19
					C544.2126,209.7061,544.2126,209.7461,544.2126,209.7861c-0.88-3.47-5.48-5.04-8.39-2.76c-1.92,1.5-2.82,4.01-1.61,6.3
					c1.08,2.07,4.23,3.12,6.35,2.34C543.3926,214.6161,544.2726,212.6261,544.2126,209.7861z"/>
			</g>
			<g id="XMLID_23_">
			</g>
		</g>
	</g>
</g>
</svg>
