<?xml version="1.0" encoding="utf-8"?>
<!-- Generator: Adobe Illustrator 20.0.0, SVG Export Plug-In . SVG Version: 6.00 Build 0)  -->
<svg version="1.1" id="Layer_1" xmlns="http://www.w3.org/2000/svg" xmlns:xlink="http://www.w3.org/1999/xlink" x="0px" y="0px"
	 viewBox="0 0 1138.3571 2364.8103" style="enable-background:new 0 0 1138.3571 2364.8103;" xml:space="preserve">
<style type="text/css">
	.st0{fill:#DCDCDC;}
	.st1{fill:#C6C6C6;}
	.st2{fill:#F4B060;}
	.st3{fill:#E0A258;}
	.st4{fill:#FFFFFF;}
</style>
<g id="Layer_5">
	<g>
		<path d="M69.6849,2094.7925c-0.0106-0.1992-0.1681-0.7324-0.3982-0.8767c0.0491,0.1584,0.0931,0.293,0.1324,0.407
			C69.5267,2094.5073,69.6186,2094.6692,69.6849,2094.7925z"/>
		<path d="M1092.0338,2092.2681c-6.8984-4.0352-13.918-0.9583-18.3302,4.8062c-42.7815,55.8928-97.4733,102.7119-158.4349,138.127
			c-15.5564,9.0376-31.5282,17.3604-47.8496,24.9292c-3.9661,1.8391-7.9524,3.6343-11.9584,5.3853
			c-0.9427,0.4119-1.8864,0.8213-2.8312,1.2283c-0.312,0.1345-1.3273,0.5679-1.8351,0.7861
			c-1.922,0.8071-3.849,1.6025-5.7804,2.3867c-8.325,3.3809-16.7275,6.5715-25.1997,9.5642
			c-24.5779,8.6821-49.7605,15.7964-75.2852,21.2c-1.314-1.5156-3.3904-2.4534-5.8055-2.0276
			c-13.4897,2.3782-26.6815,6.3708-40.1259,9.1724c-2.2527,0.4695-4.5129,0.9146-6.7722,1.3625
			c-1.3357,0.1445-2.6703,0.2979-4.0073,0.4314c-0.1394,0.0139-0.2791,0.0251-0.4186,0.0391
			c9.5348-2.6196,18.9741-5.5918,28.3127-9.1257c6.5223-2.4683,10.996-8.7168,9.0238-15.8931
			c-2.0211-7.3542-8.9739-10.1116-15.8931-9.0237c-36.4768,5.7346-71.8875,16.75-108.2419,23.3281
			c-35.4276,6.4104-71.0851,11.5024-107.1831,11.2935c-9.9308-0.0574-19.8906-0.1638-29.8066-0.7366
			c-5.2546-0.3035-10.5018-0.7351-15.7349-1.2996c-5.4558-0.5889-11.0625-0.5276-16.4402-1.6465
			c-2.1711-0.4519-3.7822,0.6816-4.491,2.2163c-0.004-0.0007-0.0081-0.0015-0.012-0.0024
			c-49.4098-11.1006-96.0344-28.0308-139.528-49.374c-22.0703-10.8306-43.5533-22.8506-64.3739-35.9216
			c-10.3076-6.4712-20.4532-13.2-30.4297-20.1707c-4.9918-3.4875-9.9413-7.0361-14.8477-10.6431
			c-2.2308-1.6399-4.4528-3.292-6.6657-4.9561c-1.3279-0.9988-2.6526-2.0017-3.9741-3.0088
			c-0.258-0.1968-1.8361-1.4102-2.3892-1.8328c-21.7342-16.8489-42.544-34.907-62.3981-53.9314
			c-10.0074-9.5894-19.5707-19.5771-28.8883-29.8369c-0.7446-0.8198-1.4875-1.6411-2.2289-2.4639
			c-0.4629-0.5139-0.9241-1.0293-1.3857-1.5444c-0.0216-0.0605-0.0627-0.1504-0.1391-0.293
			c0.008,0.1514-0.0699,0.0977-0.2658-0.4697c-0.0789-0.1357-0.1622-0.2778-0.2633-0.4463c0.046-0.0046,0.0892,0.0132,0.1309,0.0393
			c-0.057-0.1838-0.1183-0.3882-0.1893-0.6394c-0.1794-0.5977-0.3196-1.2053-0.447-1.8162c0.0202-1.4431,0.0895-2.926,0.0781-4.366
			c0.03,3.8037,0.0317,0.1826,0.3582-1.0474c0.1974-0.7437,1.3926-3.0957,1.0429-2.553c0.7267-1.2275,1.4893-2.405,2.3741-3.5627
			c5.6516-7.3953,1.3914-20.1489-6.3566-24.2427c-9.3674-4.9492-18.2094-1.5381-24.2426,6.3567
			c-8.7774,11.4854-10.9332,28.397-6.007,41.8928c5.0062,13.7146,17.1881,23.5017,27.4416,33.4341
			c18.3251,17.7507,36.8198,35.2168,56.4376,51.5493c39.7734,33.1133,82.5656,62.6655,128.2086,87.1111
			c95.6926,51.2507,204.787,80.8433,313.7678,76.759c22.8517-0.8564,45.7739-2.9126,68.3707-6.6946
			c6.9716-0.0225,13.9387-0.2556,20.8429-0.5193c19.4521-0.7432,38.7993-2.6377,58.0798-5.2849
			c36.6384-5.0305,72.7365-13.6174,107.6708-25.7578c71.0026-24.6748,137.0831-62.3567,194.1672-111.2869
			c5.8844-5.0437,11.6508-10.2117,17.304-15.4937c0.6018-0.2695,1.1853-0.5981,1.733-1.0181
			c0.8398-0.644,1.6625-1.313,2.4937-1.9695l0.0242,0.0242c0.0541-0.0569,0.1079-0.1145,0.162-0.1714
			c25.5969-20.2632,47.0714-46.4177,64.2389-74.0215C1100.662,2104.4529,1098.1559,2095.8486,1092.0338,2092.2681z"/>
	</g>
	<g>
		<path d="M69.4576,273.3214c-0.6845-2.7593-0.965-2.6652-0.7697-1.8275c0.2131,0.5246,0.4583,1.0694,0.6582,1.6059
			C69.3834,273.1737,69.4205,273.2475,69.4576,273.3214z"/>
		<path d="M108.1907,163.968c-0.8148,0.7333-1.2104,1.2756,1.4256-1.1099c-0.1114,0.0813-0.2228,0.1622-0.3343,0.2435
			C108.9181,163.3923,108.5593,163.6836,108.1907,163.968z"/>
		<path d="M64.5524,256.2369c0.2551,0.8603,0.512,0.8756-0.303-2.1612c0.0064,0.0808,0.0128,0.1616,0.0192,0.2424
			C64.3782,254.9524,64.4503,255.6133,64.5524,256.2369z"/>
		<g>
			<path d="M144.3176,2172.3552c-0.1573-0.0632-0.3994-0.1604-0.7726-0.3091c0.0172,0.0071,0.0342,0.0139,0.0515,0.021
				C143.8369,2172.1631,144.0773,2172.259,144.3176,2172.3552z"/>
			<path d="M56.6182,2100.3281c-0.0056-0.011-0.0139-0.0273-0.0205-0.0405c0.0027,0.0056,0.0048,0.0098,0.0074,0.0149
				C56.6094,2100.311,56.6138,2100.3196,56.6182,2100.3281z"/>
			<path d="M1124.3859,277.6317c-2.3987-23.8868-8.75-46.5685-19.1926-68.1934c-2.5068-5.1915-8.4163-7.7196-13.9917-7.4944
				c-8.7615-15.9433-20.5464-30.3701-34.0271-42.1854c-11.5781-10.1478-24.604-18.0641-38.5859-23.7166
				c-11.438-14.1086-27.5089-24.308-44.2148-32.8371c-2.2749-1.8059-4.9459-3.1324-7.7375-3.8282
				c-7.8604-3.7743-15.7234-7.2609-23.1787-10.6859c-35.4152-16.2697-71.8369-30.4016-109.0477-41.9999
				c-20.704-6.4533-41.6423-12.049-62.7452-17.0345c-5.9978-1.417-12.6968,0.3127-17.1592,4.4407
				c-28.1259-6.4681-56.5444-11.6807-85.1477-15.6197C585.1908,6.8865,499.9032,5.6398,415.5182,15.8565
				c-47.6108,5.7643-95.0098,14.4012-141.0886,27.8082c-4.3448,1.2642-7.7767,4.4183-9.5757,8.3307
				c-16.5894,4.19-33.0475,8.8215-49.3355,13.8981c-40.7039,12.6863-82.519,27.1661-118.4298,50.6318
				c-35.3296,23.086-66.3159,56.4948-75.5417,98.8469c-4.9051,22.5173-4.1024,45.2846,2.9463,66.8853
				c-2.2703,1.559-3.9097,4.1554-4.069,7.8005c-0.0278,0.5875-0.0493,1.1754-0.074,1.7631
				c-4.248,1.3823-7.8632,4.7153-8.9249,9.2247c-1.5328,6.5101-2.1738,13.1394-1.3287,19.7849
				c0.491,3.8613,1.9524,7.3906,4.5291,9.7987c-0.7229,1.6279-1.1655,3.4059-1.2254,5.2705
				C9.4588,458.5493,8.4835,581.3665,8.8755,704.0737c0.099,30.9833,0.5741,61.9667,0.5146,92.9491
				c-0.3629,1.0994-0.6199,2.2539-0.7769,3.4388c-0.4163,1.3739-0.653,2.8358-0.6606,4.3732
				c-0.0032,0.6506-0.0057,1.3014-0.0089,1.952c-1.7418,18.2316-1.8273,36.7968-2.4919,55.0465
				c-0.1021,2.803,0.7505,5.4729,2.2289,7.7473c-0.2947,84.3566-0.3042,168.7084,0.3607,253.0665
				c0.8376,106.2693,1.8061,212.5375,2.9055,318.8044c0.3067,29.6481,0.6236,59.296,0.9507,88.944
				c0.3311,30.0076,0.1747,60.0045,2.3251,89.9425c0.2227,3.0999,1.1976,6.1572,2.762,8.8259
				c-0.0078,83.1057,0.1698,166.2029,0.6942,249.3091l0.8633,136.8083c0.145,22.968,0.2759,45.9358,0.4585,68.9036
				c0.0973,12.2368,1.27,23.5195,6.9469,34.5679c4.6464,9.0425,11.6505,17.1331,18.2487,24.8035
				c27.785,32.2996,66.1154,58.1707,107.2131,69.9341c9.0916,2.6023,20.0959-3.1748,22.2503-12.6333
				c2.299-10.0938-3.0568-18.9097-12.6333-22.2502c-4.0435-1.4104-8.0564-2.9155-12.0629-4.4272
				c-1.5571-0.5876-3.1011-1.2063-4.6456-1.8245c0.5737,0.2307-0.0958-0.0325-0.7211-0.2881
				c-0.2001-0.0798-0.4-0.1599-0.6002-0.2397c0.2076,0.0828,0.3882,0.1545,0.5488,0.2188c-0.2432-0.0996-0.473-0.1953-0.6089-0.2561
				c-1.4656-0.6543-2.9319-1.304-4.3878-1.98c-8.0037-3.7161-15.7783-7.9263-23.2734-12.583
				c-3.6337-2.2578-7.2009-4.6208-10.697-7.0862c-1.7476-1.2324-3.4411-2.5422-5.1884-3.7732
				c-0.1021-0.072-0.1765-0.1235-0.2534-0.177c-1.0145-0.8059-2.0326-1.6072-3.0372-2.426
				c-6.8411-5.5747-13.348-11.5571-19.4659-17.9175c-2.9651-3.0825-5.8382-6.2524-8.6138-9.5068
				c-1.3878-1.627-2.7507-3.2744-4.0887-4.9429c-0.1318-0.1643-0.6521-0.8323-1.041-1.3291
				c-0.5045-0.6897-1.5081-2.0449-1.6467-2.2412c-1.2904-1.8279-2.534-3.6968-3.6366-5.645c-0.347-0.613-0.6689-1.2327-0.9881-1.854
				c0.0747,0.1477,0.0547,0.1111-0.0131-0.0256c-0.1837-0.3577-0.3665-0.7153-0.5527-1.0745
				c0.2966,0.5718,0.4618,0.895,0.5453,1.0596c-0.1545-0.312-0.5206-1.0723-0.6174-1.4226
				c-0.1943-0.7034-1.1606-6.0383-1.0791-4.3875c-0.2302-2.7583-0.2708-5.5293-0.316-8.2954
				c-0.3589-21.9688-0.6675-43.9385-1.0144-65.9077c-1.3983-88.5393-2.3908-177.0957-4.1921-265.6279
				c-0.8566-42.1016-1.8778-84.2009-2.8557-126.3003c1.2574-2.3574,2.0179-5.0632,2.1525-8.0081
				c1.2177-26.6589,0.5405-53.269,0.1717-79.9487c-0.3683-26.6498-0.7285-53.2996-1.0804-79.9495
				c-0.6949-52.6335-1.3578-105.2676-1.9886-157.9019c-1.2734-106.2654-1.8113-212.554-3.7884-318.8079
				c-0.8521-45.7932-1.6641-91.5869-2.4935-137.3804c2.5928,2.8401,5.3307,5.5636,8.1597,8.2029
				c34.168,39.4006,76.0284,71.2412,123.4149,93.1049c4.0289,2.3881,8.087,4.7291,12.1989,6.9821
				c3.1257,1.7126,6.2805,3.3796,9.4582,5.0066c2.0492,1.7917,4.5092,3.248,7.3295,4.2546
				c1.6055,0.5729,3.2166,1.1281,4.8251,1.6917c16.3214,7.6016,33.2429,13.9607,50.5994,18.6293
				c2.5117,0.6757,5.1555,0.741,7.725,0.3107c2.4738,0.8082,4.9476,1.6165,7.4213,2.4246
				c15.4638,17.6287,36.4379,29.0433,58.8394,35.9669c28.4004,8.7777,58.3654,13.2145,87.7976,16.8187
				c61.7156,7.5576,124.3501,6.2788,186.3273,3.0616c116.5963-6.0525,235.2089-24.4093,338.0629-82.8922
				c26.0321-14.8019,50.675-32.0859,73.1855-51.8512c17.8054-15.6339,33.5765-32.687,47.7025-51.3927l0.4142,53.6228
				c0.085,11,0.3198,21.9978,0.5177,32.9962c0.21,11.6671,0.0392,23.3849,1.2468,34.996c0.5188,4.988,3.2723,9.4258,7.7303,11.151
				c-10.431,209.0839-21.5392,418.1283-32.8104,627.1691c-6.5579,121.6248-15.6567,243.4319-18.0309,365.2153
				c-0.1776,9.1094,7.8749,16.8574,16.8574,16.8574c1.301,0,2.5363-0.1472,3.7107-0.4075
				c-1.5999,17.908-3.2092,35.8149-4.8403,53.7192c-0.8564,9.4014,8.8341,18.4014,17.9471,18.0896
				c0.0454,0.4531,0.0829,0.907,0.1289,1.3601c0.0946,0.9324,0.2439,1.8376,0.4373,2.7175
				c-26.3761,30.9553-54.9811,59.9827-85.5649,86.7791c-1.9811,1.3311-3.9562,2.6709-5.9381,4.001
				c-5.2142,3.4993-10.4968,6.9465-15.7656,10.4243c-1.373,0.3628-2.748,0.8423-4.1116,1.4678
				c-54.9534,25.2039-109.7179,50.8208-164.4751,76.4517c-19.0405,6.3755-38.3047,12.0825-57.7546,17.0938
				c-19.7653,5.0925-39.7363,9.3701-59.8289,12.9561c-10.0459,1.7927-20.1235,3.4067-30.2268,4.8403
				c-0.3893,0.0554-4.2605,0.5825-4.6985,0.6475c-2.5881,0.3394-5.1776,0.6694-7.7688,0.9851
				c-5.0671,0.6169-10.1396,1.1887-15.217,1.7153c-40.6018,4.2107-81.507,5.5247-122.2939,3.8647
				c-22.6477-0.9216-45.2587-2.7605-67.7555-5.5283c-1.406-0.1729-2.8115-0.3499-4.2166-0.5303
				c-0.4419-0.0566-1.646-0.2134-2.1643-0.2795c-2.6322-0.3545-5.2622-0.7275-7.8901-1.1118
				c-5.8921-0.8618-11.7698-1.8127-17.6494-2.7544c-11.4846-1.8394-22.9207-3.991-34.3116-6.3381
				c-8.0109-1.6506-17.3229,2.3242-19.2878,10.9514c-1.798,7.8933,2.3756,17.4441,10.9513,19.2876
				c16.3359,3.6436,32.7903,6.7637,49.3271,9.384c34.3672,5.6506,69.1494,9.4084,103.7783,10.3586
				c50.5164,1.3862,101.054-1.3367,151.0053-8.9976c1.6465-0.2524,3.2877-0.5312,4.9318-0.7954
				c20.734-3.0735,41.3674-6.8682,61.8406-11.3877c4.1545,7.5024,12.499,10.6489,21.0322,8.9038
				c61.5918-12.5967,119.8015-36.6743,174.6151-67.1006c3.4432,0.3418,6.9261-0.3093,9.8478-2.3447
				c8.4556-5.8904,16.7983-11.9407,25.0439-18.1199c19.7117-12.1648,38.9648-25.0371,57.7456-38.3784
				c23.5706-16.7439,46.4934-34.3403,69.0336-52.4426c6.4634-5.1909,6.4589-15.5024,2.5236-22.1641
				c1.4224-0.6299,2.7559-1.4648,3.9669-2.4907c0.7853,0.22,1.5834,0.4043,2.4021,0.5144c8.902,1.196,17.0533-4.2297,19.686-12.8518
				l19.0184-62.2854c1.9839-6.4968-0.5875-14.019-5.6438-18.5474c-0.964-1.7671-2.2034-3.3867-3.6555-4.7495
				c-0.0149-1.5217-0.0264-3.0435-0.0422-4.5654c1.4945-15.8772,2.1516-31.8306,1.9227-47.7634
				c-0.0482-3.353-1.0244-6.4907-2.6881-9.1592c-0.3191-20.1377-0.6738-40.2754-1.0212-60.4121
				c1.6083-86.2537-0.2205-172.5662-5.5651-258.6726c-0.6505-10.4817-1.3248-20.9604-2.0194-31.4373
				c0.3973-54.071,0.6034-108.1404,0.7526-162.2163c0.0463-16.7915,0.1127-33.5808,0.203-50.3698
				c0.1851-8.7406,0.3657-17.4812,0.5645-26.2214c1.7141-75.4012,3.9244-150.7909,6.608-226.1638
				c0.5924-1.4349,0.8988-2.99,0.8102-4.6085c0.1156-8.7394,0.2161-17.476,0.3132-26.2102
				c0.8354-22.3618,1.7031-44.7223,2.6238-67.0807c2.4902-60.4697,5.2959-120.9263,8.4066-181.3672
				c0.2401-4.6654-2.2418-8.9137-5.8751-11.6385c0.5334-14.7715,1.0442-29.5441,1.5378-44.3174l5.6426-5.4595
				c6.5966-6.3828,6.8922-18.443,0-24.77c-1.4404-1.3221-2.9753-2.3643-4.5657-3.1509c0.9049-29.0093,1.7285-58.0222,2.443-87.0403
				c1.1801-47.9229,2.0988-95.8571,2.652-143.7949c3.2617-1.9318,5.4659-5.2371,4.8907-9.7205
				c-0.9082-26.0201-2.9076-52.0071-4.3182-78.0278c0.0422-36.0021-0.1787-72.0037-0.6841-108.0021
				c3.9775-10.0345,4.7257-21.5952,5.6453-32.1774C1125.5914,300.0591,1125.5067,288.7942,1124.3859,277.6317z M443.7898,313.6803
				c1.6071-0.2397,3.212-0.4936,4.8187-0.7348c5.3036,4.5591,12.5784,6.3737,20.2386,4.7536
				c79.7824-16.8727,159.5646-33.7455,239.347-50.6182c24.4476-4.9821,48.8575-10.1478,73.2296-15.4869
				c4.1001-0.8982,7.7161-3.2901,10.4932-6.4897c4.9049-1.5609,9.7948-3.187,14.665-4.9008
				c10.9543-3.8548,19.4231-15.3843,15.5428-27.3747c-3.9618-12.2427-15.0604-17.8301-27.327-15.55
				c-0.1379-1.1939-0.3855-2.3859-0.7665-3.5632c-3.9335-12.1548-14.7782-17.3621-26.8729-15.258l-27.7515,4.8278
				c2.5312-4.8517,3.3774-10.566,1.7189-15.6911c-0.2604-0.8047-0.5597-1.579-0.8879-2.3285
				c5.3905,1.0535,10.7753,2.1368,16.1471,3.2819c29.4686,6.2812,58.6912,13.7651,87.488,22.6366
				c13.7961,4.2502,27.4979,8.8065,41.0903,13.6694c6.6548,2.381,13.302,4.7991,19.8782,7.3909
				c0.998,0.3933,2.0798,0.7501,3.1078,1.1721c0.3911,0.21,0.8058,0.4221,1.1224,0.563c3.186,1.4171,6.3358,2.917,9.4198,4.5453
				c2.8231,1.4906,5.5948,3.0812,8.2823,4.8054c1.337,0.8577,2.6191,1.7897,3.9417,2.6671c0.0789,0.0523,0.1453,0.0953,0.2164,0.142
				c0.0637,0.0588,0.1228,0.1138,0.1941,0.1788c1.9556,1.7841,3.9547,3.4875,5.7902,5.4039
				c0.1615,0.1687,0.9133,0.8749,1.6351,1.6108c0.1401,0.1968,0.3094,0.433,0.5425,0.7554
				c0.5558,0.8044,1.0895,1.6232,1.6008,2.4565c0.7697,1.2535,1.4884,2.5383,2.1549,3.8495
				c0.2134,0.4337,0.4265,0.8672,0.6396,1.3009c0.6165,1.9393,1.5222,5.373,1.5942,5.6882c0.0153,0.071,0.0305,0.142,0.0457,0.2131
				c-0.0529,1.0452,0.3457,3.204,0.3513,3.7976c0.0054,0.5812-0.3428,2.6879-0.2826,3.7343
				c-0.1134,0.4746-0.2104,0.9532-0.3428,1.4233c-0.1002,0.3306-0.2003,0.6613-0.3005,0.9919
				c-0.349,0.6927-0.7035,1.4354-0.6669,1.3715c-0.2445,0.4055-0.489,0.8109-0.7335,1.2162
				c-0.2787,0.406-0.4691,0.6892-0.6044,0.8961c-0.7112,0.659-1.4586,1.2751-1.7146,1.5152
				c-0.3865,0.3484-0.7731,0.6968-1.1597,1.0452c-0.5742,0.4755-0.9207,0.7661-1.0896,0.9127
				c-0.7776,0.4423-1.5739,0.8392-1.9751,1.088c-2.918,1.8092-5.9551,3.4171-9.0084,4.9835
				c-5.9315,3.0429-11.934,5.9501-17.9845,8.748c-3.1599,1.4612-6.3342,2.8909-9.5228,4.288
				c-1.0614,0.4651-2.1278,0.9191-3.1888,1.3853c-0.282,0.1204-0.5254,0.2243-0.7333,0.3132
				c-0.627,0.2607-1.2533,0.5226-1.8812,0.7809c-0.5179,0.2131-1.0411,0.4127-1.5598,0.6241
				c-2.2595-0.1141-4.5658,0.1072-6.8533,0.7548c-53.7175,15.2079-108.2131,27.9813-163.2755,37.2676
				c-13.0946,2.2084-26.2252,4.2472-39.3882,6.0091c-1.0208,0.1323-2.4984,0.3249-2.87,0.3728
				c-1.5806,0.2037-3.1614,0.4039-4.7427,0.6013c-3.4783,0.4342-6.9583,0.8539-10.4402,1.2571
				c-6.9614,0.8062-13.9297,1.5516-20.9045,2.2325c-6.0571,0.5914-12.1201,1.1251-18.1862,1.6188
				c-53.017,2.1193-106.1188,1.5345-159.1623,0.7621c-6.8042-0.0991-13.4341,3.4085-17.7307,8.7043
				c-21.4004-4.1882-42.726-8.7687-64.0042-13.5303c-33.5701-7.5122-67.6233-14.2307-100.4753-24.5497
				c-7.706-2.4205-15.3391-5.0849-22.8341-8.0984c-0.3593-0.1444-0.7391-0.2841-1.1204-0.426
				c-0.1147-0.0551-0.2993-0.1413-0.5808-0.2709c-1.695-0.7802-3.4127-1.5109-5.1049-2.298
				c-3.851-1.7912-7.651-3.6948-11.3834-5.7219c-6.734-3.6573-13.2501-7.7216-19.4371-12.2455
				c-0.2921-0.2136-0.6776-0.4437-1.0436-0.6904c-0.1379-0.1478-0.2911-0.2981-0.4557-0.4362
				c-1.4256-1.1956-2.8734-2.3622-4.2773-3.584c-3.0166-2.6252-5.9604-5.3565-8.697-8.275c-0.5911-0.6304-1.155-1.286-1.7342-1.9269
				c2.3252-3.9803,4.852-7.8418,7.5627-11.5703c0.4523-0.6221,0.9064-1.246,1.3679-1.8637
				c0.5013-0.6025,1.2084-1.4611,1.4366-1.7377c1.8949-2.2971,3.8525-4.5422,5.8634-6.7383
				c4.0759-4.4514,8.3734-8.6982,12.8364-12.7606c4.1276-3.757,8.4104-7.3269,12.7749-10.8043
				c1.1573-0.8672,2.3104-1.7396,3.4766-2.595c2.8903-2.1199,5.8214-4.1844,8.7888-6.1948
				c12.4748-8.4516,25.5772-15.9925,38.9911-22.9281c13.9641,0.5193,27.9811,0.1569,41.9594-1.0313
				c-7.6582,4.0592-11.6606,15.5557-9.0714,23.5566c3.0282,9.3574,10.7233,14.8414,20.4167,15.5444
				c5.0126,0.3635,10.0214,0.4361,15.0226,0.2871c0.722,1.0556,1.5114,2.03,2.3745,2.9048
				c-9.0165,4.5776-15.1982,14.859-11.8616,25.1693c0.4918,1.5199,1.1135,2.9382,1.8381,4.2603
				c-2.5939,4.6443-3.5018,10.1429-1.7238,15.6374c3.9159,12.1004,14.7047,17.2709,26.7418,15.1835
				c10.4683-1.8154,20.9365-3.6307,31.4048-5.446c-2.3477,4.6722-3.0942,10.0972-1.4282,15.2454
				C420.8248,310.7877,431.5843,315.5006,443.7898,313.6803z M64.3154,233.586c0.0051-0.0779,0.009-0.1423,0.0135-0.2138
				c0.157-0.9613,0.3085-1.9233,0.4875-2.8814c0.3774-2.02,0.8113-4.0296,1.3008-6.0253c0.6113-2.4923,1.3095-4.9644,2.0934-7.4079
				c0.4449-1.3868,1.4413-6.4609,2.6024-7.2265c-0.1701,0.1122-2.3106,5.0905-0.4904,1.2005
				c0.4274-0.9134,0.8434-1.8307,1.2824-2.7386c1.0768-2.227,2.222-4.4219,3.4297-6.5807c2.1516-3.8463,4.506-7.5791,7.0397-11.1849
				c0.6246-0.8889,1.2778-1.7572,1.9111-2.6394c1.183-1.4189,2.3453-2.8538,3.5611-4.2457
				c3.2097-3.675,6.6056-7.1855,10.148-10.5403c3.2098-3.0399,6.5456-5.947,9.9782-8.7324c0.1672-0.1357,0.3446-0.268,0.5176-0.4014
				c0.2366-0.213,0.5053-0.4399,0.7457-0.6149c0.1153-0.0839,0.2304-0.1676,0.3456-0.2516
				c0.2391-0.1912,0.4845-0.3782,0.7062-0.5803c-0.136,0.1239-0.2494,0.226-0.3719,0.3369c1.9836-1.4468,3.961-2.897,5.9834-4.2918
				c15.3981-10.6197,32.0938-19.2569,49.2164-26.7283c0.3615-0.1577,0.7281-0.3326,1.0968-0.509
				c0.222-0.0865,0.5966-0.2363,1.211-0.486c1.8753-0.7622,3.7463-1.5344,5.6268-2.2841c4.6683-1.8612,9.365-3.6508,14.0822-5.3842
				c10.7863-3.9636,21.6556-7.7046,32.5875-11.2464c29.7664-9.644,60.0309-17.7438,90.6283-24.2861
				c0.4088,1.927,1.1636,3.8232,2.3243,5.6237c5.3759,8.3384,17.4868,12.986,26.4552,6.9368
				c10.2861-6.938,21.0457-13.1334,32.2466-18.4743c2.5842-1.2324,5.1937-2.4077,7.816-3.556
				c0.4337-0.1827,1.1991-0.5046,1.8151-0.7526c1.3376-0.5385,2.6792-1.0671,4.026-1.5821
				c1.2145-0.4644,2.4347-0.9132,3.6561-1.3588c0.2039-0.0241,0.4072-0.051,0.6112-0.075
				c13.1018-1.5386,26.2369-2.7946,39.3929-3.7661c1.6981-0.1254,3.3967-0.2308,5.0952-0.3456
				c-11.0427,4.3457-22.1011,9.2202-31.8766,15.5703c-2.6038,1.6914-5.2194,3.5433-7.7655,5.5473
				c-4.1565,1.2645-8.3033,2.5586-12.4305,3.9105c-6.1918,2.0281-10.8007,7.4969-10.8007,14.186c0,1.0076,0.1367,2.06,0.39,3.1169
				c-55.088,7.6385-110.8201,21.3683-155.2716,56.205c-11.7437,9.2035-21.6818,19.7889-30.6097,31.729
				c-9.7943,13.0987-18.732,29.0542-21.1936,45.3394c-1.0067,6.6602-0.9706,13.2058,0.2452,19.5401
				c-5.0894,13.2391-7.9973,27.2909-8.0683,42.1158c-0.0492,10.2689,9.0636,20.1021,19.6289,19.6289
				c10.4269-0.467,18.8984-8.1305,19.5646-18.615c11.4919,9.3083,24.0744,17.2433,37.3991,23.6541
				c31.3466,15.0814,65.0018,23.4576,98.7056,31.3646c38.7603,9.0932,77.5535,18.096,116.653,25.6302
				c76.2121,14.6855,154.466,24.376,232.0885,17.1431c70.8723-6.6039,141.7109-25.7788,202.2859-64.1028
				c4.0435-2.5582,8.0209-5.2153,11.9495-7.9432c2.9049-1.1157,5.8049-2.2441,8.6908-3.4095
				c14.7218-5.9455,29.2734-12.3323,43.4749-19.437c14.1604-7.0842,28.1781-15.6401,36.2981-29.779
				c16.3754-28.5136,5.0764-65.5955-18.4266-86.4299c-23.2684-20.6263-54.3754-30.2849-83.2485-40.2651
				c-20.0585-6.9333-40.3167-13.1276-60.7388-18.6506c0.394-9.9219-6.0237-21.6716-16.6587-23.3494
				c-20.5269-3.2383-41.1266-5.5999-61.7699-7.0331c-3.6615-6.7213-10.5797-11.766-18.5519-11.4629
				c-3.7733,0.1435-7.5458,0.3152-11.3176,0.5013c-3.6438-6.1432-10.6716-10.3299-17.8213-10.2738
				c-5.5857,0.0438-11.1722,0.1624-16.7578,0.3429c0.5061-1.2314,0.928-2.5308,1.2568-3.9033
				c1.0967,0.0631,2.1942,0.1191,3.2905,0.1862c5.6125,0.3435,10.4004-5.026,10.4004-10.4004c0-5.97-4.7755-9.9888-10.4004-10.4004
				c-2.6223-0.1919-5.246-0.3693-7.8706-0.536c-3.6411-3.9783-8.8479-5.4395-14.1992-6.7568
				c-2.2239-0.5474-4.4548-1.0649-6.6895-1.5666c0.6545-0.8741,1.2334-1.8015,1.7448-2.7608
				c0.3806,0.0493,0.7616,0.0956,1.1421,0.1452c3.4119,0.4442,1.7488,0.2321,0.9955,0.1299
				c1.1765,0.1597,2.3523,0.3231,3.5281,0.4878c5.5845,0.7825,11.1624,1.6138,16.7324,2.4928
				c7.2279,1.1406,14.4419,2.3671,21.6423,3.6699c2.062,2.4055,4.8523,4.3052,8.1995,5.5034
				c63.575,22.7562,128.708,41.0446,194.7952,54.8914c4.6467,0.9736,9.7081,0.1145,13.6599-2.3689
				c14.5591,6.2908,28.9702,13.1236,43.7399,20.9114c1.7894,1.5298,3.6288,3.0005,5.4919,4.441
				c11.714,10.2816,23.4427,20.5454,35.2332,30.7413c1.9059,1.6482,4.0216,2.9008,6.2336,3.7305
				c13.2324,12.1236,26.3375,24.4245,39.3605,36.7694c5.3247,5.0474,11.6237,5.0163,16.5363,2.3268
				c0.7115,0.6223,1.433,1.2317,2.1395,1.8605c0.7622,0.6785,1.5967,1.2441,2.4731,1.7045
				c1.1082,1.6002,2.1666,3.2297,3.1704,4.8885c2.1044,5.193,3.9379,10.5291,5.5073,16.0115
				c0.8533,2.9805,2.369,5.2158,4.2542,6.8118c1.3342,7.017,2.6686,14.0341,4.0029,21.0511
				c0.6152,9.1848-0.0543,18.4939-2.0728,27.6263c-1.9683,8.9051-5.239,17.3334-9.5801,25.1108
				c-2.9243-0.0039-5.8932,0.7177-8.6323,2.2355c-23.1072,12.8034-46.5769,24.946-70.4377,36.2854
				c-11.9448,5.6766-23.9829,11.1568-36.1123,16.4275c-2.7566,1.1979-5.5188,2.3826-8.2837,3.561
				c-1.4338,0.611-2.8027,1.1829-5.853,2.4454c-6.662,2.7573-13.3505,5.451-20.0654,8.0768
				c-48.5503,18.9849-98.4954,34.5077-149.4563,45.5562c-12.8479,2.7854-25.7562,5.2827-38.7212,7.4593
				c-5.8912,0.9891-11.793,1.9159-17.7039,2.7789c-1.7733,0.2589-3.5483,0.5056-5.3223,0.7595
				c-0.5342,0.0764-0.9399,0.135-1.2446,0.1796c-0.3027,0.038-0.6997,0.0886-1.2212,0.1557
				c-3.5532,0.4572-7.1074,0.9041-10.6656,1.3202c-25.5363,2.9863-51.2158,4.7567-76.9235,5.1985
				c-58.2793,1.0017-116.3948-4.756-174.2378-11.237c-46.9866-5.2645-93.9542-10.6985-140.9192-16.1529
				c-8.7812-2.9265-17.5106-6.0028-26.1585-9.2886c-14.452-5.491-23.9568-9.5113-38.5842-16.7011
				c-13.4016-6.5872-26.467-13.8725-39.0112-21.9788c-6.7857-4.385-13.4122-9.014-19.8727-13.8652
				c-0.0837-0.0629-2.0409-1.5679-2.5706-1.967c-1.5314-1.2013-3.0571-2.41-4.569-3.6356c-3.086-2.5016-6.1324-5.0522-9.1401-7.6475
				c-12.0491-10.3967-23.469-21.5111-34.3472-33.1238c-2.5126-2.6823-4.989-5.3977-7.4454-8.1311
				c-4.2233-6.0138-8.4875-11.9983-12.8345-17.9238c-12.7216-17.3417-26.032-34.3024-40.7217-50.0299
				c-1.9427-2.08-4.3518-3.4945-6.9467-4.2951C64.2861,234.0793,64.2988,233.834,64.3154,233.586z M139.8645,407.8511
				c-0.041,0.0284-0.0798,0.0609-0.1207,0.0896c-0.8813-0.523-1.7579-1.0537-2.6309-1.5903
				c0.1012-0.0836,0.2105-0.1631,0.3101-0.2476C138.2314,406.6938,139.0518,407.2667,139.8645,407.8511z M1082.1444,769.2639
				c-0.0251,0.0254-0.0496,0.0519-0.0747,0.0771c-5.6873-4.0327-12.9209-2.8054-18.2742,1.5975
				c-9.4283,7.7544-17.2856,17.9059-25.54,26.8949c-1.4995,0.3606-2.9976,0.8995-4.4697,1.6296
				c-35.0422,17.3795-69.9686,34.9788-104.9241,52.5304c-16.7318,8.4014-33.5438,16.6501-50.5635,24.4552
				c-3.5458,1.6262-6.9376,3.1628-10.2479,4.6399c-43.4862,16.178-88.1119,29.2925-133.4473,39.1675
				c-14.8646,3.2378-29.8146,6.0903-44.7795,8.8231c-7.6216,1.3917-15.2599,2.6921-22.9127,3.9003
				c-3.5312,0.5574-7.0657,1.0952-10.6029,1.6132c-1.7684,0.259-3.5376,0.5131-5.3075,0.7622
				c-1.1799,0.1661-2.36,0.33-3.5405,0.4916c1.1792-0.1538,0.7817-0.1008-1.1921,0.1589c-3.0186,0.3992-6.0212,1.4041-8.5708,2.9885
				c-4.7612,0.3447-9.5928,0.6538-14.5327,0.924c-71.4832,3.9094-141.2576-2.3501-210.1775-18.5699
				c-56.879-13.386-111.1473-33.0967-163.438-57.947c-30.9042-18.116-61.8083-36.2317-92.7125-54.3477
				c-3.007-1.7627-6.3336-2.5642-9.6213-2.5071c-29.5806-18.9373-58.1456-39.4868-85.3934-61.3794
				c-6.4293-5.1658-12.7841-10.4222-19.0779-15.752c-1.9146-1.6213-4.0232-2.2295-6.0256-2.1271
				c-0.5193-34.9442-0.6136-69.9032-0.7615-104.818c-0.1711-40.4087,0.0886-80.8159,0.6269-121.2203
				c1.5751-1.9113,2.6191-4.4267,2.7617-7.5626c2.418-53.1549,3.7552-106.2203,2.9346-159.3754
				c0.0985-0.1744,0.2004-0.3466,0.2901-0.5261c1.8752,1.5938,4.2994,2.2484,6.6368,2.0519
				c1.8102,5.6576,3.8337,11.2544,6.105,16.7704c9.5749,23.2531,22.5499,44.3713,40.9897,61.6907
				c17.2145,16.1685,37.6904,28.9414,59.259,38.4376c24.6566,10.8557,50.2805,18.8707,76.0833,26.4858
				c5.79,1.7087,11.8502-0.0446,16.1364-3.8654c11.4583,2.0806,22.9733,3.8524,34.5274,5.3148
				c1.9993,1.4484,4.2706,2.5939,6.79,3.342c6.3963,1.8994,12.8143,3.7226,19.248,5.4865
				c1.1938,4.0004,3.9401,7.3344,7.6523,10.0711c21.3551,15.7433,47.8942,21.9266,73.4872,26.8454
				c27.7031,5.3244,55.6448,9.4597,83.6841,12.5504c54.3135,5.9868,109.1105,7.553,163.6795,4.7419
				c56.0271-2.886,111.8971-10.3203,166.7429-22.1158c52.5989-11.3123,104.8921-26.2527,154.4304-47.394
				c26.5266-11.3207,52.1765-24.9235,75.3759-42.1421c16.4272-12.1923,33.1244-26.1673,42.6444-44.0004
				c4.6758-3.5789,9.2944-7.2402,13.7832-11.0499c0.0477,3.2824,0.1035,6.5647,0.1719,9.8468
				C1089.6901,514.3776,1086.8103,641.8434,1082.1444,769.2639z"/>
		</g>
	</g>
</g>
<g id="Layer_2">
	<g>
		<g>
			<g id="XMLID_1_">
				<path d="M1112.5029,790.9569c-0.87,66.55-1.66,133.09-2.58,199.63c-3.3101,237.83-6.02,475.67-7.9,713.52
					c-1.08,135.29-1.76,270.5801-2.1801,405.8799c-46.3099,60.5801-103.0199,113.74-168.59,152.9502
					c-72.45,43.3398-154.84,66.3799-238.27,76.4299c-86.15,10.3699-174.34,6.9399-259.6599-8.6401
					c-74.64-13.6299-147.9-36.8499-215.4601-71.5999c-33.5699-17.26-65.79-37.3401-95.72-60.3601
					c-29.71-22.8499-56.47-49.0598-82.13-76.3098c-5.87-6.2402-11.56-12.6101-17.09-19.1301c2.53-0.8999,4.53-3.1001,4.5-6.6101
					c-0.92-115.9099-2.23-231.8198-3.64-347.73c-1.44-118.8599-2.98-237.7299-4.38-356.5898
					c-1.37-117.29-2.52-234.5701-3.64-351.8601c-0.83-87.0399-1.75-174.09-2.15-261.1399
					c59.08,57.6499,125.47,107.22,199.6,144.0599c72.09,35.8199,149.93,58.5,229.5799,69.48c43.6699,6.02,87.69,9.05,131.76,9.98
					c39.9,0.8401,79.37-0.5499,118.95-5.9199c81.72-11.0901,162.21-34.86,236.89-69.85
					C998.9629,895.007,1065.9729,851.7369,1112.5029,790.9569z"/>
				<path class="st0" d="M704.5829,105.5769c6.1101,4.55,5.6901,13.62,2.6201,20.24c-2.41,1.12-4.2001,3.81-4.4501,6.37
					c-6.92,7.17-17.28,10.79-26.4399,13.88c-25.49,8.63-51.99,14.51-78.76,17.37c-53,5.66-107.0201,0.2401-157.7101-16.31
					c-5.9099-1.93-11.76-4-17.5599-6.23c-5.61-2.15-11.66-4.37-16.36-8.24c-4.26-3.52-6.02-7.85-6.02-12.35
					c0-4.71,1.9299-9.6,4.9299-13.91c6.4901-9.3,16.2001-14.39,26.4301-18.54c10.91-4.42,22.08-8.2,33.41-11.4
					c43.7-12.32,89.61-15.74,134.74-11.29c22.16,2.19,43.95,6.87,64.89,14.43c9.23,3.33,17.88,7.42,26.58,11.92
					c3.89,2.01,7.84,4.06,11.63,6.35C701.5129,100.3769,701.8629,103.5469,704.5829,105.5769z"/>
				<path class="st1" d="M708.693,221.0469c0.08,0.91,0.3199,1.71,0.6799,2.41c-21.88,9.9-44.04,19.45-67.09,26.27
					c-20.38,6.03-41.25,9.34-62.5,9.97c-21.63,0.64-43.39-0.87-64.87-3.4c-21.5601-2.55-43.14-6.52-63.8201-13.21
					c-17.97-5.82-35.5599-13.22-50.12-25.22c0.15-0.53,0.2101-1.1201,0.2001-1.77c-0.37-16.69-1.62-33.4-2.36-50.08
					c-0.3501-7.94-0.55-15.88-0.6901-23.81c6.47,5.25,14.85,8.37,22.53,11.27c55.22,20.85,115.56,28.44,174.26,22.57
					c32.0499-3.2,65.04-9.64,94.96-21.88c7.0701-2.89,14.09-6.62,19.74-11.7C706.5929,168.5069,706.323,194.7069,708.693,221.0469z"
					/>
				<path class="st0" d="M957.053,245.6169c2.5299,24.48-20.62,36.95-39.66,45.81c-16.33,7.61-33.4399,13.56-50.59,19.02
					c-42.1801,13.42-85.48,23.55-128.9501,31.8c-92.6599,17.59-188.11,20.79-281.89,10.61c-43.84-4.76-87.24-13.02-129.9199-24.06
					c-10.42-2.69-20.79-5.54-31.13-8.53c-7.87-2.28-15.67-4.41-23.08-7.94c-17.9-8.54-35.01-19.3-51.14-30.81
					c-15.62-11.15-31.25-26.83-28.88-47.82c1.41-12.51,10.56-21.91,19.73-29.64c8.35-7.03,17.3199-13.3799,26.61-19.12
					c36.87-22.79,78.54-33.66,120.35-43.49c10.8101-2.55,21.65-4.98,32.48-7.44c0.14,0.24,0.28,0.47,0.42,0.7
					c-0.92,10.09-1.5701,20.2-2.1,30.32c-0.88,16.91-1.3301,34.18,0.0299,51.07c0.29,3.65,3.16,5.58,5.9901,5.69
					c11.1799,12.94,26.9199,21.36,42.61,27.84c20.58,8.4901,42.86,12.97,64.8099,16.18c44.5501,6.54,90.64,8.91,134.5701-2.6
					c28.7799-7.55,56.2-19.75,83.22-32.02c4.3099-1.95,3.5599-6.66,0.73-9.13c0.02-0.3199,0.01-0.66-0.03-1.0099
					c-2.71-26.36-3.4399-53.08-2.33-79.65c52.38,6.9,104.1799,20.72,153.25,40.11c12.03,4.76,23.87,10,35.77,15.09
					c7.39,3.16,14.9,6.25,21.9199,10.2C943.3829,214.4069,955.323,228.8669,957.053,245.6169z"/>
				<path class="st2" d="M1075.0929,183.7169c28.12,30.43,50.4801,70.73,39.74,113.2c-4.3099,17.02-12.1699,32.45-24.5499,45.01
					c-13.34,13.53-30.01,22.99-45.99,33.0099c-36.77,23.03-74.23,46.22-114.53,62.64c-19.72,8.04-39.97,13.08-60.73,17.65
					c-23.35,5.15-46.8201,9.75-70.4,13.76c-93.48,15.92-188.7,22.56-283.46,17.84c-94.0801-4.68-187.61-20.89-277.17-50.29
					c-22.26-7.31-44.27-15.42-65.94-24.33c-19.02-7.83-37.47-16.32-54.77-27.53c-33.96-22.02-65.36-51.95-83.55-88.53
					c-5.5-11.06-9.4-22.77-11.23-34.83c-1.08-7.13-1.43-14.38-0.97-21.7c1.34-21.1,9.23-41.42,20.23-59.3
					c23.28-37.85,60.92-64.24,100.16-83.58c40.6-20.02,84.38-34.12,127.93-46.13c43.6801-12.04,88.1901-21.14,133.0801-27.27
					c90.1-12.3,181.99-12.74,272.23-1.68c53.78,6.59,107.2999,17.2,159.6599,31.78c0.8101,1.51,2.2001,2.77,4.26,3.4301
					c44.64,14.39,88.9601,31.16,130.9601,52.11C1008.6229,128.2269,1045.673,151.8769,1075.0929,183.7169z M963.283,274.5969
					c14.4399-21.07,6.25-48.9-9.9-66.37c-10.29-11.13-23.48-17.17-37.13-23.2c-25.88-11.41-51.6899-22.73-78.61-31.52
					c-28.04-9.16-56.7-16.48-85.7-21.88c-10.5701-1.96-21.1901-3.65-31.8501-5.07c1.5901-5.09,1.88-10.39,0.8501-15.36
					c0.0599-0.64,0.12-1.28,0.1799-1.92c0.12-1.27-0.58-2.16-1.54-2.62c-1.7599-4.46-4.73-8.46-8.8999-11.5
					c-1.7201-1.25-3.41-1.39-4.8401-0.83c-2.6699-2.67-5.48-5.22-8.5299-7.6c-7.51-5.82-16.14-10.25-24.77-14.17
					c-19.91-9.04-41.6-14.31-63.17-17.55c-49.53-7.46-101.3-3.64-149.47,9.97c-12.3101,3.48-24.38,7.7-36.17,12.66
					c-11.62,4.89-21.7899,11.47-29.2,21.91c-6.04,8.5-9.0601,19.28-5.85,29.25c-45.4701,6.5-91.78,13.53-133.78,32.92
					c-20.37,9.41-40.06,21.83-56.59,37.06c-9.74,8.97-17.52,20.05-19.12,33.46c-1.43,12.02,2.14,24.3199,8.43,34.54
					c10.47,17.02,29.12,28.23,45.63,38.65c16.38,10.33,33.15,20,51.79,25.53c43.1299,12.8,86.97,23.17,131.45,30.01
					c51.4401,7.91,103.4501,11.27,155.48,10.73c48.1001-0.49,95.9-3.9,143.3501-11.81c45.6899-7.61,91.12-17.59,135.6-30.5
					c19.9-5.77,39.7-12.14,58.89-20C929.1229,301.4769,951.0829,292.3769,963.283,274.5969z"/>
				<path class="st3" d="M1122.673,320.1069c-5.4,148.7-7.88,297.51-9.86,446.31c-39.4501,60.66-101.9401,104.2001-165.3,136.92
					c-71.84,37.1-150.27,62.3199-229.86,76.13c-80.15,13.91-162.4401,12.26-243.12,3.74c-79.09-8.35-157.35-26.53-230.26-58.74
					c-75.72-33.4401-144.5-80.9-207.86-133.8c-7.57-6.3199-15.29-12.4199-22.84-18.74c-0.14-31.84-0.2-63.6799-0.17-95.52
					c0.13-122.1499,1.31-244.3699,4.18-366.4799c0.1-4.34,0.2-8.69,0.3-13.03c9.9,22.4,25.35,42.69,42.21,59.92
					c14.97,15.3,31.82,28.9,49.78,40.54c18.1,11.74,37.48,20.44,57.36,28.65c90.0099,37.15,185.41,60,282.1299,70.42
					c97.4301,10.49,196.0401,8.21,293.1601-4.23c48.74-6.24,97.15-14.92,145.03-25.96c43.65-10.06,83.49-30.26,121.97-52.7401
					c19.03-11.12,37.6899-22.85,56.35-34.58c16.01-10.08,31.5601-21.01,43.29-36.07
					C1114.5929,335.8669,1119.1029,328.2069,1122.673,320.1069z"/>
			</g>
		</g>
	</g>
</g>
<g id="Layer_4">
	<path class="st4" d="M709.1882,1333.9266c-2.4065-10.7733-11.6714-20.1464-19.9648-26.8745
		c-16.647-13.5049-37.0833-20.8788-57.4058-26.932c-13.4945-4.0193-26.9177-8.202-40.6177-11.4629
		c-7.0222-1.6714-14.016-3.4253-21.1248-4.6943c-6.3649-1.1364-14.2317-3.4692-20.1174,0.1169
		c-2.4957,1.5208-2.9719,4.2191-1.8999,6.7836c2.0582,4.924,7.1475,7.1506,11.6271,9.5184
		c5.3893,2.8488,11.0178,5.2516,16.6259,7.6273c1.6718,0.7081,3.3433,1.4034,5.0148,2.1021
		c-1.6243,14.0437-2.736,28.3785-2.5011,42.467c0.1307,7.8466-0.0349,15.8635,0.6786,23.6782
		c0.5728,6.2747,0.5084,12.6357,1.5088,18.845c-10.01,2.1953-20.0902,4.0754-30.2295,5.605
		c-7.5154,1.1337-11.8596,10.318-10.1083,17.1328c2.0581,8.0082,9.5895,11.2079,17.1328,10.1082
		c23.5229-3.4297,46.7578-8.6334,69.4619-15.6876c11.4922-3.5708,22.8292-7.6144,34.0043-12.0779
		c10.6038-4.2355,22.2346-8.1598,31.8766-14.3756C704.095,1358.7501,712.2332,1347.5577,709.1882,1333.9266z M679.6091,1340.2966
		c-0.7935,0.5507-1.6332,1.0508-2.4583,1.5309c-8.2867,4.8217-17.6267,8.4189-26.4724,11.978
		c-9.7316,3.9155-19.6464,7.407-29.64,10.5909c-8.0233,2.5562-16.1191,4.8657-24.269,6.9607
		c1.0559-3.9659,1.8944-7.9961,2.8678-12.0338c1.8903-7.8419,3.2059-15.911,4.6154-23.8547
		c2.0265-11.421,3.3271-23.0986,4.1561-34.752c17.3661,6.2085,35.6495,11.6545,50.5406,20.016
		c8.0258,4.5066,12.6188,7.7836,18.4382,14.5063c1.9871,2.2957,1.5099,1.6476,2.9418,3.9805
		c0.0668,0.1088,0.1104,0.1904,0.1489,0.2659C680.2451,1339.7037,679.7744,1340.1256,679.6091,1340.2966z"/>
	<path class="st4" d="M691.3884,1412.5886c-8.9806,0.2527-14.7694,6.5488-15.6843,15.1708
		c-1.7247,16.2581-2.7689,32.5774-3.1057,48.9188c-10.2294-1.4697-21.3176-0.7047-31.4736-1.0526
		c-11.4734-0.3928-22.9432-0.8818-34.4083-1.4672c-11.1362-0.5687-22.2676-1.2283-33.3932-1.9778
		c-6.5342-0.4402-14.5757-2.1676-20.5635,1.2635c-3.9257,2.2495-10.6707,7.576-8.5966,12.9633
		c2.1425,5.5643,6.528,10.1555,12.3059,11.9948c5.6445,1.7968,12.4608,1.5701,18.3492,2.0433
		c11.1224,0.8939,22.2522,1.6975,33.3876,2.4103c10.8069,0.6917,21.6191,1.2979,32.4354,1.8187
		c10.5187,0.5065,21.9451,2.007,32.5552,0.8729c0.4182,5.1411,0.9874,10.2739,1.6422,15.4556
		c1.2697,10.0466,1.9652,21.3815,7.0754,30.3617c4.0652,7.1434,14.4545,5.5249,16.9911-1.934
		c3.3319-9.797,2.1873-21.3732,2.5746-31.5828c0.3702-9.7616,0.7286-19.4689,0.8822-29.2374
		c0.3173-20.1744,1.7518-40.3109,4.1971-60.3378C707.5409,1420.2345,699.1208,1412.3711,691.3884,1412.5886z"/>
	<path class="st4" d="M691.9609,1582.4368c-8.9806,0.2527-14.7695,6.5488-15.6843,15.1709
		c-1.7249,16.2581-2.7689,32.5774-3.1057,48.9187c-10.2295-1.4697-21.3177-0.7046-31.4738-1.0525
		c-11.4733-0.3928-22.9431-0.8818-34.4083-1.4673c-11.1361-0.5686-22.2676-1.2283-33.3931-1.9775
		c-6.5342-0.4402-14.5757-2.1677-20.5636,1.2634c-3.9257,2.2495-10.6705,7.5759-8.5964,12.9634
		c2.1425,5.5642,6.5278,10.1553,12.3059,11.9946c5.6445,1.7969,12.4607,1.5701,18.3492,2.0432
		c11.1223,0.894,22.2521,1.6975,33.3876,2.4104c10.8069,0.6917,21.619,1.2979,32.4354,1.8186
		c10.5187,0.5066,21.9451,2.0071,32.5552,0.873c0.4182,5.1411,0.9874,10.2739,1.6422,15.4556
		c1.2695,10.0466,1.9651,21.3813,7.0753,30.3616c4.0652,7.1436,14.4546,5.5249,16.9912-1.9338
		c3.3319-9.7969,2.1871-21.3733,2.5745-31.5828c0.3704-9.7617,0.7288-19.469,0.8823-29.2375
		c0.3173-20.1743,1.7518-40.3108,4.1971-60.3376C708.1134,1590.0828,699.6934,1582.2195,691.9609,1582.4368z"/>
	<path class="st4" d="M695.4427,1746.1494c-3.8329,0.1077-7.4673,1.5125-10.2946,3.8318
		c-9.256-0.8762-18.8112-0.4138-28.0195-0.5881c-11.2737-0.2131-22.5475-0.4265-33.8214-0.6399
		c-10.9175-0.2068-21.9154-0.804-32.8291-0.4636c-5.3037,0.1653-10.6344,0.2598-15.9307,0.5803
		c-5.457,0.3301-12.2043,0.7175-17.4844,2.9302c-4.8453,0.1897-9.4803,2.4512-11.8112,7.1851
		c-4.3103,8.7537-4.3816,19.6753-5.4016,29.3359c-0.8678,8.2188-1.6313,16.4482-2.2883,24.6863
		c-0.6539,8.1978-1.5557,16.5205-1.0146,24.7524c0.6119,9.3103,5.922,24.6255,18.1633,19.5269
		c9.4447-3.9336,10.6023-15.1182,11.9042-23.9832c1.1066-7.5359,1.5446-15.166,2.3048-22.7441
		c0.7268-7.2468,1.536-14.4858,2.4275-21.7141c0.4979-4.0364,1.2903-8.1738,1.8108-12.3123
		c5.2527,0.6501,10.5591,0.9912,15.8307,1.4666c8.3234,0.7512,16.7284,0.9365,25.1094,1.1423
		c-1.1949,11.3894-1.891,22.8218-2.0055,34.2769c-0.0619,6.1985,0.2363,12.3845,0.8859,18.5498
		c0.8983,8.5278,2.0304,16.1743,9.5145,21.4661c4.1096,2.9055,10.0273,1.6357,13.5281-1.5173
		c5.8094-5.2332,6.1025-13.1296,6.5248-20.4316c0.3566-6.1672,0.4935-12.3511,0.7209-18.5239
		c0.4038-10.9624,1.3395-21.8904,2.7308-32.7681c3.2061,0.1116,6.4121,0.2229,9.618,0.3345
		c7.8447,0.2727,15.8735,0.9763,23.819,0.9844c-0.0708,8.8049-0.1189,17.6104-0.0011,26.4082
		c0.1007,7.5364,0.2839,15.2319,0.9849,22.7356c0.7577,8.1118,0.7618,17.4795,4.9192,24.6826
		c3.6217,6.2754,12.7438,6.4272,16.5721,0.2756c4.3912-7.0554,4.7485-16.4233,5.7377-24.5051
		c0.9161-7.4858,1.389-15.1562,1.7407-22.6902c0.7213-15.4509,0.9371-30.9421,1.4022-46.4028
		C711.0359,1753.8516,703.7991,1745.9146,695.4427,1746.1494z"/>
	<path class="st4" d="M710.6898,1937.6296c-0.6708-3.6055-1.6737-8.1702-3.3732-12.3374c0.4476-1.8384,0.5911-3.7061,0.387-5.4431
		c-0.9545-8.1257-7.2231-12.7646-15.0012-13.6946c-10.7324-1.283-21.9468-0.2783-32.7502-0.1506
		c-10.9211,0.1296-21.8411,0.3311-32.7614,0.5186c-21.8412,0.375-43.6827,0.7502-65.524,1.1252
		c-7.9369,0.1362-15.6783,6.5354-15.442,14.9365c0.2283,8.1167,6.4222,15.4492,14.9365,15.4421
		c15.3048-0.0132,30.6097-0.0261,45.9147-0.0391c-1.175,10.2371-1.1591,21.1919,0.52,31.7454
		c-2.8407,1.5725-5.5992,3.2793-8.2627,4.7886c-6.6038,3.7424-13.1354,7.6235-19.4017,11.9102
		c-12.7168,8.6995-25.7332,17.8438-35.5173,29.8801c-3.8464,4.7319-5.236,10.833-1.2238,16.0457
		c3.8086,4.9482,10.1395,6.2122,15.7279,3.4133c12.9419-6.4812,24.7402-15.0745,37.1559-22.4907
		c6.2521-3.7346,12.4661-7.5288,18.8252-11.0811c1.2819-0.7158,2.5944-1.4014,3.9171-2.0801
		c5.2876,7.9016,12.4576,14.4446,21.9038,18.7246c16.2728,7.373,33.9388,5.4062,47.4058-6.7285
		c12.0027-10.8149,18.9404-28.0032,22.021-43.53C712.1777,1958.3494,712.608,1947.9429,710.6898,1937.6296z M687.1807,1940.4138
		c-0.6152,7.5132-1.5623,14.8936-3.391,22.2358c-1.9413,7.7949-4.5822,14.752-8.843,21.4932
		c-0.5446,0.864-1.1116,1.7131-1.7013,2.5471c-0.3447,0.4631-0.5863,0.7898-0.7415,1.0015
		c-0.9269,1.0796-1.9818,2.0298-2.9535,3.0657c-1.3339,1.4211-3.6487,2.8015-5.6852,3.3516
		c-0.5573,0.1614-1.1243,0.283-1.6942,0.3918c-0.1428,0.0081-0.2922,0.0166-0.4707,0.0273
		c-0.825-0.0361-5.7158-0.8887-2.8018-0.0906c-1.3225-0.3623-2.5979-0.7139-3.9021-1.1414c-0.1604-0.0627-0.2948-0.115-0.425-0.1658
		c-0.7876-0.4009-1.5624-0.825-2.3196-1.2805c-0.4332-0.2598-3.6661-2.6968-3.2032-2.2048
		c-0.9052-0.8081-1.7834-1.6482-2.6191-2.5266c-0.3589-0.3774-2.843-3.6067-2.5337-3.0198
		c-0.7812-1.2012-1.5172-2.4263-2.1733-3.7029c-2.692-5.2363-4.0824-13.4568-4.3483-19.1353
		c-0.3652-7.7913,0.7283-15.5486,0.7478-23.301c7.4307-0.0078,14.8613-0.0208,22.2921-0.0667
		c8.9601-0.0549,17.967,0.2041,26.9093-0.3467C687.2972,1938.5359,687.2557,1939.498,687.1807,1940.4138z"/>
	<path class="st4" d="M708.142,2183.0847c-8.7386-25.6919-32.371-45.4153-56.2045-56.8491
		c-4.032-1.9346-8.129-3.7139-12.2722-5.3618c14.6752-5.8369,28.601-12.9019,41.7904-21.6428
		c6.8823-4.561,14.118-9.3047,19.9973-15.1326c2.979-2.9529,6.1257-6.3804,7.7585-10.25
		c2.0654-4.8945,2.0912-12.2725-3.4387-15.1431c-8.2992-4.3081-16.4474,0.5891-23.632,4.9307
		c-6.0933,3.6821-12.0532,7.5608-18.2858,11.0127c-6.2483,3.4609-12.6589,6.6304-19.1964,9.5073
		c-7.5194,3.3088-10.5875,4.5911-17.5291,7.0361c-13.4608,4.7417-27.3442,8.2791-41.4386,10.5249
		c-1.6276,0.2595-3.2578,0.5024-4.8905,0.7268c-0.1284,0.0176-3.0723,0.3584-3.1782,0.387
		c-3.4462,0.3479-6.8947,0.6521-10.3535,0.8542c-7.1163,0.4163-14.2632,0.4966-21.3898,0.3887
		c-8.4971-0.1292-15.7177,6.2114-16.97,14.4868c-1.1559,7.6367,3.5424,17.3347,11.8866,18.8865
		c2.548,0.4739,5.0961,0.9478,7.6439,1.4216c3.6366,0.6763,7.5021,0.4248,10.9475-0.7749
		c3.0306,3.2249,7.1865,5.3064,11.9856,5.1641c5.9432-0.1763,11.8801-0.0493,17.8057,0.4583
		c2.3563,0.2017,4.7054,0.4722,7.0497,0.7827c0.5271,0.0928,2.3987,0.3848,2.9082,0.4785c1.5239,0.2808,3.0442,0.583,4.5591,0.9084
		c5.8091,1.2476,11.5455,2.8281,17.1771,4.7214c2.6936,0.906,5.364,1.8809,8.0054,2.9299c1.0315,0.4094,2.0526,0.8423,3.0753,1.272
		c-0.0958-0.0176,2.5601,1.1567,2.776,1.26c10.7095,5.106,20.8514,11.396,30.7504,17.8999
		c10.0269,6.5881,18.485,13.4446,28.3851,19.7183C700.5931,2197.9509,710.8842,2191.1462,708.142,2183.0847z"/>
	<path class="st4" d="M728.6627,1113.1554c0.2075-1.2198-0.0928-2.496-0.9534-3.4327c-0.0673-0.7991-0.2188-1.6108-0.4728-2.4316
		c-0.4523-1.462-1.4342-2.4233-2.5945-2.942c-0.153-0.4459-0.3209-0.8907-0.5199-1.3328c-0.3553-0.7887-1.0066-1.0405-1.6497-0.9445
		c-1.979-2.295-5.016-3.8094-8.2117-4.3015c-7.7991-1.2008-16.26-0.3303-24.1377-0.3313
		c-8.9583-0.001-17.9164-0.0022-26.8745-0.0032c-24.0199-0.0029-48.0397-0.0291-72.0596-0.0514
		c-13.5579-1.1361-27.2119-2.0979-40.5947-4.4833c-6.5819-1.1731-13.0386,1.2137-14.9963,7.8679
		c-2.347,1.9067-4.1957,4.4775-5.1941,7.647c-10.208,32.4045-6.1251,70.5698,12.92,99.0109
		c9.8361,14.6884,23.9471,26.9904,42.6715,26.4081c17.0529-0.5302,32.5513-9.4799,43.1027-22.6027
		c5.3947-6.7094,9.2844-14.277,12.2948-22.2379c10.124,15.9888,24.131,28.6814,44.9028,29.9353
		c33.4594,2.0203,48.0681-33.2134,49.854-61.1073C737.1469,1142.2511,734.7057,1127.291,728.6627,1113.1554z M718.0697,1126.0314
		c0.0608,1.5905,0.7345,2.7655,1.6931,3.5389c0.0216,1.4553,0.0142,2.9121-0.0092,4.3685c-1.0891-3.5735-2.584-7.0497-4.6764-9.9597
		c0.9814-0.1565,1.9568-0.4154,2.905-0.7689C718.0095,1124.1506,718.0338,1125.0908,718.0697,1126.0314z M671.1168,1188.8188
		c-11.0249-9.0208-16.3577-23.9868-21.1666-36.8954c-0.295-0.7917-0.6366-1.5529-1.0164-2.2821
		c0.9667-3.7976-0.2743-8.2527-3.6335-10.5536c-0.0421-0.2892-0.089-0.5801-0.1298-0.8688
		c-0.3647-2.5815-3.2874-4.1488-5.6086-4.2703c-5.8499-0.3062-10.6476,5.6638-8.7423,11.155
		c-2.0389,1.4747-3.6249,3.5154-4.1747,5.9229c-2.9642,12.9786-5.7816,26.6816-12.6125,38.2742
		c-5.6549,9.5969-13.6798,16.696-24.2424,18.6302c-3.4873,0.6385-8.0068,0.1583-11.1016-1.4752
		c-4.8999-2.5863-8.6741-7.3538-11.4365-11.8071c-6.9983-11.2827-10.5198-22.1853-12.1936-35.6727
		c0.0062,0.0516-0.0729-0.7817-0.1222-1.2654c-0.0231-0.5099-0.0997-1.8319-0.1094-2.0331
		c-0.1027-2.1311-0.1395-4.2644-0.1035-6.3977c0.0316-1.873,0.1454-3.7327,0.3369-5.5962c0.082-0.7988,0.1788-1.5962,0.2812-2.3926
		c0.0215-0.1675,0.1904-1.3542,0.2667-1.9325c0.0845-0.4584,0.1992-1.1019,0.2009-1.1099c0.2188-1.0376,0.4409-2.0743,0.6871-3.1058
		c0.432-1.8093,0.92-3.605,1.4576-5.3857c1.1606-3.8442,2.5881-7.583,4.2009-11.2588c0.3005-0.6846,0.5238-1.3905,0.6855-2.1084
		c24.4935,0.4182,49.0471,2.2421,73.5183,2.7617c14.8607,0.3154,29.6602,0.1399,44.5173-0.288
		c7.2625-0.2091,14.524-0.4501,21.7844-0.7225c0.1233-0.0046,0.2517-0.0054,0.3757-0.0095
		c0.2429,0.4561,0.5093,0.9098,0.8281,1.3574c1.7937,2.5188,4.1741,3.9126,6.7361,4.4268
		c0.7495,6.2076,2.662,12.2238,2.9668,18.5535c0.3527,7.3235,0.088,14.7075-1.5386,21.8741
		c-2.5627,11.2919-7.9084,21.6432-15.6439,30.0747C688.1261,1197.8887,678.4655,1194.8317,671.1168,1188.8188z"/>
</g>
<g id="Layer_3">
	<path d="M752.7072,712.019c-0.8878-6.5959-0.9663-13.532-1.2615-20.0702c1.5125-2.7275,0.2312-7.0819-3.8552-7.1061
		c-66.5444-0.3926-133.1158-1.1106-199.6603-0.3728c-18.7867,0.2083-37.943-0.236-56.6201,1.9915
		c-1.4015,0.1672-1.6423,1.6523-0.7903,2.3479c-0.431,0.4565-0.7223,1.0608-0.7482,1.7983
		c-0.4396,12.5256,0.2839,24.9762-0.7332,37.5139c-0.2325,2.865,2.2195,4.127,4.4651,3.7698
		c32.8692,1.8925,65.8683,0.5446,98.7671,0.0129c33.4438-0.5404,66.8853-1.1659,100.3271-1.8188
		c18.8733-0.3684,37.7468-0.7371,56.6201-1.1055c1.4194-0.0278,2.4812-0.5928,3.2114-1.4194
		C752.5056,722.3799,752.6053,717.1995,752.7072,712.019z"/>
	<path d="M625.9742,575.8781c-6.6062,0.8077-13.5427,0.8021-20.084,1.0179c-2.7091-1.5455-7.0786-0.3171-7.1523,3.7687
		c-1.1998,66.5348-2.7253,133.0925-2.7949,199.6411c-0.0197,18.7878-0.6963,37.9373,1.3044,56.64
		c0.1503,1.4034,1.6323,1.6624,2.3381,0.8187c0.4513,0.4365,1.052,0.7351,1.7892,0.77c12.5193,0.5914,24.9778,0.019,37.5022,1.1881
		c2.8619,0.2673,4.1536-2.1692,3.8237-4.4189c2.291-32.8439,1.3435-65.8569,1.2111-98.7598
		c-0.1346-33.4479-0.3544-66.8944-0.6017-100.3418c-0.1394-18.8763-0.2791-37.7529-0.4185-56.6294
		c-0.0106-1.4197-0.5626-2.4882-1.3804-3.2284C636.3319,576.2052,631.1531,576.0427,625.9742,575.8781z"/>
</g>
<g id="Layer_2_copy">
	<g>
		<g>
			<g>
				<path d="M715.5929,104.8489c-5.7727-6.4987-11.39-12.7769-18.2842-18.1208c-7.5072-5.8192-16.1338-10.2529-24.7614-14.1692
					c-19.913-9.0392-41.6088-14.3102-63.1704-17.5552c-49.5358-7.4551-101.2998-3.6381-149.47,9.9757
					c-12.3092,3.4788-24.3826,7.6965-36.172,12.6584c-11.6229,4.8918-21.7938,11.4732-29.2059,21.9086
					c-6.7258,9.4693-9.702,21.7801-4.5088,32.6362c5.7399,11.999,18.9985,16.9059,30.6309,21.2981
					c55.2173,20.8492,115.5634,28.4412,174.2598,22.5703c32.0558-3.2062,65.0372-9.6462,94.96-21.882
					c12.6066-5.155,25.0708-12.9709,29.8345-26.4241c4.1871-11.8248,1.2687-25.0904-9.0273-32.5905
					c-6.3096-4.5963-12.2371,5.8455-6.092,10.4224c7.4058,5.5158,5.2042,17.6935,0.3507,24.0721
					c-6.7705,8.898-18.4436,12.9752-28.6195,16.4197c-25.4974,8.631-51.9916,14.5079-78.76,17.3655
					c-53.0066,5.6586-107.0237,0.2408-157.7185-16.3096c-5.9017-1.9268-11.7543-4.002-17.5515-6.2233
					c-5.615-2.1516-11.6605-4.3704-16.3639-8.2468c-8.7322-7.1969-6.9641-17.8348-1.087-26.2582
					c6.4861-9.2962,16.201-14.3937,26.4271-18.5361c10.9095-4.4192,22.0798-8.2079,33.408-11.4017
					c43.6982-12.3203,89.612-15.7438,134.744-11.2902c22.1549,2.1862,43.9478,6.8672,64.8926,14.4306
					c9.2247,3.3312,17.8744,7.4183,26.5718,11.9188c8.1194,4.2014,16.5155,8.5521,23.1388,14.9056
					C715.0604,107.4229,716.5402,105.9155,715.5929,104.8489L715.5929,104.8489z"/>
			</g>
		</g>
		<g>
			<g>
				<path d="M393.573,115.3826c-2.2139,16.4706-3.3977,33.056-4.2671,49.6488c-0.8861,16.9104-1.3297,34.1716,0.0292,51.0627
					c0.6022,7.4855,12.0049,7.7155,11.8359,0c-0.3655-16.6895-1.6149-33.4-2.3578-50.0803
					c-0.743-16.6838-0.7983-33.3767-1.0968-50.0704C397.6758,113.6726,393.9006,112.9448,393.573,115.3826L393.573,115.3826z"/>
			</g>
		</g>
		<g>
			<g>
				<path d="M713.6641,108.0632c-8.9182,37.2767-11.4091,74.8331-8.1033,112.9873c0.4385,5.0602,4.0084,9.4043,9.4043,9.4043
					c4.668,0,9.9448-4.3218,9.4043-9.4043c-3.9275-36.9354-4.2823-74.7296-1.7279-111.7723
					C722.9967,104.1263,714.8553,103.084,713.6641,108.0632L713.6641,108.0632z"/>
			</g>
		</g>
		<g>
			<g>
				<path d="M388.7799,215.2191c10.3693,17.9743,29.2971,28.7766,47.8486,36.6503c20.7069,8.7885,43.2065,13.3361,65.38,16.618
					c45.0647,6.67,91.6155,9.1605,136.0773-2.4789c29.0267-7.5987,56.6826-19.9294,83.9292-32.2915
					c4.3229-1.9614,5.3734-8.2292,3.1531-12.0251c-2.5968-4.4396-7.6886-5.1277-12.025-3.1531
					c-23.363,10.6388-46.9762,21.0712-71.6328,28.3775c-20.1451,5.9694-40.725,9.2485-61.7228,9.8986
					c-21.6304,0.6697-43.389-0.8077-64.8715-3.3112c-21.3202-2.4845-42.6532-6.4319-63.1087-13.0241
					c-20.7476-6.6863-40.6536-15.0536-56.9537-29.9468C391.6707,207.6246,386.5226,211.3061,388.7799,215.2191L388.7799,215.2191z"
					/>
			</g>
		</g>
		<g>
			<g>
				<path d="M395.3149,127.8616c-47.5879,6.7814-96.3741,13.5272-140.4161,33.8594c-20.3658,9.402-40.0568,21.825-56.5908,37.0609
					c-9.7304,8.9664-17.5151,20.0401-19.1125,33.4506c-1.4323,12.025,2.1324,24.3252,8.4239,34.5476
					c10.4718,17.0146,29.1271,28.2232,45.6357,38.6444c16.3738,10.3361,33.1498,20.0047,51.7891,25.5339
					c43.1287,12.7939,86.9658,23.1676,131.4458,30.0054c51.4436,7.9083,103.4535,11.276,155.4878,10.7369
					c48.0973-0.4983,95.8993-3.9085,143.3494-11.812c45.6808-7.6088,91.1107-17.5964,135.5953-30.4989
					c19.9053-5.7734,39.7014-12.144,58.8903-20.0056c19.312-7.912,41.2749-17.0104,53.4669-34.788
					c14.4474-21.0662,6.2535-48.8973-9.8961-66.3676c-10.2896-11.131-23.4803-17.1748-37.1307-23.1981
					c-25.8756-11.4177-51.6935-22.7297-78.608-31.5212c-28.0396-9.1591-56.6995-16.486-85.7002-21.8796
					c-13.8356-2.5732-27.755-4.6613-41.7291-6.3215c-4.0288-0.4786-7.5,3.7897-7.5,7.5c0,4.4462,3.4587,7.0267,7.5,7.5
					c55.3237,6.4794,110.1534,20.7369,161.9354,41.2018c12.0331,4.7556,23.8759,9.9957,35.7708,15.0848
					c7.3943,3.1636,14.9049,6.2488,21.9252,10.1978c13.5386,7.6158,25.4755,22.0762,27.2076,38.8268
					c2.531,24.4769-20.6174,36.9482-39.6597,45.8115c-16.3337,7.6026-33.442,13.5543-50.5933,19.0114
					c-42.1816,13.4211-85.4751,23.552-128.9437,31.8051c-92.6688,17.5943-188.1152,20.7881-281.8921,10.6091
					c-43.8423-4.7589-87.2419-13.0184-129.9275-24.0565c-10.4154-2.6933-20.7897-5.5455-31.1243-8.5338
					c-7.8716-2.2761-15.6682-4.405-23.0789-7.9406c-17.9039-8.542-35.0157-19.2991-51.1451-30.8124
					c-15.6201-11.1498-31.2426-26.8231-28.877-47.8195c1.409-12.5056,10.5574-21.9075,19.7292-29.633
					c8.3508-7.0339,17.3208-13.3842,26.6058-19.1228c36.879-22.7931,78.5409-33.6588,120.3572-43.4941
					c12.6979-2.9866,25.4335-5.8137,38.1493-8.7232C399.8928,131.9798,398.4314,127.4175,395.3149,127.8616L395.3149,127.8616z"/>
			</g>
		</g>
		<g>
			<g>
				<path d="M1002.8817,110.505c-82.91-43.7155-172.8541-74.5526-264.9448-91.9185C645.8052,1.2128,551.2543-4.2187,457.7789,3.2973
					c-93.6021,7.5263-186.7758,27.1664-274.7462,60.2303C139.936,79.7257,97.6259,100.2276,63.439,131.642
					C31.143,161.3188,5.9006,203.4411,6.6715,248.4689c0.7151,41.7674,25.0769,79.3791,53.417,108.3455
					c14.9753,15.3062,31.8254,28.9004,49.7876,40.5474c18.0936,11.7323,37.4744,20.4349,57.3596,28.6437
					c90.0051,37.1546,185.4039,60.0001,282.1301,70.419c97.4235,10.494,196.0334,8.2161,293.162-4.2259
					c48.74-6.2435,97.1439-14.9246,145.026-25.9631c43.6471-10.0622,83.4875-30.2607,121.9663-52.7427
					c19.0309-11.1193,37.6938-22.8465,56.3489-34.5804c16.0121-10.0715,31.5657-21.0037,43.2953-36.0648
					c11.7025-15.0263,19.1439-33.3203,22.1322-52.1043c3.4352-21.5938-0.3552-43.1173-8.9196-63.0895
					c-17.5193-40.8554-51.4336-73.2994-87.2451-98.479c-38.2677-26.9065-81.1504-46.6083-124.6663-63.3735
					c-22.2356-8.5666-44.787-15.8685-67.4509-23.1754c-9.0652-2.9226-12.9474,11.3295-3.9253,14.2382
					c44.6447,14.3936,88.9679,31.1631,130.9633,52.1155c38.5681,19.2425,75.618,42.902,105.04,74.7418
					c28.1154,30.4257,50.4835,70.724,39.7406,113.1915c-4.3057,17.021-12.1693,32.4553-24.5519,45.0128
					c-13.343,13.5316-30.005,22.995-45.9879,33.0078c-36.7711,23.0357-74.2319,46.2188-114.5288,62.6426
					c-19.7236,8.0388-39.9764,13.0806-60.7318,17.6553c-23.3507,5.1467-46.8235,9.744-70.3956,13.7578
					c-93.4851,15.9183-188.7078,22.5571-283.4673,17.8398c-94.0747-4.6832-187.6075-20.8954-277.1649-50.2892
					c-22.2661-7.308-44.2687-15.4195-65.9413-24.3354c-19.0233-7.826-37.4745-16.3193-54.771-27.5306
					c-33.9595-22.0119-65.3565-51.9454-83.5451-88.5248c-8.7535-17.6042-13.4532-36.8242-12.2041-56.5331
					c1.3372-21.0992,9.2325-41.4152,20.2297-59.2977c23.2794-37.8545,60.9216-64.2421,100.1643-83.5855
					c40.5983-20.0117,84.3715-34.1184,127.9234-46.1239c43.6843-12.042,88.1899-21.1419,133.0864-27.2711
					c90.0963-12.2998,181.9892-12.7388,272.2299-1.6833c89.8252,11.0046,178.9153,33.2551,263.1376,66.3957
					c20.9921,8.2601,41.8539,16.8251,62.3785,26.1992C1003.1851,115.3871,1005.3895,111.8273,1002.8817,110.505L1002.8817,110.505z"
					/>
			</g>
		</g>
		<g>
			<g>
				<path d="M11.9855,262.688C2.48,385.3239,1.0033,508.8647,0.2615,631.8159C-0.4671,752.5548,0.4607,873.295,1.405,994.03
					c0.9241,118.1735,1.743,236.3464,3.0574,354.5165c1.3204,118.713,2.8199,237.424,4.2452,356.1359
					c1.4025,116.8047,2.7461,233.6108,3.7351,350.4199c0.1175,13.8723,0.2292,27.7444,0.336,41.6167
					c0.0725,9.4219,14.7238,9.4436,14.6484,0c-0.9249-115.9138-2.2385-231.824-3.6417-347.7327
					c-1.4391-118.8643-2.9822-237.7269-4.3791-356.5916c-1.3782-117.2838-2.5281-234.5688-3.6411-351.8552
					c-1.1518-121.3737-2.4897-242.7495-2.3593-364.1305c0.1313-122.1499,1.306-244.3697,4.1803-366.4867
					c0.3707-15.7477,0.7316-31.4823,0.8445-47.2342C18.4608,258.4928,12.3022,258.6001,11.9855,262.688L11.9855,262.688z"/>
			</g>
		</g>
		<g>
			<g>
				<path d="M1121.135,268.6995c-3.9546,60.967-7.7391,121.8199-9.3612,182.8969c-1.6017,60.3123-2.436,120.6424-3.4388,180.9673
					c-1.984,119.3386-3.8077,238.6794-5.5598,358.0216c-3.4916,237.8328-6.4219,475.6732-8.4989,713.5228
					c-1.1851,135.7002-1.8687,271.4023-2.2847,407.1072c-0.062,20.2109,31.3442,20.239,31.4062,0
					c0.7378-240.6514,2.0194-481.3057,4.017-721.9498c1.9742-237.8429,4.7323-475.677,8.0673-713.5045
					c0.9458-67.447,2.3909-134.9036,2.8022-202.3557c0.4166-68.32-1.0009-136.4174-3.0868-204.7056
					C1134.9193,259.5938,1121.7181,259.7097,1121.135,268.6995L1121.135,268.6995z"/>
			</g>
		</g>
		<g>
			<g>
				<path d="M6.3194,772.2159c60.9018,60.7126,129.7035,112.8817,206.898,151.244
					c72.0807,35.8209,149.9225,58.4928,229.5743,69.4733c43.6747,6.0208,87.6892,9.0582,131.7571,9.9825
					c39.9048,0.8369,79.3744-0.5487,118.9548-5.9204c81.7209-11.0911,162.2137-34.859,236.8878-69.8523
					c68.8286-32.2539,136.0881-75.7347,182.6368-136.8811c5.0356-6.6146,9.7642-13.4513,14.1879-20.4896
					c4.7893-7.6199-7.275-14.6296-12.0414-7.0385c-39.2935,62.5817-103.022,107.226-167.6664,140.6067
					c-71.8392,37.0958-150.2645,62.3118-229.8597,76.1285c-80.1467,13.9124-162.4327,12.255-243.1138,3.7368
					c-79.0966-8.3508-157.3521-26.5292-230.2658-58.7355c-75.7137-33.443-144.5006-80.9004-207.8594-133.8069
					c-8.8272-7.371-17.8735-14.4427-26.61-21.9279C7.4223,766.6987,4.0455,769.9491,6.3194,772.2159L6.3194,772.2159z"/>
			</g>
		</g>
		<g>
			<g>
				<path d="M15.0701,2106.1697c9.9134,16.7202,20.6297,32.5386,33.2261,47.3582c12.4136,14.6045,26.1125,27.7766,40.5791,40.3381
					c29.4427,25.5652,61.4113,48.1414,95.2498,67.501c67.6858,38.7244,142.0967,65.6003,218.1984,82.1191
					c85.7235,18.6077,174.8692,25.5364,262.3631,18.8076c87.5779-6.7351,175.6725-27.0239,253.6785-68.3057
					c70.0634-37.0784,131.6167-89.8582,181.9282-150.8923c6.6929-8.1191,13.1764-16.4067,19.5441-24.7827
					c4.5999-6.0508,0.9506-15.7334-5.0449-19.2402c-7.2131-4.219-14.6412-1.0295-19.2402,5.0449
					c-45.7345,60.4077-102.5461,113.7866-167.7858,152.8516c-71.351,42.7244-152.4133,65.5283-234.7859,75.646
					c-85.5449,10.5076-173.2291,7.5195-258.0014-7.8865c-74.1289-13.4717-146.9499-36.3567-214.0702-70.8096
					c-33.5691-17.2312-65.8256-37.28-95.8184-60.1958c-29.4197-22.4778-55.3486-48.7803-82.1173-74.2253
					c-6.7227-6.3901-13.2551-12.9734-19.6208-19.7188C19.229,2095.4099,12.0214,2101.0281,15.0701,2106.1697L15.0701,2106.1697z"/>
			</g>
		</g>
	</g>
</g>
<g id="Layer_6">
	<path d="M625.6321,326.6137c-64.6239,10.1235-131.3598,9.5662-195.943-0.7059c-18.4579-2.9358-36.7698-6.6732-54.8973-11.2236
		c-0.7687-0.193-1.0873,0.9624-0.327,1.1865c64.0708,18.8885,130.7559,27.0982,197.4827,23.6569
		c18.6646-0.9626,37.2661-2.761,55.7781-5.3203C632.6882,333.5213,630.631,325.8306,625.6321,326.6137z"/>
	<path d="M375.3984,165.4358c-11.7269-1.637-24.4677,0.3733-36.0367,2.5924c-12.4326,2.3847-24.6704,5.763-36.5713,10.0781
		c-23.1471,8.393-46.8695,19.9062-64.8186,37.0193c-3.6019,3.4341,1.0851,9.6877,5.368,6.9572
		c20.384-12.996,40.1044-26.1975,62.7867-35.0381c11.0126-4.2921,22.3392-7.7744,33.8643-10.3964
		c11.691-2.6597,23.8605-3.658,35.4076-6.7039C377.4713,169.3978,377.775,165.7676,375.3984,165.4358z"/>
	<path d="M1128.4396,320.4734c-5.0022-5.0023-14.5649-5.6221-19.4895,0c-6.2974,7.1893-12.8499,14.1113-19.6343,20.771
		c-6.8794,9.8131-14.9348,18.8717-23.6716,26.9293c-46.2565,42.66-108.0454,63.2999-166.2583,83.8365
		c-2.2052,0.778-4.4224,1.1086-6.5974,1.0712c-73.6873,22.6653-150.9807,32.6379-227.8728,35.2783
		c-25.884,0.8889-51.7932,1.1155-77.6909,0.9565c-13.2505-0.0813-26.5557,0.9316-39.8195,1.3022
		c-6.4681,0.1807-12.9369,0.3458-19.4056,0.5c-6.8599,0.1635-13.5173,1.2188-20.3551,1.6846
		c-0.3024,0.0206-0.5524,0.1674-0.7391,0.3724c-18.5044-1.8541-36.978-3.9977-55.408-6.3466
		c-19.5906-2.4968-39.1882-4.9496-58.7625-7.5737c-19.6299-2.6315-39.4199-5.4907-59.2473-5.5892
		c-1.1497-0.0057-1.3289,1.6273-0.2659,1.9643c16.8827,5.3531,34.4648,8.6036,51.9254,11.5005
		c17.6405,2.9268,35.2917,5.9198,53.0071,8.3604c35.0731,4.8318,70.2422,9.0275,105.5326,11.9158
		c70.1605,5.7424,140.9026,6.4597,210.6914-3.7598c12.0339-1.7621,24.0149-3.8554,35.9231-6.2888
		c0.8948-0.1138,1.7902-0.2216,2.6842-0.3406c1.0519-0.1502,2.6659-0.3785,3.0524-0.4339c3.2546-0.4664,6.5061-0.955,9.7539-1.4669
		c7.8287-1.2339,15.6355-2.6094,23.4097-4.1503c14.9067-2.9546,29.7024-6.4373,44.3467-10.4982
		c43.9861-12.1975,86.4233-28.9954,128.7798-45.9061c17.8867-9.7825,35.6526-19.7841,53.2852-30.0141
		c26.6208-18.697,51.2625-40.2487,72.8264-64.5853C1133.3734,334.3949,1133.9261,325.9599,1128.4396,320.4734z"/>
	<path d="M530.1226,360.631c0.2314-0.8297,0.5131-1.6432,0.8444-2.4368c-17.5466,0.4492-35.0841,1.0167-52.6253,1.7026
		c-11.0898-0.2908-22.1735-0.683-33.2473-1.1884c-0.8958-0.0409-0.8657,1.291,0,1.375c26.8076,2.601,53.6206,4.5674,80.4607,5.8038
		C526.8202,363.9434,528.3658,362.1692,530.1226,360.631z"/>
	<path d="M966.9833,210.9363c-1.219-1.28-2.4819-2.5233-3.7952-3.7153c-12.5813-11.42-27.8835-19.7086-43.7002-26.5558
		c-11.6731-5.489-23.4038-9.9529-33.2463-13.8015c-26.698-10.4391-54.1805-18.713-82.3035-24.2962
		c-13.6554-2.711-27.3967-4.7541-41.2405-6.2241c-7.2175-0.7664-14.5299-1.6348-21.7888-1.848
		c-7.2959-0.2143-14.6035,0.6569-21.8765,1.1328c-0.8014,0.0524-1.3831,0.642-1.6155,1.3208
		c-0.7551-0.0646-1.5093-0.1365-2.2645-0.2c-1.2572-0.1057-1.5397,1.9567-0.2991,2.2098
		c47.8295,9.7583,95.9908,18.1339,142.8706,31.8945c0.2931,0.1002,0.5885,0.1948,0.8815,0.2955
		c21.8711,7.5153,43.7369,16.1919,64.1165,27.1857c15.3306,8.2701,32.495,19.7897,37.2314,37.6422
		c5.3767,20.2659-8.8008,39.4177-24.8,50.1931c-2.4564,1.6544-4.9832,3.2109-7.5647,4.6867
		c-2.1993,0.8841-4.3542,1.7188-6.4221,2.5076c-1.3833,0.5277-2.374,1.3943-3.0271,2.4225
		c-15.2488,7.3201-31.8331,12.4774-47.5793,17.7043c-46.082,15.2969-93.672,26.317-141.8187,32.6393
		c-25.4602,3.3433-50.9553,5.584-76.493,6.8444c0.3424,0.4662,0.6682,0.9459,0.9778,1.437
		c-3.1807,0.2172-6.3613,0.433-9.5422,0.6364c-36.5454,2.3369-73.3193,3.9256-109.6807,8.3769c-0.8601,0.1053-0.906,1.3275,0,1.375
		c33.2611,1.7449,66.8889,1.085,100.1454-0.5923c7.4889-0.3777,14.9762-0.7946,22.4615-1.2463
		c0.2136,1.079,0.3679,2.1763,0.4407,3.2905c55.802-1.1081,111.5258-9.2393,165.5903-23.1522
		c3.1168-0.6189,6.2334-1.2393,9.3435-1.8931c28.2803-5.9447,56.9041-12.7805,83.4539-24.4284
		c6.7217-2.949,13.3394-6.3243,19.6564-10.1687c5.0527-2.2,10.014-4.5644,14.8329-7.1567
		c16.5996-8.9299,32.3711-22.7013,36.1857-41.9993C989.5746,239.9431,984.172,219.095,966.9833,210.9363z"/>
	<path d="M580.2836,104.3802c-10.04,6.9253-24.21,4.5622-33.313-2.9146c6.3074-2.9039,13.2896-3.9775,20.2626-3.7906
		c1.1376,0.0305,1.1644-1.4683,0.2491-1.8415c-9.0022-3.6705-18.3116-2.2814-26.7004,2.5612
		c-1.627,0.9393-1.7537,3.0706-0.5659,4.3923c11.3861,12.6705,28.5243,13.9052,43.3483,7.2058
		C587.3541,108.28,583.7787,101.9693,580.2836,104.3802z"/>
	<path d="M716.4507,192.7376c-0.412-4.4361-4.9034-6.1391-8.0928-5.0767c-0.2286-0.7251-0.4684-1.4476-0.7383-2.1617
		c-0.2274-0.6015-1.0819-0.3717-0.9642,0.2658c0.1577,0.8552,0.2786,1.7103,0.3696,2.5646
		c-1.2361,0.8767-2.0227,2.3428-1.8243,4.4081c1.3353,13.9026-8.0385,24.4347-18.9694,31.7201
		c-13.0048,8.6678-28.2151,13.4562-43.1251,17.7034c-34.318,9.7756-70.549,13.4359-106.1565,11.3345
		c-20.6334-1.2177-41.1092-4.22-61.3415-8.4073c-1.752-0.3625-2.3771,2.0299-0.7312,2.6518
		c26.6565,10.0717,55.3681,15.127,84.0172,15.7853c0.0441,2.4629,1.7025,5.0231,4.8669,5.3548
		c34.1926,3.5842,71.2999-2.7973,102.8246-16.3423c13.9617-5.9989,27.2375-14.3223,35.978-27.0479
		c0.0051-0.0074,0.0095-0.0153,0.0146-0.0228C711.462,216.828,717.6613,205.7698,716.4507,192.7376z"/>
</g>
</svg>
