<?xml version="1.0" encoding="utf-8"?>
<!-- Generator: Adobe Illustrator 20.0.0, SVG Export Plug-In . SVG Version: 6.00 Build 0)  -->
<svg version="1.1" id="Layer_1" xmlns="http://www.w3.org/2000/svg" xmlns:xlink="http://www.w3.org/1999/xlink" x="0px" y="0px"
	 viewBox="0 0 2217.0803 800.229" style="enable-background:new 0 0 2217.0803 800.229;" xml:space="preserve">
<style type="text/css">
	.st0{fill:#114C15;}
	.st1{fill:#0C3A11;}
	.st2{fill:#E5E5B3;}
	.st3{fill:#11561B;}
	.st4{fill:#547756;}
</style>
<g id="Layer_7">
	<path d="M91.4911,216.5719c-10.7173,13.2979-18.3834,28.3719-23.4573,44.3414c-19.9679,52.7904-3.2488,116.2594,13.9926,168.6088
		c2.3732,7.2054,13.5729,4.2476,11.4485-3.1562c-18.3452-63.9365-40.118-143.7311,6.2805-201.5295
		C104.4172,219.0291,96.2167,210.7085,91.4911,216.5719z"/>
	<path d="M2214.7795,200.5228c-0.0518-0.4712-0.3623-0.9253-0.8152-1.1636c0.167-1.2311-0.5298-2.5488-2.0779-2.4149
		c-4.2515,0.3678-8.4146,1.2611-12.4868,2.4886c-0.748,0.1309-1.4934,0.2834-2.2395,0.4307
		c-0.7212-0.1276-1.4465-0.2397-2.1782-0.3287c-0.1917-0.0519-0.3948-0.0776-0.6116-0.068
		c-1.533-0.1716-3.0781-0.2998-4.6121-0.4747c-4.4524-0.5077-8.9041-1.014-13.3621-1.465
		c-39.4297-9.0703-79.9175-14.7031-119.7517-21.1882c-1.417-0.2307-2.7122-0.0941-3.8572,0.3047
		c-157.3787-24.4773-314.6357-49.7155-471.8683-75.1172c-87.7196-14.1714-175.4054-28.5518-263.0565-43.1409
		c-43.8257-7.2944-87.6426-14.6411-131.4507-22.0399c-43.282-7.3099-86.5051-15.3219-130.0244-21.1134
		c-28.5532-3.7998-57.9277-6.2733-87.2001-6.1428c-0.1923-2.3711-1.8119-4.6116-4.8713-4.6272
		c-2.0638-0.0103-4.1217,0.0371-6.1733,0.135c-1.0031-0.4956-2.2271-0.6643-3.6284-0.3148
		c-1.196,0.2983-2.3939,0.5919-3.5908,0.8881c-9.6139,1.0522-19.0518,3.27-28.203,6.5317
		c-19.2711,2.1777-38.2773,5.821-56.7473,11.3046C783.3004,36.928,700.7279,51.4425,618.2342,66.3881
		c-114.6354,20.7688-229.1016,42.4753-343.5284,64.3608c-41.9817,8.0295-83.9551,16.1019-125.9268,24.1838
		c-1.04-1.1033-2.5905-1.7488-4.4898-1.3623c-14.5218,2.9548-29.02,5.9436-43.4976,9.0291
		c-11.0757-0.2605-22.1055,1.7007-32.6008,5.6604c-0.201-0.5923-0.9406-1.0542-1.508-0.6293
		c-0.3468,0.2598-0.6882,0.5266-1.0313,0.791c-0.1359-0.124-0.2823-0.2333-0.4303-0.342c0.054-0.1168,0.1074-0.2339,0.1616-0.3505
		c0.2686-0.5779,0.3495-1.1675,0.291-1.7253c0.8945-1.0037,0.4131-2.8796-1.1653-2.8257c-0.3014,0.0103-0.5965,0.0356-0.8914,0.0615
		c-0.8403-0.3296-1.8195-0.2441-2.7164,0.468c-10.3573,2.7068-16.3998,15.1071-21.4307,23.6243
		c-0.5706,0.9661-1.1214,1.9438-1.6774,2.9185c-3.2894,4.8174-6.3422,9.8022-9.1973,14.8782
		c-8.5871,15.2661-15.1339,31.6711-19.7585,48.5574C-0.445,287.5782-1.955,323.5729,4.6942,358.0865
		c3.7674,19.5547,10.2197,38.79,19.601,56.3804c0.7594,1.4238,1.8379,2.2075,3.0004,2.4985
		c8.7789,20.1102,20.0898,38.8585,33.7614,56.1821c1.6969,2.1501,4.4138,3.0045,7.1293,2.8689
		c0.5292,0.2964,1.1385,0.5271,1.834,0.6731c1.6484,0.3459,3.2991,0.6799,4.9481,1.0228c0.0616,0.0372,0.114,0.0674,0.1804,0.1078
		c1.5616,0.9546,3.0853,1.1553,4.4368,0.8467c36.7861,7.5831,73.7222,14.4148,110.787,20.4912
		c12.4762,4.0881,25.553,6.0403,38.6678,5.7854c141.5862,35.5574,283.4081,70.1758,425.4579,103.8335
		c160.7003,38.0769,321.6194,75.4536,483.0168,110.4719c90.9789,19.7397,182.043,39.0867,273.1865,58.0515
		c1.7146,0.3655,3.2859,0.3008,4.6978-0.0679c3.322,0.6511,6.6432,1.3059,9.9656,1.9548c2.5453,3.1152,5.9685,4.2329,9.1561,3.8367
		c4.5323,4.4412,10.257,5.7029,16.0104,4.9731c1.177,0.188,2.4482,0.1243,3.791-0.2825
		c17.9124-5.4233,34.7539-13.7107,49.9065-24.4749c4.2158-1.9553,8.4309-3.9128,12.6426-5.8784
		c32.4229-10.4724,63.5614-24.8708,92.5143-42.8354c44.5402-12.3035,88.3776-27.042,131.3031-44.1663
		c4.3083-1.7188,7.3302-5.7417,6.0027-10.5723c-0.0229-0.0833-0.0557-0.1616-0.0811-0.2437
		c41.071-15.4541,81.6274-32.2693,121.6157-50.3662c25.3928-8.2361,50.3379-18.0957,74.7467-28.547
		c3.5425-1.5168,4.5669-4.8153,3.9351-7.9664c33.8452-13.3933,67.6899-26.7867,101.5349-40.1802
		c2.4158-0.9561,4.4172-2.6548,5.4617-4.8137c12.4392-4.8374,24.8784-9.675,37.3176-14.5125
		c4.0178-1.5625,6.8855-5.2081,6.1995-9.5723c3.1633-1.072,6.3235-2.1536,9.4897-3.2168c1.7134-0.5754,3.0337-1.4519,4.0056-2.5052
		c3.9443-1.59,7.866-3.2386,11.7673-4.9385c0.9084,0.67,2.0781,1.0304,3.5005,0.882c12.2842-1.2823,24.689-5.0581,36.4097-8.8383
		c11.7505-3.7897,24.0542-7.9828,34.8149-14.1049c0.8979-0.5107,1.5732-1.1833,2.062-1.9467
		c1.0308,0.3241,2.166,0.3379,3.2271-0.1298c3.5852-1.5793,5.3867-4.5653,6.5405-8.189c1.2319-3.8682-2.0083-6.6899-5.4338-7.1331
		c-5.7966-0.75-11.9736,0.0037-17.8,0.3147c-6.2607,0.3342-12.519,0.7045-18.7754,1.1101
		c-7.9463,0.5151-15.8843,1.1376-23.8242,1.7365c-1.2371-1.1381-2.9468-1.869-5.1367-1.8795
		c-2.6418-0.0127-5.2837-0.0251-7.9253-0.0378c-1.769-0.2061-3.5664-0.2614-5.3926-0.1495
		c-2.6816-5.9452-5.1379-11.9928-7.3752-18.12c-0.2642-3.4329-1.426-6.9165-2.1018-10.2256
		c-1.0823-5.2997-2.0269-10.6274-2.8301-15.9766c-1.5803-10.5227-2.6575-21.1406-3.2222-31.7673
		c0.9951-17.7596,1.9355-35.4486,4.7979-53.1294c2.0151-12.4464,4.4204-24.7917,7.3164-37.0217
		c0.3364-0.7761,0.667-1.5533,1.0127-2.328c3.0801-6.9009,6.4131-13.6974,9.9783-20.3734
		c7.6416-11.6094,15.4148-23.1181,23.7532-34.2761c0.8562-0.3551,1.7153-0.703,2.5698-1.0626
		c4.2571-1.7919,7.3396-5.5981,6.2656-10.4062c3.0835-1.1418,6.1694-2.2773,9.2627-3.3936
		c1.3677-0.4935,2.7419-0.9751,4.1182-1.4535c1.8123-0.6187,3.6238-1.24,5.4375-1.854c0.0366-0.0125,0.0645-0.0317,0.1003-0.0449
		c3.0679-1.0383,6.1421-2.0677,9.2061-3.1218c0.4895,1.4036,1.7942,2.4626,3.5295,1.8076
		c6.4858-2.4478,13.0085-4.7803,19.3333-7.6223C2218.1687,203.2621,2216.772,200.2968,2214.7795,200.5228z M1399.592,479.5492
		c-6.074,4.1101-4.766,11.845-0.5377,15.4485c-0.6786,1.2281-1.3585,2.4557-2.0057,3.7024
		c-1.7531,3.3765-1.6572,6.6184-0.4316,9.2346c-2.6973,5.7085-5.1931,11.5148-7.4646,17.4121
		c-2.8508,5.9292-5.5208,11.9493-7.9592,18.0713c-0.574,1.4409-0.6006,2.9827-0.2451,4.4645
		c-9.1711,19.6254-16.2452,40.2343-20.9089,61.4557c-1.6013,7.3091,4.2998,12.1519,10.0267,12.4165
		c-0.5446,5.9705-0.9471,11.9564-1.1893,17.9531c-0.1332,3.2981,1.5718,6.3055,4.1005,8.261
		c0.045,0.417,0.0914,0.8339,0.1385,1.2507c-0.4072,10.5298-0.4326,21.0815-0.0399,31.6309
		c0.141,3.7881,2.2325,7.1914,5.3636,8.9553c4.6686,22.2361,12.6838,43.7815,23.9314,63.6721
		c-11.611-2.752-23.4153-4.728-35.1516-5.5969c-146.0389-31.74-291.897-64.3589-437.6076-97.5608
		c-161.0363-36.694-321.7945-74.6085-482.2556-113.7415c-61.084-14.897-122.1207-29.9871-183.1177-45.2367
		c-0.1837-5.3071-4.2653-10.8062-10.6752-11.5256c-63.025-7.0745-125.4781-18.6593-186.9133-34.39
		c-0.5764-0.1476-1.1329-0.2363-1.6794-0.2971C23.1693,382.333,15.5206,300.655,44.5239,230.6846
		c4.1755-10.0735,9.0981-20.0072,14.2744-29.6073c5.0936,3.0096,11.6242,3.0491,17.2474,0.2112
		c6.8527-3.4583,14.4356-5.1219,22.1028-5.1134c8.9444,0.01,16.7432,3.661,25.4512,4.8414
		c10.5947,1.436,21.1894,2.8723,31.7841,4.3083c2.6172,5.5437,7.7781,9.8833,14.8934,9.9878
		c13.4307,0.197,26.8101,0.8784,40.1359,2.0308c1.0632,6.5142,5.5253,12.5262,12.3644,14.0541
		c9.446,2.1102,19.0109,3.2113,28.5572,3.2767c11.5065,1.2761,23.0128,2.5547,34.5184,3.8369
		c1.7795,5.6716,6.0629,10.5952,12.2011,11.8445c95.2009,19.3746,190.4017,38.7493,285.6025,58.1239
		c4.8001,0.9769,9.6983,0.2991,13.7652-1.8365c27.9771,4.9712,55.9169,10.1487,83.8152,15.5425
		c2.28,2.772,5.3289,4.8176,8.978,5.4603l121.7043,21.4369c5.4579,1.1914,10.9199,2.3636,16.3741,3.5717
		c10.0768,2.2318,20.145,4.5015,30.2089,6.7899c3.1883,5.5009,9.3655,8.6819,16.2101,9.5723
		c28.2668,3.6769,56.5334,7.3538,84.8002,11.0308c1.2898,8.9861,9.021,14.8677,18.0088,15.5558
		c49.2435,3.7697,98.3347,9.067,147.2197,15.8783c0.981,6.3125,4.9696,11.8322,12.512,13.0574
		c55.582,9.0287,111.2756,17.3696,167.0635,25.0247c19.1951,3.2725,38.489,6.084,57.8348,8.1101
		c1.2726,0.9937,2.8951,1.6697,4.8741,1.8247l34.7567,2.7236c5.9368,0.7283,11.8766,1.432,17.8157,2.1416
		c-0.8671,1.1836-1.7146,2.3835-2.5428,3.5996C1411.2063,471.7814,1405.3788,475.6335,1399.592,479.5492z M2127.4795,254.3771
		c-0.4832,0.1188-0.9097,0.4348-1.1565,1.0109c-0.1562,0.3646-0.3083,0.7311-0.4639,1.0961
		c-3.533,4.6084-6.9895,9.262-10.3228,13.9797c-1.3838,1.9586-0.8967,3.8171,0.3896,5.0168
		c-3.0364,4.5618-5.9351,9.2039-8.6636,13.9355c-0.9126,1.5828-0.6777,3.0715,0.1191,4.1715
		c-8.2068,18.2421-14.7407,37.7711-17.6587,57.3109c-0.7654,5.1248,4.1636,8.3748,7.9082,7.4222
		c-1.6528,12.4249-2.5244,24.9374-1.9978,37.2452c0.1245,2.9126,1.6826,4.7804,3.6685,5.6254
		c0.1335,3.2729,0.3193,6.5441,0.5759,9.8116c0.448,5.703,1.0645,11.3884,1.8154,17.0591
		c0.7764,5.8604,0.8291,12.072,4.9719,16.6206c0.4146,0.4552,0.8647,0.8187,1.3379,1.0986
		c1.1812,4.6614,2.4631,9.3008,3.8718,13.9102c-1.6882,1.4049-2.7742,3.4669-3.1208,5.6057
		c-2.6584,1.0469-4.5037,3.6036-5.0471,6.3914c-2.3828,1.7588-3.469,4.5316-3.3752,7.2659
		c-2.0581,0.7234-4.1033,1.5334-6.1438,2.3867c-0.0117,0.0024-0.0232,0.0054-0.0349,0.0078
		c0.0007,0.002,0.0017,0.0039,0.0024,0.0059c-0.6917,0.2894-1.3848,0.5642-2.075,0.8688c-1.9182,0.8461-3.1836,2.6224-3.791,4.6313
		c-10.5479,2.7985-20.8132,6.4767-30.8516,10.9406c-1.354,0.6021-2.3547,1.4324-3.0605,2.396
		c-36.269,12.7599-72.3394,26.0812-108.187,39.9868c-4.3354,1.6816-7.3395,5.7859-6.0171,10.5974
		c0.2148,0.7827,0.5532,1.5192,0.9817,2.1975c-0.7888,0.4136-1.5818,0.8191-2.3713,1.231
		c-11.384,4.4336-22.7682,8.8672-34.1523,13.3008c-2.9104,1.1335-5.2122,3.3654-5.9858,6.1711
		c-0.9719,0.3853-1.9438,0.7704-2.9155,1.1555c-2.1608-1.6597-5.0287-2.3881-7.7421-1.5632
		c-58.7958,17.874-117.5983,35.7256-176.3993,53.582c-1.4255-0.4387-2.9629-0.4972-4.4475-0.032
		c-15.7542,4.9365-31.3794,10.1689-46.9543,15.6455c-6.5708,2.3103-7.5299,9.4814-4.7635,14.0013
		c-41.0199,16.3634-81.9265,33.0179-122.8542,49.6088c1.7262-6.5662-5.1278-14.5396-12.6044-10.0247
		c-21.905,13.2275-43.4438,27.001-64.6726,41.2598c-6.3208,2.5535-12.6422,5.1052-18.9629,7.6589
		c-6.1624-15.4912-11.327-31.3501-15.4573-47.4692c-0.6714-18.7878-3.1722-37.5012-7.4524-55.8096
		c0.5305-43.4517,10.3474-87.0571,27.2654-127.147c5.0933-12.0696,10.8489-23.8566,17.1221-35.3632
		c6.4098-2.7343,12.7615-5.6023,19.0554-8.5919c2.5099,0.168,5.0208,0.3203,7.5341,0.4417
		c7.3929,0.3569,11.3121-4.595,11.8699-10.1726c0.9553-0.5051,1.9127-1.0061,2.8647-1.5175
		c0.6454-0.2933,1.2928-0.5817,1.9384-0.8745c46.5582-18.7611,93.5441-36.451,140.9097-53.0626
		c4.708-1.4672,9.4159-2.9343,14.1238-4.4016c0.1965,5.9797,5.4575,12.3229,11.9609,9.5847
		c33.0688-13.923,66.4154-27.1794,100.0015-39.7983c-0.0066,0.8157,0.092,1.6633,0.3341,2.5442
		c1.2262,4.462,6.7413,8.3413,11.4486,6.5004c70.1157-27.4222,140.2112-54.8961,210.3142-82.3502
		c20.0737-7.8615,40.1475-15.7229,60.2212-23.5842c4.053-1.5872,6.0066-4.8816,6.2415-8.2122
		c0.657-0.2102,1.3145-0.4194,1.9712-0.6301c0.7583-0.2433,1.2546-0.7053,1.5359-1.2522c9.2568-2.9979,18.5063-6.019,27.7388-9.095
		c3.167-1.0551,6.3289-2.1255,9.4929-3.1891c1.1316,0.2406,2.3657,0.2076,3.6677-0.1962
		c13.4707-4.1777,26.8064-8.8065,39.9727-13.8708C2136.4255,243.0388,2131.8958,248.6732,2127.4795,254.3771z M2006.2412,251.3302
		c-3.8545,1.5229-4.6123,5.6931-3.3464,8.6323c-2.54,1.0149-5.0845,2.0195-7.623,3.0388
		c-6.1235,1.7036-12.2471,3.407-18.3701,5.1111c-18.7961,4.5015-37.3748,9.7354-55.7719,15.5405
		c-30.6952,8.5649-61.3842,17.1521-92.0596,25.7888c-4.0607,1.1433-6.2501,3.9292-6.9388,7.0664
		c-38.1663,13.6141-76.3325,27.2283-114.4988,40.8425c-2.9968,1.0094-5.9937,2.0188-8.9861,3.0417
		c-1.4841-0.3708-3.1843-0.3331-5.0692,0.272c-9.4237,3.0255-18.8071,6.1741-28.1539,9.4268
		c-2.0104-1.0159-4.395-1.3118-6.8428-0.7726c-39.5442,8.7122-78.3904,20.3771-116.1821,34.8357
		c-1.176-0.1111-2.4429-0.0015-3.7854,0.3899c-1.8088,0.5272-3.6108,1.0765-5.4128,1.6265c-2.5229-1.767-5.95-2.2924-9.616-0.3976
		c-6.6106,3.4167-13.1782,6.9111-19.7181,10.4551c-12.1791,4.6521-24.153,9.8358-35.8822,15.5258
		c-1.8745-0.9186-4.1091-1.1464-6.5492-0.2595c-1.7671,0.6422-3.4899,1.3451-5.1769,2.0957
		c-44.1046-5.6273-88.2175-11.1832-132.3357-16.6993c-0.3875-0.0535-0.7749-0.1075-1.1624-0.1609
		c-0.7244-6.777-4.7644-12.9575-12.724-14.5153c-41.2543-8.0741-82.7052-15.1475-124.3032-21.2134
		c-34.093-7.205-68.3041-13.8187-102.6226-19.8293c-1.8126-1.4357-3.937-2.4745-6.3556-2.9015
		c-70.4279-12.4319-140.8559-24.864-211.2839-37.2959c-17.452-4.1106-35.0104-7.7488-52.6368-11.0625
		c-2.29-4.6489-6.3273-8.3966-11.5527-9.5247c-91.7681-19.8098-184.1384-36.7986-276.9632-50.853
		c-14.694-2.2247-29.4003-4.3611-44.1153-6.437c-2.2265-3.8118-5.7623-6.8035-10.3434-7.7756
		c-9.5818-2.0337-19.1637-4.0671-28.7455-6.1008c-2.0319-4.5863-5.783-8.3915-10.9162-9.2373
		c-43.6794-7.1978-87.3663-14.3452-131.063-21.4365c-1.9137-1.7408-4.3995-3.0687-7.5242-3.7461
		c-27.6259-5.9879-55.6661-10.0679-83.8543-12.1543c-3.0648-3.4709-7.606-5.4375-12.8883-6.1321l-36.1637-4.7546
		c-8.7509-1.1505-18.3779-1.6736-27.2065-3.4021c98.6961-18.8915,197.4019-37.7334,296.1802-56.1909
		C542.207,90.7664,656.8565,69.9533,771.6592,50.0702c15.6779-2.7153,31.3605-5.4031,47.0457-8.0764
		c-7.7299,4.0259-15.3066,8.481-22.702,13.4091c-9.4862,6.3212-0.5836,21.7435,8.9824,15.3671
		c66.751-44.4951,149.4933-48.8967,226.9999-40.7177c43.7874,4.6209,87.1564,12.8231,130.5454,20.1599
		c42.8948,7.2533,85.7979,14.4565,128.7092,21.6097c172.5737,28.7677,345.2679,56.7911,518.1699,83.5181
		c97.9058,15.134,195.8522,30.0056,293.8363,44.6222c2.2864,0.3411,4.269-0.2272,5.8386-1.3055
		c8.8799,1.2344,17.7693,2.4116,26.6648,3.4897c0.5486,1.0192,1.5342,1.8003,3.0542,2.0317
		c3.7671,0.5736,7.6152,0.8607,11.49,1.0161C2101.3533,217.5026,2053.1826,232.7836,2006.2412,251.3302z M2166.1306,205.9092
		c-0.0283-0.1649-0.0686-0.3276-0.1145-0.4889c0.3359,0.0032,0.6709,0.0073,1.0063,0.0112c0.1721,0.0149,0.344,0.0317,0.5161,0.0464
		C2167.0691,205.6217,2166.5984,205.7633,2166.1306,205.9092z"/>
	<path d="M1456.217,795.1068c0.0463-0.2271,0.0786-0.457,0.0786-0.6914c0-2.3457-2.4373-4.4507-4.7913-3.6499
		c-1.9448,0.6616-3.8896,1.3235-5.8345,1.9851c-1.4905,0.5071-1.6094,2.3774-0.3826,3.1304
		c-0.0172,0.4646,0.082,0.9304,0.3308,1.3269c1.8833,3.001,5.7874,3.8867,8.8384,2.1309
		C1455.9744,798.4652,1456.6042,796.6952,1456.217,795.1068z"/>
</g>
<g id="Layer_2">
	<g>
		<g>
			<g id="XMLID_1_">
				<path class="st0" d="M2209.0059,454.1224c-0.22,3.5699-0.4299,7.15-0.6499,10.72c-0.6301-0.47-1.4402-0.66-2.3501-0.33
					c-49.8501,18.0699-98.5601,39.36-147.3201,60.1599c-49.0698,20.92-98.1099,41.9-147.1499,62.9
					c-98.0601,41.99-196.13,83.98-294.2001,125.97c-55.1599,23.6101-110.4199,46.99-165.4299,70.9399
					c-0.4701,0.2002-0.88,0.4802-1.24,0.8101c-0.78-0.96-1.9401-1.71-3.52-2.0798c-0.04-0.01-0.09-0.02-0.13-0.03
					c-4.65-4.8901-8.84-10.22-12.65-15.8501c0.23-0.0601,0.47-0.1399,0.71-0.24c97.8301-40.75,195.6801-81.4399,293.39-122.47
					c98.04-41.16,196.17-82.13,294.1699-123.37c50.74-21.35,101.3901-42.74,151.55-65.41
					C2185.8059,455.3024,2197.4258,454.6324,2209.0059,454.1224z"/>
				<path class="st1" d="M1440.0958,457.6924c0.55,0.11,1.09,0.16,1.59,0.15c-5.5499,5.61-10.4199,12-15.08,18.13
					c-7.8199,10.29-14.38,21.6901-20.0699,33.27c-11.63,23.6899-18.92,49.29-21.9601,75.48c-2.7699,23.79-1.5299,48.1,1.49,71.8101
					c3.0801,24.2198,8.2201,48.2499,16.52,71.2499c6.61,18.3,15.15,35.6301,26.48,51.22
					c-84.0699-19.5798-168.1499-39.1599-252.22-58.74c-89.65-20.8899-179.3099-41.77-268.9599-62.6499
					c-90.1-20.99-180.25-41.78-270.39-62.64c-89.68-20.76-179.37-41.52-269.07-62.24c-90.17-20.8199-180.36-41.51-270.82-61.0601
					c-10.7-2.3099-21.38-4.5399-32.15-6.5c-0.02-1.1799-0.44-2.3999-1.42-3.5c-54.94-61.7899-69.27-152.23-35.86-227.9099
					c8.87-20.0901,20.32-39.0701,33.75-56.4401c20.08,5.4,40.56,9.29,60.89,13.66c22.57,4.85,45.13,9.6801,67.72,14.41
					c45.2,9.46,90.42,18.76,135.66,28.01c89.6,18.2999,179.25,36.3299,268.91,54.37c180.22,36.26,360.4,72.73,540.64,108.88
					C1237.1958,417.0024,1338.6459,437.3424,1440.0958,457.6924z"/>
				<path class="st2" d="M2162.3857,225.2924c-19.2798,19.91-33.5,45.51-42.5598,71.14c-11.46,32.4401-15.1702,67.42-10.46,101.5
					c2.6799,19.37,8.1899,38.0701,16.3198,55.8501c0.8601,1.88,2.25,2.7599,3.76,2.9199c0.1799,0.0601,0.3701,0.1,0.5901,0.1
					c12.1299,0.2001,24.29-0.11,36.45-0.61c-92.73,35.4301-184.1599,74.29-275.91,112.1901
					c-97.8999,40.4299-195.8999,80.64-293.72,121.27c-54.77,22.75-109.54,45.49-164.3099,68.24c-1.27,0.53-2.13,1.4099-2.63,2.4399
					c-5.74-9.5801-10.4801-19.79-14.4701-29.99c-8.35-21.3699-13.85-43.8401-17.34-66.49c-3.4399-22.3-5.12-45.28-3.71-67.83
					c1.5499-24.92,7.63-49.3201,17.11-72.39c5.37-13.0701,11.97-25.65,19.67-37.5c3.96-6.1,7.96-12.16,12.37-17.9601
					c2.34-3.08,4.7799-6.1,7.11-9.1899c0.0399-0.01,0.0699-0.02,0.11-0.03c99.34-32.26,198.63-64.71,297.9299-97.09
					c99.3201-32.37,198.5601-64.96,297.79-97.6c27.8201-9.16,55.6599-18.24,83.3301-27.8401
					C2140.6257,232.6625,2151.5159,229.0125,2162.3857,225.2924z"/>
				<path class="st3" d="M2210.3459,203.0524c0.51,0.0801,1,0.0901,1.45,0.04c-0.05,0-0.1101,0.02-0.1702,0.03
					c-11.21,2.7999-22.3499,6-33.4399,9.34c-0.4099-0.35-1.0601-0.4399-1.6199,0c-0.3301,0.26-0.6501,0.52-0.98,0.79
					c-13.2002,4-26.3401,8.1799-39.52,12.09c-25.1802,7.48-50.21,15.45-75.22,23.47c-49.4102,15.8301-98.8201,31.66-148.2201,47.49
					c-99.46,31.87-198.78,64.16-298.16,96.3c-55.7,18.01-111.4,36.01-167.08,54.09c-0.17,0.0601-0.34,0.12-0.5,0.1901
					c-0.76-0.85-1.85-1.49-3.3201-1.78c-181.1799-36.26-362.37-72.53-543.59-108.59c-180.33-35.88-360.56-72.25-540.98-107.68
					c-50.78-9.97-101.56-19.98-152.39-29.71c-25.43-4.87-50.87-9.67-76.33-14.4c-21.84-4.0599-43.63-8.6899-65.63-11.72
					c-0.03-0.1901-0.09-0.37-0.18-0.53c117.26-21.97,234.6-43.47,351.98-64.83c116.94-21.28,233.9001-42.4601,350.8-63.98
					c65.02-11.9701,130.61-23.03,194.78-39.04c0.21,0.14,0.46,0.24,0.75,0.29c80.6599,15.47,162.1899,26.9299,243.2999,39.8199
					c81.2101,12.9,162.4301,25.71,243.66,38.5c162.46,25.58,324.9301,51.14,487.38,76.78
					C2028.1958,174.3825,2119.2659,188.7725,2210.3459,203.0524z"/>
			</g>
		</g>
	</g>
</g>
<g id="Layer_5">
	<path class="st4" d="M1408.7275,112.2847c-0.0116-0.0001-0.0231,0-0.0347-0.0001c-0.1005-0.0823-0.2153-0.1538-0.3486-0.2068
		c-11.6472-4.6304-24.5959-5.0515-36.8765-6.9316c-1.248-0.1909-2.5073-0.3679-3.7715-0.5393
		c-1.0055-0.9065-2.3083-1.542-3.9314-1.7626c-6.2104-0.938-12.4281-1.8136-18.6489-2.6604
		c-0.9248-0.1277-1.8499-0.2518-2.775-0.3744c-12.8268-1.7175-25.676-3.2214-38.5413-4.5427
		c-5.5607-0.9329-11.1324-1.7821-16.7139-2.5371c-0.4308-0.0583-0.819,0.0022-1.1625,0.1343
		c-4.9497-0.7866-9.8999-1.5717-14.8497-2.3586c-7.0272-1.5485-14.1031-2.8622-21.2119-3.9722
		c-15.5924-3.0547-31.1929-5.7172-46.9446-7.7683c-3.0338-0.5353-6.0682-1.0667-9.1024-1.6008
		c-0.3108-0.5542-0.8529-0.9532-1.5945-0.9058c-0.8586,0.0549-1.7166,0.1152-2.575,0.1724
		c-2.5696-0.4519-5.1393-0.9048-7.7091-1.3557c-26.5028-7.1604-54.0238-12.418-81.3829-14.2505
		c-1.2031-0.2025-2.4072-0.4006-3.6106-0.6025c-0.3242-0.3821-0.7893-0.6294-1.3853-0.5898
		c-0.5168,0.0344-1.033,0.0686-1.5492,0.1028c-1.528-0.2554-3.0564-0.5076-4.5846-0.761
		c-5.4097-1.1399-10.859-2.0763-16.3391-2.7939c-4.6959-0.855-9.4098-1.7141-14.1282-2.4109
		c-1.7563-0.3208-3.5154-0.6278-5.2778-0.9163c-0.2102-0.3999-0.5457-0.7305-1.0334-0.8558
		c-1.774-0.4562-3.564-0.9149-5.3655-1.3541c-1.3113-1.4049-3.007-2.4658-4.896-2.9362c-2.4648-0.6136-5.1515-0.3813-7.5781,0.5182
		c-1.6052-0.5198-3.2146-0.9189-4.7913-1.0471c-2.1997-0.179-4.5286,0.2914-6.8104,0.86c-0.3048,0.0316-0.6099,0.0594-0.9147,0.0981
		c-3.1768,0.4027-6.2642,1.1947-9.2805,2.2245c-0.2122,0.0448-0.4241,0.0896-0.6362,0.1345
		c-11.2305,1.376-22.3724,3.6787-33.3768,6.2471c-18.0587,4.2146-36.0621,8.6882-54.0333,13.2671
		c-1.7352-0.661-3.7495-0.8638-5.9973-0.3842c-18.1754,3.8785-36.3174,7.9111-54.4301,12.0709
		c-42.3574,6.5803-84.3838,15.056-126.0984,25.3518c-0.8909,0.2198-1.7791,0.4502-2.6696,0.6718
		c-12.3887,1.6461-24.6265,4.3016-36.6262,7.9647c-0.6421,0.196-1.0747,0.5566-1.3444,0.9872
		c-8.7197,1.7509-17.4242,3.5768-26.1121,5.4822c-7.9119,1.4025-15.7567,3.1727-23.5184,5.3429
		c-0.6278,0.1755-1.0558,0.5203-1.3284,0.9402c-6.7894,1.4233-13.579,2.8464-20.3684,4.2698
		c-11.4206,2.3243-22.8412,4.6487-34.2618,6.9729c-0.3892-0.1943-0.8571-0.2739-1.3945-0.1584
		c-14.6282,3.1426-29.2564,6.2854-43.8846,9.428c-1.6208,0.3483-1.8235,1.9536-1.1459,3.0498
		c-0.0405,0.0112-0.081,0.0225-0.1215,0.0337c-0.7845-0.3138-1.662-0.4823-2.6445-0.4274
		c-12.8336,0.7178-25.8726,4.4062-38.2848,7.6149c-8.4092,2.1737-16.7579,4.6085-25.053,7.2054
		c-0.7883,0.1273-1.5786,0.2567-2.3748,0.3824c-0.1198,0.0189-0.2392,0.041-0.359,0.0601c0.6433-0.9541-0.2208-2.7278-1.7665-2.4983
		c-11.8746,1.7627-23.6859,3.9869-35.4363,6.4392c-0.5437,0.1135-1.0928,0.225-1.6384,0.3376
		c-1.2432,0.2289-2.4799,0.4873-3.7123,0.7634c-9.05,1.8481-18.248,3.7419-27.015,6.5245
		c-0.4505-0.0031-0.9006-0.0115-1.3513-0.0126c-0.7478-0.002-1.2889,0.416-1.5876,0.9709c-0.6874,0.3433-0.686,1.2025-0.2519,1.7466
		c-0.9776,1.3433-0.3858,3.7346,1.796,3.7817l13.879,0.2994c22.8235,4.774,45.7578,8.9296,68.7045,13.1202
		c10.2577,1.8733,20.4878,3.9224,30.7391,5.8379c0.2286,0.1528,0.4966,0.2676,0.8151,0.3206
		c2.8788,0.4788,5.7599,0.9402,8.6419,1.3955c0.1816,0.032,0.3628,0.0671,0.5444,0.0989
		c10.7148,1.8728,21.4758,4.1321,32.277,5.7498c21.4225,5.1741,43.0271,9.9678,64.7396,13.7439
		c8.0531,1.4006,16.1312,2.6472,24.2272,3.7686c15.4387,3.1025,30.8772,6.2061,46.3153,9.3113
		c1.9268,0.3877,3.854,0.7734,5.7809,1.1609c6.3209,1.4857,12.6529,2.9104,19.0001,4.2411
		c12.1669,2.5508,24.408,4.7953,36.6595,6.9252c4.8293,0.9663,9.66,1.9259,14.4898,2.8901
		c7.2067,1.6807,14.5167,3.0184,21.714,4.3978c1.3416,0.2572,2.6866,0.4969,4.0315,0.7375
		c1.8318,0.3639,3.6627,0.7323,5.4946,1.0959c6.5755,1.3051,13.1478,2.651,19.7213,3.9972
		c10.4459,2.8579,21.0187,5.0673,31.7087,6.7115c2.4742,0.6361,4.9482,1.2736,7.423,1.9076
		c0.9888,0.2534,1.9244,0.3564,2.8138,0.3542c0.7562,0.1479,1.5166,0.2778,2.277,0.408c1.3298,1.1816,3.202,1.1477,4.9373,1.3644
		c2.4238,0.3029,4.8458,0.4679,7.2744,0.526c0.3798,0.7679,1.1868,1.2605,2.3131,0.8854c0.9114-0.3036,1.8284-0.5922,2.7481-0.8738
		c0.4171,0.4594,1.0386,0.7062,1.7681,0.4564c0.2587-0.0886,0.5159-0.1855,0.7745-0.2747c0.0126-0.002,0.0249-0.0017,0.0376-0.004
		c0.0035,0.0126,0.0069,0.0251,0.0104,0.0377c4.7172-1.5265,9.3732-3.2551,14.0488-4.9045
		c0.1697-0.0599,0.3128-0.1411,0.4442-0.2305c11.6106-3.0645,23.2144-6.1554,34.7625-9.4434
		c0.8325-0.2371,1.5558-0.573,2.1768-0.9856c19.3345-5.1311,38.6135-10.4723,57.8777-15.9143
		c1.8435-0.5209,3.1362-1.5415,3.9548-2.8073c19.3711-5.7759,38.7255-11.6075,58.0418-17.5686
		c1.35-0.4165,2.4027-1.0939,3.2106-1.9244c2.48-0.6112,4.9558-1.2356,7.4407-1.8324c0.2203-0.0529,0.3613-0.1722,0.4587-0.3136
		c8.0581-2.179,16.0934-4.4314,24.0896-6.8022c0.7524-0.2231,0.4375-1.3228-0.322-1.1677
		c-5.335,1.0901-10.6584,2.2456-15.9775,3.4263c24.23-6.8652,48.4431-13.7914,72.6417-20.7701
		c24.0475-6.5872,48.0624-13.376,71.8519-20.7638c10.8108-3.123,21.6224-6.2434,32.4364-9.3542
		c2.0206-0.5813,3.5524-1.598,4.6664-2.8628c1.5811-0.5474,3.1582-1.1042,4.7382-1.6548c0.1989,1.0791,1.1241,2.0154,2.4519,1.5801
		c7.8405-2.5713,15.6743-5.1647,23.5125-7.7449c9.5533-2.7351,19.0157-5.7637,28.3939-9.0581
		c8.1699-2.1996,16.3127-4.4937,24.3997-7.0164c7.4431-1.8682,14.8898-3.723,22.2854-5.7606
		c1.5239-0.4198,1.6631-1.9958,0.9475-2.9623c0.2124-0.1694,0.4105-0.3468,0.6077-0.5247
		c12.4814-2.6078,24.7865-5.9673,37.0295-9.5686c0.0918-0.0105,0.1838-0.0192,0.2756-0.0298
		c1.1404-0.1323,2.0524-0.8708,2.6071-1.7955c0.7855-0.2023,1.571-0.4049,2.3566-0.6073
		C1411.4127,115.5924,1410.9409,112.3006,1408.7275,112.2847z M431.3303,177.3327c-0.1345,0.0398-0.2453,0.0964-0.3676,0.1451
		c-0.2156,0.0103-0.4304,0.0192-0.6459,0.0294c1.8743-0.4875,3.7457-0.9863,5.6144-1.4958
		C434.3961,176.4474,432.8601,176.8805,431.3303,177.3327z M446.4193,173.1957c-2.1889,0.5591-4.3768,1.1226-6.5557,1.719
		c1.6844-0.4741,3.3703-0.9425,5.0505-1.4346c0.4167-0.1221,0.7171-0.3907,0.9113-0.7227c0.2348-0.0457,0.4704-0.0865,0.7053-0.132
		C446.4558,172.8086,446.4168,173.0038,446.4193,173.1957z"/>
</g>
<g id="Layer_3">
	<g>
		<g>
			<path d="M1603.9843,376.8429c35.9972-9.5248,71.463-21.2556,106.9741-32.4379c35.8693-11.2949,71.7267-22.6278,107.6272-33.823
				c71.1631-22.1913,142.2831-44.5199,213.4135-66.8154c40.3311-12.6416,80.6384-25.3563,120.9395-38.0933
				c4.4675-1.412,2.554-8.4761-1.9419-7.0438c-71.3606,22.7338-142.6653,45.6395-213.9753,68.5309
				c-70.9958,22.7905-141.9484,45.7137-212.9707,68.4216c-40.2423,12.8666-80.8658,25.0547-120.4774,39.7693
				C1602.6549,375.6924,1603.0049,377.1021,1603.9843,376.8429L1603.9843,376.8429z"/>
		</g>
	</g>
	<g>
		<g>
			<path d="M1415.4606,744.6332c93.1282-35.0811,185.0487-73.427,277.2498-110.8688
				c92.6544-37.626,185.3732-75.0945,277.9247-112.9736c51.2307-20.9677,102.6575-41.532,153.6147-63.1554
				c3.4536-1.4656,0.938-7.5736-2.5825-6.1259c-92.1689,37.9031-184.0828,76.4015-276.3967,113.9626
				c-92.6497,37.6979-185.3351,75.2991-277.7805,113.4967c-51.0496,21.093-101.9097,42.4187-152.0956,65.5073
				C1415.3069,744.5165,1415.3693,744.6676,1415.4606,744.6332L1415.4606,744.6332z"/>
		</g>
	</g>
	<g>
		<g>
			<path d="M2062.144,451.5264c-21.3557,7.6074-42.3149,16.4545-63.3735,24.8457c-21.2937,8.485-42.5908,16.9619-63.8901,25.4329
				c-43.0144,17.1071-86.0233,34.2261-129.0111,51.3999c-86.2563,34.4598-172.5267,68.885-258.7617,103.3988
				c-47.7224,19.1001-95.4215,38.2566-143.0818,57.5112c-4.153,1.6777-2.3331,8.5005,1.8733,6.7952
				c85.5392-34.6777,171.0754-69.3628,256.6376-103.9841c86.4464-34.9792,172.9354-69.8536,259.2783-105.0875
				c23.6372-9.6456,47.2715-19.298,70.9021-28.9601c23.4719-9.5974,47.2354-18.7336,70.321-29.2314
				C2064.2256,453.1067,2063.3818,451.0854,2062.144,451.5264L2062.144,451.5264z"/>
		</g>
	</g>
	<g>
		<g>
			<path d="M1958.9175,474.8491c-72.3418,26.4998-144.0502,54.7885-215.9144,82.5521
				c-71.5927,27.6587-143.1942,55.2937-214.7474,83.0542c-40.5592,15.7358-81.517,30.718-121.7103,47.3638
				c-3.5814,1.4832-2.1644,7.354,1.6448,5.9663c36.1957-13.1846,71.8954-27.9038,107.7841-41.9047
				c35.918-14.0122,71.8342-28.0287,107.7323-42.0919c71.493-28.0078,143.0325-55.9004,214.4796-84.025
				c40.5411-15.9587,81.1335-31.8307,121.4167-48.4288C1961.0981,476.719,1960.5017,474.2688,1958.9175,474.8491L1958.9175,474.8491
				z"/>
		</g>
	</g>
	<g>
		<g>
			<path d="M1911.3999,480.2634c-17.0128,4.4467-33.5964,10.8455-50.1105,16.8505c-16.589,6.0322-33.178,12.0645-49.767,18.0967
				c-33.1781,12.0645-66.3561,24.1289-99.5341,36.1934c-66.356,24.1289-132.7119,48.2578-199.0679,72.3867
				c-37.5543,13.6559-75.1444,27.2084-112.7471,40.7302c-4.4021,1.583-2.4646,8.6829,1.9419,7.0439
				c66.5168-24.7424,133.1202-49.2465,199.7247-73.752c66.5972-24.5029,133.1945-49.0057,199.7917-73.5085
				c18.4471-6.7872,36.8943-13.5743,55.3414-20.3616c18.5155-6.8123,37.4347-13.2103,55.2544-21.7159
				C1913.3489,481.6917,1912.549,479.9631,1911.3999,480.2634L1911.3999,480.2634z"/>
		</g>
	</g>
	<g>
		<g>
			<path d="M1840.7057,486.7502c-58.661,19.1431-116.636,40.4371-174.7218,61.2454
				c-57.5031,20.5994-115.0061,41.1989-172.5092,61.7982c-32.5017,11.6432-65.0034,23.2863-97.5051,34.9294
				c-3.9829,1.4268-2.2548,7.8347,1.759,6.3809c115.5166-41.8424,231.1531-83.3701,346.5194-125.6249
				c32.4607-11.8892,64.9398-23.7161,97.0973-36.4087C1842.7515,488.5156,1842.2075,486.2601,1840.7057,486.7502L1840.7057,486.7502
				z"/>
		</g>
	</g>
	<g>
		<g>
			<path d="M1767.4049,496.4264c-12.8541,3.0056-25.4836,7.6321-37.9888,11.842c-11.954,4.0245-23.9164,8.0251-35.8623,12.0736
				c-24.8474,8.4207-49.5731,17.2189-74.3524,25.8385c-49.254,17.1333-98.4791,34.3486-147.7047,51.5636
				c-13.4825,4.7151-26.9652,9.4302-40.4479,14.1453c-14.0756,4.9225-28.4822,9.3387-42.2712,15.0129
				c-3.4186,1.4067-2.1975,6.8171,1.5763,5.7179c12.7225-3.7059,25.1665-8.6096,37.6693-13.0012
				c12.2236-4.2936,24.4474-8.5872,36.6711-12.8807c24.7609-8.6973,49.5217-17.3945,74.2825-26.0918
				c49.2128-17.2859,98.3872-34.6805,147.5712-52.0481c13.7926-4.8702,27.5106-9.9547,41.2538-14.9628
				c13.4619-4.9055,27.3199-9.4775,40.2654-15.6385C1768.9763,497.5645,1768.3181,496.2129,1767.4049,496.4264L1767.4049,496.4264z"
				/>
		</g>
	</g>
	<g>
		<g>
			<path d="M1696.7589,499.3375c-40.335,10.6722-79.9659,24.9683-119.5299,38.1698c-39.3854,13.142-78.7751,26.27-118.1305,39.5016
				c-22.3145,7.5023-45.0121,14.3153-67.0983,22.4368c-4.4436,1.634-2.679,8.6473,1.9875,7.2095
				c19.9602-6.1503,39.6465-13.5699,59.4349-20.2819c19.8229-6.7238,39.6464-13.4446,59.4539-20.2134
				c39.308-13.4326,78.6591-26.7433,117.8573-40.493c22.2551-7.8065,44.7971-15.2415,66.5962-24.2576
				C1698.569,500.8969,1698.1376,498.9728,1696.7589,499.3375L1696.7589,499.3375z"/>
		</g>
	</g>
	<g>
		<g>
			<path d="M1370.8348,502.7617c-9.3704,10.1896-16.1396,23.4763-21.629,36.0902c-5.5873,12.8385-10.1659,26.1556-12.7522,39.9355
				c-5.369,28.6049-4.4486,57.8672,2.9702,86.033c4.1072,15.593,11.2804,30.7024,20.0812,44.1631
				c3.1638,4.8391,10.2617,0.6423,7.7173-4.5107c-23.9072-48.4197-29.8738-106.0555-13.3102-157.7881
				c4.7974-14.9835,12.26-28.1722,19.2173-42.1526C1373.8323,503.1196,1372.0184,501.4747,1370.8348,502.7617L1370.8348,502.7617z"
				/>
		</g>
	</g>
	<g>
		<g>
			<path d="M92.6474,232.1257c-4.7837,1.0298-8.5997,8.7306-11.0733,12.5739c-3.8697,6.0125-7.1709,12.187-9.946,18.7759
				c-5.3667,12.7421-9.265,26.0015-11.4968,39.6499c-4.4992,27.5144-3.1252,56.3718,4.996,83.1237
				c4.5424,14.9631,11.4549,29.7242,21.183,42.0217c3.2939,4.1638,8.8344-1.1405,6.8835-5.3113
				c-11.1583-23.8558-20.6153-48.1298-23.2218-74.5808c-2.5728-26.1085,0.2184-52.7477,8.4751-77.6652
				c2.2377-6.7529,4.8386-13.4541,7.5838-20.0166c1.5735-3.7615,3.3437-7.4413,5.0397-11.1483
				c1.0928-2.3887,2.5395-4.4779,2.0526-7.1527C93.0842,232.1823,92.8367,232.085,92.6474,232.1257L92.6474,232.1257z"/>
		</g>
	</g>
	<g>
		<g>
			<path d="M883.3362,278.9366c71.1977-20.1093,142.1115-41.3695,213.0474-62.3844
				c70.1593-20.7849,140.3804-41.3627,210.443-62.4725c40.1631-12.1012,80.2806-24.3545,120.308-36.8981
				c4.6301-1.451,2.6445-8.7705-2.0104-7.2924c-70.5498,22.4021-141.3918,43.859-212.3044,65.0796
				c-70.1128,20.9813-140.2926,41.7119-210.1548,63.5178c-40.0636,12.5049-80.1328,25.0434-119.7628,38.8755
				C881.9211,277.7046,882.3127,279.2257,883.3362,278.9366L883.3362,278.9366z"/>
		</g>
	</g>
	<g>
		<g>
			<path d="M400.0085,185.7003c30.7527,8.2819,62.6169,13.3379,93.8265,19.6311c31.3376,6.319,62.675,12.6381,94.0124,18.957
				c62.6874,12.6405,125.4217,25.0519,188.1694,37.3891c35.301,6.9408,70.602,13.8816,105.903,20.8224
				c5.6748,1.1157,8.0994-7.5928,2.3988-8.7012c-126.2631-24.5484-252.5551-48.9208-378.9354-72.8592
				c-17.6838-3.3496-35.3676-6.6992-53.0513-10.0487c-17.1848-3.2551-34.436-6.9153-51.7978-9.0731
				C398.2883,181.5387,397.9097,185.135,400.0085,185.7003L400.0085,185.7003z"/>
		</g>
	</g>
	<g>
		<g>
			<path d="M400.2781,181.2999c10.1429-0.1123,20.0096-2.7954,29.9514-4.8021c10.4356-2.1063,20.8555-4.2728,31.2691-6.4855
				c20.168-4.2853,40.3359-8.5704,60.5039-12.8557c41.3077-8.7769,82.5888-17.6799,123.8794-26.537
				c82.254-17.644,164.506-35.2968,246.7518-52.9789c46.1609-9.9243,92.3218-19.8485,138.4827-29.7728
				c4.5382-0.9757,2.6187-7.9431-1.9191-6.9608c-82.213,17.7958-164.4335,35.5568-246.6382,53.3907
				c-82.2023,17.8335-164.4346,35.5339-246.607,53.5045c-22.7332,4.9717-45.4637,9.9557-68.1954,14.9336
				c-11.6894,2.5597-23.3788,5.1112-35.0415,7.7904c-11.0756,2.5442-22.5477,4.2959-32.9578,8.8518
				C398.7879,179.8026,399.3196,181.3106,400.2781,181.2999L400.2781,181.2999z"/>
		</g>
	</g>
	<g>
		<g>
			<path d="M1026.1932,47.2617c51.5372,11.1603,103.77,19.3414,155.6949,28.4642c52.1425,9.161,104.3014,18.2324,156.4937,27.106
				c28.8895,4.9117,57.7927,9.7441,86.7194,14.4326c4.8705,0.7893,6.9636-6.6667,2.0562-7.4581
				c-105.0609-16.9424-209.6791-36.6461-314.8004-53.1892c-28.5111-4.4868-57.0735-9.1263-85.7753-12.2251
				C1024.9456,44.2155,1024.5952,46.9157,1026.1932,47.2617L1026.1932,47.2617z"/>
		</g>
	</g>
</g>
<g id="Layer_2_copy">
	<g>
		<g>
			<g>
				<path d="M2211.6304,203.1264c-25.4202,6.3368-50.4492,14.7543-75.5671,22.215c-25.179,7.4789-50.2085,15.4547-75.2212,23.4697
					c-49.407,15.832-98.8137,31.664-148.2207,47.4961c-99.4567,31.87-198.7802,64.1571-298.1508,96.2942
					c-55.7,18.0138-111.4067,36.0067-167.0852,54.0867c-7.7522,2.5172-4.4353,14.8025,3.3811,12.2644
					c99.3441-32.2592,198.6261-64.7103,297.9327-97.085c99.3154-32.3776,198.5608-64.9633,297.7881-97.61
					c27.8162-9.1517,55.6592-18.2322,83.324-27.8364c27.6208-9.589,55.7585-18.5526,82.8701-29.4828
					C2214.9832,206.0103,2214.1655,202.4944,2211.6304,203.1264L2211.6304,203.1264z"/>
			</g>
		</g>
		<g>
			<g>
				<path d="M1453.5846,448.11c-10.9473,6.8298-19.2654,17.7122-26.9818,27.8618c-7.8213,10.2876-14.3783,21.6862-20.0667,33.275
					c-11.6274,23.6885-18.9205,49.286-21.9645,75.479c-2.7643,23.7865-1.5276,48.0968,1.4917,71.8021
					c3.0854,24.2256,8.224,48.2556,16.5269,71.2554c8.7889,24.3464,21.0183,46.9934,38.6495,66.0823
					c5.0627,5.4814,13.5394-2.9387,8.2035-8.2034c-15.4338-15.228-26.1577-35.2949-33.9929-55.3225
					c-8.358-21.3645-13.8529-43.8354-17.343-66.4844c-3.4365-22.3015-5.1185-45.2823-3.7155-67.8324
					c1.5505-24.9208,7.6321-49.324,17.1113-72.3871c5.3723-13.071,11.9768-25.6497,19.6724-37.5027
					c3.9615-6.1018,7.9646-12.1611,12.3677-17.9579c4.3411-5.715,9.021-11.2133,12.7456-17.3611
					C1457.3015,449.1429,1455.2676,447.0599,1453.5846,448.11L1453.5846,448.11z"/>
			</g>
		</g>
		<g>
			<g>
				<path d="M2176.563,212.4662c-26.6001,20.8932-45.5874,52.4195-56.7349,83.9651
					c-11.4622,32.4368-15.1755,67.4191-10.4622,101.4969c2.6797,19.3756,8.1865,38.0714,16.3242,55.8517
					c3.0491,6.6624,12.9773,0.8762,9.8691-5.7688c-27.853-59.5485-22.7002-131.9033,9.043-188.8871
					c9.2297-16.5687,20.9326-30.9883,33.6621-44.9563C2179.334,212.9943,2177.7568,211.5285,2176.563,212.4662L2176.563,212.4662z"
					/>
			</g>
		</g>
		<g>
			<g>
				<path d="M2205.6196,463.1008c-12.6028,4.1599-24.8586,9.2318-37.262,13.9421c-12.4155,4.715-24.9238,9.0443-37.2336,14.0459
					c-24.7583,10.0598-49.3015,20.6333-73.8965,31.0859c-49.0984,20.8662-98.158,41.8215-147.2098,62.7966
					c-98.0927,41.9452-196.1853,83.8905-294.278,125.8358c-55.167,23.5898-110.5083,46.8145-165.4543,70.9143
					c-9.8477,4.3191-2.6536,21.7761,7.4,17.5527c98.4695-41.3647,196.2637-84.4043,294.3467-126.678
					c97.9336-42.2095,195.9261-84.2853,293.766-126.7119c27.4998-11.9249,55.1609-23.5403,82.467-35.9021
					c13.3315-6.0353,26.519-12.2155,39.5942-18.7889c13.6377-6.8564,27.6809-12.8654,41.1375-20.0818
					C2213.3237,468.7913,2210.3772,461.5305,2205.6196,463.1008L2205.6196,463.1008z"/>
			</g>
		</g>
		<g>
			<g>
				<path d="M62.31,469.9247c43.7169,13.8459,88.9212,24.1123,133.4601,35.0156c45.1429,11.0511,90.3312,21.8887,135.5477,32.6346
					c89.5439,21.2808,179.1014,42.5032,268.6617,63.7153c90.0084,21.3184,179.9779,42.8101,270.0309,63.9391
					c89.6125,21.0259,179.2249,42.0515,268.8375,63.0771c90.0605,21.1309,180.1211,42.2617,270.1816,63.3926
					c11.2015,2.6282,22.4032,5.2563,33.6047,7.8848c12.7516,2.9917,18.1926-16.6677,5.4144-19.6399
					c-90.1085-20.957-180.2169-41.9143-270.3253-62.8716c-89.6602-20.853-179.3201-41.7061-268.9802-62.559
					c-90.1149-20.9587-180.298-41.6257-270.4567-62.395c-89.7124-20.6665-179.4211-41.3485-269.1493-61.9463
					c-90.2298-20.713-180.4588-41.2261-271.1082-60.0321c-11.3314-2.3507-22.6016-4.5457-34.0398-6.3062
					C60.0532,463.228,58.3416,468.6677,62.31,469.9247L62.31,469.9247z"/>
			</g>
		</g>
		<g>
			<g>
				<path d="M62.0235,172.0794C30.8663,200.997,11.3253,240.9486,3.5818,282.5083c-7.8943,42.3685-2.566,86.2147,14.2721,125.8252
					c9.4734,22.2853,22.4947,42.8369,38.584,60.9336c4.6028,5.1771,12.1777-2.4424,7.5959-7.5958
					C9.098,399.8816-5.2316,309.4441,28.1758,233.7611c9.3811-21.2524,21.6511-41.2458,36.0961-59.4335
					C65.5191,172.7575,63.5608,170.6526,62.0235,172.0794L62.0235,172.0794z"/>
			</g>
		</g>
		<g>
			<g>
				<path d="M55.3914,175.5148c22.161,6.3704,44.8842,10.6262,67.4266,15.4688c22.564,4.8472,45.1293,9.6815,67.7186,14.4095
					c45.1958,9.4595,90.4208,18.7627,135.6616,28.0049c89.5996,18.3042,179.2525,36.3382,268.9062,54.3757
					c180.2217,36.259,360.4022,72.724,540.6452,108.8763c101.449,20.3481,202.8979,40.6963,304.3469,61.0444
					c8.2094,1.6466,11.7208-10.9453,3.4725-12.5958c-181.1855-36.2567-362.3682-72.526-543.5925-108.5879
					c-180.3261-35.8831-360.5609-72.2439-540.9757-107.6778c-50.7859-9.9744-101.5645-19.9781-152.3977-29.7089
					c-25.4291-4.8677-50.8683-9.671-76.3228-14.4048c-24.7318-4.5995-49.4083-9.9192-74.3977-12.8339
					C53.7656,171.6386,53.4521,174.9573,55.3914,175.5148L55.3914,175.5148z"/>
			</g>
		</g>
		<g>
			<g>
				<path d="M962.7758,4.9129c80.6639,15.4683,162.1905,26.9299,243.2983,39.8174c81.2095,12.9036,162.434,25.7102,243.6614,38.5001
					c162.4631,25.5812,324.9298,51.1404,487.3838,76.7794c91.0726,14.3735,182.1427,28.7628,273.2294,43.0465
					c6.2761,0.9841,8.9795-8.6201,2.6501-9.6127c-163.3269-25.6118-326.6953-50.9585-490.0382-76.4677
					c-162.5232-25.3812-325.0261-50.8971-487.5846-76.0509c-90.524-14.0074-181.006-29.7784-271.9377-40.9076
					C960.6662-0.3218,960.0263,4.3856,962.7758,4.9129L962.7758,4.9129z"/>
			</g>
		</g>
		<g>
			<g>
				<path d="M963.4383,0.7909c-59.402,7.421-118.4354,18.9296-177.3127,29.6415c-58.3928,10.6238-116.8027,21.1519-175.2134,31.6763
					C494.24,83.1306,377.5555,104.086,260.9213,125.3178c-66.5108,12.1074-133.0004,24.3304-199.4572,36.7312
					c-6.8398,1.2762-3.9448,11.7201,2.8785,10.4413c117.2986-21.9824,234.6875-43.4803,352.0994-64.8475
					c116.9432-21.282,233.9048-42.4615,350.8039-63.9847c65.6469-12.0867,131.8757-23.2327,196.6494-39.491
					C965.721,3.7088,965.3986,0.546,963.4383,0.7909L963.4383,0.7909z"/>
			</g>
		</g>
		<g>
			<g>
				<path d="M2130.032,456.7988c27.1089,0.4495,54.3672-1.6364,81.4453-2.7892c4.3118-0.1836,4.2969-6.9823,0-6.7031
					c-27.1038,1.7606-54.4812,2.6224-81.4453,5.9689C2127.8457,453.5468,2127.6975,456.7601,2130.032,456.7988L2130.032,456.7988z"
					/>
			</g>
		</g>
		<g>
			<g>
				<path d="M2209.1848,451.1765c-0.3008,4.9382-0.6016,9.8765-0.9023,14.8148c-0.2527,4.1465,6.6982,4.1536,6.4453,0
					c-0.3008-4.9384-0.6016-9.8766-0.9023-14.8148C2213.6438,448.1934,2209.3669,448.188,2209.1848,451.1765L2209.1848,451.1765z"/>
			</g>
		</g>
		<g>
			<g>
				<path d="M2184.873,449.2134c-99.0488,37.28-196.4905,78.7727-294.2991,119.1685
					c-97.902,40.4344-195.8969,80.645-293.7192,121.2719c-54.77,22.7466-109.54,45.4932-164.3101,68.2397
					c-5.5905,2.3218-3.1316,11.5593,2.5359,9.1982c97.8259-40.7527,195.6772-81.4431,293.3892-122.4688
					c98.0398-41.1633,196.1638-82.1273,294.1682-123.3746c54.5532-22.9598,109.0193-45.9562,162.8643-70.5427
					C2186.335,450.3253,2185.7405,448.8868,2184.873,449.2134L2184.873,449.2134z"/>
			</g>
		</g>
	</g>
</g>
<g id="Layer_6">
	<path d="M1714.3105,785.0343c-0.0265-0.0317-0.0535-0.0613-0.0801-0.093c-1.7506-85.8784-28.5476-187.8931-117.7156-221.1853
		c-20.7991-7.7656-43.2637-10.0425-65.0291-5.5088c-0.3633-0.2122-0.8094-0.308-1.3271-0.1946
		c-0.2095,0.0459-0.4172,0.0963-0.6266,0.1425c-0.2133-0.917-1.0116-1.6631-2.1492-1.265
		c-5.3165,1.8601-10.6234,3.7469-15.9264,5.644c-13.0269,3.4369-25.8665,7.4633-38.5112,12.2539
		c-0.6687,0.2534-0.4158,1.2896,0.3013,1.0924c1.8672-0.5133,3.7371-1.0201,5.6069-1.5265
		c-1.0569,0.3866-2.1143,0.772-3.1711,1.1587c-1.1396,0.4171-0.6797,2.2256,0.5089,1.8457
		c0.4803-0.1534,0.9604-0.3076,1.4408-0.4612c0.0411,0.2188,0.2008,0.413,0.4631,0.394
		c39.9838-2.8784,77.594,11.7505,106.8999,38.8719c31.3022,28.9691,48.9221,69.0004,57.2991,110.2538
		c4.9194,24.2263,6.7803,48.9531,6.9988,73.6426c0.0095,1.0662,0.7065,1.6829,1.5137,1.8628
		c0.1239,0.4875,0.8489,0.7354,1.2145,0.1909c0.077-0.1147,0.1511-0.2314,0.228-0.3462c0.5497-0.2634,0.9628-0.7759,1.0128-1.5371
		c10.5339-15.8618,20.0381-32.4246,28.0181-49.7253c10.2185,9.7292,18.9043,20.5403,26.2476,32.6682
		c0.3176,0.5247,0.754,0.8149,1.2203,0.9253c0.2159,0.3896,0.4611,0.7588,0.7233,1.1145l0.4995,1.0928
		c0.3181,0.344,0.621,0.6978,0.92,1.0542c0.2079,0.0403,0.4282,0.0286,0.6375-0.0481c0.3969,0.3052,0.8138,0.5872,1.2538,0.8374
		c0.3822,0.2175,0.749,0.2048,1.0548,0.064c0.1422-1.0657,0.3051-2.1301,0.4891-3.1934
		C1714.3196,785.0516,1714.3171,785.0421,1714.3105,785.0343z M1481.062,575.8387c1.4172-0.4535,2.8331-0.9109,4.2501-1.3652
		c0.0323,0.2633,0.1215,0.5247,0.2499,0.772C1484.059,575.4099,1482.5581,575.5999,1481.062,575.8387z M1497.9187,574.6989
		c0.9561-0.1821,1.9122-0.3643,2.8684-0.5464c0.0801,0.2334,0.2026,0.4519,0.3623,0.6475
		C1500.0728,574.7477,1498.9958,574.7177,1497.9187,574.6989z M1516.4237,576.6115c0.6958,0.0516,1.3917,0.1033,2.0875,0.155
		c0.0259,0.0977,0.0587,0.1924,0.0986,0.2849C1517.8817,576.9015,1517.1543,576.7482,1516.4237,576.6115z M1533.25,580.9818
		c0.7588,0.1748,1.5181,0.348,2.2773,0.5212c0.0446,0.1031,0.0945,0.2053,0.1575,0.3047
		C1534.877,581.5231,1534.0638,581.2513,1533.25,580.9818z M1558.6863,571.7833c-0.4249-0.2454-0.856-0.4827-1.2874-0.7194
		c-0.3893-0.2643-0.7844-0.5199-1.175-0.7822c0.9531-0.1173,1.906-0.2346,2.8591-0.3519
		C1558.8396,570.5157,1558.6912,571.1439,1558.6863,571.7833z M1567.4745,569.2819c-0.218-0.1655-0.4391-0.3264-0.6566-0.4927
		c-0.3633-0.2776-0.7374-0.4714-1.1145-0.5962c-0.1135-0.0791-0.2249-0.1604-0.3392-0.2388
		c1.1224,0.155,2.2448,0.3101,3.3673,0.4651C1568.2751,568.6439,1567.849,568.9349,1567.4745,569.2819z M1571.5146,600.4476
		c1.4224,0.7504,2.8401,1.5093,4.2607,2.2628c0.0044,0.3458,0.0773,0.6851,0.1984,1.014
		C1574.5071,602.6063,1573.0208,601.5135,1571.5146,600.4476z M1570.4518,567.9576c0.233-0.1848,0.4309-0.4088,0.5815-0.6583
		c0.3296-0.0148,0.6591-0.0297,0.9886-0.0444c0.4318-0.0194,0.8107-0.1666,1.1257-0.3949c0.2031,0.0278,0.4064,0.0557,0.6096,0.0835
		c-0.4355,0.4506-0.7993,0.9746-1.0535,1.5481C1571.9624,568.0709,1571.1951,567.9144,1570.4518,567.9576z M1576.8247,563.3335
		c-0.2334-0.1801-0.5278-0.3214-0.9003-0.3992c-2.0302-0.4242-4.0658-0.788-6.1041-1.1243
		c2.4299,0.3527,4.8438,0.8085,7.2485,1.3129C1576.9851,563.1897,1576.9041,563.2601,1576.8247,563.3335z M1696.9458,690.0931
		c-0.1755-0.1414-0.3787-0.2312-0.5969-0.2761c-0.4006-1.5369-0.8037-3.073-1.2439-4.5991
		c-0.7999-3.1245-1.6655-6.2283-2.6143-9.301c1.6558,4.6841,3.1696,9.4199,4.5657,14.1863
		C1697.0193,690.1012,1696.9829,690.0936,1696.9458,690.0931z"/>
</g>
</svg>
