<?xml version="1.0" encoding="utf-8"?>
<!-- Generator: Adobe Illustrator 20.0.0, SVG Export Plug-In . SVG Version: 6.00 Build 0)  -->
<svg version="1.1" xmlns="http://www.w3.org/2000/svg" xmlns:xlink="http://www.w3.org/1999/xlink" x="0px" y="0px"
	 viewBox="0 0 1565.0685 2321.696" style="enable-background:new 0 0 1565.0685 2321.696;" xml:space="preserve">
<style type="text/css">
	.st0{fill:#AA111D;}
	.st1{fill:#DB1819;}
	.st2{fill:#C61829;}
	.st3{fill:#3E3E41;}
</style>
<g id="Layer_4">
	<path d="M1533.5441,933.0714c0.9272-12.7773,0.8247-25.5771-0.5305-38.3989c-0.6068-5.74-3.5928-10.8372-9.4834-12.4558
		c-2.6812-0.7367-5.8323-0.4807-8.5916,0.6353c0.009-0.7346,0.0243-1.469,0.0282-2.2035
		c0.0399-7.4611-4.9972-12.1329-10.8868-13.3329c-0.9308-4.2678-2.0266-8.5074-3.3014-12.7056
		c-1.0551-3.4746-3.1353-6.2844-5.7594-8.2788c-0.2993-1.2871-0.6306-2.5697-1.0364-3.8418
		c-4.34-13.606-14.1047-25.1912-27.6447-30.2083c-1.7555-0.6505-3.5474-1.1301-5.3539-1.4724
		c-2.7379-10.2722-8.3738-19.4806-17.0183-26.1592c-5.072-3.9187-10.9131-6.9429-17.2993-8.001
		c-3.916-0.6489-7.8149-0.9724-11.7769-1.0295c-1.8306-0.0264-3.6669-0.0735-5.4972-0.0889
		c-17.5381-12.3596-36.2317-23.3464-56.4546-30.4558c-0.3287-2.4937-0.7035-4.9888-1.1437-7.4834
		c-2.0753-13.6517-4.3318-27.2773-6.6624-40.8842c-0.266-1.553-1.2501-2.546-2.4885-3.0433
		c-1.7913-8.4872-3.6355-16.9631-5.5352-25.4266c0.417-0.8929,0.5525-1.9789,0.2477-3.2256
		c-2.1251-8.6936-4.6063-17.3049-7.1573-25.8998c-0.4165-1.6683-0.8525-3.3321-1.2747-4.9991
		c-2.239-9.806-4.6311-19.5785-7.1924-29.31c-3.4058-12.9407-7.0353-25.8891-10.9448-38.7722
		c-0.9958-4.3686-1.9749-8.7408-2.9331-13.1168c-0.2439-1.1135-0.9458-1.7009-1.7589-1.8804
		c-7.329-22.7067-15.6154-45.1172-25.1978-66.8198c-7.0951-16.069-15.0852-31.6824-23.4886-47.0882
		c1.595-0.5743,2.7544-2.3975,1.759-4.4508c-33.6484-69.4174-72.337-136.5391-118.8887-198.191
		c-45.7542-60.5959-98.6831-115.9967-162.3679-157.9144C917.048,36.5084,846.9692,8.7547,773.893,3.5006
		c-74.7969-5.3779-149.3405,15.7018-212.7286,55.155c-21.7436,13.5333-42.0546,29.1134-60.8899,46.3226
		c-6.1249,4.7902-12.158,9.6934-18.1047,14.6832c-1.3255,1.1122-1.5964,2.6455-1.2159,4.0676
		c-27.9289,28.7379-52.1815,61.1307-72.5656,95.5886c-4.7238,7.9853-9.2316,16.0937-13.5633,24.2979
		c-0.8301,1.5721-1.132,3.1143-1.0446,4.5564c-13.1504,23.264-24.6911,47.4411-34.4464,72.4332
		c-8.2339,21.0943-15.2992,42.7216-20.8369,64.7109c-2.223,7.1279-4.3241,14.2939-6.2694,21.5026
		c-2.4186,8.9625-5.4367,18.4648-7.0029,27.8641c-11.5521,48.4603-18.9874,97.9662-23.4879,147.4914
		c-2.8566,31.4354-4.4485,62.957-4.912,94.5093c-0.3798-0.0197-0.7534,0.1355-0.9447,0.5459
		c-2.1237,4.5555-2.8173,9.7949-2.8802,14.9036c-22.6924,9.1364-44.16,21.2894-63.479,36.2317
		c-1.6724,1.2936-2.6928,3.1436-3.1808,5.1776c-10.8411,4.6798-21.5307,9.6709-32.0244,15.019
		c-1.0977,0.1056-2.1926,0.3403-3.2667,0.7483c-53.0156,20.1333-106.3908,50.9773-136.4244,100.8538
		c-14.0406,23.3171-22.8943,51.3943-20.7573,78.8182c1.2035,15.4447,5.4709,30.8722,16.6154,42.2191
		c4.9459,5.0358,11.1147,8.7292,17.0439,12.4661c1.4125,0.8901,2.7972,1.8131,4.1899,2.7332
		c0.3262,0.2156,0.5837,0.3789,0.794,0.5072c0.1459,0.1683,0.3364,0.3778,0.5922,0.6465c1.0083,1.0592,2.0914,2.1547,3.1514,3.1615
		c0.4146,0.4951,0.6829,0.8079,0.8337,0.9736c0.3125,0.4446,0.6359,0.8817,0.9337,1.3365c0.8157,1.2438,1.5748,2.5245,2.2813,3.8334
		c0.3974,0.7361,2.6339,6.3738,1.3395,2.6259c0.9911,2.8698,1.9362,5.7179,2.6099,8.6862c0.2679,1.1805,0.4871,2.3677,0.6971,3.5581
		c-0.3961-2.0851,0.307,3.1473,0.3465,3.8715c0.1099,2.0128,0.1282,4.027,0.0776,6.0399c-0.4266,1.9158-0.8505,3.8321-1.2626,5.7515
		c-0.2057,0.3134-0.4008,0.634-0.6038,0.9492c-9.4288-10.6155-18.6046-21.449-27.8251-32.3145
		c-10.3569-12.3274-31.7518,3.9819-22.4632,17.3322c9.6745,13.9047,20.3831,27.206,31.5782,40.0429
		c1.2907,2.6106,2.4857,5.2712,3.5508,7.98c-1.9804,6.6824-3.4166,13.5149-4.2383,20.4036
		c-0.7943,2.1969-1.5007,4.4183-2.1307,6.6506c-3.0801,0.8403-5.6599,2.6919-7.6267,5.1592
		c-7.0541,6.1467-10.6894,15.9993-7.5326,25.7642c2.1445,6.6335,7.5159,10.1262,13.5012,10.1556
		c0.4029,0.1185,0.8112,0.2191,1.2242,0.2969c1.766,1.4171,3.6708,2.6327,5.6767,3.5872
		c12.3841,5.8927,26.5977,4.4774,39.9244,3.8976c0.9733,7.1793,3.1926,14.174,6.7411,21.0369
		c4.8004,9.2841,16.0055,9.3218,22.9628,3.926c4.1012,2.2841,9.0656,3.0969,13.5021,2.0574
		c1.4417,2.5847,2.9769,5.1406,4.6371,7.6619c7.199,10.9326,24.952,12.8403,31.7062,0c0.0266-0.0505,0.0511-0.1018,0.0776-0.1525
		c3.6224,1.8431,7.7839,2.6334,11.578,2.0627c6.6217-0.9958,11.084-4.5352,13.7495-9.5593
		c8.84,2.6852,17.6613,5.4501,26.4536,8.3503c1.3123,0.4329,2.6207,0.8771,3.9321,1.3126c0.231,1.6428,0.6893,3.3083,1.4235,4.9786
		c3.7452,8.5201,13.4856,14.175,22.8822,11.2306c1.1727-0.3674,2.3406-0.7498,3.5128-1.1194
		c3.5832,8.3585,12.0934,14.6047,22.4275,11.192c4.4473-1.4686,8.8945-2.9374,13.3418-4.4059
		c2.8575,1.0013,5.7158,2.0007,8.5735,3.0016c-0.6547,4.184,0.0226,8.5829,2.2891,12.4579c2.3231,3.9719,5.6241,6.5813,9.3544,7.981
		c0.0505,2.3008,0.5422,4.6414,1.5512,6.9369c3.4592,7.8693,13.5996,14.6964,22.5392,11.0621
		c8.7419-3.554,17.4838-7.1079,26.2257-10.6619c-0.0801,3.28,0.6884,6.6174,2.4982,9.7117
		c5.5864,9.5508,16.6584,11.1554,26.0048,6.8186c0.9573-0.4441,1.9145-0.8884,2.8718-1.3325
		c0.4112,1.6208,1.0352,3.2177,1.9293,4.7462c5.5026,9.4077,16.6166,11.2057,25.8525,6.7787
		c1.7018-0.8157,3.4036-1.6313,5.1055-2.447c0.3946,1.17,0.9176,2.3306,1.5838,3.4696c4.631,7.9175,15.0256,11.4038,23.4176,7.8698
		c0.3918,1.8022,1.0714,3.585,2.0729,5.2974c4.0887,6.9904,11.7144,9.9313,19.104,8.7792
		c4.2773,6.8914,12.4736,9.8871,20.0333,8.1742c5.0121,8.2147,16.6117,11.5439,24.9879,6.3354
		c6.6331-4.1246,13.3039-8.186,19.9979-12.2078c0.3646,1.0068,0.8109,2.0043,1.3806,2.9783
		c5.1726,8.8435,16.2281,11.1589,24.9897,6.5525c7.0046-3.6826,14.0092-7.3652,21.0139-11.0479
		c4.9427,8.4415,16.3452,11.4978,24.8059,6.4989c7.2809-4.3019,14.593-8.5492,21.9348-12.7433
		c4.6223,7.0712,13.7307,11.1882,23.6064,5.9412c1.9205-1.0205,3.847-2.0295,5.7706-3.0441
		c-0.2314,3.3954,0.4877,6.8737,2.319,10.0048c4.9709,8.4985,16.0179,11.1497,24.4873,6.4207
		c7.48-4.1766,14.98-8.3169,22.4951-12.4292c1.5154,10.8503,12.9287,20.0662,26.1062,13.4385
		c8.0361-4.0417,16.0721-8.0835,24.1082-12.1252c5.251,8.1531,15.3258,9.726,23.6965,5.6622
		c11.0093-5.3447,22.0188-10.6895,33.0282-16.0342c2.0565,10.3507,13.2223,18.9594,25.6882,12.4686
		c9.7784-5.0916,19.5813-10.1355,29.4077-15.1324c3.2242-0.136,6.4484-0.2778,9.6725-0.4237
		c-0.2515,3.2655,0.4343,6.6309,2.2534,9.7407c4.7505,8.1221,15.6201,10.9659,23.7474,6.2268
		c7.4171-4.325,14.8602-8.6042,22.3157-12.8618c4.724,5.855,12.8898,8.9749,21.5803,4.4467
		c9.0345-4.7074,18.0695-9.4142,27.104-14.1216c3.9988-0.3855,7.9958-0.7853,11.9906-1.2063
		c0.2283,2.2651,0.9321,4.5358,2.2007,6.7046c4.9658,8.4899,15.1599,10.2831,23.5173,6.1665
		c12.5132-6.1637,25.0264-12.3273,37.5396-18.491c2.8276,9.8519,13.5681,17.6451,24.9673,10.8246
		c16.0513-9.6041,32.1028-19.2083,48.1541-28.8125c8.2747-2.1517,16.5146-4.4525,24.7113-6.9077
		c5.2719,3.3489,11.8102,3.3728,17.954,0.439c3.1279-1.4937,6.2385-3.0212,9.354-4.5396
		c13.3826-1.7413,26.6996-4.0378,39.9175-6.8733c0.3669,1.5262,0.9292,2.953,1.7085,4.1619
		c3.3389,5.1792,8.0642,7.4554,13.5369,7.7384c4.5664,1.5538,9.6775,1.3868,13.7783-1.5305
		c0.0708-0.0504,0.1416-0.1007,0.2125-0.1512c10.9777-1.9744,21.7476-4.7396,32.3597-8.0503
		c-0.3206,4.6938,1.0741,9.3394,4.6052,13.0295c0.0352,0.4573,0.0679,0.9148,0.1036,1.3719
		c0.5148,6.5883,5.2548,12.2351,12.2351,12.2351c3.6066,0,6.9833-1.7064,9.274-4.3445c2.76,3.452,7.4856,5.2054,11.9175,3.9875
		c3.5653-0.9799,5.9429-3.3322,7.1632-6.2726c1.0258-0.0469,2.047-0.1816,3.0491-0.4263
		c17.5642-4.2874,33.3295-16.5596,41.0077-33.0363c2.615-5.6115,2.8745-12.4496,0.0221-17.746
		c0.1674-2.4314,0.3138-4.8654,0.4615-7.2991c17.5071-20.8055,31.7408-44.3442,41.8948-69.5947
		c0.6277-0.5735,1.2476-1.1555,1.8739-1.7305c2.6661,0.511,5.4625,0.1335,7.7758-1.4441
		c18.25-12.4478,34.3273-28.0139,47.8918-45.6398c11.6969-11.2491,23.1372-23.2346,33.5702-35.953
		c3.057-1.9527,5.4498-5.0635,7.0585-8.9319c4.9684-6.5353,9.6501-13.2458,13.9281-20.1436
		c9.5785-15.4446,15.9662-32.2869,17.4227-50.4669C1557.7262,933.7504,1542.838,927.8646,1533.5441,933.0714z M314.7562,651.3332
		c-0.0013-0.4701-0.0884-0.8993-0.2104-1.3086c0.066-2.8376,0.1373-5.6752,0.2151-8.5125
		c1.0685-18.1727,3.1855-36.3064,5.9561-54.0886c0.2799-1.7967-1.3082-2.9747-2.6749-2.8926
		c1.6473-15.7063,3.942-31.282,6.483-46.9683c0.4413-2.7242-0.9059-4.8509-2.7813-5.9699
		c1.0555-7.6775,2.1895-15.3457,3.4022-23.004c1.2539-0.6764,2.2183-1.926,2.531-3.8538c0.3765-2.3207,0.753-4.6412,1.1295-6.9619
		c-0.702,10.9236-1.326,21.8494-1.6863,32.773c-0.177,5.3664,7.7661,6.2717,9.2206,1.2479
		c2.3517-8.1227,4.7235-16.2384,7.0997-24.3522c-1.2877,10.1127-2.4603,20.24-3.5496,30.3729
		c-2.9124,27.0938-5.4224,54.3599-6.5436,81.623c-1.032-17.1088-1.644-34.2425-1.8812-51.3643
		c-0.0451-3.2565-5.0252-3.2631-5.0625,0c-0.4271,37.3831,1.2928,74.6511,4.4886,111.8895
		c-5.3964,1.3164-10.7545,2.7966-16.0654,4.4347C315.1201,673.3919,314.7862,662.3333,314.7562,651.3332z M707.2343,98.3829
		c18.6919-1.525,37.6353-2.4597,56.1846-5.3079c2.8364,0.0162,5.6704,0.0312,8.5198,0.0578
		c5.6338,1.0067,11.2424,2.1384,16.8176,3.4166c0.5793,0.5708,1.3634,1.0148,2.375,1.2563
		c11.7203,2.7979,23.364,5.8923,34.906,9.3206c26.5173,8.9789,52.1177,20.7565,76.3945,34.6874
		c49.8684,28.6164,94.1328,65.3502,132.7182,107.9019c41.9822,46.2978,77.1425,98.2817,108.3799,152.2974
		c31.8445,55.0657,60.9995,112.264,87.0543,170.2952c13.7197,30.5576,24.3116,61.9611,32.4067,94.4532
		c5.3741,21.5708,10.0341,43.3275,15.3402,64.9178c-36.33-18.3345-76.5291-29.6541-115.601-39.8215
		c-49.3026-12.8295-99.6493-21.2021-150.1807-27.425c-23.0464-2.8381-46.1499-5.1584-69.2874-7.0928
		c0.4922-0.016,0.9844-0.0321,1.4766-0.0481c10.3645,0.3379,10.9741-14.4417,2.0598-16.8796
		c-0.9684-2.9543-3.1604-5.4083-6.4373-5.9537c-9.1709-1.5267-18.6233-1.6559-27.4967,1.4949
		c-2.8705,1.0193-4.9207,2.9625-6.1659,5.2761c-34.1118-3.9533-68.3604-6.3222-102.6948-7.5415
		c-19.7994-0.7031-39.6318-0.791-59.4412-0.5726c-19.2611,0.2124-38.8198-0.0314-57.9016,2.7758
		c-0.802,0.0443-1.5549,0.1581-2.2576,0.3381c-0.0166,0.0027-0.0334,0.0048-0.05,0.0075c0.0005,0.002,0.001,0.0038,0.0015,0.0058
		c-1.6475,0.4303-3.0266,1.2005-4.1235,2.2139c-11.4109,1.5109-22.823,3.015-34.2365,4.5062
		c-2.1017-2.0134-4.8728-3.2784-7.8707-3.0858c-4.8491,0.3117-9.6984,0.6234-14.5476,0.9351
		c-22.6487-1.2593-45.2726,0.306-67.7722,4.5703c-3.042,0.5765-5.1831,2.2253-6.5161,4.3796
		c-5.085,0.5659-10.1698,1.1317-15.2548,1.6974c-24.9206,1.7197-49.7459,4.7034-74.3595,8.9363
		c-1.6539-0.8342-3.6305-1.2496-5.9266-1.0627c-18.8255,1.5315-37.5627,4.4917-55.8629,9.1904
		c-8.7642,2.2502-17.4294,4.8842-25.9616,7.897c-1.4113,0.4984-2.8139,1.0427-4.2172,1.5886
		c-3.1882-4.0371-8.3444-6.1875-14.1974-4.8464c-2.5831,0.5918-5.0599,1.8145-7.1765,3.4932
		c-0.2603,0.0481-0.5199,0.1001-0.78,0.1488c0.1871-0.5497,0.2959-1.162,0.2961-1.8447c0.001-3.8981,0.0021-7.7963,0.0032-11.6945
		c0.0005-1.7917-0.9022-3.1917-2.1768-4.1038c-0.0746-2.3391-0.1493-4.6782-0.2239-7.0172c0.0376-4.58-5.3768-5.5622-7.8773-3.0174
		c-0.2904-3.2197-0.5625-6.4413-0.821-9.6641c2.6122,1.5873,6.9882,0.3322,7.1899-3.7221
		c2.2327-32.0352,4.1829-64.0382,7.6764-95.9729c3.1122-28.4492,7.2547-56.7595,11.4766-85.0598
		c12.4468-40.5175,28.1464-80.3337,47.1326-118.3364c0.7057-0.3377,1.35-0.9132,1.8413-1.8123
		c11.3492-20.7682,22.6847-41.4589,35.6906-61.2561c8.8557-13.4799,18.2961-26.5473,27.9778-39.4369
		c3.3138-3.7123,6.6824-7.3751,10.086-11.0054c0.4851-0.2387,0.9583-0.5787,1.4028-1.0491
		c17.1465-18.1492,35.5461-35.1708,54.9399-50.9874c22.7889-15.192,46.1939-29.4485,70.213-42.577
		c1.5966-0.752,3.1904-1.5176,4.7887-2.261c0.6526,0.1531,1.3977,0.1398,2.2441-0.1459
		c18.2542-6.1606,36.178-13.3057,54.3806-19.6362c12.0295-4.1837,24.0632-8.352,36.1333-12.4141
		c0.5603,0.1384,1.1777,0.1675,1.8577,0.0236c1.4802-0.3135,2.9651-0.5982,4.4478-0.8967c-0.011,0.0187-0.0265,0.0353-0.0366,0.0543
		c-0.0312,0.0048-0.0625,0.0096-0.0936,0.0144c-0.3947,0.0609-0.6742,0.2645-0.8584,0.5352
		c-0.1324,0.0417-0.2655,0.0817-0.3971,0.1256c-0.4185,0.1396-0.6403,0.5084-0.687,0.891
		c-1.7766,0.2905-3.5532,0.5815-5.3278,0.8621C705.1523,95.6651,705.5301,98.522,707.2343,98.3829z M1292.4166,1097.4384
		c-18.0603,7.468-36.4434,14.1509-55.051,20.1541c-2.3596-9.7637-12.8546-17.448-24.823-11.214
		c-11.9238,6.2108-23.8508,12.4156-35.7754,18.6249c-5.4573-5.8473-13.9321-6.4255-21.2947-3.0635
		c-17.7521,8.1066-35.4141,16.4053-52.9937,24.8733c-0.2789-0.6523-0.5879-1.2994-0.9587-1.9335
		c-5.2385-8.9561-15.1437-9.9543-23.8345-6.2496c-15.9917,6.817-31.9285,13.76-47.8135,20.8179
		c-0.2451-2.313-0.9626-4.6146-2.2273-6.7766c-5.0975-8.7152-15.4619-10.4521-24.0274-6.3003
		c-10.8093,5.2394-21.6188,10.4788-32.4281,15.7181c-0.2979-0.7247-0.629-1.4413-1.0353-2.1359
		c-5.0833-8.6907-15.6418-10.6534-24.2133-6.349c-10.9351,5.4913-21.8701,10.9828-32.8052,16.4741
		c-0.1694,0.0087-0.3389,0.0179-0.5083,0.0265c-0.2197-2.3992-0.948-4.8068-2.2922-7.105
		c-5.2438-8.9651-15.6211-10.4548-24.3918-6.3958c-6.1991,2.8689-12.3848,5.7664-18.564,8.6774
		c-0.002-0.0046-0.0033-0.0093-0.0054-0.0139c-3.2478-7.3885-12.7855-13.8214-21.1824-10.3962
		c-10.5542,4.3054-21.0704,8.6996-31.5552,13.1652c-0.3569-0.9866-0.7915-1.96-1.3436-2.9038
		c-4.6311-7.9176-12.9399-9.9181-20.8776-7.8207c-3.7122-8.9967-14.0879-15.2968-25.5571-9.2759
		c-9.9353,5.2157-19.8707,10.4313-29.8062,15.6469c-0.2504-0.5461-0.5278-1.0879-0.8406-1.6228
		c-4.6621-7.9706-12.9336-9.9858-20.9083-7.9792c-0.3905-1.7534-1.0609-3.4905-2.0406-5.1655
		c-5.1309-8.7722-16.5098-11.4846-25.249-6.6205c-3.5408,1.9707-7.0815,3.9415-10.6223,5.9122
		c-3.104-2.1514-6.7885-3.233-10.5596-3.2463c-0.2267-0.801-0.4919-1.6008-0.8406-2.3938
		c-3.4043-7.7446-13.2903-14.3353-22.0688-10.8314c-3.6401,1.4529-7.2703,2.9286-10.8969,4.4124
		c-5.5094-9.2777-16.5221-11.0321-25.6908-6.6444c-6.7944,3.2515-13.589,6.5031-20.3835,9.7546
		c-0.3486-0.8972-0.7489-1.7848-1.2532-2.6469c-5.5715-9.5255-16.6039-11.1151-25.924-6.7975
		c-9.7954,4.5378-19.5908,9.0757-29.3862,13.6135c-3.454-7.8467-13.5568-14.6387-22.4696-11.0217
		c-6.8636,2.7855-13.7274,5.571-20.591,8.3564c0.8192-4.2402,0.2134-8.75-2.1966-12.8704
		c-1.1124-1.9017-2.4543-3.4817-3.9532-4.7783c-0.7004-11.3311-10.3087-22.1487-23.7476-17.7198
		c-7.6204,2.5114-15.2409,5.0227-22.8613,7.5341c-0.2509-1.2903-0.6198-2.5488-1.142-3.7368
		c-3.5188-8.005-13.7457-14.8289-22.8213-11.2007c-4.983,1.9922-9.9793,3.95-14.977,5.9041
		c-4.7437-3.7605-11.2823-4.9811-17.8099-3.9763c-1.6265,0.2502-3.2503,0.5153-4.8752,0.7742
		c-3.895-1.6937-8.288-2.1396-12.4708-0.7555c-5.5217,1.8271-10.9985,3.7787-16.4361,5.8286
		c-2.6805,0.515-5.358,1.0438-8.0336,1.5824c-5.1823,0.7058-10.3743,1.3345-15.5755,1.8848
		c-0.9158-10.6829-8.8741-17.9973-19.5613-18.6851c-24.9348-1.6047-49.905-2.3655-74.8759-2.2944
		c-16.3148-3.652-33.2104-3.8326-49.5219-0.3625c-19.7393,0.611-39.4568,2.303-59.2023,2.6918
		c6.4871-9.1696,10.2262-20.0333,11.4887-31.1552c0.8138-7.1694-0.9808-13.801-5.931-19.1935
		c-0.6339-0.6906-1.3199-1.2996-2.0378-1.8529c1.8775-7.4032,3.3825-14.9058,4.4608-22.5043
		c1.0747-7.5739-0.9765-14.7028-7.7339-18.4608c-0.1175-0.4877-0.2274-0.9751-0.3543-1.4631
		c-0.6751-2.594-1.5009-5.1873-2.4603-7.749c0.8316-2.8416,1.6805-5.6741,2.5601-8.4883
		c2.8551-9.1339-6.9481-14.3052-13.8005-11.3792c-1.9907-2.4333-4.1537-4.7048-6.5013-6.7487
		c-2.261-1.9684-4.6426-3.7357-7.0768-5.4235c-8.8193-13.092-17.3909-26.9248-19.8371-42.3005
		c0.171-1.3927,0.4941-3.8252,0.4304-3.6674c0.9144-5.225,2.0988-10.3802,3.6907-15.4493c0.7936-2.5271,1.671-5.0281,2.6245-7.4993
		c0.1531-0.3967,1.579-3.6241,1.2009-2.8313c0.6898-1.5016,1.3868-2.9988,2.1271-4.4777
		c2.6387-5.2714,5.6133-10.3739,8.8669-15.2889c1.7014-2.5702,3.5074-5.0588,5.3295-7.543
		c0.1395-0.1838,0.2689-0.3513,0.3522-0.4521c1.3704-1.6605,2.7249-3.3303,4.1364-4.9565c3.0836-3.5532,6.324-6.9666,9.6902-10.2522
		c1.1071,0.6117,2.494,0.6184,3.9113-0.4391c34.4204-25.6815,72.1717-46.8815,110.3769-66.3629
		c37.5826-19.1641,76.6016-35.3875,116.7006-48.4958c23.1694-7.5742,46.6721-14.3868,70.3126-20.3291
		c4.1561-1.0447,6.6577-3.6011,7.7858-6.6587c77.519-16.3499,156.3985-25.7285,235.6842-28.4263
		c55.0775-1.8741,110.2095-0.8955,165.2738,0.9534c50.8326,1.707,101.6595,4.2444,152.3162,8.8916
		c50.1373,4.5996,100.0984,11.3098,149.4285,21.4672c24.9814,5.1438,49.8308,10.7701,74.4097,17.6077
		c24.184,6.7277,47.6432,15.5604,71.6567,22.7207c4.1272,1.2306,8.2428,2.4674,12.3584,3.6986
		c-2.0909,0.8679-3.5719,2.8162-3.229,5.8584c5.5817,49.5243,11.989,98.8916,18.6333,148.2505
		c-1.8059,1.9485-2.9878,4.6401-3.0625,8.0823C1289.6791,971.32,1290.1273,1034.4113,1292.4166,1097.4384z M1293.2404,789.9266
		c-0.4061-3.3253-0.7898-6.6509-1.1838-9.9763c0.7855,2.3171,1.583,4.6304,2.4028,6.9355c0.1956,0.5498,0.4282,1.0503,0.684,1.5166
		C1294.4271,788.8155,1293.7753,789.3174,1293.2404,789.9266z M1300.9032,737.4334c-4.4973-19.5007-9.6406-38.8483-15.6179-57.9558
		c-2.7214-8.699-5.7219-17.34-8.9321-25.9214c-5.8662-22.5969-12.5649-44.9609-21.4614-66.7213
		c-12.7068-31.0799-27.6565-61.2269-42.5731-91.2906c-14.2272-28.6742-28.9141-57.1292-44.5223-85.079
		c-31.1411-55.7644-66.1023-109.6155-107.6718-158.2262c-38.3231-44.8143-82.7928-84.7903-132.6485-116.4222
		c-48.8491-30.9932-104.2456-53.4046-161.5701-62.083c-7.4418-1.1266-14.9127-2.0577-22.4043-2.7817
		c-4.9055-0.474-9.1124,4.5275-9.1124,9.1125c0,0.0287,0.0039,0.0555,0.0042,0.0842c-14.0715,0.2513-28.1252,1.8306-41.9047,4.698
		c-0.4565-0.2801-1.0535-0.361-1.7622-0.1081c-1.1448,0.4085-2.2822,0.8375-3.425,1.2513
		c-3.9634,0.9232-7.9023,1.9485-11.8079,3.087c-1.4587,0.4253-2.3787,1.3204-2.8518,2.3878
		c-7.0901,2.7274-14.1387,5.5599-21.1443,8.4958c-17.9011,5.983-35.5607,13.2073-52.2903,21.6624
		c-1.1593,0.5859-1.9066,1.3817-2.3262,2.2668c-10.8643,6.0143-21.4742,12.419-31.8163,19.2084
		c-14.888,8.7415-29.4562,18.0349-43.629,27.9332c-1.4379,1.0043-2.1204,2.3737-2.2611,3.772
		c-24.8724,20.6915-47.951,44.3253-67.5457,70.3289c-0.7894,0.886-1.5836,1.7682-2.3663,2.6592
		c-22.4492,25.5556-42.5205,53.5847-58.795,83.4764c-2.5716,4.7233,2.3273,9.0071,6.2966,7.9078
		c-4.5026,7.9575-8.9094,15.9782-13.2138,24.069c-1.3343,2.5079-0.2936,4.8871,1.4919,6.2223
		c-3.1443,6.321-6.1743,12.6965-9.1122,19.1157c-1.1104-0.756-2.9141-0.5635-3.4171,1.1222
		c-2.1622,7.245-4.3365,14.4905-6.5262,21.7336c-3.7139,9.0112-7.2353,18.1141-10.551,27.3151
		c-0.7033,0.535-1.2519,1.359-1.4877,2.5509c-0.2273,1.149-0.433,2.302-0.655,3.452c-1.0861,3.111-2.1605,6.2275-3.2001,9.3607
		c-0.5984,1.8033-0.2283,3.3287,0.6589,4.4553c-0.2458,1.4014-0.4748,2.8057-0.7138,4.2083
		c-3.4223,10.6554-6.9183,21.2861-10.52,31.8776c0.8732-12.3235,1.6646-24.6549,2.6202-36.9537
		c0.2263-2.9119-2.3392-4.9473-4.9879-5.2769c0.251-3.0662,0.4255-6.142,0.5195-9.2269c1.8764-8.3293,3.8466-16.6389,5.9378-24.9186
		c0.2888-0.5215,0.5304-1.1062,0.6791-1.7983c0.4608-2.1451,0.9515-4.28,1.434-6.4177c9.0417-34.507,20.0063-68.5066,33.15-101.6168
		c3.2253-8.1248,6.6357-16.1571,10.159-24.1337c3.817-8.0046,7.8044-15.9447,12.0087-23.8016
		c0.7275-1.3596,1.4816-2.7017,2.2201-4.054c2.4241-0.1181,4.7702-1.3783,6.2832-4.2426
		c33.6244-63.6556,79.5596-121.9123,138.3321-164.1356c2.5558-1.8361,5.1417-3.6304,7.7412-5.4049
		c3.1292-1.7088,6.1423-3.5574,8.6906-5.7761c55.334-35.6456,119.6658-57.2333,185.8685-57.1447
		c70.7657,0.0947,139.6549,23.6349,199.9913,59.6641c63.0149,37.6285,116.054,89.0201,161.6297,146.1863
		c23.3463,29.2836,44.9481,60.0101,65.3973,91.3732c20.6262,31.6342,40.7349,63.6232,61.1273,95.4125
		c1.6716,2.6059,3.3674,5.1962,5.0704,7.7818c-0.9443,0.9365-1.4253,2.3983-0.7374,3.9489
		c8.5143,19.192,15.9395,38.7888,23.5599,58.343c7.5454,19.3615,15.0879,38.7253,21.8124,58.3915
		c12.7023,37.1484,23.0603,75.0992,31.0038,113.5474c-1.28,0.8486-2.1534,2.3445-1.7877,4.2644
		c5.0896,26.7131,9.6034,53.537,13.4844,80.4524C1320.896,737.3675,1310.884,736.7551,1300.9032,737.4334z M1349.9443,1068.6119
		c-1.1262,0.3323-2.2382,0.7595-3.3204,1.2855c-4.835,2.3503-9.6375,4.766-14.4137,7.2325
		c0.3339-27.644-0.4896-55.2907-2.4507-82.7347c0.8158-1.2363,1.2562-2.748,1.0972-4.5227
		c-0.5984-6.6747-1.2369-13.3462-1.8964-20.016c5.4675-1.8822,7.3477-7.2291,6.5938-12.6078
		c-6.9414-49.5276-15.3091-98.8228-23.446-148.1655c-0.2666-1.616-0.8796-2.9415-1.7224-4.0077
		c-0.2302-2.91-0.4629-5.8193-0.6714-8.7354c-0.1074-1.5017-0.8661-2.5614-1.8708-3.1973
		c-0.0132-0.0626-0.0254-0.1254-0.0386-0.1879c-0.1528-0.7251-0.4104-1.364-0.7242-1.9487
		c2.3275-1.6959,3.8142-4.6393,3.1145-8.4587c-1.1727-6.4017-2.4086-12.7924-3.6974-19.1721
		c9.6152,0.1116,18.9626,1.5061,28.0483,3.907c0.7012,5.5272,1.3599,11.058,1.9966,16.5906
		c0.9353,12.9172,2.2937,25.842,4.0526,38.7269c1.6505,17.2308,3.1536,34.4771,4.6823,51.7274
		c0.3408,3.8457,3.0789,6.082,6.0771,6.7002c0.699,3.0134,1.4187,6.0193,2.1593,9.0182
		C1351.0679,949.534,1349.8629,1009.0696,1349.9443,1068.6119z M1459.3212,976.4311c0.0129,0.7097,0.0879,1.3949,0.194,2.066
		c-0.7024,1.226-1.4069,2.4507-2.0963,3.6841c-4.0251-3.902-11.5581-4.781-15.6788,1.2931
		c-4.7245,6.964-9.3588,13.9779-13.9343,21.0253c-0.9611,0.5732-1.8619,1.2559-2.6702,2.0547
		c-2.2628,2.236-4.4716,4.5277-6.6362,6.8617c-5.678-2.2662-10.381-1.637-15.2257,2.2798c-2.3469,1.8975-4.618,3.8698-6.8455,5.8827
		c2.885-14.8196,5.5696-29.6692,7.9092-44.5623c7.2258-45.9973,10.1272-92.2434,2.8826-138.4324
		c-1.6317-10.4033-3.8921-20.6447-6.7498-30.7061c2.3213,0.407,4.6665,0.6958,7.0239,0.8818
		c1.0886,0.0859,2.1779,0.1182,3.2673,0.1365c5.9873,4.5374,11.8723,9.2166,17.661,13.9885
		c-8.1926,10.2913-11.097,25.2939-3.2289,36.7156c6.4574,9.3735,22.5742,11.9265,28.4292,0
		c1.6506-3.3623,3.1659-6.8165,4.4797-10.3405c1.8904,1.942,3.731,3.9235,5.5049,5.9512c0.061,0.2799,0.1218,0.5601,0.1698,0.8444
		c0.0267,0.3108,0.063,0.729,0.11,1.2661c0.0811,1.2341,0.123,2.4697,0.1257,3.7065c0.0034,0.7144-0.0172,1.4282-0.0383,2.1422
		c-2.7793,7.6287-3.3474,15.985-1.9253,24.4984c1.1399,6.824,6.7688,10.6201,12.959,11.4333
		C1464.2906,923.3448,1458.8407,949.8649,1459.3212,976.4311z"/>
	<g>
		<path d="M513.8138,1481.9429c1.0701,0.0109-0.7112-0.6906-1.653-0.2067c0.0101,0.0016,0.0203,0.0033,0.0304,0.0049
			C512.494,1481.6705,513.2544,1481.8248,513.8138,1481.9429z"/>
		<path d="M1409.1295,1313.0487c-0.8656-8.6018-5.9514-16.001-15.0859-17.0876c-7.8123-0.9297-17.6622,3.8146-19.0896,12.4624
			c-0.2002,1.2136-0.4349,2.3475-0.7346,3.5496c-0.0139,0.0552-0.1699,0.4302-0.3271,0.8099
			c-0.2675,0.402-0.8003,1.318-0.8186,1.3429c-0.7366,1.0039-1.2966,2.0604-1.9683,3.0967
			c-0.5076,0.7832-0.9963,1.5708-1.5405,2.3297c-0.1173,0.109-0.2991,0.2927-0.5674,0.578
			c-1.7687,1.8811-3.5367,3.7231-5.4402,5.4739c-6.9062,6.3516-14.4087,12.1381-21.8113,17.8954
			c-0.1154,0.0897-0.2155,0.1676-0.3057,0.2377c-1.0409,0.7996-2.0854,1.5947-3.1317,2.387
			c-1.9039,1.4417-3.8154,2.873-5.7343,4.2947c-4.1091,3.0446-8.2522,6.0435-12.4285,8.9951
			c-7.7893,5.5055-15.6934,10.8484-23.7007,16.0317c-14.6904,9.5093-29.7336,18.4807-45.0654,26.9316
			c-8.8571,4.3142-17.7797,8.4519-26.7539,12.3707c-1.8019,0.7869-3.6075,1.5647-5.4153,2.338
			c-0.0381,0.0164-0.5695,0.2402-1.0007,0.4221c-0.4353,0.1809-0.9869,0.4106-1.0266,0.427
			c-3.8853,1.6033-7.777,3.189-11.6865,4.7322c-7.0439,2.7805-14.1313,5.4509-21.2582,8.012
			c-14.2743,5.1294-28.6658,9.9561-43.1813,14.3584c-30.627,9.2886-61.7905,16.7314-93.2368,22.6597
			c-17.1331,3.23-34.3489,6.0142-51.6181,8.4092c-0.5554,0.077-1.1111,0.153-1.6665,0.2292
			c-0.4069,0.0547-1.5466,0.2087-1.8395,0.2467c-1.9186,0.2484-3.8372,0.4982-5.7566,0.7406
			c-4.4796,0.5657-8.9624,1.1052-13.4479,1.6217c-8.9753,1.0333-17.9618,1.9691-26.9563,2.8175
			c-34.7703,3.2794-69.6091,5.5538-104.5089,6.8665c-71.4169,2.6863-143.0846,2.7616-214.5123,0.4449
			c-34.4602-1.1177-69.0556-2.5629-103.3787-5.9423c-3.2623-0.321-6.5212-0.6785-9.7743-1.082
			c-0.1055-0.0129-0.3086-0.0562-0.5476-0.1066c-0.2036-0.0021-0.4985-0.0272-0.9351-0.0944
			c-0.2293-0.0354-0.4583-0.0724-0.6876-0.1074c-0.0298,0.0068-0.068,0.0098-0.088,0.0215
			c0.0179-0.0105,0.0389-0.0167,0.0576-0.0264c-1.5112-0.2311-3.023-0.4569-4.5313-0.7078
			c-6.9393-1.1542-13.836-2.5909-20.6212-4.4545c-3.104-0.8524-6.1848-1.7919-9.229-2.8385
			c-1.393-0.4788-2.7791-0.9792-4.1556-1.5033c-0.6274-0.2389-1.2486-0.4983-1.8769-0.735
			c-0.0442-0.0208-0.0723-0.0344-0.1201-0.0569c-5.9039-2.7708-11.6111-5.7957-17.1081-9.311
			c-1.2074-0.7722-2.41-1.5465-3.5865-2.3657c-0.1992-0.1387-0.7021-0.4856-1.1235-0.7739
			c-0.0801-0.0609-0.1462-0.1125-0.1871-0.147c-2.6211-2.2083-5.1226-4.5107-7.5002-6.981
			c-6.3456-6.593-17.0258-6.8716-24.0652-1.4329c-6.5211,5.0381-10.2507,16.3442-4.7205,23.6433
			c1.0471,1.3821,2.1201,2.7383,3.212,4.0748c-31.0611-4.8563-62.0535-10.2362-92.6912-17.2701
			c-39.705-9.1155-77.7351-21.772-114.9818-38.2095c-9.5459-4.2126-18.377-9.0835-28.5796-11.4739
			c-7.5194-1.7617-13.467,4.6277-11.9691,11.9691c0.7341,3.598,3.1781,6.3698,6.2252,7.9982
			c14.1839,13.1708,34.4294,21.011,51.8785,28.3723c19.4017,8.1851,39.2514,15.1943,59.4319,21.2026
			c40.4738,12.0505,81.9568,20.3301,123.4759,27.8394c91.8162,16.6064,184.2978,29.7292,277.4732,35.5569
			c91.1051,5.698,182.6139,3.8044,273.0673-8.9788c79.0844-11.1766,157.1465-31.173,230.9638-61.8611
			c37.748-15.6931,74.447-33.6936,109.345-55.0283c16.8578-10.3059,33.2944-21.3035,49.2233-32.9949
			c4.5645-3.3501,9.0773-6.7723,13.5668-10.2249c0.2231,1.6775,0.8574,3.1558,1.771,4.4043
			c-0.4792,3.7947-0.965,7.5885-1.47,11.3811c-11.4165,42.5867-22.955,85.1399-34.532,127.6871
			c-5.3977,19.8378-10.5826,39.7319-15.8151,59.6139c-2.2159,8.4202,4.6383,13.9763,11.3502,14.1697
			c-3.7928,16.2354-7.6431,32.4578-11.4468,48.6926c-2.5249,9.5662-5.0999,19.1194-7.7625,28.6482
			c-3.4597,12.3821-7.7319,24.688-9.9849,37.3486c-0.53,2.978-0.0941,5.5432,0.9626,7.6111
			c-7.4884,33.1411-14.9768,66.2822-22.4652,99.4236c-6.236,27.5986-12.5854,55.4692-15.8749,83.5723
			c-0.4205,3.5938,1.6433,6.9753,4.5251,9.165c-6.1592,24.8374-12.637,49.6006-19.3582,74.3049
			c-5.6351,20.7126-11.4128,41.3833-17.0425,62.0977c-1.7863,6.5726,1.6604,11.4537,6.4373,13.5865
			c-20.9431,42.1479-54.2588,78.0869-88.0577,110.4304c-5.2289,5.0039-10.5355,9.9233-15.8556,14.8284
			c-31.8665,20.1621-65.9893,37.03-100.1469,52.252c-18.1234,8.0767-36.2396,16.1704-54.3775,24.2153
			c-5.9019,2.6179-7.2881,11.2251-4.2881,16.3542c3.5906,6.1389,10.3948,6.8389,16.354,4.2883
			c39.0146-16.6995,78.0729-34.3945,114.634-56.0647c0.5583,0.9441,1.2178,1.8313,2.0046,2.6184
			c5.5306,5.5305,14.1516,5.1023,19.7217,0c49.4871-45.3328,98.4797-96.3435,123.001-159.9727
			c0.2897-0.7515,0.5576-1.5112,0.8407-2.2651c5.1315,0.3022,11.1036-2.9336,11.9738-8.3105
			c4.9807-30.778,8.9995-61.7042,13.4077-92.5721c3.2457-14.103,6.3225-28.248,9.256-42.4224
			c3.5536-1.198,6.6597-3.885,7.3167-7.7334c7.1185-41.7039,13.61-83.5076,20.3187-125.2769
			c5.0879-0.0952,10.4119-3.4133,11.4203-8.6226c8.3042-42.8945,14.6144-86.1155,21.6942-129.2244
			c7.1404-43.4783,14.8984-86.8484,22.2153-130.2957c4.1287-24.5161,8.3757-49.0121,12.7317-73.4888
			c0.7269-4.0845-3.426-6.5029-6.3113-5.3405c5.251-21.5927,10.5444-43.1749,15.9678-64.7247l0.9062-3.6008
			c3.9148-7.7942,6.6084-16.5095,9.0406-24.6777c0.4183-0.4719,0.8502-0.9319,1.254-1.4164
			C1405.131,1336.3247,1410.3958,1325.6334,1409.1295,1313.0487z"/>
	</g>
	<path d="M170.1102,813.4221c-1.3673,0-1.3696,2.125,0,2.125C171.4775,815.5471,171.4798,813.4221,170.1102,813.4221z"/>
	<path d="M651.9538,881.1065c-111.0387,11.1105-221.4328,34.0703-327.351,69.2639c-29.793,9.8993-59.3265,20.6292-88.7209,31.6515
		c-9.7772,3.6663-5.7491,19.3729,4.3781,15.8805c52.17-17.9911,105.4619-31.6538,158.9884-44.9016
		c53.5559-13.255,107.6958-23.7766,162.187-32.3635c30.0679-4.7382,60.2761-8.7236,90.5183-12.1714
		c7.3396-0.8367,13.6797-5.6882,13.6797-13.6797C665.6335,887.9593,659.3502,880.3665,651.9538,881.1065z"/>
	<path d="M1223.3699,2140.7861c8.0931-15.8027,15.9381-31.7349,23.774-47.6707c-4.2188-2.0073-9.8176-1.605-12.9847,2.064
		c-6.2843,7.28-12.73,14.3843-19.3011,21.3489c15.2828-17.3718,28.8258-36.2551,40.3599-56.3499
		c2.9104-5.0708-4.662-9.4275-7.7983-4.5583c-18.5405,28.7839-41.3674,54.4546-67.6707,76.3665
		c-6.3635,5.3013,1.5129,14.5132,8.1404,11.4927c-28.3019,26.6313-58.9163,50.5781-91.7329,71.6453
		c-2.7484-1.6262-6.2556-2.0447-9.9033-0.2292c-37.5707,18.6997-76.163,35.3481-115.6857,49.3486
		c-2.4272-1.3223-5.3099-1.7817-8.0601-0.9341c-43.3271,13.3511-87.7357,23.0325-132.7009,27.644
		c-2.0325-3.4207-5.6698-5.978-9.7213-5.6135c-27.7928,2.5-55.66,4.2273-83.5233,4.6477
		c3.2483-5.7085,0.7729-14.4548-7.6985-14.1118c-9.9749,0.4041-19.9413,0.8325-29.9042,1.2361
		c0.7716-2.1443,0.9471-4.4993,0.3606-6.6335c-1.6735-6.0894-7.5901-8.6653-13.3967-7.6064
		c-34.7148,6.3306-70.8021,7.1831-105.9811,2.2927c4.1692-2.2844,6.3562-7.8044,5.1117-12.3328
		c-1.6754-6.0967-7.4782-8.4546-13.2334-7.5137c-31.1127,5.0854-64.0485,1.425-93.5558-10.3467
		c7.9796-2.7373,9.6049-15.592-0.4503-18.9814c-27.5355-9.2815-54.03-20.74-78.2512-35.8926
		c1.0191-3.4197,0.4577-7.2107-2.6889-10.0693c-17.9473-16.3052-36.5669-31.8755-53.5672-49.1973
		c-16.9311-17.2515-33.1756-34.8887-48.2272-53.8301c-0.347-0.4365-0.7228-0.7803-1.1164-1.0427
		c-1.9891-3.0334-4.0792-5.9739-6.5451-8.4858c-1.9385-1.9746-6.2251-0.6335-5.8948,2.4417
		c0.8334,7.7603,4.9139,15.4724,8.1337,22.5312c3.3652,7.3779,7.0055,14.6829,11.4039,21.5024
		c8.9335,13.8503,19.1369,28.2024,31.9886,38.6462c1.2761,1.0369,2.6986,1.8296,4.1792,2.3479
		c8.2808,9.2241,17.077,17.9365,26.3564,26.0073c19.9327,20.4856,43.3539,38.1587,69.1208,50.3975
		c27.7613,27.6338,64.9289,44.7246,103.6428,47.4111c17.4363,7.2148,35.4619,12.697,54.0546,16.1021
		c0.4285,1.3455,1.453,2.4297,3.1873,2.6787c11.9127,1.7119,23.9014,3.2505,35.9319,4.5359
		c0.3623,0.2583,0.7712,0.4724,1.2542,0.5984c61.4226,16.0554,126.0546,23.4351,189.3085,15.511
		c0.9615-0.1204,1.8983-0.3281,2.802-0.6035c11.8317,0.0969,23.6598-0.2981,35.4447-1.2844
		c37.299-3.1216,74.5663-9.6116,110.0365-21.7271c1.9493-0.666,3.6597-1.7852,5.0066-3.2031
		c25.6465-7.0376,50.7249-15.6726,75.3307-25.8857c0.5096-0.2114,1.014-0.4312,1.5226-0.6443
		c58.0618-21.9458,111.1232-55.8987,156.7574-98.1675C1212.5764,2151.49,1218.0377,2146.198,1223.3699,2140.7861z"/>
</g>
<g id="Layer_2">
	<g>
		<g>
			<g id="XMLID_1_">
				<path class="st0" d="M1488.5583,869.3041c27.41,50.77-0.6,108.95-38.23,145.66c-20.75,20.25-44.89,38.0599-70.12,52.59
					c2.97-87.75,0.5-175.68-9.89-262.91c-1.62-13.58-3.4301-27.13-5.4501-40.65c25.73,11.84,47.92,29.08,69.75,46.96
					C1455.0583,827.6941,1475.8284,845.7241,1488.5583,869.3041z"/>
				<path class="st0" d="M1301.2383,883.8741c9.04,72.14,12.02,144.8701,10.03,217.5001c-33.61,15.51-69.4,26.38-105.16,35.6499
					c-39.09,10.13-78.7999,18.01-118.59,24.8c-84.02,14.34-169.14,22.33-254.34,24.3101c-85.15,1.98-170.42-2.17-254.97-12.42
					c-84.8-10.28-168.49-27.12-251-49.14c-41.05-10.95-82.17-22.28-124.36-27.91c-20.71-2.77-41.56-4.1-62.45-3.0599
					c-16.54,0.8199-33.1,4.41-49.65,1.89c-3.61-0.55-6.93-1.4501-9.82-2.9501c0.51-0.4299,0.88-1.0699,0.93-1.9099
					c1.04-17.15,15.6-28.55,24.19-42.14c6.81-10.79,12.92-25.3,5.95-37.32c0.25-0.47,0.28-1.04-0.07-1.58
					c-23.27-35.98-51.3-75.11-40.53-120.34c9.19-38.54,40.59-67.96,72.25-89.4c36.78-24.92,78.65-43.37,120-59.23
					c42.86-16.43,87.02-29.35,131.79-39.43c90.91-20.49,184.04-29.37,277.03-33.05c95.61-3.79,191.88-4.01,287.36,2.7
					c96.44,6.78,192.84,22.07,284.4,53.87c9.91,3.44,19.7401,7.09,29.51,10.9
					C1285.8083,784.4341,1294.9783,833.9841,1301.2383,883.8741z"/>
				<path class="st1" d="M1400.1783,1354.5341c-0.39,1.6001,0.0599,2.92,0.9399,3.86c-0.71,3.14-1.38,6.3-2.08,9.4601
					c-2.59,11.7-5.1801,23.4-7.77,35.1c-5.1799,23.41-10.13,46.86-15.0599,70.33c-9.9301,47.27-19.62,94.6001-29.3,141.9301
					c-19.29,94.34-38.58,188.67-57.88,283.01c-10.8099,52.89-21.62,105.77-32.4301,158.6499c-0.11,0.54-0.1399,1.05-0.1,1.54
					c-11.2799,31.6001-27.45,61.48-48.4399,87.72c-20.09,25.1301-44.17,46.8601-70.52,65.25
					c-61.38,42.8301-133.05,70.5801-206.3,84.72c-83.04,16.04-169.67,16.6702-253.58,7.4502
					c-82.3-9.04-164.5-30.4102-236.78-71.6702c-63-35.97-117.81-86.5898-154.91-149.25c-3.78-6.3799-7.72-12.6399-11.38-19.0798
					c0.91-1.02,1.41-2.4102,1.12-4.0701c-14.71-84.13-30.03-168.14-45.47-252.13c-15.54-84.5601-31.26-169.0801-46.81-253.64
					c-8.34-45.42-16.11-90.95-25.63-136.14c37.91,18.49,78.48,32.14,118.58,44.98c39.48,12.65,79.56,23.28,120.05,32.2001
					c84.44,18.6,170.95,31.3899,257.11,38.63c92.49,7.7699,185.49,5.4199,277.54-6.38c84.11-10.78,167.8901-27.5701,248.07-55.53
					c75.5-26.3301,148.22-62.65,210.3201-113.47c4.21-3.4401,8.36-6.9601,12.45-10.54
					C1401.3384,1349.8241,1400.7583,1352.1741,1400.1783,1354.5341z"/>
				<path class="st1" d="M1471.0183,1093.2141c-19.1799,63.49-36.75,127.41-53.35,191.63c-4,15.49-7.91,31.01-11.77,46.54
					c-0.25,0.1599-0.49,0.35-0.73,0.5699c-59.0701,54.1801-130.33,93.49-204.9401,121.9399
					c-77.1,29.39-157.9399,47.53-239.41,59.7301c-90.53,13.5599-182.24,18.35-273.66,13.0699c-45.8-2.64-91.37-8.01-136.82-14.1799
					c-41.43-5.63-82.74-12.2301-123.74-20.4401c-39.72-7.95-79.04-17.59-118-28.66c-41.16-11.6899-81.21-26.08-121.5-40.37
					c-9.8-3.47-19.56-6.99-29.43-10.25c0-0.0399-0.01-0.09-0.02-0.13c-15.75-67.2899-31.57-134.58-45.86-202.2
					c-3.89-18.37-7.74-36.76-11.66-55.12c0.12,0.01,0.24,0.02,0.36,0.03c13.84,0.9099,27.59-0.15,41.38-1.26
					c13.96-1.12,27.82-1.86,41.8-0.49c22.11,2.1699,43.87,7.1899,65.07,13.75c40.45,12.51,78.93,30.5,119.18,43.5599
					c41.28,13.39,84.38,22.13,127.05,29.72c86.45,15.4,174.28,22.7001,262.06,23.29c89.42,0.59,178.84-5.8199,267.36-18.4299
					c86.96-12.38,173.16-30.8201,257.48-55.4701c8.4301-2.47,16.8301-5,25.2201-7.59c-0.28,3.99-0.5601,7.99-0.8401,11.98
					c-0.13,1.8101,0.7101,2.98,1.9,3.52c-1.36,10.1801,6.5601,18.8199,16.15,22.27c13.96,5.03,27.63,0.47,36.6-11.11
					c10.3201-13.3301,12.63-31.01,14.08-47.3c0.4301-4.84,0.8201-9.6799,1.1901-14.53
					C1408.8783,1131.1841,1441.5684,1114.8041,1471.0183,1093.2141z"/>
				<path class="st2" d="M1559.3083,955.9941c-5.74,31.14-19.8,59.76-40.23,84.4901c-12.4301,15.0599-26.75,28.38-42.2001,40.2999
					c-0.7-0.5699-1.9299-0.47-2.28,0.66c-0.1399,0.47-0.2899,0.9401-0.4299,1.41c-14.3201,10.8199-29.5601,20.46-45.13,29.21
					c-17.0699,9.59-34.66,18.2001-52.28,26.72c0.65-9.74,1.1901-19.49,1.66-29.24c16.92-9.98,33.59-20.38,50.37-30.59
					c16.2-9.87,32.54-19.55,48.3099-30.1c27.9401-18.67,55.53-40.65,72.4401-70.28
					C1553.6984,971.2941,1556.9384,963.7241,1559.3083,955.9941z"/>
				<path class="st2" d="M1309.5083,1144.524c-0.26,5.02-0.5499,10.03-0.87,15.05c-0.29,4.63-0.6,9.26-0.9199,13.88
					c-82.0801,25.72-165.9901,45.39-250.9,59.13c-88.26,14.29-177.6,22.23-267.01,23.35c-88.44,1.12-177.1-4.4-264.51-18.11
					c-42.47-6.67-84.66-15.24-126.28-25.99c-41.31-10.67-80.27-27.85-120.23-42.46c-36.66-13.4-75.95-25.03-115.35-24.3201
					c-13.24,0.24-26.36,2.03-39.56,2.87c-8.52,0.54-17.02,0.5601-25.48,0c-7.43-0.48-14.84-1.4099-22.2-2.8099
					c-9.62-1.8301-19.2-3.9601-28.72-6.24c-0.16-0.38-0.41-0.76-0.76-1.11c-6.27-6.38-10.26-14.3401-12.13-23.0801
					c-1.35-6.28-1.02-12.09-0.27-18.03c2.1,6.3201,6.12,12.1101,11.97,16.9801c15.81,13.1699,36.37,13.47,55.88,11.3999
					c24.2-2.5699,47.43-4.1899,71.7-1.11c47.76,6.0601,93.55,22.9301,139.81,35.48c45.07,12.2301,90.62,22.66,136.51,31.28
					c90.94,17.0801,183.21,27.15,275.68,30.1801c93.35,3.0599,186.94-1.0601,279.65-12.35
					c91.87-11.1901,182.87-29.3401,271.92-54.5701C1288.1583,1150.9041,1298.8483,1147.7642,1309.5083,1144.524z"/>
				<path class="st2" d="M50.9383,1028.7941c2.51,6.03,0.88,12.6-2.18,19.1c-17.16-17.75-29.48-39.34-36.42-63.0099
					c5.65,11.99,13.33,22.98,23.24,32.24C40.2983,1021.5341,45.4483,1025.4241,50.9383,1028.7941z"/>
				<path class="st1" d="M55.8183,1031.6141c0.27,0.15,0.54,0.2999,0.81,0.4399c3.17,1.6801,5.96-3.0499,2.82-4.8199
					c-2.71-1.53-5.32-3.1801-7.81-4.95c-27.57-19.55-41.79-53.24-43.67-86.66c-0.33-5.79-0.3-11.52,0.07-17.17
					c2.24-34.35,16.99-65.98,39.87-92.33c29.4-33.86,68.51-57.73,108.41-77.28c45.77-22.42,93.65-40.55,142.41-55.3
					c98.6-29.82,200.97-45.4901,303.53-53.26c104.4301-7.9,209.81-9.25,314.32-2.03c105.63,7.29,210.9,24.2,312.18,55.53
					c12.5,3.87,24.92,7.96,37.28,12.25c1.79,6.53,3.52,13.07,5.2,19.63c-89.6899-34.35-184.74-52.14-280.2-60.74
					c-98.27-8.85-197.48-9.03-296.03-5.9901c-95.25,2.93-190.73,10.84-284.15,30.31c-45.99,9.58-91.42,22.02-135.57,38.08
					c-42.7,15.53-85.55,33.82-124.26,57.79c-33.02,20.44-65.84,47.61-81.51,84.13c-7.54,17.55-10.37,36.61-7.57,55.56
					c3.3,22.36,14.28,42.73,26.79,61.2401c6.12,9.05,13.37,17.36,20.44,25.67c0.27,0.33,0.62,0.49,0.96,0.53
					c5.92,14.35-5.94,30.96-14.48,41.67c-8.53,10.6901-17.74,21.49-19.07,35.5901c-1.9-1.78-3.46-4.04-4.63-6.89
					c-0.18-0.4401-0.89-0.28-0.74,0.2c1.15,3.7001,3.09,6.74,5.56,9.21c0,0.01,0,0.01,0.01,0.01c0.22,0.4,0.55,0.6901,0.94,0.89
					c5.4,4.86,12.97,7.3101,20.43,8.13c7.16,0.78,14.37,0.3201,21.51-0.36c10.81-1.03,21.61-1.64,32.47-1.5699
					c44.38,0.2699,87.94,9.26,130.78,20.1799c42.46,10.8301,84.59,22.7101,127.39,32.15c42.16,9.3,84.65,17.04,127.38,23.23
					c85.73,12.41,172.36,18.61,258.99,18.55c86.67-0.05,173.3-6.4501,259.04-19.0801c80.1599-11.8199,162.3799-26.51,238-56.5299
					c5.8099-2.3101,11.58-4.7301,17.2799-7.28c-0.2899,8.8099-0.65,17.63-1.09,26.4399c-0.17,0.02-0.35,0.0701-0.53,0.12
					c-87.86,26.75-177.73,46.6901-268.65,59.67c-91.35,13.04-183.7399,18.99-276.0099,17.98c-92.68-1.01-185.3-9.08-276.73-24.28
					c-45.28-7.5399-90.29-16.7999-134.86-27.7899c-45.21-11.15-89.45-25.9-134.67-36.88c-22.03-5.34-44.5-9.4-67.18-10.27
					c-11.6-0.45-23.16,0.0599-34.69,1.37c-11.92,1.35-23.91,3.29-35.94,2.67c-17.58-0.9-40.98-11.4301-42.12-31.5
					c-0.05-0.89-0.06-1.8-0.02-2.7301c0.51-11.8099,7.9-21.72,13.01-32.3099c2.14-4.41,3.87-8.9301,4.55-13.76
					C56.4383,1036.4341,56.3583,1033.9541,55.8183,1031.6141z"/>
				<path class="st1" d="M1540.4883,862.1741c12.6801,22.85,18.9,48.91,15.7201,74.22c-1.3601,10.78-4.41,21.41-9.4,31.61
					c-14.4601,29.6-40.62,51.77-67.15,70.32c-32.51,22.72-67.28,42.13-100.85,63.23c0.1699-3.65,0.34-7.2999,0.5-10.95
					c0.28-6.22,0.53-12.4401,0.74-18.66c23.12-15.3099,47.5-28.49,68.72-46.58c21.79-18.58,40.24-41.4,50.4301-68.38
					c9.73-25.76,11.75-54.95,1.22-80.79c-10.59-26-31.1801-45.35-52.41-62.87c-25.09-20.72-51.8199-44.53-83.77-53.5
					c-1.6-10.6-3.33-21.18-5.2-31.74c16.3099,8.12,33.42,14.68,49.62,23.14c17.37,9.07,34.29,19.04,50.5,30.05
					C1490.7483,802.7441,1521.6984,828.3041,1540.4883,862.1741z"/>
				<path class="st3" d="M1371.7184,976.6241c0.59,32.2,0.35,64.41-0.6001,96.61c-0.34,11.52-0.77,23.0399-1.2899,34.5599
					c-0.11,2.38-0.2201,4.75-0.3301,7.13c-0.46,9.67-0.7,19.48-1.1599,29.29c-0.0601,0.3-0.0701,0.61-0.04,0.9299c0,0,0,0.01,0,0.02
					c-0.52,11.0701-1.3201,22.13-3.01,32.9401c-2.3101,14.84-8.91,35.45-26.39,37.7c-11.17,1.4501-27.6-5.15-27.76-17.6899
					c1.5601-0.4301,2.9501-1.6801,3.1901-3.6801c0.71-5.78,1.37-11.5699,1.98-17.36c1.27-11.9399,2.34-23.9,3.21-35.89
					c0.91-12.39,1.61-24.79,2.11-37.21c2.6-64,0-128.36-6.7-191.76c-6.4301-60.78-16.96-121.13-31.79-180.41
					c-2.58-10.3799-5.2999-20.73-8.16-31.04c-5.38-19.42-11.23-38.72-17.5499-57.86c-29.13-88.19-68.17-173.12-116.48-252.45
					c-43.41-71.28-94.16-139.95-157.1-195.26c-59.23-52.04-130.27-92.59-209.04-104.43c-9.1801-1.38-17.88-1.96-27.08-1.57
					c-0.34-0.72-1.02-1.26-1.98-1.25c-7.1801,0.09-14.22-0.19-21.31,0.92c-6.77,1.06-13.5,2.3-20.2,3.72
					c-11.84,2.51-23.58,5.57-35.07,9.39c-17.7,5.88-34.82,13.25-51.69,21.18c-42.9,20.14-81.74,47.12-115.53,80.38
					c-74.66,73.53-120.76,170.58-143.01,272.14c-13.81,63.04-19.03,127.73-18.69,192.18c0.01,2.57,1.45,4.23,3.29,4.97
					c-9.91,2.53-19.79,5.2-29.63,8c-3.42,0.97-6.83,1.96-10.23,2.97c0.78-0.91,1.28-2.12,1.32-3.64
					c1.97-78.46,7.3-157.19,23.2-234.18c15.22-73.7,40.57-145.04,78.23-210.33c39.89-69.16,90.96-132.48,160.65-173.2
					c62.33-36.42,134.73-54.2,206.85-50.24c36.93,2.03,73.45,9.84,108.11,22.75c37.13,13.82,70.92,33.95,102.8,57.3
					c61.5001,45.05,116.7599,98.73,164.0099,158.52c47.3501,59.91,86.4701,126.36,116.4501,196.56
					c34.99,81.94,61.33,167.65,78.72,255.02c1.5601,7.85,3.05,15.71,4.46,23.58
					C1363.3583,808.6641,1370.1884,892.6141,1371.7184,976.6241z"/>
			</g>
		</g>
	</g>
</g>
<g id="Layer_3">
	<g>
		<g>
			<path d="M1112.267,945.101c-57.291-16.2328-116.3021-27.2401-175.2899-35.1121c-58.9645-7.8689-118.3268-12.198-177.8082-13.0078
				c-118.5541-1.6138-237.412,10.396-353.2659,35.6095c-65.0089,14.148-129.9332,31.9221-192.0916,55.7947
				c-4.656,1.7882-2.7655,9.2883,2.0976,7.6088c56.2687-19.4321,112.7968-37.3275,170.7297-51.1991
				c57.5019-13.7684,115.8195-24.2711,174.5444-31.1812c117.5071-13.827,236.518-14.0182,354.1175-1.0908
				c66.265,7.2843,131.5649,19.4959,196.6343,33.7833C1112.7168,946.4781,1113.0457,945.3216,1112.267,945.101L1112.267,945.101z"/>
		</g>
	</g>
</g>
<g id="Layer_2_copy">
	<g>
		<g>
			<g>
				<path d="M745.7479,87.9415c-7.1763,0.0936-14.2215-0.1866-21.3136,0.9237c-6.7637,1.0589-13.4999,2.2942-20.1967,3.7163
					c-11.8403,2.5143-23.5764,5.5728-35.0659,9.3888c-17.7035,5.8799-34.8249,13.2558-51.6977,21.1788
					c-42.8947,20.1423-81.7377,47.1199-115.5215,80.3893c-74.6601,73.5233-120.7616,170.5733-143.0136,272.1396
					c-13.8096,63.0322-19.0276,127.7255-18.6885,192.1736c0.0381,7.237,11.2905,7.2523,11.25,0
					c-0.6204-111.1013,15.4059-224.9226,64.8127-325.5267c41.82-85.1556,107.3444-160.4745,192.7072-203.7935
					c18.2618-9.2673,37.0483-17.8044,56.3409-24.6914c12.0115-4.2878,24.2419-8.0493,36.612-11.1567
					c7.0599-1.7734,14.1717-3.3378,21.3226-4.6988c7.8237-1.4891,15.2957-3.7723,23.0595-5.5546
					C748.8775,91.8513,748.3123,87.9081,745.7479,87.9415L745.7479,87.9415z"/>
			</g>
		</g>
		<g>
			<g>
				<path d="M1309.1011,1194.1036c-4.2498,11.7975,4.4211,22.2448,15.1949,26.1229c13.9644,5.0265,27.6366,0.4658,36.6023-11.1118
					c10.3192-13.3257,12.6323-31.0126,14.0808-47.2961c2.1062-23.6759,3.2745-47.4713,4.33-71.2147
					c4.2399-95.3889,2.3142-191.0912-8.9897-285.9612c-11.0415-92.6675-31.2026-184.0668-61.2916-272.4355
					c-27.0183-79.3507-61.2112-156.0753-107.0875-226.4005c-42.9596-65.8539-94.7932-126.2025-154.0327-177.9448
					c-30.1428-26.3279-62.1334-51.6531-96.4754-72.3089c-34.2001-20.5704-71.5629-36.0984-110.4026-45.3481
					C768.0801-7.1679,690.475-2.2615,620.2967,24.1773c-35.1802,13.2537-68.3752,31.5103-98.2729,54.3125
					c-33.5155,25.5613-61.7038,56.792-86.4764,90.7708c-46.9438,64.3895-81.8331,136.8442-103.9169,213.3628
					c-22.0998,76.574-31.7529,156.1949-36.0719,235.5953c-1.1222,20.6305-1.8757,41.2788-2.3921,61.9329
					c-0.1905,7.6193,11.6456,7.6155,11.8359,0c1.9614-78.454,7.2986-157.1845,23.1978-234.1782
					c15.2199-73.7043,40.5635-145.0414,78.2247-210.3322c39.8916-69.1576,90.9633-132.4766,160.652-173.198
					c62.3273-36.4199,134.7348-54.1955,206.8477-50.2356c36.9382,2.0283,73.4542,9.838,108.1137,22.7433
					c37.1318,13.8259,70.9233,33.9521,102.7978,57.2997c61.501,45.0486,116.761,98.731,164.0166,158.5283
					c47.3427,59.9074,86.4648,126.358,116.4458,196.5585c34.9916,81.9332,61.3268,167.6501,78.7241,255.0168
					c17.9874,90.3304,26.0121,182.259,27.696,274.2739c0.8439,46.1072-0.0151,92.2385-2.2196,138.2982
					c-1.0005,20.9054-0.9806,42.4752-4.209,63.1799c-2.3138,14.839-8.9153,35.4458-26.3942,37.7029
					c-12.1321,1.5667-30.4546-6.3433-27.4219-21.051C1311.7958,1193.1981,1309.6373,1192.6154,1309.1011,1194.1036
					L1309.1011,1194.1036z"/>
			</g>
		</g>
		<g>
			<g>
				<path d="M745.3741,91.5827c4.549,1.3173,9.1512,3.2167,13.7949,4.0571c5.0875,0.9207,10.2543,1.4599,15.3508,2.364
					c9.7058,1.7218,19.3378,3.8595,28.8621,6.4001c19.1462,5.1073,37.9348,11.4879,56.0536,19.5311
					c35.7209,15.857,68.7122,37.1223,98.7311,62.0819c62.7847,52.203,113.5002,117.4417,157.321,185.9247
					c49.4248,77.2407,89.952,160.095,120.5542,246.537c30.3838,85.8255,51.317,175.0599,62.5984,265.3975
					c11.4203,91.4497,12.978,183.7531,7.6879,275.7027c-0.6685,11.6199-1.4402,23.2319-2.1051,34.8521
					c-0.3837,6.7062,10.9855,8.4368,11.9124,1.6122c12.63-92.9998,11.3591-188.7268,1.5983-281.9357
					c-9.6699-92.3407-28.7543-183.688-57.9229-271.8594c-29.132-88.0607-68.1047-172.9244-116.3264-252.1698
					c-43.4767-71.4475-94.4005-140.449-157.6077-195.7463c-59.7029-52.2315-131.3339-93.3646-210.688-104.9571
					c-4.7404-0.6925-9.571-1.5394-14.3555-1.8227c-4.9768-0.2947-10.1364,0.6544-15.0853,1.2686
					C744.2607,89.005,743.7358,91.1083,745.3741,91.5827L745.3741,91.5827z"/>
			</g>
		</g>
		<g>
			<g>
				<path d="M109.5661,1010.9729c7.2019,14.6355-5.1161,31.9119-13.9076,42.9373c-8.7621,10.9888-18.2334,22.0726-19.1602,36.7223
					c-0.2178,3.4425,5.1503,3.4338,5.3594,0c1.0442-17.1516,15.6019-28.5498,24.1858-42.1396
					c7.0404-11.146,13.3228-26.2657,5.2225-38.5135C110.564,1008.9177,109.0067,1009.836,109.5661,1010.9729L109.5661,1010.9729z"/>
			</g>
		</g>
		<g>
			<g>
				<path d="M71.2172,1082.8179c3.6893,11.8379,15.4468,16.9758,26.9377,18.2357c7.1589,0.7849,14.369,0.3179,21.5169-0.3638
					c10.8042-1.0305,21.6052-1.6327,32.4625-1.5669c44.3862,0.2692,87.9434,9.2584,130.7814,20.1826
					c42.4583,10.8273,84.5886,22.7042,127.3943,32.1486c42.1546,9.3008,84.6519,17.0449,127.3748,23.2296
					c85.7371,12.4115,172.3667,18.6116,258.9979,18.5548c86.6619-0.0569,173.2982-6.4498,259.0331-19.0887
					c80.1653-11.818,162.3843-26.5015,238.007-56.5297c8.3016-3.2964,16.5073-6.8281,24.5867-10.6373
					c4.708-2.2198,0.6045-9.1998-4.0851-6.9888c-34.4633,16.2489-71.3044,27.4888-108.1169,37.0273
					c-39.0933,10.1296-78.7957,18.0143-118.5939,24.8064c-84.0134,14.3379-169.1356,22.3306-254.3339,24.3107
					c-85.1504,1.9789-170.4163-2.1735-254.9708-12.4246c-84.805-10.2814-168.4909-27.1245-251.0035-49.1407
					c-41.0467-10.9521-82.1686-22.2745-124.3598-27.9122c-20.7101-2.7673-41.5579-4.0948-62.4442-3.0597
					c-16.5429,0.8198-33.1018,4.4119-49.6497,1.8948c-8.4745-1.2891-15.3749-4.5092-18.7962-12.8817
					C71.7747,1082.1719,71.0666,1082.3347,71.2172,1082.8179L71.2172,1082.8179z"/>
			</g>
		</g>
		<g>
			<g>
				<path d="M111.9272,1009.5928c-23.2683-35.982-51.3022-75.1058-40.5248-120.3393c9.1826-38.54,40.5884-67.9631,72.2412-89.4039
					c36.7872-24.9186,78.6525-43.3665,120.0095-59.2243c42.8577-16.4332,87.0179-29.3478,131.7822-39.4355
					c90.9135-20.4877,184.0443-29.3647,277.0359-33.0462c95.6045-3.7849,191.8798-4.0075,287.3556,2.7034
					c96.4389,6.7785,192.837,22.0623,284.3973,53.8638c11.2135,3.8948,22.3328,8.0495,33.3677,12.4241
					c5.0391,1.9976,7.2262-6.1439,2.2389-8.121c-92.2051-36.5532-190.2852-55.2228-288.7972-64.0914
					c-98.2649-8.8463-197.4717-9.0266-296.0258-5.9927c-95.2521,2.9322-190.7337,10.8449-284.1515,30.3094
					c-45.9853,9.5815-91.4129,22.0241-135.5701,38.084c-42.6971,15.5289-85.5481,33.8244-124.2559,57.7899
					c-33.0207,20.4444-65.839,47.6144-81.5149,84.1272c-7.538,17.5578-10.3712,36.6154-7.5706,55.5651
					c3.3044,22.3583,14.2862,42.7308,26.7931,61.2363c6.1184,9.0529,13.3737,17.3579,20.4408,25.6718
					C110.4639,1013.2255,113.0018,1011.2546,111.9272,1009.5928L111.9272,1009.5928z"/>
			</g>
		</g>
		<g>
			<g>
				<path d="M1361.7562,762.5956c27.0634,11.8561,50.1581,29.7631,72.8646,48.356c20.4408,16.7375,41.209,34.7767,53.9388,58.3566
					c27.408,50.769-0.6033,108.9507-38.2267,145.6574c-22.8221,22.2659-49.7386,41.5861-77.6968,56.8383
					c-2.427,1.324-0.1066,5.2296,2.153,3.6832c24.6504-16.87,51.1381-30.6531,73.9784-50.1227
					c21.7916-18.5756,40.2443-41.396,50.4355-68.3824c9.7275-25.7582,11.7439-54.9482,1.2177-80.7924
					c-10.5881-25.9962-31.1797-45.3459-52.4091-62.8699c-25.4027-20.9688-52.4833-45.1174-84.9491-53.8228
					C1361.275,759.0177,1359.9463,761.8027,1361.7562,762.5956L1361.7562,762.5956z"/>
			</g>
		</g>
		<g>
			<g>
				<path d="M59.4459,1027.2389c-32.7001-18.4028-49.4229-55.1793-51.4817-91.6143
					c-2.3149-40.9678,13.3045-78.8088,39.9428-109.4966c29.3979-33.8669,68.5115-57.7382,108.4138-77.2849
					c45.7671-22.4196,93.6505-40.5509,142.4099-55.2963c98.6004-29.8179,200.9701-45.4972,303.5292-53.2592
					c104.4258-7.9033,209.8124-9.2495,314.3142-2.0373c105.6309,7.2901,210.9003,24.2014,312.1797,55.5367
					c12.6042,3.8997,25.1343,8.0301,37.5964,12.362c4.7303,1.6443,6.7626-5.8542,2.0643-7.4882
					c-102.6401-35.698-210.0055-55.9542-318.1072-65.5729c-108.0786-9.6167-217.1924-9.2448-325.4228-2.2632
					c-104.8655,6.7646-209.7516,21.1968-310.9792,50.0042c-50.1527,14.2725-99.3201,32.1044-146.6451,54.0316
					c-41.5713,19.2614-82.6912,42.1975-115.1719,75.0361C23.2504,839.0525,3.0725,875.504,0.3342,916.895
					c-2.4054,36.3589,8.0539,74.8134,35.2469,100.2321c6.3191,5.9067,13.4116,10.8817,21.0494,14.9284
					C59.7953,1033.7322,62.587,1029.0066,59.4459,1027.2389L59.4459,1027.2389z"/>
			</g>
		</g>
		<g>
			<g>
				<path d="M1354.8215,725.9423c17.5559,9.1386,36.2411,16.0918,53.833,25.2773c17.3723,9.0708,34.2958,19.0437,50.5076,30.0594
					c31.5856,21.4623,62.5344,47.0242,81.3276,80.8945c18.0731,32.5724,23.0166,71.6804,6.3235,105.8295
					c-14.4681,29.5976-40.6228,51.7761-67.1561,70.3229c-34.5532,24.1526-71.652,44.5508-107.1635,67.2299
					c-3.4847,2.2256-0.3486,7.6869,3.2571,5.5721c17.8323-10.459,35.3792-21.4275,53.0376-32.1776
					c16.2026-9.8639,32.5378-19.5461,48.3112-30.0927c27.9342-18.6777,55.5332-40.6488,72.4343-70.2816
					c18.5032-32.4417,18.9695-70.3832,4.6729-104.5466c-15.1394-36.1774-43.9282-64.0404-74.8958-87.0695
					c-18.7618-13.9523-38.5942-26.6602-59.328-37.4832c-20.0596-10.4712-41.7529-21.5002-63.9814-26.3333
					C1354.3813,722.7913,1353.2091,725.103,1354.8215,725.9423L1354.8215,725.9423z"/>
			</g>
		</g>
		<g>
			<g>
				<path d="M48.8332,1025.1406c10.8156,14.4434-7.6619,32.9916-13.1416,46.2417c-6.4957,15.7069-2.5287,31.3262,10.5946,42.2531
					c15.8133,13.1667,36.3716,13.4706,55.8863,11.3978c24.196-2.5699,47.4237-4.1891,71.6992-1.1095
					c47.7517,6.0579,93.5463,22.9292,139.8102,35.481c45.0658,12.2268,90.6159,22.6609,136.5083,31.28
					c90.9395,17.0797,183.2036,27.1522,275.6818,30.1809c93.3498,3.0573,186.9355-1.0614,279.6512-12.3519
					c91.8673-11.1871,182.8695-29.343,271.9156-54.5737c11.3279-3.2096,22.6206-6.5404,33.8839-9.9697
					c4.499-1.3698,2.5811-8.4453-1.9481-7.0663c-87.8527,26.7483-177.7305,46.688-268.6432,59.6681
					c-91.3568,13.0435-183.743,18.9966-276.017,17.9854c-92.6792-1.0156-185.2926-9.0791-276.7239-24.2878
					c-45.2867-7.5331-90.2893-16.798-134.8636-27.7878c-45.2088-11.1462-89.4446-25.9014-134.6726-36.8741
					c-22.0257-5.3438-44.4927-9.3988-67.1798-10.2776c-11.6007-0.4495-23.1575,0.0593-34.6891,1.3716
					c-11.921,1.3566-23.9047,3.2892-35.9419,2.6707c-18.3515-0.943-43.0639-12.386-42.131-34.2246
					c0.7147-16.7321,15.2468-29.6396,17.5595-46.0713c0.854-6.0676-0.7268-11.2706-4.6618-15.9238
					C50.2222,1021.748,47.7121,1023.6435,48.8332,1025.1406L48.8332,1025.1406z"/>
			</g>
		</g>
		<g>
			<g>
				<path d="M42.5929,1143.0417c31.5342,13.9794,64.0601,15.7877,97.9598,13.1056c14.1261-1.1177,28.1624-1.9841,42.3127-0.6567
					c21.4982,2.0167,42.6992,6.8622,63.3294,13.1385c40.4797,12.3153,78.9377,30.297,119.1102,43.5061
					c41.2267,13.5557,84.3117,22.3567,126.9759,30.0258c86.9466,15.6288,175.3108,23.0973,263.6209,23.7454
					c89.5992,0.6575,179.195-5.7363,267.8962-18.3121c87.3401-12.3827,173.9297-30.8463,258.6225-55.5422
					c10.4192-3.0382,20.8075-6.1801,31.1694-9.4078c7.7399-2.4109,4.4204-14.6407-3.3583-12.1815
					c-83.0466,26.2548-167.9688,46.288-253.9429,60.2064c-88.0853,14.2603-177.2454,22.1626-266.476,23.2937
					c-88.2651,1.119-176.7601-4.3568-263.997-18.035c-42.4685-6.6588-84.6541-15.2284-126.2797-25.9768
					c-41.3114-10.6672-80.2645-27.8508-120.2328-42.4597c-36.8146-13.4561-76.2937-25.0991-115.8684-24.3783
					c-13.2436,0.2412-26.358,2.0597-39.5593,2.9336c-15.8286,1.0479-31.6124,0.3148-47.2191-2.6064
					c-10.5507-1.9749-21.0863-4.0948-31.5985-6.2457C41.7461,1136.5167,39.0786,1141.4838,42.5929,1143.0417L42.5929,1143.0417z"/>
			</g>
		</g>
		<g>
			<g>
				<path d="M34.0652,1087.2819c-5.9648,7.4493-6.9716,18.8274-5.7362,27.9491c1.4116,10.4227,6.1562,19.9353,13.3651,27.5619
					c3.145,3.3271,8.2406-1.7566,5.0271-5.0271c-6.2742-6.3853-10.2636-14.345-12.1337-23.0785
					c-1.9759-9.2278-0.3422-17.443,0.9401-26.5541C35.632,1087.3918,34.6853,1086.5074,34.0652,1087.2819L34.0652,1087.2819z"/>
			</g>
		</g>
		<g>
			<g>
				<path d="M1561.0963,937.4251c-1.9497,18.9144-6.033,37.46-13.6932,54.9159c-7.4652,17.0115-17.449,32.8687-29.319,47.1484
					c-24.6055,29.6003-56.521,52.3939-89.926,71.0712c-19.2167,10.7444-39.0857,20.2628-58.9214,29.7944
					c-6.4509,3.0999-0.8064,12.8138,5.6307,9.6332c36.1444-17.86,72.3065-35.9435,104.2256-60.8511
					c30.8197-24.0498,57.7537-53.9865,73.425-90.1594c8.3529-19.2801,13.6644-40.4624,12.3517-61.5526
					C1564.7168,934.9681,1561.343,935.0311,1561.0963,937.4251L1561.0963,937.4251z"/>
			</g>
		</g>
		<g>
			<g>
				<path d="M4.2889,904.2131c-5.9459,25.1813-3.812,53.8444,2.7076,78.7177c7.0063,26.73,20.785,51.168,40.2666,70.7808
					c2.3345,2.3501,5.9859-1.2993,3.635-3.635c-19.2411-19.1171-32.6936-42.9154-39.6548-69.1039
					c-3.3239-12.5046-5.2361-25.3298-5.8105-38.2537c-0.5686-12.7943,0.6626-25.4105,1.4342-38.1569
					C6.9564,903.0851,4.6278,902.7779,4.2889,904.2131L4.2889,904.2131z"/>
			</g>
		</g>
		<g>
			<g>
				<path d="M96.4068,1153.613c10.7782,65.9706,24.927,131.3286,39.5879,196.5286c4.8335,21.4956,9.7138,42.9807,14.5904,64.4666
					c1.0424,4.5925,8.1432,2.6505,7.0664-1.9481c-15.7563-67.2855-31.5752-134.5757-45.8643-202.1919
					c-4.0669-19.2446-8.096-38.4939-12.2164-57.7273C99.1226,1150.6484,96.0726,1151.5671,96.4068,1153.613L96.4068,1153.613z"/>
			</g>
		</g>
		<g>
			<g>
				<path d="M1473.2299,1081.0671c-22.2462,66.892-41.4978,134.542-59.5387,202.6759
					c-6.1311,23.1547-11.9417,46.3849-17.6798,69.6399c-2.665,10.8004,14.0471,15.4104,16.6639,4.594
					c17.8077-73.6058,35.9235-147.1311,53.417-220.8101c4.3151-18.1741,8.495-36.3701,12.6218-54.5878
					C1479.5253,1078.9984,1474.3846,1077.5945,1473.2299,1081.0671L1473.2299,1081.0671z"/>
			</g>
		</g>
		<g>
			<g>
				<path d="M152.959,1415.6174c38.9394,20.2517,81.4833,34.3236,123.1957,47.7377
					c39.4728,12.6938,79.5485,23.3236,120.0372,32.2488c84.5147,18.6301,171.112,31.428,257.3434,38.6847
					c92.4951,7.7839,185.4883,5.4333,277.5426-6.36c84.1917-10.7861,168.0564-27.5679,248.3224-55.5588
					c75.6608-26.385,148.5027-62.7749,210.7317-113.7042c7.6365-6.2499,15.0795-12.7258,22.3541-19.3928
					c5.3666-4.9185-2.6337-12.8866-7.9814-7.9814c-58.9482,54.0686-130.072,93.3152-204.5226,121.7006
					c-77.0973,29.3944-157.9414,47.5414-239.4058,59.743c-90.449,13.5474-182.0836,18.3174-273.4156,13.0515
					c-45.7231-2.6362-91.2143-7.9785-136.5823-14.1378c-41.4308-5.6249-82.7419-12.2179-123.7439-20.4254
					c-39.7263-7.9523-79.0289-17.6193-118.0104-28.6431c-41.1763-11.6444-81.1635-26.1643-121.538-40.2146
					c-10.8394-3.7721-21.5948-7.5599-32.5572-10.9462C152.2677,1410.6589,150.6317,1414.407,152.959,1415.6174L152.959,1415.6174z"
					/>
			</g>
		</g>
		<g>
			<g>
				<path d="M151.4289,1414.3755c5.7446,42.0576,13.4088,83.7966,20.8375,125.5818c7.531,42.3601,15.0667,84.7219,22.8222,127.0416
					c15.5,84.579,31.1298,169.1344,46.4287,253.7501c8.5075,47.0533,16.9102,94.1257,25.122,141.2317
					c1.0375,5.9512,10.1074,3.4299,9.0703-2.5005c-14.7108-84.1213-30.0293-168.1348-45.4679-252.125
					c-15.5432-84.5594-31.2644-169.0861-46.81-253.645c-8.6376-46.9833-16.6536-94.0935-26.6239-140.8175
					C156.0408,1409.2982,150.958,1410.9283,151.4289,1414.3755L151.4289,1414.3755z"/>
			</g>
		</g>
		<g>
			<g>
				<path d="M1407.9288,1334.9507c-3.5417,4.8905-5.2429,9.0264-7.0104,14.7947c-1.7589,5.7406-3.152,11.5287-4.5492,17.3671
					c-2.7871,11.6459-5.5743,23.2916-8.3615,34.9375c-5.5797,23.3141-10.6903,46.71-15.7659,70.1387
					c-10.2271,47.2074-19.9629,94.5071-29.6851,141.8209c-19.3802,94.3154-38.7605,188.631-58.1409,282.9464
					c-10.8638,52.8695-21.7117,105.7422-32.5646,158.6139c-1.068,5.2029,1.5104,10.6348,6.8752,12.1089
					c4.8558,1.3345,11.0521-1.6389,12.109-6.8752c19.1212-94.7324,38.2303-189.4673,57.3322-284.2037
					c19.0363-94.4106,38.7406-188.7163,56.7694-283.3245c5.0593-26.5493,10.3093-53.0638,14.7986-79.7159
					c2.2203-13.1815,4.4407-26.3629,6.661-39.5443c1.1268-6.6899,2.4536-13.3721,3.1483-20.1217
					c0.3328-3.2335,0.9316-6.5505,1.0305-9.7954c0.0944-3.0933-0.7523-5.981-1.4474-8.9904
					C1408.99,1334.5092,1408.2366,1334.5258,1407.9288,1334.9507L1407.9288,1334.9507z"/>
			</g>
		</g>
		<g>
			<g>
				<path d="M268.1158,2061.5737c2.869,8.6321,5.7099,17.6196,9.9262,25.6953c4.3033,8.2422,8.915,16.3184,13.8437,24.2031
					c9.7374,15.5774,21.6339,30.0818,33.8959,43.7283c24.9596,27.7778,53.7879,51.9482,85.03,72.364
					c69.812,45.6201,150.9139,71.3848,232.9527,83.6995c85.9932,12.9082,175.0072,14.27,261.1098,1.6558
					c77.9133-11.4148,153.8118-37.3726,221.1853-78.4312c58.7659-35.813,108.1091-85.8125,135.9172-149.3833
					c3.8085-8.7065,7.2985-17.5376,10.4231-26.5122c1.7867-5.1321-2.0361-11.0063-7.0281-12.3781
					c-5.5151-1.5154-10.6165,1.8663-12.3781,7.0282c-21.5647,63.188-63.2646,116.0559-117.6791,154.3391
					c-61.0123,42.925-132.1592,70.4834-205.1569,84.5908c-82.6752,15.9778-168.9695,16.5015-252.5002,7.3374
					c-81.5731-8.9495-163.1165-30.2014-234.7556-71.0869c-62.6133-35.7341-116.3886-85.8164-154.2955-147.3298
					c-4.6117-7.4836-10.0016-14.5076-14.6931-21.9644C272.0703,2056.2004,266.9386,2058.0315,268.1158,2061.5737L268.1158,2061.5737
					z"/>
			</g>
		</g>
	</g>
</g>
</svg>
